G04 Layer: BottomPasteMaskLayer*
G04 EasyEDA v6.3.53, 2020-07-01T10:41:51+08:00*
G04 0114f2f07f584de3a350028a8d8a4532,2a3559ba94084103b258dd4c46581d95,10*
G04 Gerber Generator version 0.2*
G04 Scale: 100 percent, Rotated: No, Reflected: No *
G04 Dimensions in inches *
G04 leading zeros omitted , absolute positions ,2 integer and 4 decimal *
%FSLAX24Y24*%
%MOIN*%
G90*
G70D02*


%LPD*%
G36*
G01X8977Y5241D02*
G01X8477Y5241D01*
G01X8477Y4741D01*
G01X8977Y4741D01*
G01X8977Y5241D01*
G37*
G36*
G01X12305Y4104D02*
G01X12305Y4025D01*
G01X13014Y4025D01*
G01X13014Y4104D01*
G01X12305Y4104D01*
G37*
G36*
G01X12305Y4301D02*
G01X12305Y4222D01*
G01X13014Y4222D01*
G01X13014Y4301D01*
G01X12305Y4301D01*
G37*
G36*
G01X12305Y4498D02*
G01X12305Y4419D01*
G01X13014Y4419D01*
G01X13014Y4498D01*
G01X12305Y4498D01*
G37*
G36*
G01X12305Y4695D02*
G01X12305Y4616D01*
G01X13014Y4616D01*
G01X13014Y4695D01*
G01X12305Y4695D01*
G37*
G36*
G01X12305Y4892D02*
G01X12305Y4813D01*
G01X13014Y4813D01*
G01X13014Y4892D01*
G01X12305Y4892D01*
G37*
G36*
G01X12305Y5088D02*
G01X12305Y5010D01*
G01X13014Y5010D01*
G01X13014Y5088D01*
G01X12305Y5088D01*
G37*
G36*
G01X12305Y5285D02*
G01X12305Y5206D01*
G01X13014Y5206D01*
G01X13014Y5285D01*
G01X12305Y5285D01*
G37*
G36*
G01X12305Y5482D02*
G01X12305Y5403D01*
G01X13014Y5403D01*
G01X13014Y5482D01*
G01X12305Y5482D01*
G37*
G36*
G01X12305Y5679D02*
G01X12305Y5600D01*
G01X13014Y5600D01*
G01X13014Y5679D01*
G01X12305Y5679D01*
G37*
G36*
G01X12305Y5876D02*
G01X12305Y5797D01*
G01X13014Y5797D01*
G01X13014Y5876D01*
G01X12305Y5876D01*
G37*
G36*
G01X12305Y6073D02*
G01X12305Y5994D01*
G01X13014Y5994D01*
G01X13014Y6073D01*
G01X12305Y6073D01*
G37*
G36*
G01X12305Y6269D02*
G01X12305Y6191D01*
G01X13014Y6191D01*
G01X13014Y6269D01*
G01X12305Y6269D01*
G37*
G36*
G01X12305Y6577D02*
G01X12305Y6435D01*
G01X13014Y6435D01*
G01X13014Y6577D01*
G01X12305Y6577D01*
G37*
G36*
G01X12305Y3864D02*
G01X12305Y3714D01*
G01X13014Y3714D01*
G01X13014Y3864D01*
G01X12305Y3864D01*
G37*
M00*
M02*
