G04 Layer: TopPasteMaskLayer*
G04 EasyEDA v6.3.53, 2020-07-01T10:41:51+08:00*
G04 0114f2f07f584de3a350028a8d8a4532,2a3559ba94084103b258dd4c46581d95,10*
G04 Gerber Generator version 0.2*
G04 Scale: 100 percent, Rotated: No, Reflected: No *
G04 Dimensions in inches *
G04 leading zeros omitted , absolute positions ,2 integer and 4 decimal *
%FSLAX24Y24*%
%MOIN*%
G90*
G70D02*

%ADD10C,0.009843*%
%ADD17R,0.135830X0.135830*%
%ADD18R,0.011810X0.023620*%
%ADD19R,0.023620X0.011810*%
%ADD20R,0.070866X0.007874*%
%ADD24R,0.031496X0.019685*%
%ADD25R,0.062992X0.039370*%
%ADD26R,0.011811X0.017717*%
%ADD27R,0.090551X0.059055*%
%ADD28R,0.023620X0.025590*%
%ADD29R,0.025590X0.023620*%
%ADD30R,0.019685X0.031496*%
%ADD31R,0.023622X0.016535*%
%ADD32R,0.023622X0.015748*%

%LPD*%
G54D10*
G01X6453Y3997D02*
G01X6453Y3820D01*
G01X6257Y3997D02*
G01X6257Y3820D01*
G01X6060Y3997D02*
G01X6060Y3820D01*
G01X5863Y3997D02*
G01X5863Y3820D01*
G01X5666Y3997D02*
G01X5666Y3820D01*
G01X5666Y4922D02*
G01X5666Y5099D01*
G01X5863Y4922D02*
G01X5863Y5099D01*
G01X6060Y4922D02*
G01X6060Y5099D01*
G01X6257Y4922D02*
G01X6257Y5099D01*
G01X6453Y4922D02*
G01X6453Y5099D01*
G54D17*
G01X9210Y5361D03*
G54D18*
G01X8521Y6361D03*
G01X8717Y6361D03*
G01X8914Y6361D03*
G01X9111Y6361D03*
G01X9308Y6361D03*
G01X9505Y6361D03*
G01X9702Y6361D03*
G01X9899Y6361D03*
G54D19*
G01X10210Y6050D03*
G01X10210Y5853D03*
G01X10210Y5656D03*
G01X10210Y5459D03*
G01X10210Y5262D03*
G01X10210Y5065D03*
G01X10210Y4868D03*
G01X10210Y4672D03*
G54D18*
G01X9898Y4361D03*
G01X9702Y4361D03*
G01X9505Y4361D03*
G01X9308Y4361D03*
G01X9111Y4361D03*
G01X8914Y4361D03*
G01X8717Y4361D03*
G01X8521Y4361D03*
G54D19*
G01X8210Y4672D03*
G01X8210Y4868D03*
G01X8210Y5065D03*
G01X8210Y5262D03*
G01X8210Y5459D03*
G01X8210Y5656D03*
G01X8210Y5853D03*
G01X8210Y6050D03*
G54D20*
G01X12660Y6230D03*
G01X12660Y6033D03*
G01X12660Y5836D03*
G01X12660Y5640D03*
G01X12660Y5443D03*
G01X12660Y5246D03*
G01X12660Y5049D03*
G01X12660Y4852D03*
G01X12660Y4655D03*
G01X12660Y4458D03*
G01X12660Y4262D03*
G01X12660Y4065D03*
G36*
G01X12305Y6577D02*
G01X12305Y6435D01*
G01X13014Y6435D01*
G01X13014Y6577D01*
G01X12305Y6577D01*
G37*
G36*
G01X12305Y3864D02*
G01X12305Y3714D01*
G01X13014Y3714D01*
G01X13014Y3864D01*
G01X12305Y3864D01*
G37*
G36*
G01X4822Y5667D02*
G01X4822Y5352D01*
G01X5097Y5352D01*
G01X5097Y5667D01*
G01X4822Y5667D01*
G37*
G36*
G01X4822Y4958D02*
G01X4822Y4643D01*
G01X5097Y4643D01*
G01X5097Y4958D01*
G01X4822Y4958D01*
G37*
G54D24*
G01X10730Y6301D03*
G01X10730Y5907D03*
G01X6609Y5363D03*
G01X6609Y5756D03*
G54D25*
G01X7460Y6209D03*
G54D26*
G01X7720Y5825D03*
G01X7460Y5825D03*
G01X7200Y5825D03*
G01X7200Y6593D03*
G01X7460Y6593D03*
G01X7720Y6593D03*
G54D27*
G01X6060Y4459D03*
G54D28*
G01X4927Y6109D03*
G01X4593Y6109D03*
G54D29*
G01X4210Y4942D03*
G01X4210Y5276D03*
G01X10710Y4776D03*
G01X10710Y4442D03*
G54D24*
G01X6710Y6112D03*
G01X6710Y6506D03*
G54D30*
G01X7363Y5309D03*
G01X7756Y5309D03*
G01X6056Y5409D03*
G01X5663Y5409D03*
G54D31*
G01X5486Y5853D03*
G01X5486Y6109D03*
G01X5486Y6365D03*
G01X6234Y6365D03*
G01X6234Y6109D03*
G01X6234Y5853D03*
G54D32*
G01X5210Y4297D03*
G01X5210Y4021D03*
M00*
M02*
