G04 Layer: TopLayer*
G04 EasyEDA v6.3.53, 2020-07-01T10:41:51+08:00*
G04 0114f2f07f584de3a350028a8d8a4532,2a3559ba94084103b258dd4c46581d95,10*
G04 Gerber Generator version 0.2*
G04 Scale: 100 percent, Rotated: No, Reflected: No *
G04 Dimensions in inches *
G04 leading zeros omitted , absolute positions ,2 integer and 4 decimal *
%FSLAX24Y24*%
%MOIN*%
G90*
G70D02*

%ADD10C,0.009843*%
%ADD11C,0.010000*%
%ADD12C,0.020000*%
%ADD13C,0.015000*%
%ADD14C,0.006000*%
%ADD15C,0.008000*%
%ADD16C,0.024000*%
%ADD17R,0.135830X0.135830*%
%ADD18R,0.011810X0.023620*%
%ADD19R,0.023620X0.011810*%
%ADD20R,0.070866X0.007874*%
%ADD24R,0.031496X0.019685*%
%ADD25R,0.062992X0.039370*%
%ADD26R,0.011811X0.017717*%
%ADD27R,0.090551X0.059055*%
%ADD28R,0.023620X0.025590*%
%ADD29R,0.025590X0.023620*%
%ADD30R,0.019685X0.031496*%
%ADD31R,0.023622X0.016535*%
%ADD32R,0.023622X0.015748*%

%LPD*%
G54D11*
G01X4210Y4942D02*
G01X4210Y4711D01*
G01X4899Y4021D01*
G01X5210Y4021D01*
G01X4210Y5276D02*
G01X4404Y5276D01*
G01X4520Y5161D01*
G01X4520Y4701D01*
G01X4923Y4297D01*
G01X5210Y4297D01*
G01X4960Y4801D02*
G01X4700Y5061D01*
G01X4700Y5701D01*
G01X4927Y5928D01*
G01X4927Y6109D01*
G01X4960Y5509D02*
G01X5351Y5509D01*
G01X5440Y5421D01*
G01X5440Y5221D01*
G01X5649Y5011D01*
G01X5666Y5011D01*
G54D12*
G01X10710Y4443D02*
G01X10710Y4370D01*
G01X10480Y4140D01*
G01X10056Y4140D01*
G01X10056Y4175D01*
G54D11*
G01X8914Y6361D02*
G01X8914Y6574D01*
G01X9000Y6659D01*
G01X9180Y6659D01*
G01X9308Y6531D01*
G01X9308Y6361D01*
G01X6060Y4459D02*
G01X6514Y4459D01*
G01X7363Y5309D01*
G01X6610Y5167D02*
G01X6610Y5230D01*
G01X6700Y5320D01*
G01X6980Y5320D01*
G01X700Y7399D02*
G01X5560Y7411D01*
G01X5560Y7361D01*
G01X500Y7599D02*
G01X5660Y7611D01*
G01X400Y7799D02*
G01X5810Y7811D01*
G01X10910Y2861D02*
G01X700Y2869D01*
G01X1210Y2661D02*
G01X650Y2669D01*
G01X11210Y2661D02*
G01X1210Y2661D01*
G01X600Y2469D02*
G01X11310Y2461D01*
G01X200Y5959D02*
G01X200Y4459D01*
G01X600Y5959D02*
G01X600Y7309D01*
G01X600Y4459D02*
G01X600Y2959D01*
G01X400Y5959D02*
G01X400Y7509D01*
G01X200Y5959D02*
G01X200Y7609D01*
G01X400Y3009D02*
G01X400Y4459D01*
G01X200Y4459D02*
G01X200Y2859D01*
G01X400Y5959D02*
G01X400Y4459D01*
G01X600Y5959D02*
G01X600Y4459D01*
G01X11940Y2799D02*
G01X11880Y2859D01*
G01X11880Y7279D01*
G01X11980Y7379D01*
G01X12000Y7379D01*
G01X11710Y7661D02*
G01X11700Y7651D01*
G01X11700Y2559D01*
G01X11510Y7636D02*
G01X11510Y2709D01*
G01X11410Y7811D02*
G01X6124Y7811D01*
G01X6124Y7837D01*
G01X11310Y7509D02*
G01X11310Y2804D01*
G01X11110Y7409D02*
G01X11110Y2861D01*
G01X10910Y2861D01*
G54D13*
G01X9898Y4361D02*
G01X9898Y4332D01*
G01X10056Y4175D01*
G01X9900Y4330D02*
G01X9900Y4671D01*
G01X9210Y5361D01*
G54D14*
G01X10730Y5907D02*
G01X10415Y6222D01*
G01X10071Y6222D01*
G01X9210Y5361D01*
G01X10730Y6301D02*
G01X10730Y6576D01*
G01X10848Y6695D01*
G54D11*
G01X10239Y5661D02*
G01X10518Y5661D01*
G01X10700Y5479D01*
G54D14*
G01X6142Y3628D02*
G01X6210Y3559D01*
G01X8960Y3559D01*
G01X9310Y3909D01*
G01X9310Y4330D01*
G54D11*
G01X8520Y6051D02*
G01X8520Y6151D01*
G01X8361Y6309D01*
G01X7709Y6309D01*
G01X7709Y6209D01*
G01X7460Y6209D01*
G54D13*
G01X6710Y6113D02*
G01X7460Y6113D01*
G01X7460Y6209D01*
G54D11*
G01X7200Y5825D02*
G01X7200Y5769D01*
G01X7360Y5609D01*
G01X7560Y5609D01*
G01X7756Y5412D01*
G01X7756Y5309D01*
G54D14*
G01X8180Y5061D02*
G01X8062Y5061D01*
G01X6909Y3909D01*
G01X6453Y3909D01*
G54D11*
G01X7363Y5309D02*
G01X7363Y5356D01*
G01X6992Y5726D01*
G01X6610Y5726D01*
G01X7200Y6593D02*
G01X7200Y6821D01*
G01X7110Y6911D01*
G01X6710Y6511D02*
G01X7110Y6911D01*
G01X7608Y6911D01*
G01X7720Y6799D01*
G01X7720Y6593D01*
G01X8180Y6050D02*
G01X7999Y6050D01*
G01X7910Y5961D01*
G01X7910Y5462D01*
G01X7756Y5309D01*
G01X5210Y4297D02*
G01X5372Y4459D01*
G01X6060Y4459D01*
G01X5210Y4021D02*
G01X5210Y3559D01*
G54D14*
G01X9700Y6391D02*
G01X9700Y6759D01*
G54D11*
G01X6760Y6759D02*
G01X6925Y6759D01*
G01X6925Y6759D01*
G54D14*
G01X5666Y3908D02*
G01X5666Y3665D01*
G01X5560Y3559D01*
G01X5862Y3908D02*
G01X5862Y3456D01*
G01X5910Y3409D01*
G01X9110Y3909D02*
G01X9110Y4330D01*
G01X6257Y3908D02*
G01X6257Y3762D01*
G01X6339Y3680D01*
G01X8880Y3680D01*
G01X9110Y3909D01*
G01X6060Y3908D02*
G01X6060Y3709D01*
G01X6141Y3627D01*
G01X6060Y4459D02*
G01X5960Y4459D01*
G01X5666Y4766D01*
G01X5666Y5011D01*
G54D11*
G01X5486Y6109D02*
G01X5360Y6109D01*
G01X5260Y6209D01*
G01X5210Y6259D01*
G01X5210Y6409D01*
G01X5210Y6609D01*
G01X5310Y6709D01*
G01X5486Y6365D02*
G01X5486Y6485D01*
G01X5710Y6709D01*
G01X6453Y5010D02*
G01X6610Y5166D01*
G01X6610Y5392D01*
G01X6610Y5726D02*
G01X6578Y5726D01*
G01X6450Y5853D01*
G54D13*
G01X6234Y5853D02*
G01X6450Y5853D01*
G01X6710Y6112D01*
G54D15*
G01X6234Y6109D02*
G01X6360Y6109D01*
G01X6451Y6201D01*
G01X6451Y6273D01*
G01X6684Y6506D01*
G01X6710Y6506D01*
G54D10*
G01X6060Y5011D02*
G01X6057Y5409D01*
G01X5863Y5010D02*
G01X5863Y5209D01*
G01X5663Y5409D01*
G01X6210Y6366D02*
G01X6116Y6366D01*
G01X5960Y6209D01*
G01X5960Y5759D01*
G01X6057Y5663D01*
G01X6057Y5409D01*
G54D11*
G01X5486Y5853D02*
G01X5663Y5676D01*
G01X5663Y5409D01*
G01X6010Y7136D02*
G01X6010Y6609D01*
G01X5760Y6359D01*
G01X5760Y5909D01*
G01X5703Y5853D01*
G01X5486Y5853D01*
G54D10*
G01X6410Y7161D02*
G01X6210Y6961D01*
G01X6210Y6366D01*
G01X6234Y6366D01*
G54D14*
G01X8710Y6761D02*
G01X8720Y6751D01*
G01X8720Y6391D01*
G54D11*
G01X7360Y6211D02*
G01X7460Y6311D01*
G01X7460Y6593D01*
G01X8520Y6391D02*
G01X8520Y6051D01*
G01X9210Y5361D01*
G01X7756Y5309D02*
G01X7756Y5056D01*
G01X7660Y4959D01*
G01X7961Y5261D01*
G01X8180Y5261D01*
G01X10239Y5461D02*
G01X10350Y5461D01*
G01X10690Y5120D01*
G01X5860Y7411D02*
G01X6210Y7411D01*
G01X11110Y7409D01*
G01X10967Y7411D02*
G01X11010Y7411D01*
G01X11510Y7711D02*
G01X11510Y7636D01*
G01X5560Y7361D02*
G01X5560Y7336D01*
G01X5685Y7211D02*
G01X5935Y7211D01*
G01X400Y2919D02*
G01X400Y3019D01*
G54D14*
G01X8180Y4671D02*
G01X8160Y4650D01*
G01X8160Y4461D01*
G01X8720Y4330D02*
G01X8720Y4121D01*
G01X8610Y4011D01*
G01X8561Y4011D01*
G01X8510Y3959D01*
G01X8910Y4330D02*
G01X8910Y4011D01*
G01X8860Y3961D01*
G54D11*
G01X6010Y7611D02*
G01X11208Y7611D01*
G54D10*
G01X10310Y4459D02*
G01X10310Y4601D01*
G01X10240Y4671D02*
G01X10604Y4671D01*
G01X10710Y4776D01*
G54D14*
G01X5060Y6959D02*
G01X4960Y6959D01*
G01X4593Y6593D01*
G01X4593Y6109D01*
G54D11*
G01X12120Y6239D02*
G01X12120Y4079D01*
G54D10*
G01X6453Y3997D02*
G01X6453Y3820D01*
G01X6257Y3997D02*
G01X6257Y3820D01*
G01X6060Y3997D02*
G01X6060Y3820D01*
G01X5863Y3997D02*
G01X5863Y3820D01*
G01X5666Y3997D02*
G01X5666Y3820D01*
G01X5666Y4922D02*
G01X5666Y5099D01*
G01X5863Y4922D02*
G01X5863Y5099D01*
G01X6060Y4922D02*
G01X6060Y5099D01*
G01X6257Y4922D02*
G01X6257Y5099D01*
G01X6453Y4922D02*
G01X6453Y5099D01*
G54D17*
G01X9210Y5361D03*
G54D18*
G01X8521Y6361D03*
G01X8717Y6361D03*
G01X8914Y6361D03*
G01X9111Y6361D03*
G01X9308Y6361D03*
G01X9505Y6361D03*
G01X9702Y6361D03*
G01X9899Y6361D03*
G54D19*
G01X10210Y6050D03*
G01X10210Y5853D03*
G01X10210Y5656D03*
G01X10210Y5459D03*
G01X10210Y5262D03*
G01X10210Y5065D03*
G01X10210Y4868D03*
G01X10210Y4672D03*
G54D18*
G01X9898Y4361D03*
G01X9702Y4361D03*
G01X9505Y4361D03*
G01X9308Y4361D03*
G01X9111Y4361D03*
G01X8914Y4361D03*
G01X8717Y4361D03*
G01X8521Y4361D03*
G54D19*
G01X8210Y4672D03*
G01X8210Y4868D03*
G01X8210Y5065D03*
G01X8210Y5262D03*
G01X8210Y5459D03*
G01X8210Y5656D03*
G01X8210Y5853D03*
G01X8210Y6050D03*
G54D20*
G01X12660Y6230D03*
G01X12660Y6033D03*
G01X12660Y5836D03*
G01X12660Y5640D03*
G01X12660Y5443D03*
G01X12660Y5246D03*
G01X12660Y5049D03*
G01X12660Y4852D03*
G01X12660Y4655D03*
G01X12660Y4458D03*
G01X12660Y4262D03*
G01X12660Y4065D03*
G36*
G01X12305Y6577D02*
G01X12305Y6435D01*
G01X13014Y6435D01*
G01X13014Y6577D01*
G01X12305Y6577D01*
G37*
G36*
G01X12305Y3864D02*
G01X12305Y3714D01*
G01X13014Y3714D01*
G01X13014Y3864D01*
G01X12305Y3864D01*
G37*
G36*
G01X4822Y5667D02*
G01X4822Y5352D01*
G01X5097Y5352D01*
G01X5097Y5667D01*
G01X4822Y5667D01*
G37*
G36*
G01X4822Y4958D02*
G01X4822Y4643D01*
G01X5097Y4643D01*
G01X5097Y4958D01*
G01X4822Y4958D01*
G37*
G54D24*
G01X10730Y6301D03*
G01X10730Y5907D03*
G01X6609Y5363D03*
G01X6609Y5756D03*
G54D25*
G01X7460Y6209D03*
G54D26*
G01X7720Y5825D03*
G01X7460Y5825D03*
G01X7200Y5825D03*
G01X7200Y6593D03*
G01X7460Y6593D03*
G01X7720Y6593D03*
G54D27*
G01X6060Y4459D03*
G54D28*
G01X4927Y6109D03*
G01X4593Y6109D03*
G54D29*
G01X4210Y4942D03*
G01X4210Y5276D03*
G01X10710Y4776D03*
G01X10710Y4442D03*
G54D24*
G01X6710Y6112D03*
G01X6710Y6506D03*
G54D30*
G01X7363Y5309D03*
G01X7756Y5309D03*
G01X6056Y5409D03*
G01X5663Y5409D03*
G54D31*
G01X5486Y5853D03*
G01X5486Y6109D03*
G01X5486Y6365D03*
G01X6234Y6365D03*
G01X6234Y6109D03*
G01X6234Y5853D03*
G54D32*
G01X5210Y4297D03*
G01X5210Y4021D03*
G54D11*
G75*
G01X11410Y7811D02*
G02X11510Y7711I0J-100D01*
G01*
G54D10*
G75*
G01X10310Y4601D02*
G03X10240Y4671I-70J0D01*
G01*
G54D11*
G75*
G01X11209Y7611D02*
G02X11310Y7510I0J-101D01*
G01*
G75*
G01X5860Y7761D02*
G03X6010Y7611I150J0D01*
G01*
G75*
G01X5810Y7811D02*
G02X5860Y7761I0J-50D01*
G01*
G75*
G01X5760Y7511D02*
G03X5860Y7411I100J0D01*
G01*
G75*
G01X5660Y7611D02*
G02X5760Y7511I0J-100D01*
G01*
G75*
G01X600Y2970D02*
G03X700Y2870I100J0D01*
G01*
G75*
G01X600Y7300D02*
G02X700Y7400I100J0D01*
G01*
G75*
G01X650Y2670D02*
G02X400Y2920I0J250D01*
G01*
G75*
G01X5560Y7336D02*
G03X5685Y7211I125J0D01*
G01*
G75*
G01X5935Y7211D02*
G02X6010Y7136I0J-75D01*
G01*
G75*
G01X11310Y2804D02*
G02X11167Y2661I-143J0D01*
G01*
G75*
G01X9913Y4344D02*
G03X9900Y4331I0J-13D01*
G01*
G75*
G01X400Y7500D02*
G02X500Y7600I100J0D01*
G01*
G75*
G01X200Y2870D02*
G03X600Y2470I400J0D01*
G01*
G75*
G01X200Y7600D02*
G02X400Y7800I200J0D01*
G01*
G75*
G01X11260Y2460D02*
G03X11510Y2710I0J250D01*
G01*
G54D16*
G01X8710Y6761D03*
G01X10310Y4459D03*
G01X10480Y4139D03*
G01X12000Y7379D03*
G01X11940Y2799D03*
G01X11760Y7639D03*
G01X11700Y2559D03*
G01X6123Y7836D03*
G01X10848Y6695D03*
G01X7660Y4959D03*
G01X8610Y5911D03*
G01X10690Y5120D03*
G01X10700Y5479D03*
G01X6410Y7161D03*
G01X8160Y4461D03*
G01X8510Y3959D03*
G01X8860Y3961D03*
G01X5710Y6709D03*
G01X5910Y3409D03*
G01X5560Y3559D03*
G01X6760Y6759D03*
G01X9700Y6759D03*
G01X5060Y6959D03*
G01X5210Y3559D03*
G01X6980Y5319D03*
G01X5310Y6709D03*
G01X12120Y6239D03*
G01X12120Y4079D03*
M00*
M02*
