G04 Layer: TopSolderMaskLayer*
G04 EasyEDA v6.3.53, 2020-07-01T10:41:51+08:00*
G04 0114f2f07f584de3a350028a8d8a4532,2a3559ba94084103b258dd4c46581d95,10*
G04 Gerber Generator version 0.2*
G04 Scale: 100 percent, Rotated: No, Reflected: No *
G04 Dimensions in inches *
G04 leading zeros omitted , absolute positions ,2 integer and 4 decimal *
%FSLAX24Y24*%
%MOIN*%
G90*
G70D02*

%ADD42C,0.017843*%
%ADD43C,0.032000*%
%ADD47R,0.074804X0.011812*%

%LPD*%
G54D42*
G01X6453Y3997D02*
G01X6453Y3820D01*
G01X6257Y3997D02*
G01X6257Y3820D01*
G01X6060Y3997D02*
G01X6060Y3820D01*
G01X5863Y3997D02*
G01X5863Y3820D01*
G01X5666Y3997D02*
G01X5666Y3820D01*
G01X5666Y4922D02*
G01X5666Y5099D01*
G01X5863Y4922D02*
G01X5863Y5099D01*
G01X6060Y4922D02*
G01X6060Y5099D01*
G01X6257Y4922D02*
G01X6257Y5099D01*
G01X6453Y4922D02*
G01X6453Y5099D01*
G54D43*
G01X8710Y6761D03*
G01X10310Y4459D03*
G01X10480Y4139D03*
G36*
G01X8491Y4642D02*
G01X8491Y6080D01*
G01X9928Y6080D01*
G01X9928Y4642D01*
G01X8491Y4642D01*
G37*
G36*
G01X8422Y6203D02*
G01X8422Y6519D01*
G01X8620Y6519D01*
G01X8620Y6203D01*
G01X8422Y6203D01*
G37*
G36*
G01X8619Y6203D02*
G01X8619Y6519D01*
G01X8817Y6519D01*
G01X8817Y6203D01*
G01X8619Y6203D01*
G37*
G36*
G01X8816Y6203D02*
G01X8816Y6519D01*
G01X9014Y6519D01*
G01X9014Y6203D01*
G01X8816Y6203D01*
G37*
G36*
G01X9012Y6203D02*
G01X9012Y6519D01*
G01X9211Y6519D01*
G01X9211Y6203D01*
G01X9012Y6203D01*
G37*
G36*
G01X9209Y6203D02*
G01X9209Y6519D01*
G01X9407Y6519D01*
G01X9407Y6203D01*
G01X9209Y6203D01*
G37*
G36*
G01X9406Y6203D02*
G01X9406Y6519D01*
G01X9603Y6519D01*
G01X9603Y6203D01*
G01X9406Y6203D01*
G37*
G36*
G01X9603Y6203D02*
G01X9603Y6519D01*
G01X9801Y6519D01*
G01X9801Y6203D01*
G01X9603Y6203D01*
G37*
G36*
G01X9800Y6203D02*
G01X9800Y6519D01*
G01X9998Y6519D01*
G01X9998Y6203D01*
G01X9800Y6203D01*
G37*
G36*
G01X10052Y5951D02*
G01X10052Y6149D01*
G01X10368Y6149D01*
G01X10368Y5951D01*
G01X10052Y5951D01*
G37*
G36*
G01X10052Y5753D02*
G01X10052Y5951D01*
G01X10368Y5951D01*
G01X10368Y5753D01*
G01X10052Y5753D01*
G37*
G36*
G01X10052Y5557D02*
G01X10052Y5755D01*
G01X10368Y5755D01*
G01X10368Y5557D01*
G01X10052Y5557D01*
G37*
G36*
G01X10052Y5359D02*
G01X10052Y5559D01*
G01X10368Y5559D01*
G01X10368Y5359D01*
G01X10052Y5359D01*
G37*
G36*
G01X10052Y5163D02*
G01X10052Y5362D01*
G01X10368Y5362D01*
G01X10368Y5163D01*
G01X10052Y5163D01*
G37*
G36*
G01X10052Y4967D02*
G01X10052Y5165D01*
G01X10368Y5165D01*
G01X10368Y4967D01*
G01X10052Y4967D01*
G37*
G36*
G01X10052Y4770D02*
G01X10052Y4968D01*
G01X10368Y4968D01*
G01X10368Y4770D01*
G01X10052Y4770D01*
G37*
G36*
G01X10052Y4573D02*
G01X10052Y4771D01*
G01X10368Y4771D01*
G01X10368Y4573D01*
G01X10052Y4573D01*
G37*
G36*
G01X9800Y4203D02*
G01X9800Y4519D01*
G01X9998Y4519D01*
G01X9998Y4203D01*
G01X9800Y4203D01*
G37*
G36*
G01X9603Y4203D02*
G01X9603Y4519D01*
G01X9801Y4519D01*
G01X9801Y4203D01*
G01X9603Y4203D01*
G37*
G36*
G01X9406Y4203D02*
G01X9406Y4519D01*
G01X9603Y4519D01*
G01X9603Y4203D01*
G01X9406Y4203D01*
G37*
G36*
G01X9209Y4203D02*
G01X9209Y4519D01*
G01X9407Y4519D01*
G01X9407Y4203D01*
G01X9209Y4203D01*
G37*
G36*
G01X9012Y4203D02*
G01X9012Y4519D01*
G01X9211Y4519D01*
G01X9211Y4203D01*
G01X9012Y4203D01*
G37*
G36*
G01X8816Y4203D02*
G01X8816Y4519D01*
G01X9014Y4519D01*
G01X9014Y4203D01*
G01X8816Y4203D01*
G37*
G36*
G01X8619Y4203D02*
G01X8619Y4519D01*
G01X8817Y4519D01*
G01X8817Y4203D01*
G01X8619Y4203D01*
G37*
G36*
G01X8422Y4203D02*
G01X8422Y4519D01*
G01X8620Y4519D01*
G01X8620Y4203D01*
G01X8422Y4203D01*
G37*
G36*
G01X8052Y4573D02*
G01X8052Y4771D01*
G01X8368Y4771D01*
G01X8368Y4573D01*
G01X8052Y4573D01*
G37*
G36*
G01X8052Y4770D02*
G01X8052Y4968D01*
G01X8368Y4968D01*
G01X8368Y4770D01*
G01X8052Y4770D01*
G37*
G36*
G01X8052Y4967D02*
G01X8052Y5165D01*
G01X8368Y5165D01*
G01X8368Y4967D01*
G01X8052Y4967D01*
G37*
G36*
G01X8052Y5164D02*
G01X8052Y5362D01*
G01X8368Y5362D01*
G01X8368Y5164D01*
G01X8052Y5164D01*
G37*
G36*
G01X8052Y5359D02*
G01X8052Y5559D01*
G01X8368Y5559D01*
G01X8368Y5359D01*
G01X8052Y5359D01*
G37*
G36*
G01X8052Y5557D02*
G01X8052Y5755D01*
G01X8368Y5755D01*
G01X8368Y5557D01*
G01X8052Y5557D01*
G37*
G36*
G01X8052Y5753D02*
G01X8052Y5951D01*
G01X8368Y5951D01*
G01X8368Y5753D01*
G01X8052Y5753D01*
G37*
G36*
G01X8052Y5951D02*
G01X8052Y6149D01*
G01X8368Y6149D01*
G01X8368Y5951D01*
G01X8052Y5951D01*
G37*
G36*
G01X12286Y6172D02*
G01X12286Y6290D01*
G01X13034Y6290D01*
G01X13034Y6172D01*
G01X12286Y6172D01*
G37*
G36*
G01X12286Y5975D02*
G01X12286Y6093D01*
G01X13034Y6093D01*
G01X13034Y5975D01*
G01X12286Y5975D01*
G37*
G54D47*
G01X12660Y5836D03*
G01X12660Y5640D03*
G36*
G01X12286Y5384D02*
G01X12286Y5501D01*
G01X13034Y5501D01*
G01X13034Y5384D01*
G01X12286Y5384D01*
G37*
G36*
G01X12286Y5187D02*
G01X12286Y5305D01*
G01X13034Y5305D01*
G01X13034Y5187D01*
G01X12286Y5187D01*
G37*
G36*
G01X12286Y4990D02*
G01X12286Y5109D01*
G01X13034Y5109D01*
G01X13034Y4990D01*
G01X12286Y4990D01*
G37*
G36*
G01X12286Y4794D02*
G01X12286Y4912D01*
G01X13034Y4912D01*
G01X13034Y4794D01*
G01X12286Y4794D01*
G37*
G36*
G01X12286Y4597D02*
G01X12286Y4715D01*
G01X13034Y4715D01*
G01X13034Y4597D01*
G01X12286Y4597D01*
G37*
G01X12660Y4458D03*
G36*
G01X12286Y4203D02*
G01X12286Y4321D01*
G01X13034Y4321D01*
G01X13034Y4203D01*
G01X12286Y4203D01*
G37*
G36*
G01X12286Y4005D02*
G01X12286Y4124D01*
G01X13034Y4124D01*
G01X13034Y4005D01*
G01X12286Y4005D01*
G37*
G36*
G01X12286Y6416D02*
G01X12286Y6597D01*
G01X13034Y6597D01*
G01X13034Y6416D01*
G01X12286Y6416D01*
G37*
G36*
G01X12286Y3695D02*
G01X12286Y3884D01*
G01X13034Y3884D01*
G01X13034Y3695D01*
G01X12286Y3695D01*
G37*
G36*
G01X4782Y5312D02*
G01X4782Y5707D01*
G01X5138Y5707D01*
G01X5138Y5312D01*
G01X4782Y5312D01*
G37*
G36*
G01X4782Y4603D02*
G01X4782Y4999D01*
G01X5138Y4999D01*
G01X5138Y4603D01*
G01X4782Y4603D01*
G37*
G36*
G01X10532Y6163D02*
G01X10532Y6440D01*
G01X10928Y6440D01*
G01X10928Y6163D01*
G01X10532Y6163D01*
G37*
G36*
G01X10532Y5769D02*
G01X10532Y6046D01*
G01X10928Y6046D01*
G01X10928Y5769D01*
G01X10532Y5769D01*
G37*
G36*
G01X6412Y5225D02*
G01X6412Y5501D01*
G01X6807Y5501D01*
G01X6807Y5225D01*
G01X6412Y5225D01*
G37*
G36*
G01X6412Y5618D02*
G01X6412Y5895D01*
G01X6807Y5895D01*
G01X6807Y5618D01*
G01X6412Y5618D01*
G37*
G36*
G01X7105Y5973D02*
G01X7105Y6447D01*
G01X7815Y6447D01*
G01X7815Y5973D01*
G01X7105Y5973D01*
G37*
G36*
G01X7621Y5697D02*
G01X7621Y5953D01*
G01X7819Y5953D01*
G01X7819Y5697D01*
G01X7621Y5697D01*
G37*
G36*
G01X7361Y5697D02*
G01X7361Y5953D01*
G01X7559Y5953D01*
G01X7559Y5697D01*
G01X7361Y5697D01*
G37*
G36*
G01X7101Y5697D02*
G01X7101Y5953D01*
G01X7299Y5953D01*
G01X7299Y5697D01*
G01X7101Y5697D01*
G37*
G36*
G01X7101Y6465D02*
G01X7101Y6722D01*
G01X7299Y6722D01*
G01X7299Y6465D01*
G01X7101Y6465D01*
G37*
G36*
G01X7361Y6465D02*
G01X7361Y6722D01*
G01X7559Y6722D01*
G01X7559Y6465D01*
G01X7361Y6465D01*
G37*
G36*
G01X7621Y6465D02*
G01X7621Y6722D01*
G01X7819Y6722D01*
G01X7819Y6465D01*
G01X7621Y6465D01*
G37*
G36*
G01X5567Y4125D02*
G01X5567Y4795D01*
G01X6553Y4795D01*
G01X6553Y4125D01*
G01X5567Y4125D01*
G37*
G36*
G01X4769Y5942D02*
G01X4769Y6278D01*
G01X5085Y6278D01*
G01X5085Y5942D01*
G01X4769Y5942D01*
G37*
G36*
G01X4435Y5942D02*
G01X4435Y6278D01*
G01X4751Y6278D01*
G01X4751Y5942D01*
G01X4435Y5942D01*
G37*
G36*
G01X4042Y4784D02*
G01X4042Y5101D01*
G01X4378Y5101D01*
G01X4378Y4784D01*
G01X4042Y4784D01*
G37*
G36*
G01X4042Y5119D02*
G01X4042Y5434D01*
G01X4378Y5434D01*
G01X4378Y5119D01*
G01X4042Y5119D01*
G37*
G36*
G01X10542Y4619D02*
G01X10542Y4934D01*
G01X10878Y4934D01*
G01X10878Y4619D01*
G01X10542Y4619D01*
G37*
G36*
G01X10542Y4284D02*
G01X10542Y4601D01*
G01X10878Y4601D01*
G01X10878Y4284D01*
G01X10542Y4284D01*
G37*
G36*
G01X6513Y5974D02*
G01X6513Y6251D01*
G01X6907Y6251D01*
G01X6907Y5974D01*
G01X6513Y5974D01*
G37*
G36*
G01X6513Y6368D02*
G01X6513Y6645D01*
G01X6907Y6645D01*
G01X6907Y6368D01*
G01X6513Y6368D01*
G37*
G36*
G01X7225Y5112D02*
G01X7225Y5507D01*
G01X7502Y5507D01*
G01X7502Y5112D01*
G01X7225Y5112D01*
G37*
G36*
G01X7618Y5112D02*
G01X7618Y5507D01*
G01X7895Y5507D01*
G01X7895Y5112D01*
G01X7618Y5112D01*
G37*
G36*
G01X5918Y5212D02*
G01X5918Y5607D01*
G01X6195Y5607D01*
G01X6195Y5212D01*
G01X5918Y5212D01*
G37*
G36*
G01X5525Y5212D02*
G01X5525Y5607D01*
G01X5802Y5607D01*
G01X5802Y5212D01*
G01X5525Y5212D01*
G37*
G36*
G01X5328Y5730D02*
G01X5328Y5976D01*
G01X5644Y5976D01*
G01X5644Y5730D01*
G01X5328Y5730D01*
G37*
G36*
G01X5328Y5987D02*
G01X5328Y6232D01*
G01X5644Y6232D01*
G01X5644Y5987D01*
G01X5328Y5987D01*
G37*
G36*
G01X5328Y6243D02*
G01X5328Y6488D01*
G01X5644Y6488D01*
G01X5644Y6243D01*
G01X5328Y6243D01*
G37*
G36*
G01X6076Y6243D02*
G01X6076Y6488D01*
G01X6392Y6488D01*
G01X6392Y6243D01*
G01X6076Y6243D01*
G37*
G36*
G01X6076Y5987D02*
G01X6076Y6232D01*
G01X6392Y6232D01*
G01X6392Y5987D01*
G01X6076Y5987D01*
G37*
G36*
G01X6076Y5730D02*
G01X6076Y5976D01*
G01X6392Y5976D01*
G01X6392Y5730D01*
G01X6076Y5730D01*
G37*
G36*
G01X5052Y4178D02*
G01X5052Y4416D01*
G01X5368Y4416D01*
G01X5368Y4178D01*
G01X5052Y4178D01*
G37*
G36*
G01X5052Y3903D02*
G01X5052Y4141D01*
G01X5368Y4141D01*
G01X5368Y3903D01*
G01X5052Y3903D01*
G37*

%LPD*%
G36*
G01X5610Y5459D02*
G01X5010Y5459D01*
G01X5010Y4859D01*
G01X5610Y4859D01*
G01X5610Y5459D01*
G37*
M00*
M02*
