;Layer: Drill PTH
;EasyEDA v6.3.53, 2020-07-01T10:41:51+08:00
;0114f2f07f584de3a350028a8d8a4532,2a3559ba94084103b258dd4c46581d95,10
;Gerber Generator version 0.2
M48
INCH,LZ,00.0000
;Holesize 1 = 0.012 INCH
T01C0.012
%
G05
G90
T01
X+008710Y+006761
X+010310Y+004459
X+010480Y+004139
X+012000Y+007379
X+011940Y+002799
X+011760Y+007639
X+011700Y+002559
X+006123Y+007836
X+010848Y+006695
X+007660Y+004959
X+008610Y+005911
X+010690Y+005120
X+010700Y+005479
X+006410Y+007161
X+008160Y+004461
X+008510Y+003959
X+008860Y+003961
X+005710Y+006709
X+005910Y+003409
X+005560Y+003559
X+006760Y+006759
X+009700Y+006759
X+005060Y+006959
X+005210Y+003559
X+006980Y+005319
X+005310Y+006709
X+012120Y+006239
X+012120Y+004079
M30
