G04 Layer: BottomLayer*
G04 EasyEDA v6.3.53, 2020-07-01T10:41:51+08:00*
G04 0114f2f07f584de3a350028a8d8a4532,2a3559ba94084103b258dd4c46581d95,10*
G04 Gerber Generator version 0.2*
G04 Scale: 100 percent, Rotated: No, Reflected: No *
G04 Dimensions in inches *
G04 leading zeros omitted , absolute positions ,2 integer and 4 decimal *
%FSLAX24Y24*%
%MOIN*%
G90*
G70D02*

%ADD11C,0.010000*%
%ADD14C,0.006000*%
%ADD16C,0.024000*%
%ADD33C,0.110000*%

%LPD*%
G54D14*
G01X8710Y6761D02*
G01X8710Y6159D01*
G01X8860Y6009D01*
G01X8860Y5709D01*
G01X8760Y5609D01*
G01X7550Y5609D01*
G01X7457Y5517D01*
G01X7160Y5517D01*
G54D11*
G01X300Y7559D02*
G01X300Y2839D01*
G01X565Y2574D02*
G01X580Y2579D01*
G01X11700Y2559D01*
G01X616Y2774D02*
G01X11499Y2761D01*
G01X11540Y2799D01*
G01X11940Y2799D01*
G01X11760Y7640D02*
G01X11700Y7700D01*
G01X6380Y7700D01*
G01X6180Y7500D01*
G01X600Y7499D01*
G01X6123Y7836D02*
G01X6005Y7718D01*
G01X450Y7709D01*
G01X496Y7384D02*
G01X506Y2854D01*
G01X12000Y7380D02*
G01X11600Y7380D01*
G01X11480Y7500D01*
G01X6440Y7500D01*
G01X6410Y7470D01*
G01X6410Y7161D01*
G54D14*
G01X9700Y6759D02*
G01X9287Y6759D01*
G01X8887Y7159D01*
G01X6860Y7159D01*
G01X6560Y6859D01*
G01X6210Y6859D01*
G01X5960Y7109D01*
G01X5210Y7109D01*
G01X5060Y6959D01*
G54D11*
G01X10310Y4459D02*
G01X9973Y4459D01*
G01X9022Y5411D01*
G01X8111Y5411D01*
G01X7660Y4959D01*
G54D14*
G01X7160Y5517D02*
G01X7111Y5565D01*
G01X6053Y5565D01*
G01X5250Y6011D01*
G54D11*
G01X6980Y5319D02*
G01X7300Y5319D01*
G01X7660Y4959D01*
G01X5210Y3559D02*
G01X5242Y3592D01*
G01X5242Y4313D01*
G01X5310Y6709D02*
G01X5560Y6959D01*
G01X5910Y6959D01*
G01X6160Y6709D01*
G01X6710Y6709D01*
G01X6760Y6759D01*
G54D14*
G01X5760Y3659D02*
G01X6009Y3659D01*
G01X6060Y3659D01*
G01X5560Y3559D02*
G01X5660Y3559D01*
G01X5760Y3659D01*
G01X8510Y3959D02*
G01X8210Y3659D01*
G01X6060Y3659D01*
G01X6060Y3659D01*
G01X5910Y3409D02*
G01X5910Y3509D01*
G01X8408Y3509D01*
G01X8860Y3961D01*
G01X8160Y4461D02*
G01X8690Y4991D01*
G01X8726Y4991D01*
G54D11*
G01X5710Y6709D02*
G01X5910Y6709D01*
G01X6409Y6211D01*
G01X8310Y6211D01*
G01X8610Y5911D01*
G01X6760Y6759D02*
G01X6960Y6759D01*
G01X7210Y7009D01*
G01X8810Y7009D01*
G01X9110Y6709D01*
G01X9110Y5709D01*
G01X10040Y4780D01*
G01X10420Y4780D01*
G01X10544Y4655D01*
G01X12660Y4655D01*
G01X12660Y4853D02*
G01X10587Y4853D01*
G01X10100Y5340D01*
G01X10100Y5947D01*
G01X10848Y6695D01*
G01X10690Y5120D02*
G01X10440Y5371D01*
G01X10440Y5599D01*
G01X10620Y5779D01*
G01X11460Y5779D01*
G01X11993Y5246D01*
G01X12660Y5246D01*
G01X12660Y5050D02*
G01X11930Y5050D01*
G01X11400Y5580D01*
G01X11260Y5580D01*
G01X11180Y5500D01*
G01X11180Y5240D01*
G01X11120Y5180D01*
G01X10960Y5180D01*
G01X10960Y5420D01*
G01X10900Y5480D01*
G01X10700Y5480D01*
G01X12660Y6230D02*
G01X12120Y6240D01*
G01X10480Y4139D02*
G01X10554Y4065D01*
G01X12660Y4065D01*
G36*
G01X8977Y5241D02*
G01X8477Y5241D01*
G01X8477Y4741D01*
G01X8977Y4741D01*
G01X8977Y5241D01*
G37*
G36*
G01X12305Y4104D02*
G01X12305Y4025D01*
G01X13014Y4025D01*
G01X13014Y4104D01*
G01X12305Y4104D01*
G37*
G36*
G01X12305Y4301D02*
G01X12305Y4222D01*
G01X13014Y4222D01*
G01X13014Y4301D01*
G01X12305Y4301D01*
G37*
G36*
G01X12305Y4498D02*
G01X12305Y4419D01*
G01X13014Y4419D01*
G01X13014Y4498D01*
G01X12305Y4498D01*
G37*
G36*
G01X12305Y4695D02*
G01X12305Y4616D01*
G01X13014Y4616D01*
G01X13014Y4695D01*
G01X12305Y4695D01*
G37*
G36*
G01X12305Y4892D02*
G01X12305Y4813D01*
G01X13014Y4813D01*
G01X13014Y4892D01*
G01X12305Y4892D01*
G37*
G36*
G01X12305Y5088D02*
G01X12305Y5010D01*
G01X13014Y5010D01*
G01X13014Y5088D01*
G01X12305Y5088D01*
G37*
G36*
G01X12305Y5285D02*
G01X12305Y5206D01*
G01X13014Y5206D01*
G01X13014Y5285D01*
G01X12305Y5285D01*
G37*
G36*
G01X12305Y5482D02*
G01X12305Y5403D01*
G01X13014Y5403D01*
G01X13014Y5482D01*
G01X12305Y5482D01*
G37*
G36*
G01X12305Y5679D02*
G01X12305Y5600D01*
G01X13014Y5600D01*
G01X13014Y5679D01*
G01X12305Y5679D01*
G37*
G36*
G01X12305Y5876D02*
G01X12305Y5797D01*
G01X13014Y5797D01*
G01X13014Y5876D01*
G01X12305Y5876D01*
G37*
G36*
G01X12305Y6073D02*
G01X12305Y5994D01*
G01X13014Y5994D01*
G01X13014Y6073D01*
G01X12305Y6073D01*
G37*
G36*
G01X12305Y6269D02*
G01X12305Y6191D01*
G01X13014Y6191D01*
G01X13014Y6269D01*
G01X12305Y6269D01*
G37*
G36*
G01X12305Y6577D02*
G01X12305Y6435D01*
G01X13014Y6435D01*
G01X13014Y6577D01*
G01X12305Y6577D01*
G37*
G36*
G01X12305Y3864D02*
G01X12305Y3714D01*
G01X13014Y3714D01*
G01X13014Y3864D01*
G01X12305Y3864D01*
G37*
G75*
G01X617Y2774D02*
G02X517Y2874I0J100D01*
G01*
G75*
G01X300Y7560D02*
G02X450Y7710I150J0D01*
G01*
G75*
G01X500Y7400D02*
G02X600Y7500I100J0D01*
G01*
G75*
G01X560Y2580D02*
G02X310Y2830I0J250D01*
G01*
G54D33*
G75*
G01X6160Y5161D02*
G03X6160Y5161I-850J0D01*
G01*
G54D16*
G01X8710Y6761D03*
G01X10310Y4459D03*
G01X10480Y4139D03*
G01X12000Y7379D03*
G01X11940Y2799D03*
G01X11760Y7639D03*
G01X11700Y2559D03*
G01X6123Y7836D03*
G01X10848Y6695D03*
G01X7660Y4959D03*
G01X8610Y5911D03*
G01X10690Y5120D03*
G01X10700Y5479D03*
G01X6410Y7161D03*
G01X8160Y4461D03*
G01X8510Y3959D03*
G01X8860Y3961D03*
G01X5710Y6709D03*
G01X5910Y3409D03*
G01X5560Y3559D03*
G01X6760Y6759D03*
G01X9700Y6759D03*
G01X5060Y6959D03*
G01X5210Y3559D03*
G01X6980Y5319D03*
G01X5310Y6709D03*
G01X12120Y6239D03*
G01X12120Y4079D03*
M00*
M02*
