G04 #@! TF.GenerationSoftware,KiCad,Pcbnew,5.1.6-c6e7f7d~86~ubuntu20.04.1*
G04 #@! TF.CreationDate,2020-07-01T18:46:00+05:00*
G04 #@! TF.ProjectId,Main,4d61696e-2e6b-4696-9361-645f70636258,rev?*
G04 #@! TF.SameCoordinates,Original*
G04 #@! TF.FileFunction,Copper,L2,Bot*
G04 #@! TF.FilePolarity,Positive*
%FSLAX46Y46*%
G04 Gerber Fmt 4.6, Leading zero omitted, Abs format (unit mm)*
G04 Created by KiCad (PCBNEW 5.1.6-c6e7f7d~86~ubuntu20.04.1) date 2020-07-01 18:46:00*
%MOMM*%
%LPD*%
G01*
G04 APERTURE LIST*
G04 #@! TA.AperFunction,SMDPad,CuDef*
%ADD10C,4.000000*%
G04 #@! TD*
G04 #@! TA.AperFunction,SMDPad,CuDef*
%ADD11C,1.000000*%
G04 #@! TD*
G04 #@! TA.AperFunction,ViaPad*
%ADD12C,0.600000*%
G04 #@! TD*
G04 #@! TA.AperFunction,Conductor*
%ADD13C,0.200000*%
G04 #@! TD*
G04 APERTURE END LIST*
D10*
X163830000Y-101600000D03*
D11*
X155956000Y-97790000D03*
D12*
X141986000Y-97536000D03*
X137541000Y-100584000D03*
X141986000Y-100330000D03*
X145034000Y-101092000D03*
X156210000Y-101092000D03*
X169164000Y-99822000D03*
X159258000Y-98736012D03*
X143002000Y-99314000D03*
X144526000Y-99314000D03*
X153669984Y-104648000D03*
X143764000Y-105410000D03*
X165861980Y-97028000D03*
X159258026Y-97028006D03*
X149605994Y-97790000D03*
X167894000Y-105788990D03*
X164846000Y-96266000D03*
X169163988Y-98044000D03*
X161798000Y-96266000D03*
X154470027Y-104648000D03*
X147066000Y-96266000D03*
X155956000Y-96266000D03*
X169164000Y-100838000D03*
X142748000Y-101346000D03*
X156210000Y-104648000D03*
X162052000Y-105918000D03*
X157226000Y-104648000D03*
X161036000Y-105917996D03*
X152069994Y-98552000D03*
X152184000Y-101345791D03*
X152869997Y-98552000D03*
X151384000Y-101346000D03*
X146558000Y-97028000D03*
X153670000Y-97028000D03*
X157223365Y-97677427D03*
X163830000Y-101600012D03*
D13*
X137750000Y-100838000D02*
X137550000Y-100638000D01*
X137750000Y-111240000D02*
X137750000Y-100838000D01*
X173550000Y-91840000D02*
X173550000Y-111240000D01*
X138150000Y-91840000D02*
X173550000Y-91840000D01*
X138150000Y-110840000D02*
X138150000Y-91840000D01*
X173150000Y-110840000D02*
X138150000Y-110840000D01*
X173150000Y-92240000D02*
X173150000Y-110840000D01*
X138550000Y-92240000D02*
X173150000Y-92240000D01*
X138550000Y-110440000D02*
X138550000Y-92240000D01*
X172750000Y-110440000D02*
X138550000Y-110440000D01*
X172750000Y-92640000D02*
X172750000Y-110440000D01*
X139750000Y-93440000D02*
X171950000Y-93440000D01*
X139750000Y-109240000D02*
X139750000Y-93440000D01*
X171550000Y-93840000D02*
X171550000Y-109240000D01*
X140950000Y-94640000D02*
X170750000Y-94640000D01*
X139350000Y-93040000D02*
X172350000Y-93040000D01*
X170350000Y-95040000D02*
X170350000Y-108040000D01*
X170750000Y-108440000D02*
X140550000Y-108440000D01*
X172350000Y-110040000D02*
X138950000Y-110040000D01*
X140150000Y-108840000D02*
X140150000Y-93840000D01*
X141350000Y-95040000D02*
X170350000Y-95040000D01*
X170750000Y-94640000D02*
X170750000Y-108440000D01*
X172350000Y-93040000D02*
X172350000Y-110040000D01*
X171150000Y-108840000D02*
X140150000Y-108840000D01*
X141350000Y-107640000D02*
X141350000Y-95040000D01*
X169950000Y-107640000D02*
X141350000Y-107640000D01*
X169950000Y-95440000D02*
X169950000Y-107640000D01*
X141750000Y-95440000D02*
X169950000Y-95440000D01*
X141750000Y-97300000D02*
X141750000Y-95440000D01*
X173550000Y-111240000D02*
X137750000Y-111240000D01*
X141986000Y-97536000D02*
X141750000Y-97300000D01*
X170350000Y-108040000D02*
X140950000Y-108040000D01*
X171950000Y-109640000D02*
X139350000Y-109640000D01*
X171950000Y-93440000D02*
X171950000Y-109640000D01*
X138950000Y-92640000D02*
X172750000Y-92640000D01*
X140550000Y-94240000D02*
X171150000Y-94240000D01*
X171550000Y-109240000D02*
X139750000Y-109240000D01*
X171150000Y-94240000D02*
X171150000Y-108840000D01*
X138950000Y-110040000D02*
X138950000Y-92640000D01*
X140550000Y-108440000D02*
X140550000Y-94240000D01*
X140150000Y-93840000D02*
X171550000Y-93840000D01*
X140950000Y-108040000D02*
X140950000Y-94640000D01*
X139350000Y-109640000D02*
X139350000Y-93040000D01*
X144272000Y-100330000D02*
X145034000Y-101092000D01*
X141986000Y-100330000D02*
X144272000Y-100330000D01*
X159258032Y-97028000D02*
X159258026Y-97028006D01*
X165861980Y-97028000D02*
X159258032Y-97028000D01*
X167132000Y-97028000D02*
X165861980Y-97028000D01*
X167894000Y-97790000D02*
X167132000Y-97028000D01*
X167894000Y-105788990D02*
X167894000Y-97790000D01*
X143002000Y-99314000D02*
X144526000Y-99314000D01*
X148081994Y-99314000D02*
X149605994Y-97790000D01*
X144526000Y-99314000D02*
X148081994Y-99314000D01*
X154470027Y-104223736D02*
X154470027Y-104648000D01*
X154470027Y-96304027D02*
X154470027Y-104223736D01*
X154431990Y-96265990D02*
X154470027Y-96304027D01*
X154431990Y-96265990D02*
X147066010Y-96265990D01*
X147066010Y-96265990D02*
X147066000Y-96266000D01*
X154431990Y-96265990D02*
X155955990Y-96265990D01*
X155955990Y-96265990D02*
X155956000Y-96266000D01*
X168656000Y-96266000D02*
X155956000Y-96266000D01*
X169164000Y-96774000D02*
X168656000Y-96266000D01*
X169164000Y-98043988D02*
X169164000Y-96774000D01*
X169163988Y-98044000D02*
X169164000Y-98043988D01*
X169164000Y-106172000D02*
X169164000Y-100838000D01*
X168402000Y-106934000D02*
X169164000Y-106172000D01*
X143256000Y-106934000D02*
X168402000Y-106934000D01*
X142748000Y-106426000D02*
X143256000Y-106934000D01*
X142748000Y-101346000D02*
X142748000Y-106426000D01*
X162052000Y-105410000D02*
X162052000Y-105918000D01*
X160689999Y-104047999D02*
X162052000Y-105410000D01*
X156556001Y-104047999D02*
X160689999Y-104047999D01*
X156210000Y-104394000D02*
X156556001Y-104047999D01*
X156210000Y-104648000D02*
X156210000Y-104394000D01*
X161035996Y-105918000D02*
X161036000Y-105917996D01*
X161035996Y-105409996D02*
X161035996Y-105918000D01*
X160274000Y-104648000D02*
X161035996Y-105409996D01*
X159956184Y-104651134D02*
X159984000Y-104648000D01*
X159929764Y-104660378D02*
X159956184Y-104651134D01*
X159761815Y-104894865D02*
X159788235Y-104885621D01*
X159734000Y-104898000D02*
X159761815Y-104894865D01*
X159584000Y-104898000D02*
X159734000Y-104898000D01*
X159529764Y-104885621D02*
X159556184Y-104894865D01*
X159486271Y-104850936D02*
X159506063Y-104870728D01*
X159471378Y-104827235D02*
X159486271Y-104850936D01*
X159462134Y-104800815D02*
X159471378Y-104827235D01*
X159459000Y-104773000D02*
X159462134Y-104800815D01*
X159456492Y-104525748D02*
X159459000Y-104548000D01*
X159862134Y-104745184D02*
X159871378Y-104718764D01*
X159846621Y-104827235D02*
X159855865Y-104800815D01*
X159788235Y-104885621D02*
X159811936Y-104870728D01*
X159449096Y-104504612D02*
X159456492Y-104525748D01*
X159437183Y-104485652D02*
X159449096Y-104504612D01*
X159421348Y-104469817D02*
X159437183Y-104485652D01*
X159402388Y-104457904D02*
X159421348Y-104469817D01*
X159381252Y-104450508D02*
X159402388Y-104457904D01*
X159359000Y-104448000D02*
X159381252Y-104450508D01*
X159159000Y-104448000D02*
X159359000Y-104448000D01*
X159115611Y-104457904D02*
X159136747Y-104450508D01*
X159096651Y-104469817D02*
X159115611Y-104457904D01*
X158296651Y-104469817D02*
X158315611Y-104457904D01*
X159906063Y-104675271D02*
X159929764Y-104660378D01*
X158255865Y-104800815D02*
X158259000Y-104773000D01*
X157761815Y-104651134D02*
X157788235Y-104660378D01*
X158246621Y-104827235D02*
X158255865Y-104800815D01*
X159136747Y-104450508D02*
X159159000Y-104448000D01*
X159068903Y-104504612D02*
X159080816Y-104485652D01*
X158259000Y-104773000D02*
X158259000Y-104548000D01*
X159459000Y-104548000D02*
X159459000Y-104773000D01*
X158280816Y-104485652D02*
X158296651Y-104469817D01*
X157871378Y-104827235D02*
X157886271Y-104850936D01*
X158211936Y-104870728D02*
X158231728Y-104850936D01*
X158188235Y-104885621D02*
X158211936Y-104870728D01*
X158161815Y-104894865D02*
X158188235Y-104885621D01*
X159061507Y-104525748D02*
X159068903Y-104504612D01*
X157984000Y-104898000D02*
X158134000Y-104898000D01*
X159831728Y-104850936D02*
X159846621Y-104827235D01*
X158134000Y-104898000D02*
X158161815Y-104894865D01*
X158686271Y-104850936D02*
X158706063Y-104870728D01*
X157226000Y-104648000D02*
X157734000Y-104648000D01*
X158662134Y-104800815D02*
X158671378Y-104827235D01*
X159059000Y-104548000D02*
X159061507Y-104525748D01*
X158359000Y-104448000D02*
X158559000Y-104448000D01*
X158259000Y-104548000D02*
X158261507Y-104525748D01*
X157855865Y-104745184D02*
X157862134Y-104800815D01*
X159871378Y-104718764D02*
X159886271Y-104695063D01*
X157956184Y-104894865D02*
X157984000Y-104898000D01*
X159811936Y-104870728D02*
X159831728Y-104850936D01*
X158961815Y-104894865D02*
X158988235Y-104885621D01*
X159059000Y-104773000D02*
X159059000Y-104548000D01*
X157734000Y-104648000D02*
X157761815Y-104651134D01*
X157846621Y-104718764D02*
X157855865Y-104745184D01*
X157811936Y-104675271D02*
X157831728Y-104695063D01*
X157831728Y-104695063D02*
X157846621Y-104718764D01*
X158602388Y-104457904D02*
X158621348Y-104469817D01*
X159506063Y-104870728D02*
X159529764Y-104885621D01*
X158988235Y-104885621D02*
X159011936Y-104870728D01*
X159984000Y-104648000D02*
X160274000Y-104648000D01*
X157862134Y-104800815D02*
X157871378Y-104827235D01*
X157906063Y-104870728D02*
X157929764Y-104885621D01*
X157929764Y-104885621D02*
X157956184Y-104894865D01*
X158581252Y-104450508D02*
X158602388Y-104457904D01*
X159556184Y-104894865D02*
X159584000Y-104898000D01*
X158934000Y-104898000D02*
X158961815Y-104894865D01*
X158336747Y-104450508D02*
X158359000Y-104448000D01*
X158559000Y-104448000D02*
X158581252Y-104450508D01*
X159855865Y-104800815D02*
X159862134Y-104745184D01*
X158621348Y-104469817D02*
X158637183Y-104485652D01*
X158315611Y-104457904D02*
X158336747Y-104450508D01*
X158637183Y-104485652D02*
X158649096Y-104504612D01*
X157886271Y-104850936D02*
X157906063Y-104870728D01*
X158656492Y-104525748D02*
X158659000Y-104548000D01*
X158231728Y-104850936D02*
X158246621Y-104827235D01*
X158729764Y-104885621D02*
X158756184Y-104894865D01*
X158659000Y-104548000D02*
X158659000Y-104773000D01*
X158671378Y-104827235D02*
X158686271Y-104850936D01*
X158659000Y-104773000D02*
X158662134Y-104800815D01*
X158261507Y-104525748D02*
X158268903Y-104504612D01*
X158756184Y-104894865D02*
X158784000Y-104898000D01*
X158649096Y-104504612D02*
X158656492Y-104525748D01*
X158784000Y-104898000D02*
X158934000Y-104898000D01*
X159886271Y-104695063D02*
X159906063Y-104675271D01*
X157788235Y-104660378D02*
X157811936Y-104675271D01*
X159055865Y-104800815D02*
X159059000Y-104773000D01*
X158706063Y-104870728D02*
X158729764Y-104885621D01*
X159011936Y-104870728D02*
X159031728Y-104850936D01*
X159031728Y-104850936D02*
X159046621Y-104827235D01*
X158268903Y-104504612D02*
X158280816Y-104485652D01*
X159046621Y-104827235D02*
X159055865Y-104800815D01*
X159080816Y-104485652D02*
X159096651Y-104469817D01*
X152069994Y-101231785D02*
X152184000Y-101345791D01*
X152069994Y-98552000D02*
X152069994Y-101231785D01*
X151781993Y-97951999D02*
X151384000Y-98349992D01*
X152694260Y-97951999D02*
X151781993Y-97951999D01*
X152869997Y-98552000D02*
X152869997Y-98127736D01*
X152869997Y-98127736D02*
X152694260Y-97951999D01*
X151384000Y-98349992D02*
X151384000Y-101346000D01*
X146558000Y-97028000D02*
X153670000Y-97028000D01*
X156068573Y-97677427D02*
X155956000Y-97790000D01*
X157223365Y-97677427D02*
X156068573Y-97677427D01*
G36*
X155573522Y-96732050D02*
G01*
X155671793Y-96797713D01*
X155780986Y-96842942D01*
X155896905Y-96866000D01*
X156015095Y-96866000D01*
X156131014Y-96842942D01*
X156240207Y-96797713D01*
X156338478Y-96732050D01*
X156404528Y-96666000D01*
X159659578Y-96666000D01*
X159920000Y-96926422D01*
X159920000Y-103647999D01*
X156575636Y-103647999D01*
X156556000Y-103646065D01*
X156536364Y-103647999D01*
X156536354Y-103647999D01*
X156477587Y-103653787D01*
X156402187Y-103676659D01*
X156332698Y-103713802D01*
X156332696Y-103713803D01*
X156332697Y-103713803D01*
X156287050Y-103751264D01*
X156287048Y-103751266D01*
X156271790Y-103763788D01*
X156259268Y-103779046D01*
X155941047Y-104097268D01*
X155925790Y-104109789D01*
X155913979Y-104124181D01*
X155827522Y-104181950D01*
X155743950Y-104265522D01*
X155678287Y-104363793D01*
X155633058Y-104472986D01*
X155610000Y-104588905D01*
X155610000Y-104707095D01*
X155633058Y-104823014D01*
X155678287Y-104932207D01*
X155743950Y-105030478D01*
X155827522Y-105114050D01*
X155925793Y-105179713D01*
X156034986Y-105224942D01*
X156150905Y-105248000D01*
X156269095Y-105248000D01*
X156385014Y-105224942D01*
X156494207Y-105179713D01*
X156592478Y-105114050D01*
X156676050Y-105030478D01*
X156718000Y-104967696D01*
X156759950Y-105030478D01*
X156843522Y-105114050D01*
X156941793Y-105179713D01*
X157050986Y-105224942D01*
X157166905Y-105248000D01*
X157285095Y-105248000D01*
X157401014Y-105224942D01*
X157510207Y-105179713D01*
X157592428Y-105124774D01*
X157594207Y-105127070D01*
X157613323Y-105143676D01*
X157629929Y-105162792D01*
X157656651Y-105183497D01*
X157682761Y-105204924D01*
X157705099Y-105216864D01*
X157725560Y-105231817D01*
X157756198Y-105246045D01*
X157786419Y-105261125D01*
X157810863Y-105267798D01*
X157834114Y-105277814D01*
X157867168Y-105284874D01*
X157900008Y-105292854D01*
X157921130Y-105293743D01*
X157942012Y-105295800D01*
X157958724Y-105297683D01*
X157961536Y-105297723D01*
X157964353Y-105298000D01*
X157981275Y-105298000D01*
X158017770Y-105298513D01*
X158020553Y-105298000D01*
X158097444Y-105298000D01*
X158100232Y-105298514D01*
X158136753Y-105298000D01*
X158153647Y-105298000D01*
X158156464Y-105297723D01*
X158159276Y-105297683D01*
X158175972Y-105295801D01*
X158196858Y-105293744D01*
X158217991Y-105292855D01*
X158250850Y-105284869D01*
X158283887Y-105277814D01*
X158307138Y-105267798D01*
X158331581Y-105261125D01*
X158361795Y-105246048D01*
X158392439Y-105231818D01*
X158412902Y-105216864D01*
X158435238Y-105204925D01*
X158459000Y-105185424D01*
X158482761Y-105204924D01*
X158505099Y-105216864D01*
X158525560Y-105231817D01*
X158556198Y-105246045D01*
X158586419Y-105261125D01*
X158610863Y-105267798D01*
X158634114Y-105277814D01*
X158667168Y-105284874D01*
X158700008Y-105292854D01*
X158721130Y-105293743D01*
X158742012Y-105295800D01*
X158758724Y-105297683D01*
X158761536Y-105297723D01*
X158764353Y-105298000D01*
X158781275Y-105298000D01*
X158817770Y-105298513D01*
X158820553Y-105298000D01*
X158897444Y-105298000D01*
X158900232Y-105298514D01*
X158936753Y-105298000D01*
X158953647Y-105298000D01*
X158956464Y-105297723D01*
X158959276Y-105297683D01*
X158975972Y-105295801D01*
X158996858Y-105293744D01*
X159017991Y-105292855D01*
X159050850Y-105284869D01*
X159083887Y-105277814D01*
X159107138Y-105267798D01*
X159131581Y-105261125D01*
X159161795Y-105246048D01*
X159192439Y-105231818D01*
X159212902Y-105216864D01*
X159235238Y-105204925D01*
X159259000Y-105185424D01*
X159282761Y-105204924D01*
X159305099Y-105216864D01*
X159325560Y-105231817D01*
X159356198Y-105246045D01*
X159386419Y-105261125D01*
X159410863Y-105267798D01*
X159434114Y-105277814D01*
X159467168Y-105284874D01*
X159500008Y-105292854D01*
X159521130Y-105293743D01*
X159542012Y-105295800D01*
X159558724Y-105297683D01*
X159561536Y-105297723D01*
X159564353Y-105298000D01*
X159581275Y-105298000D01*
X159617770Y-105298513D01*
X159620553Y-105298000D01*
X159697444Y-105298000D01*
X159700232Y-105298514D01*
X159736753Y-105298000D01*
X159753647Y-105298000D01*
X159756464Y-105297723D01*
X159759276Y-105297683D01*
X159775972Y-105295801D01*
X159796858Y-105293744D01*
X159817991Y-105292855D01*
X159850850Y-105284869D01*
X159883887Y-105277814D01*
X159907138Y-105267798D01*
X159920000Y-105264287D01*
X159920000Y-106273578D01*
X159659578Y-106534000D01*
X143421685Y-106534000D01*
X143148000Y-106260315D01*
X143148000Y-101833422D01*
X143281422Y-101700000D01*
X146320000Y-101700000D01*
X146339509Y-101698079D01*
X146358268Y-101692388D01*
X146375557Y-101683147D01*
X146390711Y-101670711D01*
X146774517Y-101286905D01*
X150784000Y-101286905D01*
X150784000Y-101405095D01*
X150807058Y-101521014D01*
X150852287Y-101630207D01*
X150917950Y-101728478D01*
X151001522Y-101812050D01*
X151099793Y-101877713D01*
X151208986Y-101922942D01*
X151324905Y-101946000D01*
X151443095Y-101946000D01*
X151559014Y-101922942D01*
X151668207Y-101877713D01*
X151766478Y-101812050D01*
X151784105Y-101794424D01*
X151801522Y-101811841D01*
X151899793Y-101877504D01*
X152008986Y-101922733D01*
X152124905Y-101945791D01*
X152243095Y-101945791D01*
X152359014Y-101922733D01*
X152468207Y-101877504D01*
X152566478Y-101811841D01*
X152650050Y-101728269D01*
X152715713Y-101629998D01*
X152760942Y-101520805D01*
X152784000Y-101404886D01*
X152784000Y-101286696D01*
X152760942Y-101170777D01*
X152715713Y-101061584D01*
X152650050Y-100963313D01*
X152566478Y-100879741D01*
X152469994Y-100815272D01*
X152469994Y-99000528D01*
X152469996Y-99000527D01*
X152487519Y-99018050D01*
X152585790Y-99083713D01*
X152694983Y-99128942D01*
X152810902Y-99152000D01*
X152929092Y-99152000D01*
X153045011Y-99128942D01*
X153154204Y-99083713D01*
X153252475Y-99018050D01*
X153336047Y-98934478D01*
X153401710Y-98836207D01*
X153446939Y-98727014D01*
X153469997Y-98611095D01*
X153469997Y-98492905D01*
X153446939Y-98376986D01*
X153401710Y-98267793D01*
X153336047Y-98169522D01*
X153269493Y-98102968D01*
X153267817Y-98085950D01*
X153264209Y-98049322D01*
X153241337Y-97973922D01*
X153204194Y-97904433D01*
X153154208Y-97843525D01*
X153138940Y-97830995D01*
X152990998Y-97683052D01*
X152978471Y-97667788D01*
X152917563Y-97617802D01*
X152848074Y-97580659D01*
X152772674Y-97557787D01*
X152713907Y-97551999D01*
X152713906Y-97551999D01*
X152694260Y-97550064D01*
X152674614Y-97551999D01*
X151801628Y-97551999D01*
X151781992Y-97550065D01*
X151762356Y-97551999D01*
X151762346Y-97551999D01*
X151703579Y-97557787D01*
X151628179Y-97580659D01*
X151558690Y-97617802D01*
X151546264Y-97628000D01*
X151513042Y-97655264D01*
X151513040Y-97655266D01*
X151497782Y-97667788D01*
X151485260Y-97683046D01*
X151115052Y-98053255D01*
X151099789Y-98065781D01*
X151049803Y-98126690D01*
X151012660Y-98196179D01*
X151005146Y-98220950D01*
X150989788Y-98271579D01*
X150982065Y-98349992D01*
X150984000Y-98369639D01*
X150984001Y-100897471D01*
X150917950Y-100963522D01*
X150852287Y-101061793D01*
X150807058Y-101170986D01*
X150784000Y-101286905D01*
X146774517Y-101286905D01*
X147390711Y-100670711D01*
X147403147Y-100655557D01*
X147412388Y-100638268D01*
X147418079Y-100619509D01*
X147420000Y-100600000D01*
X147420000Y-97428000D01*
X153221472Y-97428000D01*
X153287522Y-97494050D01*
X153385793Y-97559713D01*
X153494986Y-97604942D01*
X153610905Y-97628000D01*
X153729095Y-97628000D01*
X153845014Y-97604942D01*
X153954207Y-97559713D01*
X154052478Y-97494050D01*
X154070027Y-97476501D01*
X154070028Y-104199471D01*
X154003977Y-104265522D01*
X153938314Y-104363793D01*
X153893085Y-104472986D01*
X153870027Y-104588905D01*
X153870027Y-104707095D01*
X153893085Y-104823014D01*
X153938314Y-104932207D01*
X154003977Y-105030478D01*
X154087549Y-105114050D01*
X154185820Y-105179713D01*
X154295013Y-105224942D01*
X154410932Y-105248000D01*
X154529122Y-105248000D01*
X154645041Y-105224942D01*
X154754234Y-105179713D01*
X154852505Y-105114050D01*
X154936077Y-105030478D01*
X155001740Y-104932207D01*
X155046969Y-104823014D01*
X155070027Y-104707095D01*
X155070027Y-104588905D01*
X155046969Y-104472986D01*
X155001740Y-104363793D01*
X154936077Y-104265522D01*
X154870027Y-104199472D01*
X154870027Y-97711207D01*
X155156000Y-97711207D01*
X155156000Y-97868793D01*
X155186743Y-98023351D01*
X155247049Y-98168942D01*
X155334599Y-98299970D01*
X155446030Y-98411401D01*
X155577058Y-98498951D01*
X155722649Y-98559257D01*
X155877207Y-98590000D01*
X156034793Y-98590000D01*
X156189351Y-98559257D01*
X156334942Y-98498951D01*
X156465970Y-98411401D01*
X156577401Y-98299970D01*
X156664951Y-98168942D01*
X156702858Y-98077427D01*
X156774837Y-98077427D01*
X156840887Y-98143477D01*
X156939158Y-98209140D01*
X157048351Y-98254369D01*
X157164270Y-98277427D01*
X157282460Y-98277427D01*
X157398379Y-98254369D01*
X157507572Y-98209140D01*
X157605843Y-98143477D01*
X157689415Y-98059905D01*
X157755078Y-97961634D01*
X157800307Y-97852441D01*
X157823365Y-97736522D01*
X157823365Y-97618332D01*
X157800307Y-97502413D01*
X157755078Y-97393220D01*
X157689415Y-97294949D01*
X157605843Y-97211377D01*
X157507572Y-97145714D01*
X157398379Y-97100485D01*
X157282460Y-97077427D01*
X157164270Y-97077427D01*
X157048351Y-97100485D01*
X156939158Y-97145714D01*
X156840887Y-97211377D01*
X156774837Y-97277427D01*
X156574798Y-97277427D01*
X156465970Y-97168599D01*
X156334942Y-97081049D01*
X156189351Y-97020743D01*
X156034793Y-96990000D01*
X155877207Y-96990000D01*
X155722649Y-97020743D01*
X155577058Y-97081049D01*
X155446030Y-97168599D01*
X155334599Y-97280030D01*
X155247049Y-97411058D01*
X155186743Y-97556649D01*
X155156000Y-97711207D01*
X154870027Y-97711207D01*
X154870027Y-96665990D01*
X155507462Y-96665990D01*
X155573522Y-96732050D01*
G37*
X155573522Y-96732050D02*
X155671793Y-96797713D01*
X155780986Y-96842942D01*
X155896905Y-96866000D01*
X156015095Y-96866000D01*
X156131014Y-96842942D01*
X156240207Y-96797713D01*
X156338478Y-96732050D01*
X156404528Y-96666000D01*
X159659578Y-96666000D01*
X159920000Y-96926422D01*
X159920000Y-103647999D01*
X156575636Y-103647999D01*
X156556000Y-103646065D01*
X156536364Y-103647999D01*
X156536354Y-103647999D01*
X156477587Y-103653787D01*
X156402187Y-103676659D01*
X156332698Y-103713802D01*
X156332696Y-103713803D01*
X156332697Y-103713803D01*
X156287050Y-103751264D01*
X156287048Y-103751266D01*
X156271790Y-103763788D01*
X156259268Y-103779046D01*
X155941047Y-104097268D01*
X155925790Y-104109789D01*
X155913979Y-104124181D01*
X155827522Y-104181950D01*
X155743950Y-104265522D01*
X155678287Y-104363793D01*
X155633058Y-104472986D01*
X155610000Y-104588905D01*
X155610000Y-104707095D01*
X155633058Y-104823014D01*
X155678287Y-104932207D01*
X155743950Y-105030478D01*
X155827522Y-105114050D01*
X155925793Y-105179713D01*
X156034986Y-105224942D01*
X156150905Y-105248000D01*
X156269095Y-105248000D01*
X156385014Y-105224942D01*
X156494207Y-105179713D01*
X156592478Y-105114050D01*
X156676050Y-105030478D01*
X156718000Y-104967696D01*
X156759950Y-105030478D01*
X156843522Y-105114050D01*
X156941793Y-105179713D01*
X157050986Y-105224942D01*
X157166905Y-105248000D01*
X157285095Y-105248000D01*
X157401014Y-105224942D01*
X157510207Y-105179713D01*
X157592428Y-105124774D01*
X157594207Y-105127070D01*
X157613323Y-105143676D01*
X157629929Y-105162792D01*
X157656651Y-105183497D01*
X157682761Y-105204924D01*
X157705099Y-105216864D01*
X157725560Y-105231817D01*
X157756198Y-105246045D01*
X157786419Y-105261125D01*
X157810863Y-105267798D01*
X157834114Y-105277814D01*
X157867168Y-105284874D01*
X157900008Y-105292854D01*
X157921130Y-105293743D01*
X157942012Y-105295800D01*
X157958724Y-105297683D01*
X157961536Y-105297723D01*
X157964353Y-105298000D01*
X157981275Y-105298000D01*
X158017770Y-105298513D01*
X158020553Y-105298000D01*
X158097444Y-105298000D01*
X158100232Y-105298514D01*
X158136753Y-105298000D01*
X158153647Y-105298000D01*
X158156464Y-105297723D01*
X158159276Y-105297683D01*
X158175972Y-105295801D01*
X158196858Y-105293744D01*
X158217991Y-105292855D01*
X158250850Y-105284869D01*
X158283887Y-105277814D01*
X158307138Y-105267798D01*
X158331581Y-105261125D01*
X158361795Y-105246048D01*
X158392439Y-105231818D01*
X158412902Y-105216864D01*
X158435238Y-105204925D01*
X158459000Y-105185424D01*
X158482761Y-105204924D01*
X158505099Y-105216864D01*
X158525560Y-105231817D01*
X158556198Y-105246045D01*
X158586419Y-105261125D01*
X158610863Y-105267798D01*
X158634114Y-105277814D01*
X158667168Y-105284874D01*
X158700008Y-105292854D01*
X158721130Y-105293743D01*
X158742012Y-105295800D01*
X158758724Y-105297683D01*
X158761536Y-105297723D01*
X158764353Y-105298000D01*
X158781275Y-105298000D01*
X158817770Y-105298513D01*
X158820553Y-105298000D01*
X158897444Y-105298000D01*
X158900232Y-105298514D01*
X158936753Y-105298000D01*
X158953647Y-105298000D01*
X158956464Y-105297723D01*
X158959276Y-105297683D01*
X158975972Y-105295801D01*
X158996858Y-105293744D01*
X159017991Y-105292855D01*
X159050850Y-105284869D01*
X159083887Y-105277814D01*
X159107138Y-105267798D01*
X159131581Y-105261125D01*
X159161795Y-105246048D01*
X159192439Y-105231818D01*
X159212902Y-105216864D01*
X159235238Y-105204925D01*
X159259000Y-105185424D01*
X159282761Y-105204924D01*
X159305099Y-105216864D01*
X159325560Y-105231817D01*
X159356198Y-105246045D01*
X159386419Y-105261125D01*
X159410863Y-105267798D01*
X159434114Y-105277814D01*
X159467168Y-105284874D01*
X159500008Y-105292854D01*
X159521130Y-105293743D01*
X159542012Y-105295800D01*
X159558724Y-105297683D01*
X159561536Y-105297723D01*
X159564353Y-105298000D01*
X159581275Y-105298000D01*
X159617770Y-105298513D01*
X159620553Y-105298000D01*
X159697444Y-105298000D01*
X159700232Y-105298514D01*
X159736753Y-105298000D01*
X159753647Y-105298000D01*
X159756464Y-105297723D01*
X159759276Y-105297683D01*
X159775972Y-105295801D01*
X159796858Y-105293744D01*
X159817991Y-105292855D01*
X159850850Y-105284869D01*
X159883887Y-105277814D01*
X159907138Y-105267798D01*
X159920000Y-105264287D01*
X159920000Y-106273578D01*
X159659578Y-106534000D01*
X143421685Y-106534000D01*
X143148000Y-106260315D01*
X143148000Y-101833422D01*
X143281422Y-101700000D01*
X146320000Y-101700000D01*
X146339509Y-101698079D01*
X146358268Y-101692388D01*
X146375557Y-101683147D01*
X146390711Y-101670711D01*
X146774517Y-101286905D01*
X150784000Y-101286905D01*
X150784000Y-101405095D01*
X150807058Y-101521014D01*
X150852287Y-101630207D01*
X150917950Y-101728478D01*
X151001522Y-101812050D01*
X151099793Y-101877713D01*
X151208986Y-101922942D01*
X151324905Y-101946000D01*
X151443095Y-101946000D01*
X151559014Y-101922942D01*
X151668207Y-101877713D01*
X151766478Y-101812050D01*
X151784105Y-101794424D01*
X151801522Y-101811841D01*
X151899793Y-101877504D01*
X152008986Y-101922733D01*
X152124905Y-101945791D01*
X152243095Y-101945791D01*
X152359014Y-101922733D01*
X152468207Y-101877504D01*
X152566478Y-101811841D01*
X152650050Y-101728269D01*
X152715713Y-101629998D01*
X152760942Y-101520805D01*
X152784000Y-101404886D01*
X152784000Y-101286696D01*
X152760942Y-101170777D01*
X152715713Y-101061584D01*
X152650050Y-100963313D01*
X152566478Y-100879741D01*
X152469994Y-100815272D01*
X152469994Y-99000528D01*
X152469996Y-99000527D01*
X152487519Y-99018050D01*
X152585790Y-99083713D01*
X152694983Y-99128942D01*
X152810902Y-99152000D01*
X152929092Y-99152000D01*
X153045011Y-99128942D01*
X153154204Y-99083713D01*
X153252475Y-99018050D01*
X153336047Y-98934478D01*
X153401710Y-98836207D01*
X153446939Y-98727014D01*
X153469997Y-98611095D01*
X153469997Y-98492905D01*
X153446939Y-98376986D01*
X153401710Y-98267793D01*
X153336047Y-98169522D01*
X153269493Y-98102968D01*
X153267817Y-98085950D01*
X153264209Y-98049322D01*
X153241337Y-97973922D01*
X153204194Y-97904433D01*
X153154208Y-97843525D01*
X153138940Y-97830995D01*
X152990998Y-97683052D01*
X152978471Y-97667788D01*
X152917563Y-97617802D01*
X152848074Y-97580659D01*
X152772674Y-97557787D01*
X152713907Y-97551999D01*
X152713906Y-97551999D01*
X152694260Y-97550064D01*
X152674614Y-97551999D01*
X151801628Y-97551999D01*
X151781992Y-97550065D01*
X151762356Y-97551999D01*
X151762346Y-97551999D01*
X151703579Y-97557787D01*
X151628179Y-97580659D01*
X151558690Y-97617802D01*
X151546264Y-97628000D01*
X151513042Y-97655264D01*
X151513040Y-97655266D01*
X151497782Y-97667788D01*
X151485260Y-97683046D01*
X151115052Y-98053255D01*
X151099789Y-98065781D01*
X151049803Y-98126690D01*
X151012660Y-98196179D01*
X151005146Y-98220950D01*
X150989788Y-98271579D01*
X150982065Y-98349992D01*
X150984000Y-98369639D01*
X150984001Y-100897471D01*
X150917950Y-100963522D01*
X150852287Y-101061793D01*
X150807058Y-101170986D01*
X150784000Y-101286905D01*
X146774517Y-101286905D01*
X147390711Y-100670711D01*
X147403147Y-100655557D01*
X147412388Y-100638268D01*
X147418079Y-100619509D01*
X147420000Y-100600000D01*
X147420000Y-97428000D01*
X153221472Y-97428000D01*
X153287522Y-97494050D01*
X153385793Y-97559713D01*
X153494986Y-97604942D01*
X153610905Y-97628000D01*
X153729095Y-97628000D01*
X153845014Y-97604942D01*
X153954207Y-97559713D01*
X154052478Y-97494050D01*
X154070027Y-97476501D01*
X154070028Y-104199471D01*
X154003977Y-104265522D01*
X153938314Y-104363793D01*
X153893085Y-104472986D01*
X153870027Y-104588905D01*
X153870027Y-104707095D01*
X153893085Y-104823014D01*
X153938314Y-104932207D01*
X154003977Y-105030478D01*
X154087549Y-105114050D01*
X154185820Y-105179713D01*
X154295013Y-105224942D01*
X154410932Y-105248000D01*
X154529122Y-105248000D01*
X154645041Y-105224942D01*
X154754234Y-105179713D01*
X154852505Y-105114050D01*
X154936077Y-105030478D01*
X155001740Y-104932207D01*
X155046969Y-104823014D01*
X155070027Y-104707095D01*
X155070027Y-104588905D01*
X155046969Y-104472986D01*
X155001740Y-104363793D01*
X154936077Y-104265522D01*
X154870027Y-104199472D01*
X154870027Y-97711207D01*
X155156000Y-97711207D01*
X155156000Y-97868793D01*
X155186743Y-98023351D01*
X155247049Y-98168942D01*
X155334599Y-98299970D01*
X155446030Y-98411401D01*
X155577058Y-98498951D01*
X155722649Y-98559257D01*
X155877207Y-98590000D01*
X156034793Y-98590000D01*
X156189351Y-98559257D01*
X156334942Y-98498951D01*
X156465970Y-98411401D01*
X156577401Y-98299970D01*
X156664951Y-98168942D01*
X156702858Y-98077427D01*
X156774837Y-98077427D01*
X156840887Y-98143477D01*
X156939158Y-98209140D01*
X157048351Y-98254369D01*
X157164270Y-98277427D01*
X157282460Y-98277427D01*
X157398379Y-98254369D01*
X157507572Y-98209140D01*
X157605843Y-98143477D01*
X157689415Y-98059905D01*
X157755078Y-97961634D01*
X157800307Y-97852441D01*
X157823365Y-97736522D01*
X157823365Y-97618332D01*
X157800307Y-97502413D01*
X157755078Y-97393220D01*
X157689415Y-97294949D01*
X157605843Y-97211377D01*
X157507572Y-97145714D01*
X157398379Y-97100485D01*
X157282460Y-97077427D01*
X157164270Y-97077427D01*
X157048351Y-97100485D01*
X156939158Y-97145714D01*
X156840887Y-97211377D01*
X156774837Y-97277427D01*
X156574798Y-97277427D01*
X156465970Y-97168599D01*
X156334942Y-97081049D01*
X156189351Y-97020743D01*
X156034793Y-96990000D01*
X155877207Y-96990000D01*
X155722649Y-97020743D01*
X155577058Y-97081049D01*
X155446030Y-97168599D01*
X155334599Y-97280030D01*
X155247049Y-97411058D01*
X155186743Y-97556649D01*
X155156000Y-97711207D01*
X154870027Y-97711207D01*
X154870027Y-96665990D01*
X155507462Y-96665990D01*
X155573522Y-96732050D01*
M02*
