G04 #@! TF.GenerationSoftware,KiCad,Pcbnew,5.1.6-c6e7f7d~86~ubuntu20.04.1*
G04 #@! TF.CreationDate,2020-07-01T18:46:00+05:00*
G04 #@! TF.ProjectId,Main,4d61696e-2e6b-4696-9361-645f70636258,rev?*
G04 #@! TF.SameCoordinates,Original*
G04 #@! TF.FileFunction,Paste,Top*
G04 #@! TF.FilePolarity,Positive*
%FSLAX46Y46*%
G04 Gerber Fmt 4.6, Leading zero omitted, Abs format (unit mm)*
G04 Created by KiCad (PCBNEW 5.1.6-c6e7f7d~86~ubuntu20.04.1) date 2020-07-01 18:46:00*
%MOMM*%
%LPD*%
G01*
G04 APERTURE LIST*
%ADD10R,0.600000X1.050000*%
%ADD11R,0.650000X0.300000*%
%ADD12R,1.060000X0.650000*%
%ADD13R,0.400000X0.650000*%
%ADD14R,2.000000X1.100000*%
G04 APERTURE END LIST*
G36*
G01*
X167137500Y-96771750D02*
X167137500Y-97284250D01*
G75*
G02*
X166918750Y-97503000I-218750J0D01*
G01*
X166481250Y-97503000D01*
G75*
G02*
X166262500Y-97284250I0J218750D01*
G01*
X166262500Y-96771750D01*
G75*
G02*
X166481250Y-96553000I218750J0D01*
G01*
X166918750Y-96553000D01*
G75*
G02*
X167137500Y-96771750I0J-218750D01*
G01*
G37*
G36*
G01*
X168712500Y-96771750D02*
X168712500Y-97284250D01*
G75*
G02*
X168493750Y-97503000I-218750J0D01*
G01*
X168056250Y-97503000D01*
G75*
G02*
X167837500Y-97284250I0J218750D01*
G01*
X167837500Y-96771750D01*
G75*
G02*
X168056250Y-96553000I218750J0D01*
G01*
X168493750Y-96553000D01*
G75*
G02*
X168712500Y-96771750I0J-218750D01*
G01*
G37*
D10*
X149485500Y-100188000D03*
X148710500Y-100188000D03*
X148710500Y-98948000D03*
X149485500Y-98948000D03*
D11*
X150648000Y-98568000D03*
X150648000Y-99068000D03*
X150648000Y-99568000D03*
X150648000Y-100068000D03*
X150648000Y-100568000D03*
X147548000Y-100568000D03*
X147548000Y-100068000D03*
X147548000Y-99568000D03*
X147548000Y-99068000D03*
X147548000Y-98568000D03*
G36*
G01*
X161448000Y-99819750D02*
X161448000Y-100332250D01*
G75*
G02*
X161229250Y-100551000I-218750J0D01*
G01*
X160791750Y-100551000D01*
G75*
G02*
X160573000Y-100332250I0J218750D01*
G01*
X160573000Y-99819750D01*
G75*
G02*
X160791750Y-99601000I218750J0D01*
G01*
X161229250Y-99601000D01*
G75*
G02*
X161448000Y-99819750I0J-218750D01*
G01*
G37*
G36*
G01*
X163023000Y-99819750D02*
X163023000Y-100332250D01*
G75*
G02*
X162804250Y-100551000I-218750J0D01*
G01*
X162366750Y-100551000D01*
G75*
G02*
X162148000Y-100332250I0J218750D01*
G01*
X162148000Y-99819750D01*
G75*
G02*
X162366750Y-99601000I218750J0D01*
G01*
X162804250Y-99601000D01*
G75*
G02*
X163023000Y-99819750I0J-218750D01*
G01*
G37*
G36*
G01*
X161448000Y-101343750D02*
X161448000Y-101856250D01*
G75*
G02*
X161229250Y-102075000I-218750J0D01*
G01*
X160791750Y-102075000D01*
G75*
G02*
X160573000Y-101856250I0J218750D01*
G01*
X160573000Y-101343750D01*
G75*
G02*
X160791750Y-101125000I218750J0D01*
G01*
X161229250Y-101125000D01*
G75*
G02*
X161448000Y-101343750I0J-218750D01*
G01*
G37*
G36*
G01*
X163023000Y-101343750D02*
X163023000Y-101856250D01*
G75*
G02*
X162804250Y-102075000I-218750J0D01*
G01*
X162366750Y-102075000D01*
G75*
G02*
X162148000Y-101856250I0J218750D01*
G01*
X162148000Y-101343750D01*
G75*
G02*
X162366750Y-101125000I218750J0D01*
G01*
X162804250Y-101125000D01*
G75*
G02*
X163023000Y-101343750I0J-218750D01*
G01*
G37*
G36*
G01*
X161448000Y-102867750D02*
X161448000Y-103380250D01*
G75*
G02*
X161229250Y-103599000I-218750J0D01*
G01*
X160791750Y-103599000D01*
G75*
G02*
X160573000Y-103380250I0J218750D01*
G01*
X160573000Y-102867750D01*
G75*
G02*
X160791750Y-102649000I218750J0D01*
G01*
X161229250Y-102649000D01*
G75*
G02*
X161448000Y-102867750I0J-218750D01*
G01*
G37*
G36*
G01*
X163023000Y-102867750D02*
X163023000Y-103380250D01*
G75*
G02*
X162804250Y-103599000I-218750J0D01*
G01*
X162366750Y-103599000D01*
G75*
G02*
X162148000Y-103380250I0J218750D01*
G01*
X162148000Y-102867750D01*
G75*
G02*
X162366750Y-102649000I218750J0D01*
G01*
X162804250Y-102649000D01*
G75*
G02*
X163023000Y-102867750I0J-218750D01*
G01*
G37*
G36*
G01*
X160940000Y-104391750D02*
X160940000Y-104904250D01*
G75*
G02*
X160721250Y-105123000I-218750J0D01*
G01*
X160283750Y-105123000D01*
G75*
G02*
X160065000Y-104904250I0J218750D01*
G01*
X160065000Y-104391750D01*
G75*
G02*
X160283750Y-104173000I218750J0D01*
G01*
X160721250Y-104173000D01*
G75*
G02*
X160940000Y-104391750I0J-218750D01*
G01*
G37*
G36*
G01*
X162515000Y-104391750D02*
X162515000Y-104904250D01*
G75*
G02*
X162296250Y-105123000I-218750J0D01*
G01*
X161858750Y-105123000D01*
G75*
G02*
X161640000Y-104904250I0J218750D01*
G01*
X161640000Y-104391750D01*
G75*
G02*
X161858750Y-104173000I218750J0D01*
G01*
X162296250Y-104173000D01*
G75*
G02*
X162515000Y-104391750I0J-218750D01*
G01*
G37*
G36*
G01*
X167065000Y-101213000D02*
X166915000Y-101213000D01*
G75*
G02*
X166840000Y-101138000I0J75000D01*
G01*
X166840000Y-100538000D01*
G75*
G02*
X166915000Y-100463000I75000J0D01*
G01*
X167065000Y-100463000D01*
G75*
G02*
X167140000Y-100538000I0J-75000D01*
G01*
X167140000Y-101138000D01*
G75*
G02*
X167065000Y-101213000I-75000J0D01*
G01*
G37*
G36*
G01*
X168365000Y-99054000D02*
X168215000Y-99054000D01*
G75*
G02*
X168140000Y-98979000I0J75000D01*
G01*
X168140000Y-98379000D01*
G75*
G02*
X168215000Y-98304000I75000J0D01*
G01*
X168365000Y-98304000D01*
G75*
G02*
X168440000Y-98379000I0J-75000D01*
G01*
X168440000Y-98979000D01*
G75*
G02*
X168365000Y-99054000I-75000J0D01*
G01*
G37*
G36*
G01*
X167572100Y-99828000D02*
X167022100Y-99828000D01*
G75*
G02*
X166892100Y-99698000I0J130000D01*
G01*
X166892100Y-99438000D01*
G75*
G02*
X167022100Y-99308000I130000J0D01*
G01*
X167572100Y-99308000D01*
G75*
G02*
X167702100Y-99438000I0J-130000D01*
G01*
X167702100Y-99698000D01*
G75*
G02*
X167572100Y-99828000I-130000J0D01*
G01*
G37*
G36*
G01*
X167715000Y-101213000D02*
X167565000Y-101213000D01*
G75*
G02*
X167490000Y-101138000I0J75000D01*
G01*
X167490000Y-100538000D01*
G75*
G02*
X167565000Y-100463000I75000J0D01*
G01*
X167715000Y-100463000D01*
G75*
G02*
X167790000Y-100538000I0J-75000D01*
G01*
X167790000Y-101138000D01*
G75*
G02*
X167715000Y-101213000I-75000J0D01*
G01*
G37*
G36*
G01*
X168257900Y-99828000D02*
X167707900Y-99828000D01*
G75*
G02*
X167577900Y-99698000I0J130000D01*
G01*
X167577900Y-99438000D01*
G75*
G02*
X167707900Y-99308000I130000J0D01*
G01*
X168257900Y-99308000D01*
G75*
G02*
X168387900Y-99438000I0J-130000D01*
G01*
X168387900Y-99698000D01*
G75*
G02*
X168257900Y-99828000I-130000J0D01*
G01*
G37*
G36*
G01*
X168257900Y-100209000D02*
X167707900Y-100209000D01*
G75*
G02*
X167577900Y-100079000I0J130000D01*
G01*
X167577900Y-99819000D01*
G75*
G02*
X167707900Y-99689000I130000J0D01*
G01*
X168257900Y-99689000D01*
G75*
G02*
X168387900Y-99819000I0J-130000D01*
G01*
X168387900Y-100079000D01*
G75*
G02*
X168257900Y-100209000I-130000J0D01*
G01*
G37*
G36*
G01*
X167572100Y-100209000D02*
X167022100Y-100209000D01*
G75*
G02*
X166892100Y-100079000I0J130000D01*
G01*
X166892100Y-99819000D01*
G75*
G02*
X167022100Y-99689000I130000J0D01*
G01*
X167572100Y-99689000D01*
G75*
G02*
X167702100Y-99819000I0J-130000D01*
G01*
X167702100Y-100079000D01*
G75*
G02*
X167572100Y-100209000I-130000J0D01*
G01*
G37*
G36*
G01*
X167065000Y-99054000D02*
X166915000Y-99054000D01*
G75*
G02*
X166840000Y-98979000I0J75000D01*
G01*
X166840000Y-98379000D01*
G75*
G02*
X166915000Y-98304000I75000J0D01*
G01*
X167065000Y-98304000D01*
G75*
G02*
X167140000Y-98379000I0J-75000D01*
G01*
X167140000Y-98979000D01*
G75*
G02*
X167065000Y-99054000I-75000J0D01*
G01*
G37*
G36*
G01*
X167715000Y-99054000D02*
X167565000Y-99054000D01*
G75*
G02*
X167490000Y-98979000I0J75000D01*
G01*
X167490000Y-98379000D01*
G75*
G02*
X167565000Y-98304000I75000J0D01*
G01*
X167715000Y-98304000D01*
G75*
G02*
X167790000Y-98379000I0J-75000D01*
G01*
X167790000Y-98979000D01*
G75*
G02*
X167715000Y-99054000I-75000J0D01*
G01*
G37*
G36*
G01*
X168365000Y-101213000D02*
X168215000Y-101213000D01*
G75*
G02*
X168140000Y-101138000I0J75000D01*
G01*
X168140000Y-100538000D01*
G75*
G02*
X168215000Y-100463000I75000J0D01*
G01*
X168365000Y-100463000D01*
G75*
G02*
X168440000Y-100538000I0J-75000D01*
G01*
X168440000Y-101138000D01*
G75*
G02*
X168365000Y-101213000I-75000J0D01*
G01*
G37*
G36*
G01*
X154827500Y-101777000D02*
X155292500Y-101777000D01*
G75*
G02*
X155525000Y-102009500I0J-232500D01*
G01*
X155525000Y-102474500D01*
G75*
G02*
X155292500Y-102707000I-232500J0D01*
G01*
X154827500Y-102707000D01*
G75*
G02*
X154595000Y-102474500I0J232500D01*
G01*
X154595000Y-102009500D01*
G75*
G02*
X154827500Y-101777000I232500J0D01*
G01*
G37*
G36*
G01*
X155977500Y-101777000D02*
X156442500Y-101777000D01*
G75*
G02*
X156675000Y-102009500I0J-232500D01*
G01*
X156675000Y-102474500D01*
G75*
G02*
X156442500Y-102707000I-232500J0D01*
G01*
X155977500Y-102707000D01*
G75*
G02*
X155745000Y-102474500I0J232500D01*
G01*
X155745000Y-102009500D01*
G75*
G02*
X155977500Y-101777000I232500J0D01*
G01*
G37*
G36*
G01*
X157127500Y-101777000D02*
X157592500Y-101777000D01*
G75*
G02*
X157825000Y-102009500I0J-232500D01*
G01*
X157825000Y-102474500D01*
G75*
G02*
X157592500Y-102707000I-232500J0D01*
G01*
X157127500Y-102707000D01*
G75*
G02*
X156895000Y-102474500I0J232500D01*
G01*
X156895000Y-102009500D01*
G75*
G02*
X157127500Y-101777000I232500J0D01*
G01*
G37*
G36*
G01*
X154827500Y-100627000D02*
X155292500Y-100627000D01*
G75*
G02*
X155525000Y-100859500I0J-232500D01*
G01*
X155525000Y-101324500D01*
G75*
G02*
X155292500Y-101557000I-232500J0D01*
G01*
X154827500Y-101557000D01*
G75*
G02*
X154595000Y-101324500I0J232500D01*
G01*
X154595000Y-100859500D01*
G75*
G02*
X154827500Y-100627000I232500J0D01*
G01*
G37*
G36*
G01*
X155977500Y-100627000D02*
X156442500Y-100627000D01*
G75*
G02*
X156675000Y-100859500I0J-232500D01*
G01*
X156675000Y-101324500D01*
G75*
G02*
X156442500Y-101557000I-232500J0D01*
G01*
X155977500Y-101557000D01*
G75*
G02*
X155745000Y-101324500I0J232500D01*
G01*
X155745000Y-100859500D01*
G75*
G02*
X155977500Y-100627000I232500J0D01*
G01*
G37*
G36*
G01*
X157127500Y-100627000D02*
X157592500Y-100627000D01*
G75*
G02*
X157825000Y-100859500I0J-232500D01*
G01*
X157825000Y-101324500D01*
G75*
G02*
X157592500Y-101557000I-232500J0D01*
G01*
X157127500Y-101557000D01*
G75*
G02*
X156895000Y-101324500I0J232500D01*
G01*
X156895000Y-100859500D01*
G75*
G02*
X157127500Y-100627000I232500J0D01*
G01*
G37*
G36*
G01*
X154827500Y-99477000D02*
X155292500Y-99477000D01*
G75*
G02*
X155525000Y-99709500I0J-232500D01*
G01*
X155525000Y-100174500D01*
G75*
G02*
X155292500Y-100407000I-232500J0D01*
G01*
X154827500Y-100407000D01*
G75*
G02*
X154595000Y-100174500I0J232500D01*
G01*
X154595000Y-99709500D01*
G75*
G02*
X154827500Y-99477000I232500J0D01*
G01*
G37*
G36*
G01*
X155977500Y-99477000D02*
X156442500Y-99477000D01*
G75*
G02*
X156675000Y-99709500I0J-232500D01*
G01*
X156675000Y-100174500D01*
G75*
G02*
X156442500Y-100407000I-232500J0D01*
G01*
X155977500Y-100407000D01*
G75*
G02*
X155745000Y-100174500I0J232500D01*
G01*
X155745000Y-99709500D01*
G75*
G02*
X155977500Y-99477000I232500J0D01*
G01*
G37*
G36*
G01*
X157127500Y-99477000D02*
X157592500Y-99477000D01*
G75*
G02*
X157825000Y-99709500I0J-232500D01*
G01*
X157825000Y-100174500D01*
G75*
G02*
X157592500Y-100407000I-232500J0D01*
G01*
X157127500Y-100407000D01*
G75*
G02*
X156895000Y-100174500I0J232500D01*
G01*
X156895000Y-99709500D01*
G75*
G02*
X157127500Y-99477000I232500J0D01*
G01*
G37*
G36*
G01*
X158272500Y-99217000D02*
X159022500Y-99217000D01*
G75*
G02*
X159085000Y-99279500I0J-62500D01*
G01*
X159085000Y-99404500D01*
G75*
G02*
X159022500Y-99467000I-62500J0D01*
G01*
X158272500Y-99467000D01*
G75*
G02*
X158210000Y-99404500I0J62500D01*
G01*
X158210000Y-99279500D01*
G75*
G02*
X158272500Y-99217000I62500J0D01*
G01*
G37*
G36*
G01*
X158272500Y-99717000D02*
X159022500Y-99717000D01*
G75*
G02*
X159085000Y-99779500I0J-62500D01*
G01*
X159085000Y-99904500D01*
G75*
G02*
X159022500Y-99967000I-62500J0D01*
G01*
X158272500Y-99967000D01*
G75*
G02*
X158210000Y-99904500I0J62500D01*
G01*
X158210000Y-99779500D01*
G75*
G02*
X158272500Y-99717000I62500J0D01*
G01*
G37*
G36*
G01*
X158272500Y-100217000D02*
X159022500Y-100217000D01*
G75*
G02*
X159085000Y-100279500I0J-62500D01*
G01*
X159085000Y-100404500D01*
G75*
G02*
X159022500Y-100467000I-62500J0D01*
G01*
X158272500Y-100467000D01*
G75*
G02*
X158210000Y-100404500I0J62500D01*
G01*
X158210000Y-100279500D01*
G75*
G02*
X158272500Y-100217000I62500J0D01*
G01*
G37*
G36*
G01*
X158272500Y-100717000D02*
X159022500Y-100717000D01*
G75*
G02*
X159085000Y-100779500I0J-62500D01*
G01*
X159085000Y-100904500D01*
G75*
G02*
X159022500Y-100967000I-62500J0D01*
G01*
X158272500Y-100967000D01*
G75*
G02*
X158210000Y-100904500I0J62500D01*
G01*
X158210000Y-100779500D01*
G75*
G02*
X158272500Y-100717000I62500J0D01*
G01*
G37*
G36*
G01*
X158272500Y-101217000D02*
X159022500Y-101217000D01*
G75*
G02*
X159085000Y-101279500I0J-62500D01*
G01*
X159085000Y-101404500D01*
G75*
G02*
X159022500Y-101467000I-62500J0D01*
G01*
X158272500Y-101467000D01*
G75*
G02*
X158210000Y-101404500I0J62500D01*
G01*
X158210000Y-101279500D01*
G75*
G02*
X158272500Y-101217000I62500J0D01*
G01*
G37*
G36*
G01*
X158272500Y-101717000D02*
X159022500Y-101717000D01*
G75*
G02*
X159085000Y-101779500I0J-62500D01*
G01*
X159085000Y-101904500D01*
G75*
G02*
X159022500Y-101967000I-62500J0D01*
G01*
X158272500Y-101967000D01*
G75*
G02*
X158210000Y-101904500I0J62500D01*
G01*
X158210000Y-101779500D01*
G75*
G02*
X158272500Y-101717000I62500J0D01*
G01*
G37*
G36*
G01*
X158272500Y-102217000D02*
X159022500Y-102217000D01*
G75*
G02*
X159085000Y-102279500I0J-62500D01*
G01*
X159085000Y-102404500D01*
G75*
G02*
X159022500Y-102467000I-62500J0D01*
G01*
X158272500Y-102467000D01*
G75*
G02*
X158210000Y-102404500I0J62500D01*
G01*
X158210000Y-102279500D01*
G75*
G02*
X158272500Y-102217000I62500J0D01*
G01*
G37*
G36*
G01*
X158272500Y-102717000D02*
X159022500Y-102717000D01*
G75*
G02*
X159085000Y-102779500I0J-62500D01*
G01*
X159085000Y-102904500D01*
G75*
G02*
X159022500Y-102967000I-62500J0D01*
G01*
X158272500Y-102967000D01*
G75*
G02*
X158210000Y-102904500I0J62500D01*
G01*
X158210000Y-102779500D01*
G75*
G02*
X158272500Y-102717000I62500J0D01*
G01*
G37*
G36*
G01*
X157897500Y-103092000D02*
X158022500Y-103092000D01*
G75*
G02*
X158085000Y-103154500I0J-62500D01*
G01*
X158085000Y-103904500D01*
G75*
G02*
X158022500Y-103967000I-62500J0D01*
G01*
X157897500Y-103967000D01*
G75*
G02*
X157835000Y-103904500I0J62500D01*
G01*
X157835000Y-103154500D01*
G75*
G02*
X157897500Y-103092000I62500J0D01*
G01*
G37*
G36*
G01*
X157397500Y-103092000D02*
X157522500Y-103092000D01*
G75*
G02*
X157585000Y-103154500I0J-62500D01*
G01*
X157585000Y-103904500D01*
G75*
G02*
X157522500Y-103967000I-62500J0D01*
G01*
X157397500Y-103967000D01*
G75*
G02*
X157335000Y-103904500I0J62500D01*
G01*
X157335000Y-103154500D01*
G75*
G02*
X157397500Y-103092000I62500J0D01*
G01*
G37*
G36*
G01*
X156897500Y-103092000D02*
X157022500Y-103092000D01*
G75*
G02*
X157085000Y-103154500I0J-62500D01*
G01*
X157085000Y-103904500D01*
G75*
G02*
X157022500Y-103967000I-62500J0D01*
G01*
X156897500Y-103967000D01*
G75*
G02*
X156835000Y-103904500I0J62500D01*
G01*
X156835000Y-103154500D01*
G75*
G02*
X156897500Y-103092000I62500J0D01*
G01*
G37*
G36*
G01*
X156397500Y-103092000D02*
X156522500Y-103092000D01*
G75*
G02*
X156585000Y-103154500I0J-62500D01*
G01*
X156585000Y-103904500D01*
G75*
G02*
X156522500Y-103967000I-62500J0D01*
G01*
X156397500Y-103967000D01*
G75*
G02*
X156335000Y-103904500I0J62500D01*
G01*
X156335000Y-103154500D01*
G75*
G02*
X156397500Y-103092000I62500J0D01*
G01*
G37*
G36*
G01*
X155897500Y-103092000D02*
X156022500Y-103092000D01*
G75*
G02*
X156085000Y-103154500I0J-62500D01*
G01*
X156085000Y-103904500D01*
G75*
G02*
X156022500Y-103967000I-62500J0D01*
G01*
X155897500Y-103967000D01*
G75*
G02*
X155835000Y-103904500I0J62500D01*
G01*
X155835000Y-103154500D01*
G75*
G02*
X155897500Y-103092000I62500J0D01*
G01*
G37*
G36*
G01*
X155397500Y-103092000D02*
X155522500Y-103092000D01*
G75*
G02*
X155585000Y-103154500I0J-62500D01*
G01*
X155585000Y-103904500D01*
G75*
G02*
X155522500Y-103967000I-62500J0D01*
G01*
X155397500Y-103967000D01*
G75*
G02*
X155335000Y-103904500I0J62500D01*
G01*
X155335000Y-103154500D01*
G75*
G02*
X155397500Y-103092000I62500J0D01*
G01*
G37*
G36*
G01*
X154897500Y-103092000D02*
X155022500Y-103092000D01*
G75*
G02*
X155085000Y-103154500I0J-62500D01*
G01*
X155085000Y-103904500D01*
G75*
G02*
X155022500Y-103967000I-62500J0D01*
G01*
X154897500Y-103967000D01*
G75*
G02*
X154835000Y-103904500I0J62500D01*
G01*
X154835000Y-103154500D01*
G75*
G02*
X154897500Y-103092000I62500J0D01*
G01*
G37*
G36*
G01*
X154397500Y-103092000D02*
X154522500Y-103092000D01*
G75*
G02*
X154585000Y-103154500I0J-62500D01*
G01*
X154585000Y-103904500D01*
G75*
G02*
X154522500Y-103967000I-62500J0D01*
G01*
X154397500Y-103967000D01*
G75*
G02*
X154335000Y-103904500I0J62500D01*
G01*
X154335000Y-103154500D01*
G75*
G02*
X154397500Y-103092000I62500J0D01*
G01*
G37*
G36*
G01*
X153397500Y-102717000D02*
X154147500Y-102717000D01*
G75*
G02*
X154210000Y-102779500I0J-62500D01*
G01*
X154210000Y-102904500D01*
G75*
G02*
X154147500Y-102967000I-62500J0D01*
G01*
X153397500Y-102967000D01*
G75*
G02*
X153335000Y-102904500I0J62500D01*
G01*
X153335000Y-102779500D01*
G75*
G02*
X153397500Y-102717000I62500J0D01*
G01*
G37*
G36*
G01*
X153397500Y-102217000D02*
X154147500Y-102217000D01*
G75*
G02*
X154210000Y-102279500I0J-62500D01*
G01*
X154210000Y-102404500D01*
G75*
G02*
X154147500Y-102467000I-62500J0D01*
G01*
X153397500Y-102467000D01*
G75*
G02*
X153335000Y-102404500I0J62500D01*
G01*
X153335000Y-102279500D01*
G75*
G02*
X153397500Y-102217000I62500J0D01*
G01*
G37*
G36*
G01*
X153397500Y-101717000D02*
X154147500Y-101717000D01*
G75*
G02*
X154210000Y-101779500I0J-62500D01*
G01*
X154210000Y-101904500D01*
G75*
G02*
X154147500Y-101967000I-62500J0D01*
G01*
X153397500Y-101967000D01*
G75*
G02*
X153335000Y-101904500I0J62500D01*
G01*
X153335000Y-101779500D01*
G75*
G02*
X153397500Y-101717000I62500J0D01*
G01*
G37*
G36*
G01*
X153397500Y-101217000D02*
X154147500Y-101217000D01*
G75*
G02*
X154210000Y-101279500I0J-62500D01*
G01*
X154210000Y-101404500D01*
G75*
G02*
X154147500Y-101467000I-62500J0D01*
G01*
X153397500Y-101467000D01*
G75*
G02*
X153335000Y-101404500I0J62500D01*
G01*
X153335000Y-101279500D01*
G75*
G02*
X153397500Y-101217000I62500J0D01*
G01*
G37*
G36*
G01*
X153397500Y-100717000D02*
X154147500Y-100717000D01*
G75*
G02*
X154210000Y-100779500I0J-62500D01*
G01*
X154210000Y-100904500D01*
G75*
G02*
X154147500Y-100967000I-62500J0D01*
G01*
X153397500Y-100967000D01*
G75*
G02*
X153335000Y-100904500I0J62500D01*
G01*
X153335000Y-100779500D01*
G75*
G02*
X153397500Y-100717000I62500J0D01*
G01*
G37*
G36*
G01*
X153397500Y-100217000D02*
X154147500Y-100217000D01*
G75*
G02*
X154210000Y-100279500I0J-62500D01*
G01*
X154210000Y-100404500D01*
G75*
G02*
X154147500Y-100467000I-62500J0D01*
G01*
X153397500Y-100467000D01*
G75*
G02*
X153335000Y-100404500I0J62500D01*
G01*
X153335000Y-100279500D01*
G75*
G02*
X153397500Y-100217000I62500J0D01*
G01*
G37*
G36*
G01*
X153397500Y-99717000D02*
X154147500Y-99717000D01*
G75*
G02*
X154210000Y-99779500I0J-62500D01*
G01*
X154210000Y-99904500D01*
G75*
G02*
X154147500Y-99967000I-62500J0D01*
G01*
X153397500Y-99967000D01*
G75*
G02*
X153335000Y-99904500I0J62500D01*
G01*
X153335000Y-99779500D01*
G75*
G02*
X153397500Y-99717000I62500J0D01*
G01*
G37*
G36*
G01*
X153397500Y-99217000D02*
X154147500Y-99217000D01*
G75*
G02*
X154210000Y-99279500I0J-62500D01*
G01*
X154210000Y-99404500D01*
G75*
G02*
X154147500Y-99467000I-62500J0D01*
G01*
X153397500Y-99467000D01*
G75*
G02*
X153335000Y-99404500I0J62500D01*
G01*
X153335000Y-99279500D01*
G75*
G02*
X153397500Y-99217000I62500J0D01*
G01*
G37*
G36*
G01*
X154397500Y-98217000D02*
X154522500Y-98217000D01*
G75*
G02*
X154585000Y-98279500I0J-62500D01*
G01*
X154585000Y-99029500D01*
G75*
G02*
X154522500Y-99092000I-62500J0D01*
G01*
X154397500Y-99092000D01*
G75*
G02*
X154335000Y-99029500I0J62500D01*
G01*
X154335000Y-98279500D01*
G75*
G02*
X154397500Y-98217000I62500J0D01*
G01*
G37*
G36*
G01*
X154897500Y-98217000D02*
X155022500Y-98217000D01*
G75*
G02*
X155085000Y-98279500I0J-62500D01*
G01*
X155085000Y-99029500D01*
G75*
G02*
X155022500Y-99092000I-62500J0D01*
G01*
X154897500Y-99092000D01*
G75*
G02*
X154835000Y-99029500I0J62500D01*
G01*
X154835000Y-98279500D01*
G75*
G02*
X154897500Y-98217000I62500J0D01*
G01*
G37*
G36*
G01*
X155397500Y-98217000D02*
X155522500Y-98217000D01*
G75*
G02*
X155585000Y-98279500I0J-62500D01*
G01*
X155585000Y-99029500D01*
G75*
G02*
X155522500Y-99092000I-62500J0D01*
G01*
X155397500Y-99092000D01*
G75*
G02*
X155335000Y-99029500I0J62500D01*
G01*
X155335000Y-98279500D01*
G75*
G02*
X155397500Y-98217000I62500J0D01*
G01*
G37*
G36*
G01*
X155897500Y-98217000D02*
X156022500Y-98217000D01*
G75*
G02*
X156085000Y-98279500I0J-62500D01*
G01*
X156085000Y-99029500D01*
G75*
G02*
X156022500Y-99092000I-62500J0D01*
G01*
X155897500Y-99092000D01*
G75*
G02*
X155835000Y-99029500I0J62500D01*
G01*
X155835000Y-98279500D01*
G75*
G02*
X155897500Y-98217000I62500J0D01*
G01*
G37*
G36*
G01*
X156397500Y-98217000D02*
X156522500Y-98217000D01*
G75*
G02*
X156585000Y-98279500I0J-62500D01*
G01*
X156585000Y-99029500D01*
G75*
G02*
X156522500Y-99092000I-62500J0D01*
G01*
X156397500Y-99092000D01*
G75*
G02*
X156335000Y-99029500I0J62500D01*
G01*
X156335000Y-98279500D01*
G75*
G02*
X156397500Y-98217000I62500J0D01*
G01*
G37*
G36*
G01*
X156897500Y-98217000D02*
X157022500Y-98217000D01*
G75*
G02*
X157085000Y-98279500I0J-62500D01*
G01*
X157085000Y-99029500D01*
G75*
G02*
X157022500Y-99092000I-62500J0D01*
G01*
X156897500Y-99092000D01*
G75*
G02*
X156835000Y-99029500I0J62500D01*
G01*
X156835000Y-98279500D01*
G75*
G02*
X156897500Y-98217000I62500J0D01*
G01*
G37*
G36*
G01*
X157397500Y-98217000D02*
X157522500Y-98217000D01*
G75*
G02*
X157585000Y-98279500I0J-62500D01*
G01*
X157585000Y-99029500D01*
G75*
G02*
X157522500Y-99092000I-62500J0D01*
G01*
X157397500Y-99092000D01*
G75*
G02*
X157335000Y-99029500I0J62500D01*
G01*
X157335000Y-98279500D01*
G75*
G02*
X157397500Y-98217000I62500J0D01*
G01*
G37*
G36*
G01*
X157897500Y-98217000D02*
X158022500Y-98217000D01*
G75*
G02*
X158085000Y-98279500I0J-62500D01*
G01*
X158085000Y-99029500D01*
G75*
G02*
X158022500Y-99092000I-62500J0D01*
G01*
X157897500Y-99092000D01*
G75*
G02*
X157835000Y-99029500I0J62500D01*
G01*
X157835000Y-98279500D01*
G75*
G02*
X157897500Y-98217000I62500J0D01*
G01*
G37*
D12*
X166667000Y-105664000D03*
X166667000Y-106614000D03*
X166667000Y-104714000D03*
X168867000Y-104714000D03*
X168867000Y-105664000D03*
X168867000Y-106614000D03*
G36*
G01*
X143414000Y-102359750D02*
X143414000Y-102872250D01*
G75*
G02*
X143195250Y-103091000I-218750J0D01*
G01*
X142757750Y-103091000D01*
G75*
G02*
X142539000Y-102872250I0J218750D01*
G01*
X142539000Y-102359750D01*
G75*
G02*
X142757750Y-102141000I218750J0D01*
G01*
X143195250Y-102141000D01*
G75*
G02*
X143414000Y-102359750I0J-218750D01*
G01*
G37*
G36*
G01*
X144989000Y-102359750D02*
X144989000Y-102872250D01*
G75*
G02*
X144770250Y-103091000I-218750J0D01*
G01*
X144332750Y-103091000D01*
G75*
G02*
X144114000Y-102872250I0J218750D01*
G01*
X144114000Y-102359750D01*
G75*
G02*
X144332750Y-102141000I218750J0D01*
G01*
X144770250Y-102141000D01*
G75*
G02*
X144989000Y-102359750I0J-218750D01*
G01*
G37*
G36*
G01*
X165196000Y-98808250D02*
X165196000Y-98295750D01*
G75*
G02*
X165414750Y-98077000I218750J0D01*
G01*
X165852250Y-98077000D01*
G75*
G02*
X166071000Y-98295750I0J-218750D01*
G01*
X166071000Y-98808250D01*
G75*
G02*
X165852250Y-99027000I-218750J0D01*
G01*
X165414750Y-99027000D01*
G75*
G02*
X165196000Y-98808250I0J218750D01*
G01*
G37*
G36*
G01*
X163621000Y-98808250D02*
X163621000Y-98295750D01*
G75*
G02*
X163839750Y-98077000I218750J0D01*
G01*
X164277250Y-98077000D01*
G75*
G02*
X164496000Y-98295750I0J-218750D01*
G01*
X164496000Y-98808250D01*
G75*
G02*
X164277250Y-99027000I-218750J0D01*
G01*
X163839750Y-99027000D01*
G75*
G02*
X163621000Y-98808250I0J218750D01*
G01*
G37*
G36*
G01*
X162148000Y-97284250D02*
X162148000Y-96771750D01*
G75*
G02*
X162366750Y-96553000I218750J0D01*
G01*
X162804250Y-96553000D01*
G75*
G02*
X163023000Y-96771750I0J-218750D01*
G01*
X163023000Y-97284250D01*
G75*
G02*
X162804250Y-97503000I-218750J0D01*
G01*
X162366750Y-97503000D01*
G75*
G02*
X162148000Y-97284250I0J218750D01*
G01*
G37*
G36*
G01*
X160573000Y-97284250D02*
X160573000Y-96771750D01*
G75*
G02*
X160791750Y-96553000I218750J0D01*
G01*
X161229250Y-96553000D01*
G75*
G02*
X161448000Y-96771750I0J-218750D01*
G01*
X161448000Y-97284250D01*
G75*
G02*
X161229250Y-97503000I-218750J0D01*
G01*
X160791750Y-97503000D01*
G75*
G02*
X160573000Y-97284250I0J218750D01*
G01*
G37*
G36*
G01*
X143414000Y-104137750D02*
X143414000Y-104650250D01*
G75*
G02*
X143195250Y-104869000I-218750J0D01*
G01*
X142757750Y-104869000D01*
G75*
G02*
X142539000Y-104650250I0J218750D01*
G01*
X142539000Y-104137750D01*
G75*
G02*
X142757750Y-103919000I218750J0D01*
G01*
X143195250Y-103919000D01*
G75*
G02*
X143414000Y-104137750I0J-218750D01*
G01*
G37*
G36*
G01*
X144989000Y-104137750D02*
X144989000Y-104650250D01*
G75*
G02*
X144770250Y-104869000I-218750J0D01*
G01*
X144332750Y-104869000D01*
G75*
G02*
X144114000Y-104650250I0J218750D01*
G01*
X144114000Y-104137750D01*
G75*
G02*
X144332750Y-103919000I218750J0D01*
G01*
X144770250Y-103919000D01*
G75*
G02*
X144989000Y-104137750I0J-218750D01*
G01*
G37*
G36*
G01*
X162148000Y-98808250D02*
X162148000Y-98295750D01*
G75*
G02*
X162366750Y-98077000I218750J0D01*
G01*
X162804250Y-98077000D01*
G75*
G02*
X163023000Y-98295750I0J-218750D01*
G01*
X163023000Y-98808250D01*
G75*
G02*
X162804250Y-99027000I-218750J0D01*
G01*
X162366750Y-99027000D01*
G75*
G02*
X162148000Y-98808250I0J218750D01*
G01*
G37*
G36*
G01*
X160573000Y-98808250D02*
X160573000Y-98295750D01*
G75*
G02*
X160791750Y-98077000I218750J0D01*
G01*
X161229250Y-98077000D01*
G75*
G02*
X161448000Y-98295750I0J-218750D01*
G01*
X161448000Y-98808250D01*
G75*
G02*
X161229250Y-99027000I-218750J0D01*
G01*
X160791750Y-99027000D01*
G75*
G02*
X160573000Y-98808250I0J218750D01*
G01*
G37*
G36*
G01*
X143414000Y-105915750D02*
X143414000Y-106428250D01*
G75*
G02*
X143195250Y-106647000I-218750J0D01*
G01*
X142757750Y-106647000D01*
G75*
G02*
X142539000Y-106428250I0J218750D01*
G01*
X142539000Y-105915750D01*
G75*
G02*
X142757750Y-105697000I218750J0D01*
G01*
X143195250Y-105697000D01*
G75*
G02*
X143414000Y-105915750I0J-218750D01*
G01*
G37*
G36*
G01*
X144989000Y-105915750D02*
X144989000Y-106428250D01*
G75*
G02*
X144770250Y-106647000I-218750J0D01*
G01*
X144332750Y-106647000D01*
G75*
G02*
X144114000Y-106428250I0J218750D01*
G01*
X144114000Y-105915750D01*
G75*
G02*
X144332750Y-105697000I218750J0D01*
G01*
X144770250Y-105697000D01*
G75*
G02*
X144989000Y-105915750I0J-218750D01*
G01*
G37*
G36*
G01*
X164688000Y-106936250D02*
X164688000Y-106423750D01*
G75*
G02*
X164906750Y-106205000I218750J0D01*
G01*
X165344250Y-106205000D01*
G75*
G02*
X165563000Y-106423750I0J-218750D01*
G01*
X165563000Y-106936250D01*
G75*
G02*
X165344250Y-107155000I-218750J0D01*
G01*
X164906750Y-107155000D01*
G75*
G02*
X164688000Y-106936250I0J218750D01*
G01*
G37*
G36*
G01*
X163113000Y-106936250D02*
X163113000Y-106423750D01*
G75*
G02*
X163331750Y-106205000I218750J0D01*
G01*
X163769250Y-106205000D01*
G75*
G02*
X163988000Y-106423750I0J-218750D01*
G01*
X163988000Y-106936250D01*
G75*
G02*
X163769250Y-107155000I-218750J0D01*
G01*
X163331750Y-107155000D01*
G75*
G02*
X163113000Y-106936250I0J218750D01*
G01*
G37*
G36*
G01*
X164688000Y-105412250D02*
X164688000Y-104899750D01*
G75*
G02*
X164906750Y-104681000I218750J0D01*
G01*
X165344250Y-104681000D01*
G75*
G02*
X165563000Y-104899750I0J-218750D01*
G01*
X165563000Y-105412250D01*
G75*
G02*
X165344250Y-105631000I-218750J0D01*
G01*
X164906750Y-105631000D01*
G75*
G02*
X164688000Y-105412250I0J218750D01*
G01*
G37*
G36*
G01*
X163113000Y-105412250D02*
X163113000Y-104899750D01*
G75*
G02*
X163331750Y-104681000I218750J0D01*
G01*
X163769250Y-104681000D01*
G75*
G02*
X163988000Y-104899750I0J-218750D01*
G01*
X163988000Y-105412250D01*
G75*
G02*
X163769250Y-105631000I-218750J0D01*
G01*
X163331750Y-105631000D01*
G75*
G02*
X163113000Y-105412250I0J218750D01*
G01*
G37*
D13*
X164196000Y-100650000D03*
X165496000Y-100650000D03*
X164846000Y-102550000D03*
X164846000Y-100650000D03*
X165496000Y-102550000D03*
X164196000Y-102550000D03*
D14*
X151371000Y-102694000D03*
X151371000Y-104394000D03*
X151371000Y-106094000D03*
X146571000Y-106094000D03*
X146571000Y-104394000D03*
X146571000Y-102694000D03*
D13*
X144414000Y-98364000D03*
X143114000Y-98364000D03*
X143764000Y-100264000D03*
X143764000Y-98364000D03*
X143114000Y-100264000D03*
X144414000Y-100264000D03*
G36*
G01*
X167137500Y-102867750D02*
X167137500Y-103380250D01*
G75*
G02*
X166918750Y-103599000I-218750J0D01*
G01*
X166481250Y-103599000D01*
G75*
G02*
X166262500Y-103380250I0J218750D01*
G01*
X166262500Y-102867750D01*
G75*
G02*
X166481250Y-102649000I218750J0D01*
G01*
X166918750Y-102649000D01*
G75*
G02*
X167137500Y-102867750I0J-218750D01*
G01*
G37*
G36*
G01*
X168712500Y-102867750D02*
X168712500Y-103380250D01*
G75*
G02*
X168493750Y-103599000I-218750J0D01*
G01*
X168056250Y-103599000D01*
G75*
G02*
X167837500Y-103380250I0J218750D01*
G01*
X167837500Y-102867750D01*
G75*
G02*
X168056250Y-102649000I218750J0D01*
G01*
X168493750Y-102649000D01*
G75*
G02*
X168712500Y-102867750I0J-218750D01*
G01*
G37*
G36*
G01*
X149194000Y-97030250D02*
X149194000Y-96517750D01*
G75*
G02*
X149412750Y-96299000I218750J0D01*
G01*
X149850250Y-96299000D01*
G75*
G02*
X150069000Y-96517750I0J-218750D01*
G01*
X150069000Y-97030250D01*
G75*
G02*
X149850250Y-97249000I-218750J0D01*
G01*
X149412750Y-97249000D01*
G75*
G02*
X149194000Y-97030250I0J218750D01*
G01*
G37*
G36*
G01*
X147619000Y-97030250D02*
X147619000Y-96517750D01*
G75*
G02*
X147837750Y-96299000I218750J0D01*
G01*
X148275250Y-96299000D01*
G75*
G02*
X148494000Y-96517750I0J-218750D01*
G01*
X148494000Y-97030250D01*
G75*
G02*
X148275250Y-97249000I-218750J0D01*
G01*
X147837750Y-97249000D01*
G75*
G02*
X147619000Y-97030250I0J218750D01*
G01*
G37*
G36*
G01*
X154082000Y-105661750D02*
X154082000Y-106174250D01*
G75*
G02*
X153863250Y-106393000I-218750J0D01*
G01*
X153425750Y-106393000D01*
G75*
G02*
X153207000Y-106174250I0J218750D01*
G01*
X153207000Y-105661750D01*
G75*
G02*
X153425750Y-105443000I218750J0D01*
G01*
X153863250Y-105443000D01*
G75*
G02*
X154082000Y-105661750I0J-218750D01*
G01*
G37*
G36*
G01*
X155657000Y-105661750D02*
X155657000Y-106174250D01*
G75*
G02*
X155438250Y-106393000I-218750J0D01*
G01*
X155000750Y-106393000D01*
G75*
G02*
X154782000Y-106174250I0J218750D01*
G01*
X154782000Y-105661750D01*
G75*
G02*
X155000750Y-105443000I218750J0D01*
G01*
X155438250Y-105443000D01*
G75*
G02*
X155657000Y-105661750I0J-218750D01*
G01*
G37*
G36*
G01*
X157830000Y-97030250D02*
X157830000Y-96517750D01*
G75*
G02*
X158048750Y-96299000I218750J0D01*
G01*
X158486250Y-96299000D01*
G75*
G02*
X158705000Y-96517750I0J-218750D01*
G01*
X158705000Y-97030250D01*
G75*
G02*
X158486250Y-97249000I-218750J0D01*
G01*
X158048750Y-97249000D01*
G75*
G02*
X157830000Y-97030250I0J218750D01*
G01*
G37*
G36*
G01*
X156255000Y-97030250D02*
X156255000Y-96517750D01*
G75*
G02*
X156473750Y-96299000I218750J0D01*
G01*
X156911250Y-96299000D01*
G75*
G02*
X157130000Y-96517750I0J-218750D01*
G01*
X157130000Y-97030250D01*
G75*
G02*
X156911250Y-97249000I-218750J0D01*
G01*
X156473750Y-97249000D01*
G75*
G02*
X156255000Y-97030250I0J218750D01*
G01*
G37*
G36*
G01*
X145539750Y-99664000D02*
X146052250Y-99664000D01*
G75*
G02*
X146271000Y-99882750I0J-218750D01*
G01*
X146271000Y-100320250D01*
G75*
G02*
X146052250Y-100539000I-218750J0D01*
G01*
X145539750Y-100539000D01*
G75*
G02*
X145321000Y-100320250I0J218750D01*
G01*
X145321000Y-99882750D01*
G75*
G02*
X145539750Y-99664000I218750J0D01*
G01*
G37*
G36*
G01*
X145539750Y-98089000D02*
X146052250Y-98089000D01*
G75*
G02*
X146271000Y-98307750I0J-218750D01*
G01*
X146271000Y-98745250D01*
G75*
G02*
X146052250Y-98964000I-218750J0D01*
G01*
X145539750Y-98964000D01*
G75*
G02*
X145321000Y-98745250I0J218750D01*
G01*
X145321000Y-98307750D01*
G75*
G02*
X145539750Y-98089000I218750J0D01*
G01*
G37*
M02*
