G04 #@! TF.GenerationSoftware,KiCad,Pcbnew,5.1.6-c6e7f7d~86~ubuntu20.04.1*
G04 #@! TF.CreationDate,2020-07-01T18:46:00+05:00*
G04 #@! TF.ProjectId,Main,4d61696e-2e6b-4696-9361-645f70636258,rev?*
G04 #@! TF.SameCoordinates,Original*
G04 #@! TF.FileFunction,Soldermask,Top*
G04 #@! TF.FilePolarity,Negative*
%FSLAX46Y46*%
G04 Gerber Fmt 4.6, Leading zero omitted, Abs format (unit mm)*
G04 Created by KiCad (PCBNEW 5.1.6-c6e7f7d~86~ubuntu20.04.1) date 2020-07-01 18:46:00*
%MOMM*%
%LPD*%
G01*
G04 APERTURE LIST*
%ADD10R,1.650000X2.580000*%
%ADD11R,0.750000X0.400000*%
%ADD12R,1.600000X1.000000*%
%ADD13R,3.550000X3.550000*%
%ADD14R,1.160000X0.750000*%
%ADD15C,1.100000*%
%ADD16R,7.700000X2.100000*%
%ADD17R,8.300000X2.100000*%
%ADD18R,0.500000X0.750000*%
%ADD19R,2.100000X1.200000*%
G04 APERTURE END LIST*
G36*
G01*
X167187500Y-96746750D02*
X167187500Y-97309250D01*
G75*
G02*
X166943750Y-97553000I-243750J0D01*
G01*
X166456250Y-97553000D01*
G75*
G02*
X166212500Y-97309250I0J243750D01*
G01*
X166212500Y-96746750D01*
G75*
G02*
X166456250Y-96503000I243750J0D01*
G01*
X166943750Y-96503000D01*
G75*
G02*
X167187500Y-96746750I0J-243750D01*
G01*
G37*
G36*
G01*
X168762500Y-96746750D02*
X168762500Y-97309250D01*
G75*
G02*
X168518750Y-97553000I-243750J0D01*
G01*
X168031250Y-97553000D01*
G75*
G02*
X167787500Y-97309250I0J243750D01*
G01*
X167787500Y-96746750D01*
G75*
G02*
X168031250Y-96503000I243750J0D01*
G01*
X168518750Y-96503000D01*
G75*
G02*
X168762500Y-96746750I0J-243750D01*
G01*
G37*
D10*
X149098000Y-99568000D03*
D11*
X150648000Y-98568000D03*
X150648000Y-99068000D03*
X150648000Y-99568000D03*
X150648000Y-100068000D03*
X150648000Y-100568000D03*
X147548000Y-100568000D03*
X147548000Y-100068000D03*
X147548000Y-99568000D03*
X147548000Y-99068000D03*
X147548000Y-98568000D03*
G36*
G01*
X161498000Y-99794750D02*
X161498000Y-100357250D01*
G75*
G02*
X161254250Y-100601000I-243750J0D01*
G01*
X160766750Y-100601000D01*
G75*
G02*
X160523000Y-100357250I0J243750D01*
G01*
X160523000Y-99794750D01*
G75*
G02*
X160766750Y-99551000I243750J0D01*
G01*
X161254250Y-99551000D01*
G75*
G02*
X161498000Y-99794750I0J-243750D01*
G01*
G37*
G36*
G01*
X163073000Y-99794750D02*
X163073000Y-100357250D01*
G75*
G02*
X162829250Y-100601000I-243750J0D01*
G01*
X162341750Y-100601000D01*
G75*
G02*
X162098000Y-100357250I0J243750D01*
G01*
X162098000Y-99794750D01*
G75*
G02*
X162341750Y-99551000I243750J0D01*
G01*
X162829250Y-99551000D01*
G75*
G02*
X163073000Y-99794750I0J-243750D01*
G01*
G37*
G36*
G01*
X161498000Y-101318750D02*
X161498000Y-101881250D01*
G75*
G02*
X161254250Y-102125000I-243750J0D01*
G01*
X160766750Y-102125000D01*
G75*
G02*
X160523000Y-101881250I0J243750D01*
G01*
X160523000Y-101318750D01*
G75*
G02*
X160766750Y-101075000I243750J0D01*
G01*
X161254250Y-101075000D01*
G75*
G02*
X161498000Y-101318750I0J-243750D01*
G01*
G37*
G36*
G01*
X163073000Y-101318750D02*
X163073000Y-101881250D01*
G75*
G02*
X162829250Y-102125000I-243750J0D01*
G01*
X162341750Y-102125000D01*
G75*
G02*
X162098000Y-101881250I0J243750D01*
G01*
X162098000Y-101318750D01*
G75*
G02*
X162341750Y-101075000I243750J0D01*
G01*
X162829250Y-101075000D01*
G75*
G02*
X163073000Y-101318750I0J-243750D01*
G01*
G37*
G36*
G01*
X161498000Y-102842750D02*
X161498000Y-103405250D01*
G75*
G02*
X161254250Y-103649000I-243750J0D01*
G01*
X160766750Y-103649000D01*
G75*
G02*
X160523000Y-103405250I0J243750D01*
G01*
X160523000Y-102842750D01*
G75*
G02*
X160766750Y-102599000I243750J0D01*
G01*
X161254250Y-102599000D01*
G75*
G02*
X161498000Y-102842750I0J-243750D01*
G01*
G37*
G36*
G01*
X163073000Y-102842750D02*
X163073000Y-103405250D01*
G75*
G02*
X162829250Y-103649000I-243750J0D01*
G01*
X162341750Y-103649000D01*
G75*
G02*
X162098000Y-103405250I0J243750D01*
G01*
X162098000Y-102842750D01*
G75*
G02*
X162341750Y-102599000I243750J0D01*
G01*
X162829250Y-102599000D01*
G75*
G02*
X163073000Y-102842750I0J-243750D01*
G01*
G37*
G36*
G01*
X160990000Y-104366750D02*
X160990000Y-104929250D01*
G75*
G02*
X160746250Y-105173000I-243750J0D01*
G01*
X160258750Y-105173000D01*
G75*
G02*
X160015000Y-104929250I0J243750D01*
G01*
X160015000Y-104366750D01*
G75*
G02*
X160258750Y-104123000I243750J0D01*
G01*
X160746250Y-104123000D01*
G75*
G02*
X160990000Y-104366750I0J-243750D01*
G01*
G37*
G36*
G01*
X162565000Y-104366750D02*
X162565000Y-104929250D01*
G75*
G02*
X162321250Y-105173000I-243750J0D01*
G01*
X161833750Y-105173000D01*
G75*
G02*
X161590000Y-104929250I0J243750D01*
G01*
X161590000Y-104366750D01*
G75*
G02*
X161833750Y-104123000I243750J0D01*
G01*
X162321250Y-104123000D01*
G75*
G02*
X162565000Y-104366750I0J-243750D01*
G01*
G37*
G36*
G01*
X167090000Y-101263000D02*
X166890000Y-101263000D01*
G75*
G02*
X166790000Y-101163000I0J100000D01*
G01*
X166790000Y-100513000D01*
G75*
G02*
X166890000Y-100413000I100000J0D01*
G01*
X167090000Y-100413000D01*
G75*
G02*
X167190000Y-100513000I0J-100000D01*
G01*
X167190000Y-101163000D01*
G75*
G02*
X167090000Y-101263000I-100000J0D01*
G01*
G37*
D12*
X167640000Y-99758500D03*
G36*
G01*
X168390000Y-99104000D02*
X168190000Y-99104000D01*
G75*
G02*
X168090000Y-99004000I0J100000D01*
G01*
X168090000Y-98354000D01*
G75*
G02*
X168190000Y-98254000I100000J0D01*
G01*
X168390000Y-98254000D01*
G75*
G02*
X168490000Y-98354000I0J-100000D01*
G01*
X168490000Y-99004000D01*
G75*
G02*
X168390000Y-99104000I-100000J0D01*
G01*
G37*
G36*
G01*
X167740000Y-101263000D02*
X167540000Y-101263000D01*
G75*
G02*
X167440000Y-101163000I0J100000D01*
G01*
X167440000Y-100513000D01*
G75*
G02*
X167540000Y-100413000I100000J0D01*
G01*
X167740000Y-100413000D01*
G75*
G02*
X167840000Y-100513000I0J-100000D01*
G01*
X167840000Y-101163000D01*
G75*
G02*
X167740000Y-101263000I-100000J0D01*
G01*
G37*
G36*
G01*
X167090000Y-99104000D02*
X166890000Y-99104000D01*
G75*
G02*
X166790000Y-99004000I0J100000D01*
G01*
X166790000Y-98354000D01*
G75*
G02*
X166890000Y-98254000I100000J0D01*
G01*
X167090000Y-98254000D01*
G75*
G02*
X167190000Y-98354000I0J-100000D01*
G01*
X167190000Y-99004000D01*
G75*
G02*
X167090000Y-99104000I-100000J0D01*
G01*
G37*
G36*
G01*
X167740000Y-99104000D02*
X167540000Y-99104000D01*
G75*
G02*
X167440000Y-99004000I0J100000D01*
G01*
X167440000Y-98354000D01*
G75*
G02*
X167540000Y-98254000I100000J0D01*
G01*
X167740000Y-98254000D01*
G75*
G02*
X167840000Y-98354000I0J-100000D01*
G01*
X167840000Y-99004000D01*
G75*
G02*
X167740000Y-99104000I-100000J0D01*
G01*
G37*
G36*
G01*
X168390000Y-101263000D02*
X168190000Y-101263000D01*
G75*
G02*
X168090000Y-101163000I0J100000D01*
G01*
X168090000Y-100513000D01*
G75*
G02*
X168190000Y-100413000I100000J0D01*
G01*
X168390000Y-100413000D01*
G75*
G02*
X168490000Y-100513000I0J-100000D01*
G01*
X168490000Y-101163000D01*
G75*
G02*
X168390000Y-101263000I-100000J0D01*
G01*
G37*
D13*
X156210000Y-101092000D03*
G36*
G01*
X158247500Y-99167000D02*
X159047500Y-99167000D01*
G75*
G02*
X159135000Y-99254500I0J-87500D01*
G01*
X159135000Y-99429500D01*
G75*
G02*
X159047500Y-99517000I-87500J0D01*
G01*
X158247500Y-99517000D01*
G75*
G02*
X158160000Y-99429500I0J87500D01*
G01*
X158160000Y-99254500D01*
G75*
G02*
X158247500Y-99167000I87500J0D01*
G01*
G37*
G36*
G01*
X158247500Y-99667000D02*
X159047500Y-99667000D01*
G75*
G02*
X159135000Y-99754500I0J-87500D01*
G01*
X159135000Y-99929500D01*
G75*
G02*
X159047500Y-100017000I-87500J0D01*
G01*
X158247500Y-100017000D01*
G75*
G02*
X158160000Y-99929500I0J87500D01*
G01*
X158160000Y-99754500D01*
G75*
G02*
X158247500Y-99667000I87500J0D01*
G01*
G37*
G36*
G01*
X158247500Y-100167000D02*
X159047500Y-100167000D01*
G75*
G02*
X159135000Y-100254500I0J-87500D01*
G01*
X159135000Y-100429500D01*
G75*
G02*
X159047500Y-100517000I-87500J0D01*
G01*
X158247500Y-100517000D01*
G75*
G02*
X158160000Y-100429500I0J87500D01*
G01*
X158160000Y-100254500D01*
G75*
G02*
X158247500Y-100167000I87500J0D01*
G01*
G37*
G36*
G01*
X158247500Y-100667000D02*
X159047500Y-100667000D01*
G75*
G02*
X159135000Y-100754500I0J-87500D01*
G01*
X159135000Y-100929500D01*
G75*
G02*
X159047500Y-101017000I-87500J0D01*
G01*
X158247500Y-101017000D01*
G75*
G02*
X158160000Y-100929500I0J87500D01*
G01*
X158160000Y-100754500D01*
G75*
G02*
X158247500Y-100667000I87500J0D01*
G01*
G37*
G36*
G01*
X158247500Y-101167000D02*
X159047500Y-101167000D01*
G75*
G02*
X159135000Y-101254500I0J-87500D01*
G01*
X159135000Y-101429500D01*
G75*
G02*
X159047500Y-101517000I-87500J0D01*
G01*
X158247500Y-101517000D01*
G75*
G02*
X158160000Y-101429500I0J87500D01*
G01*
X158160000Y-101254500D01*
G75*
G02*
X158247500Y-101167000I87500J0D01*
G01*
G37*
G36*
G01*
X158247500Y-101667000D02*
X159047500Y-101667000D01*
G75*
G02*
X159135000Y-101754500I0J-87500D01*
G01*
X159135000Y-101929500D01*
G75*
G02*
X159047500Y-102017000I-87500J0D01*
G01*
X158247500Y-102017000D01*
G75*
G02*
X158160000Y-101929500I0J87500D01*
G01*
X158160000Y-101754500D01*
G75*
G02*
X158247500Y-101667000I87500J0D01*
G01*
G37*
G36*
G01*
X158247500Y-102167000D02*
X159047500Y-102167000D01*
G75*
G02*
X159135000Y-102254500I0J-87500D01*
G01*
X159135000Y-102429500D01*
G75*
G02*
X159047500Y-102517000I-87500J0D01*
G01*
X158247500Y-102517000D01*
G75*
G02*
X158160000Y-102429500I0J87500D01*
G01*
X158160000Y-102254500D01*
G75*
G02*
X158247500Y-102167000I87500J0D01*
G01*
G37*
G36*
G01*
X158247500Y-102667000D02*
X159047500Y-102667000D01*
G75*
G02*
X159135000Y-102754500I0J-87500D01*
G01*
X159135000Y-102929500D01*
G75*
G02*
X159047500Y-103017000I-87500J0D01*
G01*
X158247500Y-103017000D01*
G75*
G02*
X158160000Y-102929500I0J87500D01*
G01*
X158160000Y-102754500D01*
G75*
G02*
X158247500Y-102667000I87500J0D01*
G01*
G37*
G36*
G01*
X157872500Y-103042000D02*
X158047500Y-103042000D01*
G75*
G02*
X158135000Y-103129500I0J-87500D01*
G01*
X158135000Y-103929500D01*
G75*
G02*
X158047500Y-104017000I-87500J0D01*
G01*
X157872500Y-104017000D01*
G75*
G02*
X157785000Y-103929500I0J87500D01*
G01*
X157785000Y-103129500D01*
G75*
G02*
X157872500Y-103042000I87500J0D01*
G01*
G37*
G36*
G01*
X157372500Y-103042000D02*
X157547500Y-103042000D01*
G75*
G02*
X157635000Y-103129500I0J-87500D01*
G01*
X157635000Y-103929500D01*
G75*
G02*
X157547500Y-104017000I-87500J0D01*
G01*
X157372500Y-104017000D01*
G75*
G02*
X157285000Y-103929500I0J87500D01*
G01*
X157285000Y-103129500D01*
G75*
G02*
X157372500Y-103042000I87500J0D01*
G01*
G37*
G36*
G01*
X156872500Y-103042000D02*
X157047500Y-103042000D01*
G75*
G02*
X157135000Y-103129500I0J-87500D01*
G01*
X157135000Y-103929500D01*
G75*
G02*
X157047500Y-104017000I-87500J0D01*
G01*
X156872500Y-104017000D01*
G75*
G02*
X156785000Y-103929500I0J87500D01*
G01*
X156785000Y-103129500D01*
G75*
G02*
X156872500Y-103042000I87500J0D01*
G01*
G37*
G36*
G01*
X156372500Y-103042000D02*
X156547500Y-103042000D01*
G75*
G02*
X156635000Y-103129500I0J-87500D01*
G01*
X156635000Y-103929500D01*
G75*
G02*
X156547500Y-104017000I-87500J0D01*
G01*
X156372500Y-104017000D01*
G75*
G02*
X156285000Y-103929500I0J87500D01*
G01*
X156285000Y-103129500D01*
G75*
G02*
X156372500Y-103042000I87500J0D01*
G01*
G37*
G36*
G01*
X155872500Y-103042000D02*
X156047500Y-103042000D01*
G75*
G02*
X156135000Y-103129500I0J-87500D01*
G01*
X156135000Y-103929500D01*
G75*
G02*
X156047500Y-104017000I-87500J0D01*
G01*
X155872500Y-104017000D01*
G75*
G02*
X155785000Y-103929500I0J87500D01*
G01*
X155785000Y-103129500D01*
G75*
G02*
X155872500Y-103042000I87500J0D01*
G01*
G37*
G36*
G01*
X155372500Y-103042000D02*
X155547500Y-103042000D01*
G75*
G02*
X155635000Y-103129500I0J-87500D01*
G01*
X155635000Y-103929500D01*
G75*
G02*
X155547500Y-104017000I-87500J0D01*
G01*
X155372500Y-104017000D01*
G75*
G02*
X155285000Y-103929500I0J87500D01*
G01*
X155285000Y-103129500D01*
G75*
G02*
X155372500Y-103042000I87500J0D01*
G01*
G37*
G36*
G01*
X154872500Y-103042000D02*
X155047500Y-103042000D01*
G75*
G02*
X155135000Y-103129500I0J-87500D01*
G01*
X155135000Y-103929500D01*
G75*
G02*
X155047500Y-104017000I-87500J0D01*
G01*
X154872500Y-104017000D01*
G75*
G02*
X154785000Y-103929500I0J87500D01*
G01*
X154785000Y-103129500D01*
G75*
G02*
X154872500Y-103042000I87500J0D01*
G01*
G37*
G36*
G01*
X154372500Y-103042000D02*
X154547500Y-103042000D01*
G75*
G02*
X154635000Y-103129500I0J-87500D01*
G01*
X154635000Y-103929500D01*
G75*
G02*
X154547500Y-104017000I-87500J0D01*
G01*
X154372500Y-104017000D01*
G75*
G02*
X154285000Y-103929500I0J87500D01*
G01*
X154285000Y-103129500D01*
G75*
G02*
X154372500Y-103042000I87500J0D01*
G01*
G37*
G36*
G01*
X153372500Y-102667000D02*
X154172500Y-102667000D01*
G75*
G02*
X154260000Y-102754500I0J-87500D01*
G01*
X154260000Y-102929500D01*
G75*
G02*
X154172500Y-103017000I-87500J0D01*
G01*
X153372500Y-103017000D01*
G75*
G02*
X153285000Y-102929500I0J87500D01*
G01*
X153285000Y-102754500D01*
G75*
G02*
X153372500Y-102667000I87500J0D01*
G01*
G37*
G36*
G01*
X153372500Y-102167000D02*
X154172500Y-102167000D01*
G75*
G02*
X154260000Y-102254500I0J-87500D01*
G01*
X154260000Y-102429500D01*
G75*
G02*
X154172500Y-102517000I-87500J0D01*
G01*
X153372500Y-102517000D01*
G75*
G02*
X153285000Y-102429500I0J87500D01*
G01*
X153285000Y-102254500D01*
G75*
G02*
X153372500Y-102167000I87500J0D01*
G01*
G37*
G36*
G01*
X153372500Y-101667000D02*
X154172500Y-101667000D01*
G75*
G02*
X154260000Y-101754500I0J-87500D01*
G01*
X154260000Y-101929500D01*
G75*
G02*
X154172500Y-102017000I-87500J0D01*
G01*
X153372500Y-102017000D01*
G75*
G02*
X153285000Y-101929500I0J87500D01*
G01*
X153285000Y-101754500D01*
G75*
G02*
X153372500Y-101667000I87500J0D01*
G01*
G37*
G36*
G01*
X153372500Y-101167000D02*
X154172500Y-101167000D01*
G75*
G02*
X154260000Y-101254500I0J-87500D01*
G01*
X154260000Y-101429500D01*
G75*
G02*
X154172500Y-101517000I-87500J0D01*
G01*
X153372500Y-101517000D01*
G75*
G02*
X153285000Y-101429500I0J87500D01*
G01*
X153285000Y-101254500D01*
G75*
G02*
X153372500Y-101167000I87500J0D01*
G01*
G37*
G36*
G01*
X153372500Y-100667000D02*
X154172500Y-100667000D01*
G75*
G02*
X154260000Y-100754500I0J-87500D01*
G01*
X154260000Y-100929500D01*
G75*
G02*
X154172500Y-101017000I-87500J0D01*
G01*
X153372500Y-101017000D01*
G75*
G02*
X153285000Y-100929500I0J87500D01*
G01*
X153285000Y-100754500D01*
G75*
G02*
X153372500Y-100667000I87500J0D01*
G01*
G37*
G36*
G01*
X153372500Y-100167000D02*
X154172500Y-100167000D01*
G75*
G02*
X154260000Y-100254500I0J-87500D01*
G01*
X154260000Y-100429500D01*
G75*
G02*
X154172500Y-100517000I-87500J0D01*
G01*
X153372500Y-100517000D01*
G75*
G02*
X153285000Y-100429500I0J87500D01*
G01*
X153285000Y-100254500D01*
G75*
G02*
X153372500Y-100167000I87500J0D01*
G01*
G37*
G36*
G01*
X153372500Y-99667000D02*
X154172500Y-99667000D01*
G75*
G02*
X154260000Y-99754500I0J-87500D01*
G01*
X154260000Y-99929500D01*
G75*
G02*
X154172500Y-100017000I-87500J0D01*
G01*
X153372500Y-100017000D01*
G75*
G02*
X153285000Y-99929500I0J87500D01*
G01*
X153285000Y-99754500D01*
G75*
G02*
X153372500Y-99667000I87500J0D01*
G01*
G37*
G36*
G01*
X153372500Y-99167000D02*
X154172500Y-99167000D01*
G75*
G02*
X154260000Y-99254500I0J-87500D01*
G01*
X154260000Y-99429500D01*
G75*
G02*
X154172500Y-99517000I-87500J0D01*
G01*
X153372500Y-99517000D01*
G75*
G02*
X153285000Y-99429500I0J87500D01*
G01*
X153285000Y-99254500D01*
G75*
G02*
X153372500Y-99167000I87500J0D01*
G01*
G37*
G36*
G01*
X154372500Y-98167000D02*
X154547500Y-98167000D01*
G75*
G02*
X154635000Y-98254500I0J-87500D01*
G01*
X154635000Y-99054500D01*
G75*
G02*
X154547500Y-99142000I-87500J0D01*
G01*
X154372500Y-99142000D01*
G75*
G02*
X154285000Y-99054500I0J87500D01*
G01*
X154285000Y-98254500D01*
G75*
G02*
X154372500Y-98167000I87500J0D01*
G01*
G37*
G36*
G01*
X154872500Y-98167000D02*
X155047500Y-98167000D01*
G75*
G02*
X155135000Y-98254500I0J-87500D01*
G01*
X155135000Y-99054500D01*
G75*
G02*
X155047500Y-99142000I-87500J0D01*
G01*
X154872500Y-99142000D01*
G75*
G02*
X154785000Y-99054500I0J87500D01*
G01*
X154785000Y-98254500D01*
G75*
G02*
X154872500Y-98167000I87500J0D01*
G01*
G37*
G36*
G01*
X155372500Y-98167000D02*
X155547500Y-98167000D01*
G75*
G02*
X155635000Y-98254500I0J-87500D01*
G01*
X155635000Y-99054500D01*
G75*
G02*
X155547500Y-99142000I-87500J0D01*
G01*
X155372500Y-99142000D01*
G75*
G02*
X155285000Y-99054500I0J87500D01*
G01*
X155285000Y-98254500D01*
G75*
G02*
X155372500Y-98167000I87500J0D01*
G01*
G37*
G36*
G01*
X155872500Y-98167000D02*
X156047500Y-98167000D01*
G75*
G02*
X156135000Y-98254500I0J-87500D01*
G01*
X156135000Y-99054500D01*
G75*
G02*
X156047500Y-99142000I-87500J0D01*
G01*
X155872500Y-99142000D01*
G75*
G02*
X155785000Y-99054500I0J87500D01*
G01*
X155785000Y-98254500D01*
G75*
G02*
X155872500Y-98167000I87500J0D01*
G01*
G37*
G36*
G01*
X156372500Y-98167000D02*
X156547500Y-98167000D01*
G75*
G02*
X156635000Y-98254500I0J-87500D01*
G01*
X156635000Y-99054500D01*
G75*
G02*
X156547500Y-99142000I-87500J0D01*
G01*
X156372500Y-99142000D01*
G75*
G02*
X156285000Y-99054500I0J87500D01*
G01*
X156285000Y-98254500D01*
G75*
G02*
X156372500Y-98167000I87500J0D01*
G01*
G37*
G36*
G01*
X156872500Y-98167000D02*
X157047500Y-98167000D01*
G75*
G02*
X157135000Y-98254500I0J-87500D01*
G01*
X157135000Y-99054500D01*
G75*
G02*
X157047500Y-99142000I-87500J0D01*
G01*
X156872500Y-99142000D01*
G75*
G02*
X156785000Y-99054500I0J87500D01*
G01*
X156785000Y-98254500D01*
G75*
G02*
X156872500Y-98167000I87500J0D01*
G01*
G37*
G36*
G01*
X157372500Y-98167000D02*
X157547500Y-98167000D01*
G75*
G02*
X157635000Y-98254500I0J-87500D01*
G01*
X157635000Y-99054500D01*
G75*
G02*
X157547500Y-99142000I-87500J0D01*
G01*
X157372500Y-99142000D01*
G75*
G02*
X157285000Y-99054500I0J87500D01*
G01*
X157285000Y-98254500D01*
G75*
G02*
X157372500Y-98167000I87500J0D01*
G01*
G37*
G36*
G01*
X157872500Y-98167000D02*
X158047500Y-98167000D01*
G75*
G02*
X158135000Y-98254500I0J-87500D01*
G01*
X158135000Y-99054500D01*
G75*
G02*
X158047500Y-99142000I-87500J0D01*
G01*
X157872500Y-99142000D01*
G75*
G02*
X157785000Y-99054500I0J87500D01*
G01*
X157785000Y-98254500D01*
G75*
G02*
X157872500Y-98167000I87500J0D01*
G01*
G37*
D14*
X166667000Y-105664000D03*
X166667000Y-106614000D03*
X166667000Y-104714000D03*
X168867000Y-104714000D03*
X168867000Y-105664000D03*
X168867000Y-106614000D03*
D15*
X159004000Y-105918000D03*
X157480000Y-105918000D03*
X152654000Y-97536000D03*
G36*
G01*
X143464000Y-102334750D02*
X143464000Y-102897250D01*
G75*
G02*
X143220250Y-103141000I-243750J0D01*
G01*
X142732750Y-103141000D01*
G75*
G02*
X142489000Y-102897250I0J243750D01*
G01*
X142489000Y-102334750D01*
G75*
G02*
X142732750Y-102091000I243750J0D01*
G01*
X143220250Y-102091000D01*
G75*
G02*
X143464000Y-102334750I0J-243750D01*
G01*
G37*
G36*
G01*
X145039000Y-102334750D02*
X145039000Y-102897250D01*
G75*
G02*
X144795250Y-103141000I-243750J0D01*
G01*
X144307750Y-103141000D01*
G75*
G02*
X144064000Y-102897250I0J243750D01*
G01*
X144064000Y-102334750D01*
G75*
G02*
X144307750Y-102091000I243750J0D01*
G01*
X144795250Y-102091000D01*
G75*
G02*
X145039000Y-102334750I0J-243750D01*
G01*
G37*
G36*
G01*
X165146000Y-98833250D02*
X165146000Y-98270750D01*
G75*
G02*
X165389750Y-98027000I243750J0D01*
G01*
X165877250Y-98027000D01*
G75*
G02*
X166121000Y-98270750I0J-243750D01*
G01*
X166121000Y-98833250D01*
G75*
G02*
X165877250Y-99077000I-243750J0D01*
G01*
X165389750Y-99077000D01*
G75*
G02*
X165146000Y-98833250I0J243750D01*
G01*
G37*
G36*
G01*
X163571000Y-98833250D02*
X163571000Y-98270750D01*
G75*
G02*
X163814750Y-98027000I243750J0D01*
G01*
X164302250Y-98027000D01*
G75*
G02*
X164546000Y-98270750I0J-243750D01*
G01*
X164546000Y-98833250D01*
G75*
G02*
X164302250Y-99077000I-243750J0D01*
G01*
X163814750Y-99077000D01*
G75*
G02*
X163571000Y-98833250I0J243750D01*
G01*
G37*
G36*
G01*
X162098000Y-97309250D02*
X162098000Y-96746750D01*
G75*
G02*
X162341750Y-96503000I243750J0D01*
G01*
X162829250Y-96503000D01*
G75*
G02*
X163073000Y-96746750I0J-243750D01*
G01*
X163073000Y-97309250D01*
G75*
G02*
X162829250Y-97553000I-243750J0D01*
G01*
X162341750Y-97553000D01*
G75*
G02*
X162098000Y-97309250I0J243750D01*
G01*
G37*
G36*
G01*
X160523000Y-97309250D02*
X160523000Y-96746750D01*
G75*
G02*
X160766750Y-96503000I243750J0D01*
G01*
X161254250Y-96503000D01*
G75*
G02*
X161498000Y-96746750I0J-243750D01*
G01*
X161498000Y-97309250D01*
G75*
G02*
X161254250Y-97553000I-243750J0D01*
G01*
X160766750Y-97553000D01*
G75*
G02*
X160523000Y-97309250I0J243750D01*
G01*
G37*
G36*
G01*
X143464000Y-104112750D02*
X143464000Y-104675250D01*
G75*
G02*
X143220250Y-104919000I-243750J0D01*
G01*
X142732750Y-104919000D01*
G75*
G02*
X142489000Y-104675250I0J243750D01*
G01*
X142489000Y-104112750D01*
G75*
G02*
X142732750Y-103869000I243750J0D01*
G01*
X143220250Y-103869000D01*
G75*
G02*
X143464000Y-104112750I0J-243750D01*
G01*
G37*
G36*
G01*
X145039000Y-104112750D02*
X145039000Y-104675250D01*
G75*
G02*
X144795250Y-104919000I-243750J0D01*
G01*
X144307750Y-104919000D01*
G75*
G02*
X144064000Y-104675250I0J243750D01*
G01*
X144064000Y-104112750D01*
G75*
G02*
X144307750Y-103869000I243750J0D01*
G01*
X144795250Y-103869000D01*
G75*
G02*
X145039000Y-104112750I0J-243750D01*
G01*
G37*
G36*
G01*
X162098000Y-98833250D02*
X162098000Y-98270750D01*
G75*
G02*
X162341750Y-98027000I243750J0D01*
G01*
X162829250Y-98027000D01*
G75*
G02*
X163073000Y-98270750I0J-243750D01*
G01*
X163073000Y-98833250D01*
G75*
G02*
X162829250Y-99077000I-243750J0D01*
G01*
X162341750Y-99077000D01*
G75*
G02*
X162098000Y-98833250I0J243750D01*
G01*
G37*
G36*
G01*
X160523000Y-98833250D02*
X160523000Y-98270750D01*
G75*
G02*
X160766750Y-98027000I243750J0D01*
G01*
X161254250Y-98027000D01*
G75*
G02*
X161498000Y-98270750I0J-243750D01*
G01*
X161498000Y-98833250D01*
G75*
G02*
X161254250Y-99077000I-243750J0D01*
G01*
X160766750Y-99077000D01*
G75*
G02*
X160523000Y-98833250I0J243750D01*
G01*
G37*
G36*
G01*
X143464000Y-105890750D02*
X143464000Y-106453250D01*
G75*
G02*
X143220250Y-106697000I-243750J0D01*
G01*
X142732750Y-106697000D01*
G75*
G02*
X142489000Y-106453250I0J243750D01*
G01*
X142489000Y-105890750D01*
G75*
G02*
X142732750Y-105647000I243750J0D01*
G01*
X143220250Y-105647000D01*
G75*
G02*
X143464000Y-105890750I0J-243750D01*
G01*
G37*
G36*
G01*
X145039000Y-105890750D02*
X145039000Y-106453250D01*
G75*
G02*
X144795250Y-106697000I-243750J0D01*
G01*
X144307750Y-106697000D01*
G75*
G02*
X144064000Y-106453250I0J243750D01*
G01*
X144064000Y-105890750D01*
G75*
G02*
X144307750Y-105647000I243750J0D01*
G01*
X144795250Y-105647000D01*
G75*
G02*
X145039000Y-105890750I0J-243750D01*
G01*
G37*
G36*
G01*
X164638000Y-106961250D02*
X164638000Y-106398750D01*
G75*
G02*
X164881750Y-106155000I243750J0D01*
G01*
X165369250Y-106155000D01*
G75*
G02*
X165613000Y-106398750I0J-243750D01*
G01*
X165613000Y-106961250D01*
G75*
G02*
X165369250Y-107205000I-243750J0D01*
G01*
X164881750Y-107205000D01*
G75*
G02*
X164638000Y-106961250I0J243750D01*
G01*
G37*
G36*
G01*
X163063000Y-106961250D02*
X163063000Y-106398750D01*
G75*
G02*
X163306750Y-106155000I243750J0D01*
G01*
X163794250Y-106155000D01*
G75*
G02*
X164038000Y-106398750I0J-243750D01*
G01*
X164038000Y-106961250D01*
G75*
G02*
X163794250Y-107205000I-243750J0D01*
G01*
X163306750Y-107205000D01*
G75*
G02*
X163063000Y-106961250I0J243750D01*
G01*
G37*
G36*
G01*
X164638000Y-105437250D02*
X164638000Y-104874750D01*
G75*
G02*
X164881750Y-104631000I243750J0D01*
G01*
X165369250Y-104631000D01*
G75*
G02*
X165613000Y-104874750I0J-243750D01*
G01*
X165613000Y-105437250D01*
G75*
G02*
X165369250Y-105681000I-243750J0D01*
G01*
X164881750Y-105681000D01*
G75*
G02*
X164638000Y-105437250I0J243750D01*
G01*
G37*
G36*
G01*
X163063000Y-105437250D02*
X163063000Y-104874750D01*
G75*
G02*
X163306750Y-104631000I243750J0D01*
G01*
X163794250Y-104631000D01*
G75*
G02*
X164038000Y-104874750I0J-243750D01*
G01*
X164038000Y-105437250D01*
G75*
G02*
X163794250Y-105681000I-243750J0D01*
G01*
X163306750Y-105681000D01*
G75*
G02*
X163063000Y-105437250I0J243750D01*
G01*
G37*
D16*
X181356000Y-100330000D03*
X181356000Y-102870000D03*
D17*
X181610000Y-97790000D03*
X181610000Y-105410000D03*
D18*
X164196000Y-100650000D03*
X165496000Y-100650000D03*
X164846000Y-102550000D03*
X164846000Y-100650000D03*
X165496000Y-102550000D03*
X164196000Y-102550000D03*
D19*
X151371000Y-102694000D03*
X151371000Y-104394000D03*
X151371000Y-106094000D03*
X146571000Y-106094000D03*
X146571000Y-104394000D03*
X146571000Y-102694000D03*
D18*
X144414000Y-98364000D03*
X143114000Y-98364000D03*
X143764000Y-100264000D03*
X143764000Y-98364000D03*
X143114000Y-100264000D03*
X144414000Y-100264000D03*
G36*
G01*
X167187500Y-102842750D02*
X167187500Y-103405250D01*
G75*
G02*
X166943750Y-103649000I-243750J0D01*
G01*
X166456250Y-103649000D01*
G75*
G02*
X166212500Y-103405250I0J243750D01*
G01*
X166212500Y-102842750D01*
G75*
G02*
X166456250Y-102599000I243750J0D01*
G01*
X166943750Y-102599000D01*
G75*
G02*
X167187500Y-102842750I0J-243750D01*
G01*
G37*
G36*
G01*
X168762500Y-102842750D02*
X168762500Y-103405250D01*
G75*
G02*
X168518750Y-103649000I-243750J0D01*
G01*
X168031250Y-103649000D01*
G75*
G02*
X167787500Y-103405250I0J243750D01*
G01*
X167787500Y-102842750D01*
G75*
G02*
X168031250Y-102599000I243750J0D01*
G01*
X168518750Y-102599000D01*
G75*
G02*
X168762500Y-102842750I0J-243750D01*
G01*
G37*
G36*
G01*
X149144000Y-97055250D02*
X149144000Y-96492750D01*
G75*
G02*
X149387750Y-96249000I243750J0D01*
G01*
X149875250Y-96249000D01*
G75*
G02*
X150119000Y-96492750I0J-243750D01*
G01*
X150119000Y-97055250D01*
G75*
G02*
X149875250Y-97299000I-243750J0D01*
G01*
X149387750Y-97299000D01*
G75*
G02*
X149144000Y-97055250I0J243750D01*
G01*
G37*
G36*
G01*
X147569000Y-97055250D02*
X147569000Y-96492750D01*
G75*
G02*
X147812750Y-96249000I243750J0D01*
G01*
X148300250Y-96249000D01*
G75*
G02*
X148544000Y-96492750I0J-243750D01*
G01*
X148544000Y-97055250D01*
G75*
G02*
X148300250Y-97299000I-243750J0D01*
G01*
X147812750Y-97299000D01*
G75*
G02*
X147569000Y-97055250I0J243750D01*
G01*
G37*
G36*
G01*
X154132000Y-105636750D02*
X154132000Y-106199250D01*
G75*
G02*
X153888250Y-106443000I-243750J0D01*
G01*
X153400750Y-106443000D01*
G75*
G02*
X153157000Y-106199250I0J243750D01*
G01*
X153157000Y-105636750D01*
G75*
G02*
X153400750Y-105393000I243750J0D01*
G01*
X153888250Y-105393000D01*
G75*
G02*
X154132000Y-105636750I0J-243750D01*
G01*
G37*
G36*
G01*
X155707000Y-105636750D02*
X155707000Y-106199250D01*
G75*
G02*
X155463250Y-106443000I-243750J0D01*
G01*
X154975750Y-106443000D01*
G75*
G02*
X154732000Y-106199250I0J243750D01*
G01*
X154732000Y-105636750D01*
G75*
G02*
X154975750Y-105393000I243750J0D01*
G01*
X155463250Y-105393000D01*
G75*
G02*
X155707000Y-105636750I0J-243750D01*
G01*
G37*
G36*
G01*
X157780000Y-97055250D02*
X157780000Y-96492750D01*
G75*
G02*
X158023750Y-96249000I243750J0D01*
G01*
X158511250Y-96249000D01*
G75*
G02*
X158755000Y-96492750I0J-243750D01*
G01*
X158755000Y-97055250D01*
G75*
G02*
X158511250Y-97299000I-243750J0D01*
G01*
X158023750Y-97299000D01*
G75*
G02*
X157780000Y-97055250I0J243750D01*
G01*
G37*
G36*
G01*
X156205000Y-97055250D02*
X156205000Y-96492750D01*
G75*
G02*
X156448750Y-96249000I243750J0D01*
G01*
X156936250Y-96249000D01*
G75*
G02*
X157180000Y-96492750I0J-243750D01*
G01*
X157180000Y-97055250D01*
G75*
G02*
X156936250Y-97299000I-243750J0D01*
G01*
X156448750Y-97299000D01*
G75*
G02*
X156205000Y-97055250I0J243750D01*
G01*
G37*
G36*
G01*
X145514750Y-99614000D02*
X146077250Y-99614000D01*
G75*
G02*
X146321000Y-99857750I0J-243750D01*
G01*
X146321000Y-100345250D01*
G75*
G02*
X146077250Y-100589000I-243750J0D01*
G01*
X145514750Y-100589000D01*
G75*
G02*
X145271000Y-100345250I0J243750D01*
G01*
X145271000Y-99857750D01*
G75*
G02*
X145514750Y-99614000I243750J0D01*
G01*
G37*
G36*
G01*
X145514750Y-98039000D02*
X146077250Y-98039000D01*
G75*
G02*
X146321000Y-98282750I0J-243750D01*
G01*
X146321000Y-98770250D01*
G75*
G02*
X146077250Y-99014000I-243750J0D01*
G01*
X145514750Y-99014000D01*
G75*
G02*
X145271000Y-98770250I0J243750D01*
G01*
X145271000Y-98282750D01*
G75*
G02*
X145514750Y-98039000I243750J0D01*
G01*
G37*
M02*
