G04 #@! TF.GenerationSoftware,KiCad,Pcbnew,5.1.6-c6e7f7d~86~ubuntu20.04.1*
G04 #@! TF.CreationDate,2020-07-01T18:46:00+05:00*
G04 #@! TF.ProjectId,Main,4d61696e-2e6b-4696-9361-645f70636258,rev?*
G04 #@! TF.SameCoordinates,Original*
G04 #@! TF.FileFunction,Copper,L1,Top*
G04 #@! TF.FilePolarity,Positive*
%FSLAX46Y46*%
G04 Gerber Fmt 4.6, Leading zero omitted, Abs format (unit mm)*
G04 Created by KiCad (PCBNEW 5.1.6-c6e7f7d~86~ubuntu20.04.1) date 2020-07-01 18:46:00*
%MOMM*%
%LPD*%
G01*
G04 APERTURE LIST*
G04 #@! TA.AperFunction,SMDPad,CuDef*
%ADD10R,1.550000X2.480000*%
G04 #@! TD*
G04 #@! TA.AperFunction,SMDPad,CuDef*
%ADD11R,0.650000X0.300000*%
G04 #@! TD*
G04 #@! TA.AperFunction,SMDPad,CuDef*
%ADD12R,1.500000X0.900000*%
G04 #@! TD*
G04 #@! TA.AperFunction,SMDPad,CuDef*
%ADD13R,3.450000X3.450000*%
G04 #@! TD*
G04 #@! TA.AperFunction,SMDPad,CuDef*
%ADD14R,1.060000X0.650000*%
G04 #@! TD*
G04 #@! TA.AperFunction,SMDPad,CuDef*
%ADD15C,1.000000*%
G04 #@! TD*
G04 #@! TA.AperFunction,SMDPad,CuDef*
%ADD16R,7.600000X2.000000*%
G04 #@! TD*
G04 #@! TA.AperFunction,SMDPad,CuDef*
%ADD17R,8.200000X2.000000*%
G04 #@! TD*
G04 #@! TA.AperFunction,SMDPad,CuDef*
%ADD18R,0.400000X0.650000*%
G04 #@! TD*
G04 #@! TA.AperFunction,SMDPad,CuDef*
%ADD19R,2.000000X1.100000*%
G04 #@! TD*
G04 #@! TA.AperFunction,ViaPad*
%ADD20C,0.600000*%
G04 #@! TD*
G04 #@! TA.AperFunction,Conductor*
%ADD21C,0.200000*%
G04 #@! TD*
G04 APERTURE END LIST*
G04 #@! TA.AperFunction,SMDPad,CuDef*
G36*
G01*
X167137500Y-96771750D02*
X167137500Y-97284250D01*
G75*
G02*
X166918750Y-97503000I-218750J0D01*
G01*
X166481250Y-97503000D01*
G75*
G02*
X166262500Y-97284250I0J218750D01*
G01*
X166262500Y-96771750D01*
G75*
G02*
X166481250Y-96553000I218750J0D01*
G01*
X166918750Y-96553000D01*
G75*
G02*
X167137500Y-96771750I0J-218750D01*
G01*
G37*
G04 #@! TD.AperFunction*
G04 #@! TA.AperFunction,SMDPad,CuDef*
G36*
G01*
X168712500Y-96771750D02*
X168712500Y-97284250D01*
G75*
G02*
X168493750Y-97503000I-218750J0D01*
G01*
X168056250Y-97503000D01*
G75*
G02*
X167837500Y-97284250I0J218750D01*
G01*
X167837500Y-96771750D01*
G75*
G02*
X168056250Y-96553000I218750J0D01*
G01*
X168493750Y-96553000D01*
G75*
G02*
X168712500Y-96771750I0J-218750D01*
G01*
G37*
G04 #@! TD.AperFunction*
D10*
X149098000Y-99568000D03*
D11*
X150648000Y-98568000D03*
X150648000Y-99068000D03*
X150648000Y-99568000D03*
X150648000Y-100068000D03*
X150648000Y-100568000D03*
X147548000Y-100568000D03*
X147548000Y-100068000D03*
X147548000Y-99568000D03*
X147548000Y-99068000D03*
X147548000Y-98568000D03*
G04 #@! TA.AperFunction,SMDPad,CuDef*
G36*
G01*
X161448000Y-99819750D02*
X161448000Y-100332250D01*
G75*
G02*
X161229250Y-100551000I-218750J0D01*
G01*
X160791750Y-100551000D01*
G75*
G02*
X160573000Y-100332250I0J218750D01*
G01*
X160573000Y-99819750D01*
G75*
G02*
X160791750Y-99601000I218750J0D01*
G01*
X161229250Y-99601000D01*
G75*
G02*
X161448000Y-99819750I0J-218750D01*
G01*
G37*
G04 #@! TD.AperFunction*
G04 #@! TA.AperFunction,SMDPad,CuDef*
G36*
G01*
X163023000Y-99819750D02*
X163023000Y-100332250D01*
G75*
G02*
X162804250Y-100551000I-218750J0D01*
G01*
X162366750Y-100551000D01*
G75*
G02*
X162148000Y-100332250I0J218750D01*
G01*
X162148000Y-99819750D01*
G75*
G02*
X162366750Y-99601000I218750J0D01*
G01*
X162804250Y-99601000D01*
G75*
G02*
X163023000Y-99819750I0J-218750D01*
G01*
G37*
G04 #@! TD.AperFunction*
G04 #@! TA.AperFunction,SMDPad,CuDef*
G36*
G01*
X161448000Y-101343750D02*
X161448000Y-101856250D01*
G75*
G02*
X161229250Y-102075000I-218750J0D01*
G01*
X160791750Y-102075000D01*
G75*
G02*
X160573000Y-101856250I0J218750D01*
G01*
X160573000Y-101343750D01*
G75*
G02*
X160791750Y-101125000I218750J0D01*
G01*
X161229250Y-101125000D01*
G75*
G02*
X161448000Y-101343750I0J-218750D01*
G01*
G37*
G04 #@! TD.AperFunction*
G04 #@! TA.AperFunction,SMDPad,CuDef*
G36*
G01*
X163023000Y-101343750D02*
X163023000Y-101856250D01*
G75*
G02*
X162804250Y-102075000I-218750J0D01*
G01*
X162366750Y-102075000D01*
G75*
G02*
X162148000Y-101856250I0J218750D01*
G01*
X162148000Y-101343750D01*
G75*
G02*
X162366750Y-101125000I218750J0D01*
G01*
X162804250Y-101125000D01*
G75*
G02*
X163023000Y-101343750I0J-218750D01*
G01*
G37*
G04 #@! TD.AperFunction*
G04 #@! TA.AperFunction,SMDPad,CuDef*
G36*
G01*
X161448000Y-102867750D02*
X161448000Y-103380250D01*
G75*
G02*
X161229250Y-103599000I-218750J0D01*
G01*
X160791750Y-103599000D01*
G75*
G02*
X160573000Y-103380250I0J218750D01*
G01*
X160573000Y-102867750D01*
G75*
G02*
X160791750Y-102649000I218750J0D01*
G01*
X161229250Y-102649000D01*
G75*
G02*
X161448000Y-102867750I0J-218750D01*
G01*
G37*
G04 #@! TD.AperFunction*
G04 #@! TA.AperFunction,SMDPad,CuDef*
G36*
G01*
X163023000Y-102867750D02*
X163023000Y-103380250D01*
G75*
G02*
X162804250Y-103599000I-218750J0D01*
G01*
X162366750Y-103599000D01*
G75*
G02*
X162148000Y-103380250I0J218750D01*
G01*
X162148000Y-102867750D01*
G75*
G02*
X162366750Y-102649000I218750J0D01*
G01*
X162804250Y-102649000D01*
G75*
G02*
X163023000Y-102867750I0J-218750D01*
G01*
G37*
G04 #@! TD.AperFunction*
G04 #@! TA.AperFunction,SMDPad,CuDef*
G36*
G01*
X160940000Y-104391750D02*
X160940000Y-104904250D01*
G75*
G02*
X160721250Y-105123000I-218750J0D01*
G01*
X160283750Y-105123000D01*
G75*
G02*
X160065000Y-104904250I0J218750D01*
G01*
X160065000Y-104391750D01*
G75*
G02*
X160283750Y-104173000I218750J0D01*
G01*
X160721250Y-104173000D01*
G75*
G02*
X160940000Y-104391750I0J-218750D01*
G01*
G37*
G04 #@! TD.AperFunction*
G04 #@! TA.AperFunction,SMDPad,CuDef*
G36*
G01*
X162515000Y-104391750D02*
X162515000Y-104904250D01*
G75*
G02*
X162296250Y-105123000I-218750J0D01*
G01*
X161858750Y-105123000D01*
G75*
G02*
X161640000Y-104904250I0J218750D01*
G01*
X161640000Y-104391750D01*
G75*
G02*
X161858750Y-104173000I218750J0D01*
G01*
X162296250Y-104173000D01*
G75*
G02*
X162515000Y-104391750I0J-218750D01*
G01*
G37*
G04 #@! TD.AperFunction*
G04 #@! TA.AperFunction,SMDPad,CuDef*
G36*
G01*
X167065000Y-101213000D02*
X166915000Y-101213000D01*
G75*
G02*
X166840000Y-101138000I0J75000D01*
G01*
X166840000Y-100538000D01*
G75*
G02*
X166915000Y-100463000I75000J0D01*
G01*
X167065000Y-100463000D01*
G75*
G02*
X167140000Y-100538000I0J-75000D01*
G01*
X167140000Y-101138000D01*
G75*
G02*
X167065000Y-101213000I-75000J0D01*
G01*
G37*
G04 #@! TD.AperFunction*
D12*
X167640000Y-99758500D03*
G04 #@! TA.AperFunction,SMDPad,CuDef*
G36*
G01*
X168365000Y-99054000D02*
X168215000Y-99054000D01*
G75*
G02*
X168140000Y-98979000I0J75000D01*
G01*
X168140000Y-98379000D01*
G75*
G02*
X168215000Y-98304000I75000J0D01*
G01*
X168365000Y-98304000D01*
G75*
G02*
X168440000Y-98379000I0J-75000D01*
G01*
X168440000Y-98979000D01*
G75*
G02*
X168365000Y-99054000I-75000J0D01*
G01*
G37*
G04 #@! TD.AperFunction*
G04 #@! TA.AperFunction,SMDPad,CuDef*
G36*
G01*
X167715000Y-101213000D02*
X167565000Y-101213000D01*
G75*
G02*
X167490000Y-101138000I0J75000D01*
G01*
X167490000Y-100538000D01*
G75*
G02*
X167565000Y-100463000I75000J0D01*
G01*
X167715000Y-100463000D01*
G75*
G02*
X167790000Y-100538000I0J-75000D01*
G01*
X167790000Y-101138000D01*
G75*
G02*
X167715000Y-101213000I-75000J0D01*
G01*
G37*
G04 #@! TD.AperFunction*
G04 #@! TA.AperFunction,SMDPad,CuDef*
G36*
G01*
X167065000Y-99054000D02*
X166915000Y-99054000D01*
G75*
G02*
X166840000Y-98979000I0J75000D01*
G01*
X166840000Y-98379000D01*
G75*
G02*
X166915000Y-98304000I75000J0D01*
G01*
X167065000Y-98304000D01*
G75*
G02*
X167140000Y-98379000I0J-75000D01*
G01*
X167140000Y-98979000D01*
G75*
G02*
X167065000Y-99054000I-75000J0D01*
G01*
G37*
G04 #@! TD.AperFunction*
G04 #@! TA.AperFunction,SMDPad,CuDef*
G36*
G01*
X167715000Y-99054000D02*
X167565000Y-99054000D01*
G75*
G02*
X167490000Y-98979000I0J75000D01*
G01*
X167490000Y-98379000D01*
G75*
G02*
X167565000Y-98304000I75000J0D01*
G01*
X167715000Y-98304000D01*
G75*
G02*
X167790000Y-98379000I0J-75000D01*
G01*
X167790000Y-98979000D01*
G75*
G02*
X167715000Y-99054000I-75000J0D01*
G01*
G37*
G04 #@! TD.AperFunction*
G04 #@! TA.AperFunction,SMDPad,CuDef*
G36*
G01*
X168365000Y-101213000D02*
X168215000Y-101213000D01*
G75*
G02*
X168140000Y-101138000I0J75000D01*
G01*
X168140000Y-100538000D01*
G75*
G02*
X168215000Y-100463000I75000J0D01*
G01*
X168365000Y-100463000D01*
G75*
G02*
X168440000Y-100538000I0J-75000D01*
G01*
X168440000Y-101138000D01*
G75*
G02*
X168365000Y-101213000I-75000J0D01*
G01*
G37*
G04 #@! TD.AperFunction*
D13*
X156210000Y-101092000D03*
G04 #@! TA.AperFunction,SMDPad,CuDef*
G36*
G01*
X158272500Y-99217000D02*
X159022500Y-99217000D01*
G75*
G02*
X159085000Y-99279500I0J-62500D01*
G01*
X159085000Y-99404500D01*
G75*
G02*
X159022500Y-99467000I-62500J0D01*
G01*
X158272500Y-99467000D01*
G75*
G02*
X158210000Y-99404500I0J62500D01*
G01*
X158210000Y-99279500D01*
G75*
G02*
X158272500Y-99217000I62500J0D01*
G01*
G37*
G04 #@! TD.AperFunction*
G04 #@! TA.AperFunction,SMDPad,CuDef*
G36*
G01*
X158272500Y-99717000D02*
X159022500Y-99717000D01*
G75*
G02*
X159085000Y-99779500I0J-62500D01*
G01*
X159085000Y-99904500D01*
G75*
G02*
X159022500Y-99967000I-62500J0D01*
G01*
X158272500Y-99967000D01*
G75*
G02*
X158210000Y-99904500I0J62500D01*
G01*
X158210000Y-99779500D01*
G75*
G02*
X158272500Y-99717000I62500J0D01*
G01*
G37*
G04 #@! TD.AperFunction*
G04 #@! TA.AperFunction,SMDPad,CuDef*
G36*
G01*
X158272500Y-100217000D02*
X159022500Y-100217000D01*
G75*
G02*
X159085000Y-100279500I0J-62500D01*
G01*
X159085000Y-100404500D01*
G75*
G02*
X159022500Y-100467000I-62500J0D01*
G01*
X158272500Y-100467000D01*
G75*
G02*
X158210000Y-100404500I0J62500D01*
G01*
X158210000Y-100279500D01*
G75*
G02*
X158272500Y-100217000I62500J0D01*
G01*
G37*
G04 #@! TD.AperFunction*
G04 #@! TA.AperFunction,SMDPad,CuDef*
G36*
G01*
X158272500Y-100717000D02*
X159022500Y-100717000D01*
G75*
G02*
X159085000Y-100779500I0J-62500D01*
G01*
X159085000Y-100904500D01*
G75*
G02*
X159022500Y-100967000I-62500J0D01*
G01*
X158272500Y-100967000D01*
G75*
G02*
X158210000Y-100904500I0J62500D01*
G01*
X158210000Y-100779500D01*
G75*
G02*
X158272500Y-100717000I62500J0D01*
G01*
G37*
G04 #@! TD.AperFunction*
G04 #@! TA.AperFunction,SMDPad,CuDef*
G36*
G01*
X158272500Y-101217000D02*
X159022500Y-101217000D01*
G75*
G02*
X159085000Y-101279500I0J-62500D01*
G01*
X159085000Y-101404500D01*
G75*
G02*
X159022500Y-101467000I-62500J0D01*
G01*
X158272500Y-101467000D01*
G75*
G02*
X158210000Y-101404500I0J62500D01*
G01*
X158210000Y-101279500D01*
G75*
G02*
X158272500Y-101217000I62500J0D01*
G01*
G37*
G04 #@! TD.AperFunction*
G04 #@! TA.AperFunction,SMDPad,CuDef*
G36*
G01*
X158272500Y-101717000D02*
X159022500Y-101717000D01*
G75*
G02*
X159085000Y-101779500I0J-62500D01*
G01*
X159085000Y-101904500D01*
G75*
G02*
X159022500Y-101967000I-62500J0D01*
G01*
X158272500Y-101967000D01*
G75*
G02*
X158210000Y-101904500I0J62500D01*
G01*
X158210000Y-101779500D01*
G75*
G02*
X158272500Y-101717000I62500J0D01*
G01*
G37*
G04 #@! TD.AperFunction*
G04 #@! TA.AperFunction,SMDPad,CuDef*
G36*
G01*
X158272500Y-102217000D02*
X159022500Y-102217000D01*
G75*
G02*
X159085000Y-102279500I0J-62500D01*
G01*
X159085000Y-102404500D01*
G75*
G02*
X159022500Y-102467000I-62500J0D01*
G01*
X158272500Y-102467000D01*
G75*
G02*
X158210000Y-102404500I0J62500D01*
G01*
X158210000Y-102279500D01*
G75*
G02*
X158272500Y-102217000I62500J0D01*
G01*
G37*
G04 #@! TD.AperFunction*
G04 #@! TA.AperFunction,SMDPad,CuDef*
G36*
G01*
X158272500Y-102717000D02*
X159022500Y-102717000D01*
G75*
G02*
X159085000Y-102779500I0J-62500D01*
G01*
X159085000Y-102904500D01*
G75*
G02*
X159022500Y-102967000I-62500J0D01*
G01*
X158272500Y-102967000D01*
G75*
G02*
X158210000Y-102904500I0J62500D01*
G01*
X158210000Y-102779500D01*
G75*
G02*
X158272500Y-102717000I62500J0D01*
G01*
G37*
G04 #@! TD.AperFunction*
G04 #@! TA.AperFunction,SMDPad,CuDef*
G36*
G01*
X157897500Y-103092000D02*
X158022500Y-103092000D01*
G75*
G02*
X158085000Y-103154500I0J-62500D01*
G01*
X158085000Y-103904500D01*
G75*
G02*
X158022500Y-103967000I-62500J0D01*
G01*
X157897500Y-103967000D01*
G75*
G02*
X157835000Y-103904500I0J62500D01*
G01*
X157835000Y-103154500D01*
G75*
G02*
X157897500Y-103092000I62500J0D01*
G01*
G37*
G04 #@! TD.AperFunction*
G04 #@! TA.AperFunction,SMDPad,CuDef*
G36*
G01*
X157397500Y-103092000D02*
X157522500Y-103092000D01*
G75*
G02*
X157585000Y-103154500I0J-62500D01*
G01*
X157585000Y-103904500D01*
G75*
G02*
X157522500Y-103967000I-62500J0D01*
G01*
X157397500Y-103967000D01*
G75*
G02*
X157335000Y-103904500I0J62500D01*
G01*
X157335000Y-103154500D01*
G75*
G02*
X157397500Y-103092000I62500J0D01*
G01*
G37*
G04 #@! TD.AperFunction*
G04 #@! TA.AperFunction,SMDPad,CuDef*
G36*
G01*
X156897500Y-103092000D02*
X157022500Y-103092000D01*
G75*
G02*
X157085000Y-103154500I0J-62500D01*
G01*
X157085000Y-103904500D01*
G75*
G02*
X157022500Y-103967000I-62500J0D01*
G01*
X156897500Y-103967000D01*
G75*
G02*
X156835000Y-103904500I0J62500D01*
G01*
X156835000Y-103154500D01*
G75*
G02*
X156897500Y-103092000I62500J0D01*
G01*
G37*
G04 #@! TD.AperFunction*
G04 #@! TA.AperFunction,SMDPad,CuDef*
G36*
G01*
X156397500Y-103092000D02*
X156522500Y-103092000D01*
G75*
G02*
X156585000Y-103154500I0J-62500D01*
G01*
X156585000Y-103904500D01*
G75*
G02*
X156522500Y-103967000I-62500J0D01*
G01*
X156397500Y-103967000D01*
G75*
G02*
X156335000Y-103904500I0J62500D01*
G01*
X156335000Y-103154500D01*
G75*
G02*
X156397500Y-103092000I62500J0D01*
G01*
G37*
G04 #@! TD.AperFunction*
G04 #@! TA.AperFunction,SMDPad,CuDef*
G36*
G01*
X155897500Y-103092000D02*
X156022500Y-103092000D01*
G75*
G02*
X156085000Y-103154500I0J-62500D01*
G01*
X156085000Y-103904500D01*
G75*
G02*
X156022500Y-103967000I-62500J0D01*
G01*
X155897500Y-103967000D01*
G75*
G02*
X155835000Y-103904500I0J62500D01*
G01*
X155835000Y-103154500D01*
G75*
G02*
X155897500Y-103092000I62500J0D01*
G01*
G37*
G04 #@! TD.AperFunction*
G04 #@! TA.AperFunction,SMDPad,CuDef*
G36*
G01*
X155397500Y-103092000D02*
X155522500Y-103092000D01*
G75*
G02*
X155585000Y-103154500I0J-62500D01*
G01*
X155585000Y-103904500D01*
G75*
G02*
X155522500Y-103967000I-62500J0D01*
G01*
X155397500Y-103967000D01*
G75*
G02*
X155335000Y-103904500I0J62500D01*
G01*
X155335000Y-103154500D01*
G75*
G02*
X155397500Y-103092000I62500J0D01*
G01*
G37*
G04 #@! TD.AperFunction*
G04 #@! TA.AperFunction,SMDPad,CuDef*
G36*
G01*
X154897500Y-103092000D02*
X155022500Y-103092000D01*
G75*
G02*
X155085000Y-103154500I0J-62500D01*
G01*
X155085000Y-103904500D01*
G75*
G02*
X155022500Y-103967000I-62500J0D01*
G01*
X154897500Y-103967000D01*
G75*
G02*
X154835000Y-103904500I0J62500D01*
G01*
X154835000Y-103154500D01*
G75*
G02*
X154897500Y-103092000I62500J0D01*
G01*
G37*
G04 #@! TD.AperFunction*
G04 #@! TA.AperFunction,SMDPad,CuDef*
G36*
G01*
X154397500Y-103092000D02*
X154522500Y-103092000D01*
G75*
G02*
X154585000Y-103154500I0J-62500D01*
G01*
X154585000Y-103904500D01*
G75*
G02*
X154522500Y-103967000I-62500J0D01*
G01*
X154397500Y-103967000D01*
G75*
G02*
X154335000Y-103904500I0J62500D01*
G01*
X154335000Y-103154500D01*
G75*
G02*
X154397500Y-103092000I62500J0D01*
G01*
G37*
G04 #@! TD.AperFunction*
G04 #@! TA.AperFunction,SMDPad,CuDef*
G36*
G01*
X153397500Y-102717000D02*
X154147500Y-102717000D01*
G75*
G02*
X154210000Y-102779500I0J-62500D01*
G01*
X154210000Y-102904500D01*
G75*
G02*
X154147500Y-102967000I-62500J0D01*
G01*
X153397500Y-102967000D01*
G75*
G02*
X153335000Y-102904500I0J62500D01*
G01*
X153335000Y-102779500D01*
G75*
G02*
X153397500Y-102717000I62500J0D01*
G01*
G37*
G04 #@! TD.AperFunction*
G04 #@! TA.AperFunction,SMDPad,CuDef*
G36*
G01*
X153397500Y-102217000D02*
X154147500Y-102217000D01*
G75*
G02*
X154210000Y-102279500I0J-62500D01*
G01*
X154210000Y-102404500D01*
G75*
G02*
X154147500Y-102467000I-62500J0D01*
G01*
X153397500Y-102467000D01*
G75*
G02*
X153335000Y-102404500I0J62500D01*
G01*
X153335000Y-102279500D01*
G75*
G02*
X153397500Y-102217000I62500J0D01*
G01*
G37*
G04 #@! TD.AperFunction*
G04 #@! TA.AperFunction,SMDPad,CuDef*
G36*
G01*
X153397500Y-101717000D02*
X154147500Y-101717000D01*
G75*
G02*
X154210000Y-101779500I0J-62500D01*
G01*
X154210000Y-101904500D01*
G75*
G02*
X154147500Y-101967000I-62500J0D01*
G01*
X153397500Y-101967000D01*
G75*
G02*
X153335000Y-101904500I0J62500D01*
G01*
X153335000Y-101779500D01*
G75*
G02*
X153397500Y-101717000I62500J0D01*
G01*
G37*
G04 #@! TD.AperFunction*
G04 #@! TA.AperFunction,SMDPad,CuDef*
G36*
G01*
X153397500Y-101217000D02*
X154147500Y-101217000D01*
G75*
G02*
X154210000Y-101279500I0J-62500D01*
G01*
X154210000Y-101404500D01*
G75*
G02*
X154147500Y-101467000I-62500J0D01*
G01*
X153397500Y-101467000D01*
G75*
G02*
X153335000Y-101404500I0J62500D01*
G01*
X153335000Y-101279500D01*
G75*
G02*
X153397500Y-101217000I62500J0D01*
G01*
G37*
G04 #@! TD.AperFunction*
G04 #@! TA.AperFunction,SMDPad,CuDef*
G36*
G01*
X153397500Y-100717000D02*
X154147500Y-100717000D01*
G75*
G02*
X154210000Y-100779500I0J-62500D01*
G01*
X154210000Y-100904500D01*
G75*
G02*
X154147500Y-100967000I-62500J0D01*
G01*
X153397500Y-100967000D01*
G75*
G02*
X153335000Y-100904500I0J62500D01*
G01*
X153335000Y-100779500D01*
G75*
G02*
X153397500Y-100717000I62500J0D01*
G01*
G37*
G04 #@! TD.AperFunction*
G04 #@! TA.AperFunction,SMDPad,CuDef*
G36*
G01*
X153397500Y-100217000D02*
X154147500Y-100217000D01*
G75*
G02*
X154210000Y-100279500I0J-62500D01*
G01*
X154210000Y-100404500D01*
G75*
G02*
X154147500Y-100467000I-62500J0D01*
G01*
X153397500Y-100467000D01*
G75*
G02*
X153335000Y-100404500I0J62500D01*
G01*
X153335000Y-100279500D01*
G75*
G02*
X153397500Y-100217000I62500J0D01*
G01*
G37*
G04 #@! TD.AperFunction*
G04 #@! TA.AperFunction,SMDPad,CuDef*
G36*
G01*
X153397500Y-99717000D02*
X154147500Y-99717000D01*
G75*
G02*
X154210000Y-99779500I0J-62500D01*
G01*
X154210000Y-99904500D01*
G75*
G02*
X154147500Y-99967000I-62500J0D01*
G01*
X153397500Y-99967000D01*
G75*
G02*
X153335000Y-99904500I0J62500D01*
G01*
X153335000Y-99779500D01*
G75*
G02*
X153397500Y-99717000I62500J0D01*
G01*
G37*
G04 #@! TD.AperFunction*
G04 #@! TA.AperFunction,SMDPad,CuDef*
G36*
G01*
X153397500Y-99217000D02*
X154147500Y-99217000D01*
G75*
G02*
X154210000Y-99279500I0J-62500D01*
G01*
X154210000Y-99404500D01*
G75*
G02*
X154147500Y-99467000I-62500J0D01*
G01*
X153397500Y-99467000D01*
G75*
G02*
X153335000Y-99404500I0J62500D01*
G01*
X153335000Y-99279500D01*
G75*
G02*
X153397500Y-99217000I62500J0D01*
G01*
G37*
G04 #@! TD.AperFunction*
G04 #@! TA.AperFunction,SMDPad,CuDef*
G36*
G01*
X154397500Y-98217000D02*
X154522500Y-98217000D01*
G75*
G02*
X154585000Y-98279500I0J-62500D01*
G01*
X154585000Y-99029500D01*
G75*
G02*
X154522500Y-99092000I-62500J0D01*
G01*
X154397500Y-99092000D01*
G75*
G02*
X154335000Y-99029500I0J62500D01*
G01*
X154335000Y-98279500D01*
G75*
G02*
X154397500Y-98217000I62500J0D01*
G01*
G37*
G04 #@! TD.AperFunction*
G04 #@! TA.AperFunction,SMDPad,CuDef*
G36*
G01*
X154897500Y-98217000D02*
X155022500Y-98217000D01*
G75*
G02*
X155085000Y-98279500I0J-62500D01*
G01*
X155085000Y-99029500D01*
G75*
G02*
X155022500Y-99092000I-62500J0D01*
G01*
X154897500Y-99092000D01*
G75*
G02*
X154835000Y-99029500I0J62500D01*
G01*
X154835000Y-98279500D01*
G75*
G02*
X154897500Y-98217000I62500J0D01*
G01*
G37*
G04 #@! TD.AperFunction*
G04 #@! TA.AperFunction,SMDPad,CuDef*
G36*
G01*
X155397500Y-98217000D02*
X155522500Y-98217000D01*
G75*
G02*
X155585000Y-98279500I0J-62500D01*
G01*
X155585000Y-99029500D01*
G75*
G02*
X155522500Y-99092000I-62500J0D01*
G01*
X155397500Y-99092000D01*
G75*
G02*
X155335000Y-99029500I0J62500D01*
G01*
X155335000Y-98279500D01*
G75*
G02*
X155397500Y-98217000I62500J0D01*
G01*
G37*
G04 #@! TD.AperFunction*
G04 #@! TA.AperFunction,SMDPad,CuDef*
G36*
G01*
X155897500Y-98217000D02*
X156022500Y-98217000D01*
G75*
G02*
X156085000Y-98279500I0J-62500D01*
G01*
X156085000Y-99029500D01*
G75*
G02*
X156022500Y-99092000I-62500J0D01*
G01*
X155897500Y-99092000D01*
G75*
G02*
X155835000Y-99029500I0J62500D01*
G01*
X155835000Y-98279500D01*
G75*
G02*
X155897500Y-98217000I62500J0D01*
G01*
G37*
G04 #@! TD.AperFunction*
G04 #@! TA.AperFunction,SMDPad,CuDef*
G36*
G01*
X156397500Y-98217000D02*
X156522500Y-98217000D01*
G75*
G02*
X156585000Y-98279500I0J-62500D01*
G01*
X156585000Y-99029500D01*
G75*
G02*
X156522500Y-99092000I-62500J0D01*
G01*
X156397500Y-99092000D01*
G75*
G02*
X156335000Y-99029500I0J62500D01*
G01*
X156335000Y-98279500D01*
G75*
G02*
X156397500Y-98217000I62500J0D01*
G01*
G37*
G04 #@! TD.AperFunction*
G04 #@! TA.AperFunction,SMDPad,CuDef*
G36*
G01*
X156897500Y-98217000D02*
X157022500Y-98217000D01*
G75*
G02*
X157085000Y-98279500I0J-62500D01*
G01*
X157085000Y-99029500D01*
G75*
G02*
X157022500Y-99092000I-62500J0D01*
G01*
X156897500Y-99092000D01*
G75*
G02*
X156835000Y-99029500I0J62500D01*
G01*
X156835000Y-98279500D01*
G75*
G02*
X156897500Y-98217000I62500J0D01*
G01*
G37*
G04 #@! TD.AperFunction*
G04 #@! TA.AperFunction,SMDPad,CuDef*
G36*
G01*
X157397500Y-98217000D02*
X157522500Y-98217000D01*
G75*
G02*
X157585000Y-98279500I0J-62500D01*
G01*
X157585000Y-99029500D01*
G75*
G02*
X157522500Y-99092000I-62500J0D01*
G01*
X157397500Y-99092000D01*
G75*
G02*
X157335000Y-99029500I0J62500D01*
G01*
X157335000Y-98279500D01*
G75*
G02*
X157397500Y-98217000I62500J0D01*
G01*
G37*
G04 #@! TD.AperFunction*
G04 #@! TA.AperFunction,SMDPad,CuDef*
G36*
G01*
X157897500Y-98217000D02*
X158022500Y-98217000D01*
G75*
G02*
X158085000Y-98279500I0J-62500D01*
G01*
X158085000Y-99029500D01*
G75*
G02*
X158022500Y-99092000I-62500J0D01*
G01*
X157897500Y-99092000D01*
G75*
G02*
X157835000Y-99029500I0J62500D01*
G01*
X157835000Y-98279500D01*
G75*
G02*
X157897500Y-98217000I62500J0D01*
G01*
G37*
G04 #@! TD.AperFunction*
D14*
X166667000Y-105664000D03*
X166667000Y-106614000D03*
X166667000Y-104714000D03*
X168867000Y-104714000D03*
X168867000Y-105664000D03*
X168867000Y-106614000D03*
D15*
X159004000Y-105918000D03*
X157480000Y-105918000D03*
X152654000Y-97536000D03*
G04 #@! TA.AperFunction,SMDPad,CuDef*
G36*
G01*
X143414000Y-102359750D02*
X143414000Y-102872250D01*
G75*
G02*
X143195250Y-103091000I-218750J0D01*
G01*
X142757750Y-103091000D01*
G75*
G02*
X142539000Y-102872250I0J218750D01*
G01*
X142539000Y-102359750D01*
G75*
G02*
X142757750Y-102141000I218750J0D01*
G01*
X143195250Y-102141000D01*
G75*
G02*
X143414000Y-102359750I0J-218750D01*
G01*
G37*
G04 #@! TD.AperFunction*
G04 #@! TA.AperFunction,SMDPad,CuDef*
G36*
G01*
X144989000Y-102359750D02*
X144989000Y-102872250D01*
G75*
G02*
X144770250Y-103091000I-218750J0D01*
G01*
X144332750Y-103091000D01*
G75*
G02*
X144114000Y-102872250I0J218750D01*
G01*
X144114000Y-102359750D01*
G75*
G02*
X144332750Y-102141000I218750J0D01*
G01*
X144770250Y-102141000D01*
G75*
G02*
X144989000Y-102359750I0J-218750D01*
G01*
G37*
G04 #@! TD.AperFunction*
G04 #@! TA.AperFunction,SMDPad,CuDef*
G36*
G01*
X165196000Y-98808250D02*
X165196000Y-98295750D01*
G75*
G02*
X165414750Y-98077000I218750J0D01*
G01*
X165852250Y-98077000D01*
G75*
G02*
X166071000Y-98295750I0J-218750D01*
G01*
X166071000Y-98808250D01*
G75*
G02*
X165852250Y-99027000I-218750J0D01*
G01*
X165414750Y-99027000D01*
G75*
G02*
X165196000Y-98808250I0J218750D01*
G01*
G37*
G04 #@! TD.AperFunction*
G04 #@! TA.AperFunction,SMDPad,CuDef*
G36*
G01*
X163621000Y-98808250D02*
X163621000Y-98295750D01*
G75*
G02*
X163839750Y-98077000I218750J0D01*
G01*
X164277250Y-98077000D01*
G75*
G02*
X164496000Y-98295750I0J-218750D01*
G01*
X164496000Y-98808250D01*
G75*
G02*
X164277250Y-99027000I-218750J0D01*
G01*
X163839750Y-99027000D01*
G75*
G02*
X163621000Y-98808250I0J218750D01*
G01*
G37*
G04 #@! TD.AperFunction*
G04 #@! TA.AperFunction,SMDPad,CuDef*
G36*
G01*
X162148000Y-97284250D02*
X162148000Y-96771750D01*
G75*
G02*
X162366750Y-96553000I218750J0D01*
G01*
X162804250Y-96553000D01*
G75*
G02*
X163023000Y-96771750I0J-218750D01*
G01*
X163023000Y-97284250D01*
G75*
G02*
X162804250Y-97503000I-218750J0D01*
G01*
X162366750Y-97503000D01*
G75*
G02*
X162148000Y-97284250I0J218750D01*
G01*
G37*
G04 #@! TD.AperFunction*
G04 #@! TA.AperFunction,SMDPad,CuDef*
G36*
G01*
X160573000Y-97284250D02*
X160573000Y-96771750D01*
G75*
G02*
X160791750Y-96553000I218750J0D01*
G01*
X161229250Y-96553000D01*
G75*
G02*
X161448000Y-96771750I0J-218750D01*
G01*
X161448000Y-97284250D01*
G75*
G02*
X161229250Y-97503000I-218750J0D01*
G01*
X160791750Y-97503000D01*
G75*
G02*
X160573000Y-97284250I0J218750D01*
G01*
G37*
G04 #@! TD.AperFunction*
G04 #@! TA.AperFunction,SMDPad,CuDef*
G36*
G01*
X143414000Y-104137750D02*
X143414000Y-104650250D01*
G75*
G02*
X143195250Y-104869000I-218750J0D01*
G01*
X142757750Y-104869000D01*
G75*
G02*
X142539000Y-104650250I0J218750D01*
G01*
X142539000Y-104137750D01*
G75*
G02*
X142757750Y-103919000I218750J0D01*
G01*
X143195250Y-103919000D01*
G75*
G02*
X143414000Y-104137750I0J-218750D01*
G01*
G37*
G04 #@! TD.AperFunction*
G04 #@! TA.AperFunction,SMDPad,CuDef*
G36*
G01*
X144989000Y-104137750D02*
X144989000Y-104650250D01*
G75*
G02*
X144770250Y-104869000I-218750J0D01*
G01*
X144332750Y-104869000D01*
G75*
G02*
X144114000Y-104650250I0J218750D01*
G01*
X144114000Y-104137750D01*
G75*
G02*
X144332750Y-103919000I218750J0D01*
G01*
X144770250Y-103919000D01*
G75*
G02*
X144989000Y-104137750I0J-218750D01*
G01*
G37*
G04 #@! TD.AperFunction*
G04 #@! TA.AperFunction,SMDPad,CuDef*
G36*
G01*
X162148000Y-98808250D02*
X162148000Y-98295750D01*
G75*
G02*
X162366750Y-98077000I218750J0D01*
G01*
X162804250Y-98077000D01*
G75*
G02*
X163023000Y-98295750I0J-218750D01*
G01*
X163023000Y-98808250D01*
G75*
G02*
X162804250Y-99027000I-218750J0D01*
G01*
X162366750Y-99027000D01*
G75*
G02*
X162148000Y-98808250I0J218750D01*
G01*
G37*
G04 #@! TD.AperFunction*
G04 #@! TA.AperFunction,SMDPad,CuDef*
G36*
G01*
X160573000Y-98808250D02*
X160573000Y-98295750D01*
G75*
G02*
X160791750Y-98077000I218750J0D01*
G01*
X161229250Y-98077000D01*
G75*
G02*
X161448000Y-98295750I0J-218750D01*
G01*
X161448000Y-98808250D01*
G75*
G02*
X161229250Y-99027000I-218750J0D01*
G01*
X160791750Y-99027000D01*
G75*
G02*
X160573000Y-98808250I0J218750D01*
G01*
G37*
G04 #@! TD.AperFunction*
G04 #@! TA.AperFunction,SMDPad,CuDef*
G36*
G01*
X143414000Y-105915750D02*
X143414000Y-106428250D01*
G75*
G02*
X143195250Y-106647000I-218750J0D01*
G01*
X142757750Y-106647000D01*
G75*
G02*
X142539000Y-106428250I0J218750D01*
G01*
X142539000Y-105915750D01*
G75*
G02*
X142757750Y-105697000I218750J0D01*
G01*
X143195250Y-105697000D01*
G75*
G02*
X143414000Y-105915750I0J-218750D01*
G01*
G37*
G04 #@! TD.AperFunction*
G04 #@! TA.AperFunction,SMDPad,CuDef*
G36*
G01*
X144989000Y-105915750D02*
X144989000Y-106428250D01*
G75*
G02*
X144770250Y-106647000I-218750J0D01*
G01*
X144332750Y-106647000D01*
G75*
G02*
X144114000Y-106428250I0J218750D01*
G01*
X144114000Y-105915750D01*
G75*
G02*
X144332750Y-105697000I218750J0D01*
G01*
X144770250Y-105697000D01*
G75*
G02*
X144989000Y-105915750I0J-218750D01*
G01*
G37*
G04 #@! TD.AperFunction*
G04 #@! TA.AperFunction,SMDPad,CuDef*
G36*
G01*
X164688000Y-106936250D02*
X164688000Y-106423750D01*
G75*
G02*
X164906750Y-106205000I218750J0D01*
G01*
X165344250Y-106205000D01*
G75*
G02*
X165563000Y-106423750I0J-218750D01*
G01*
X165563000Y-106936250D01*
G75*
G02*
X165344250Y-107155000I-218750J0D01*
G01*
X164906750Y-107155000D01*
G75*
G02*
X164688000Y-106936250I0J218750D01*
G01*
G37*
G04 #@! TD.AperFunction*
G04 #@! TA.AperFunction,SMDPad,CuDef*
G36*
G01*
X163113000Y-106936250D02*
X163113000Y-106423750D01*
G75*
G02*
X163331750Y-106205000I218750J0D01*
G01*
X163769250Y-106205000D01*
G75*
G02*
X163988000Y-106423750I0J-218750D01*
G01*
X163988000Y-106936250D01*
G75*
G02*
X163769250Y-107155000I-218750J0D01*
G01*
X163331750Y-107155000D01*
G75*
G02*
X163113000Y-106936250I0J218750D01*
G01*
G37*
G04 #@! TD.AperFunction*
G04 #@! TA.AperFunction,SMDPad,CuDef*
G36*
G01*
X164688000Y-105412250D02*
X164688000Y-104899750D01*
G75*
G02*
X164906750Y-104681000I218750J0D01*
G01*
X165344250Y-104681000D01*
G75*
G02*
X165563000Y-104899750I0J-218750D01*
G01*
X165563000Y-105412250D01*
G75*
G02*
X165344250Y-105631000I-218750J0D01*
G01*
X164906750Y-105631000D01*
G75*
G02*
X164688000Y-105412250I0J218750D01*
G01*
G37*
G04 #@! TD.AperFunction*
G04 #@! TA.AperFunction,SMDPad,CuDef*
G36*
G01*
X163113000Y-105412250D02*
X163113000Y-104899750D01*
G75*
G02*
X163331750Y-104681000I218750J0D01*
G01*
X163769250Y-104681000D01*
G75*
G02*
X163988000Y-104899750I0J-218750D01*
G01*
X163988000Y-105412250D01*
G75*
G02*
X163769250Y-105631000I-218750J0D01*
G01*
X163331750Y-105631000D01*
G75*
G02*
X163113000Y-105412250I0J218750D01*
G01*
G37*
G04 #@! TD.AperFunction*
D16*
X181356000Y-100330000D03*
X181356000Y-102870000D03*
D17*
X181610000Y-97790000D03*
X181610000Y-105410000D03*
D18*
X164196000Y-100650000D03*
X165496000Y-100650000D03*
X164846000Y-102550000D03*
X164846000Y-100650000D03*
X165496000Y-102550000D03*
X164196000Y-102550000D03*
D19*
X151371000Y-102694000D03*
X151371000Y-104394000D03*
X151371000Y-106094000D03*
X146571000Y-106094000D03*
X146571000Y-104394000D03*
X146571000Y-102694000D03*
D18*
X144414000Y-98364000D03*
X143114000Y-98364000D03*
X143764000Y-100264000D03*
X143764000Y-98364000D03*
X143114000Y-100264000D03*
X144414000Y-100264000D03*
G04 #@! TA.AperFunction,SMDPad,CuDef*
G36*
G01*
X167137500Y-102867750D02*
X167137500Y-103380250D01*
G75*
G02*
X166918750Y-103599000I-218750J0D01*
G01*
X166481250Y-103599000D01*
G75*
G02*
X166262500Y-103380250I0J218750D01*
G01*
X166262500Y-102867750D01*
G75*
G02*
X166481250Y-102649000I218750J0D01*
G01*
X166918750Y-102649000D01*
G75*
G02*
X167137500Y-102867750I0J-218750D01*
G01*
G37*
G04 #@! TD.AperFunction*
G04 #@! TA.AperFunction,SMDPad,CuDef*
G36*
G01*
X168712500Y-102867750D02*
X168712500Y-103380250D01*
G75*
G02*
X168493750Y-103599000I-218750J0D01*
G01*
X168056250Y-103599000D01*
G75*
G02*
X167837500Y-103380250I0J218750D01*
G01*
X167837500Y-102867750D01*
G75*
G02*
X168056250Y-102649000I218750J0D01*
G01*
X168493750Y-102649000D01*
G75*
G02*
X168712500Y-102867750I0J-218750D01*
G01*
G37*
G04 #@! TD.AperFunction*
G04 #@! TA.AperFunction,SMDPad,CuDef*
G36*
G01*
X149194000Y-97030250D02*
X149194000Y-96517750D01*
G75*
G02*
X149412750Y-96299000I218750J0D01*
G01*
X149850250Y-96299000D01*
G75*
G02*
X150069000Y-96517750I0J-218750D01*
G01*
X150069000Y-97030250D01*
G75*
G02*
X149850250Y-97249000I-218750J0D01*
G01*
X149412750Y-97249000D01*
G75*
G02*
X149194000Y-97030250I0J218750D01*
G01*
G37*
G04 #@! TD.AperFunction*
G04 #@! TA.AperFunction,SMDPad,CuDef*
G36*
G01*
X147619000Y-97030250D02*
X147619000Y-96517750D01*
G75*
G02*
X147837750Y-96299000I218750J0D01*
G01*
X148275250Y-96299000D01*
G75*
G02*
X148494000Y-96517750I0J-218750D01*
G01*
X148494000Y-97030250D01*
G75*
G02*
X148275250Y-97249000I-218750J0D01*
G01*
X147837750Y-97249000D01*
G75*
G02*
X147619000Y-97030250I0J218750D01*
G01*
G37*
G04 #@! TD.AperFunction*
G04 #@! TA.AperFunction,SMDPad,CuDef*
G36*
G01*
X154082000Y-105661750D02*
X154082000Y-106174250D01*
G75*
G02*
X153863250Y-106393000I-218750J0D01*
G01*
X153425750Y-106393000D01*
G75*
G02*
X153207000Y-106174250I0J218750D01*
G01*
X153207000Y-105661750D01*
G75*
G02*
X153425750Y-105443000I218750J0D01*
G01*
X153863250Y-105443000D01*
G75*
G02*
X154082000Y-105661750I0J-218750D01*
G01*
G37*
G04 #@! TD.AperFunction*
G04 #@! TA.AperFunction,SMDPad,CuDef*
G36*
G01*
X155657000Y-105661750D02*
X155657000Y-106174250D01*
G75*
G02*
X155438250Y-106393000I-218750J0D01*
G01*
X155000750Y-106393000D01*
G75*
G02*
X154782000Y-106174250I0J218750D01*
G01*
X154782000Y-105661750D01*
G75*
G02*
X155000750Y-105443000I218750J0D01*
G01*
X155438250Y-105443000D01*
G75*
G02*
X155657000Y-105661750I0J-218750D01*
G01*
G37*
G04 #@! TD.AperFunction*
G04 #@! TA.AperFunction,SMDPad,CuDef*
G36*
G01*
X157830000Y-97030250D02*
X157830000Y-96517750D01*
G75*
G02*
X158048750Y-96299000I218750J0D01*
G01*
X158486250Y-96299000D01*
G75*
G02*
X158705000Y-96517750I0J-218750D01*
G01*
X158705000Y-97030250D01*
G75*
G02*
X158486250Y-97249000I-218750J0D01*
G01*
X158048750Y-97249000D01*
G75*
G02*
X157830000Y-97030250I0J218750D01*
G01*
G37*
G04 #@! TD.AperFunction*
G04 #@! TA.AperFunction,SMDPad,CuDef*
G36*
G01*
X156255000Y-97030250D02*
X156255000Y-96517750D01*
G75*
G02*
X156473750Y-96299000I218750J0D01*
G01*
X156911250Y-96299000D01*
G75*
G02*
X157130000Y-96517750I0J-218750D01*
G01*
X157130000Y-97030250D01*
G75*
G02*
X156911250Y-97249000I-218750J0D01*
G01*
X156473750Y-97249000D01*
G75*
G02*
X156255000Y-97030250I0J218750D01*
G01*
G37*
G04 #@! TD.AperFunction*
G04 #@! TA.AperFunction,SMDPad,CuDef*
G36*
G01*
X145539750Y-99664000D02*
X146052250Y-99664000D01*
G75*
G02*
X146271000Y-99882750I0J-218750D01*
G01*
X146271000Y-100320250D01*
G75*
G02*
X146052250Y-100539000I-218750J0D01*
G01*
X145539750Y-100539000D01*
G75*
G02*
X145321000Y-100320250I0J218750D01*
G01*
X145321000Y-99882750D01*
G75*
G02*
X145539750Y-99664000I218750J0D01*
G01*
G37*
G04 #@! TD.AperFunction*
G04 #@! TA.AperFunction,SMDPad,CuDef*
G36*
G01*
X145539750Y-98089000D02*
X146052250Y-98089000D01*
G75*
G02*
X146271000Y-98307750I0J-218750D01*
G01*
X146271000Y-98745250D01*
G75*
G02*
X146052250Y-98964000I-218750J0D01*
G01*
X145539750Y-98964000D01*
G75*
G02*
X145321000Y-98745250I0J218750D01*
G01*
X145321000Y-98307750D01*
G75*
G02*
X145539750Y-98089000I218750J0D01*
G01*
G37*
G04 #@! TD.AperFunction*
D20*
X141986000Y-97536000D03*
X137541000Y-100584000D03*
X141986000Y-100330000D03*
X145034000Y-101092000D03*
X156210000Y-101092000D03*
X169164000Y-99822000D03*
X159258000Y-98736012D03*
X143002000Y-99314000D03*
X144526000Y-99314000D03*
X153669984Y-104648000D03*
X143764000Y-105410000D03*
X165861980Y-97028000D03*
X159258026Y-97028006D03*
X149605994Y-97790000D03*
X167894000Y-105788990D03*
X164846000Y-96266000D03*
X169163988Y-98044000D03*
X161798000Y-96266000D03*
X154470027Y-104648000D03*
X147066000Y-96266000D03*
X155956000Y-96266000D03*
X169164000Y-100838000D03*
X142748000Y-101346000D03*
X156210000Y-104648000D03*
X162052000Y-105918000D03*
X157226000Y-104648000D03*
X161036000Y-105917996D03*
X152069994Y-98552000D03*
X152184000Y-101345791D03*
X152869997Y-98552000D03*
X151384000Y-101346000D03*
X146558000Y-97028000D03*
X153670000Y-97028000D03*
X157223365Y-97677427D03*
X163830000Y-101600012D03*
D21*
X145829500Y-100068000D02*
X145796000Y-100101500D01*
X147548000Y-100068000D02*
X145829500Y-100068000D01*
X145633500Y-100264000D02*
X145796000Y-100101500D01*
X144414000Y-100264000D02*
X145633500Y-100264000D01*
X145796000Y-97790000D02*
X145542000Y-97536000D01*
X145796000Y-98526500D02*
X145796000Y-97790000D01*
X146837500Y-99568000D02*
X145796000Y-98526500D01*
X147548000Y-99568000D02*
X146837500Y-99568000D01*
X145542000Y-97536000D02*
X143764000Y-97536000D01*
X143114000Y-97648000D02*
X143002000Y-97536000D01*
X143114000Y-98364000D02*
X143114000Y-97648000D01*
X143002000Y-97536000D02*
X141986000Y-97536000D01*
X143764000Y-97536000D02*
X143002000Y-97536000D01*
X141732000Y-100584000D02*
X141986000Y-100330000D01*
X137550000Y-100584000D02*
X141732000Y-100584000D01*
X145034000Y-101092000D02*
X145034000Y-100330000D01*
X167640000Y-100838000D02*
X167640000Y-99758500D01*
X142976500Y-102616000D02*
X142976500Y-104394000D01*
X169100500Y-99758500D02*
X169164000Y-99822000D01*
X167640000Y-99758500D02*
X169100500Y-99758500D01*
X143114000Y-99426000D02*
X143002000Y-99314000D01*
X143114000Y-100264000D02*
X143114000Y-99426000D01*
X144414000Y-99202000D02*
X144526000Y-99314000D01*
X144414000Y-98364000D02*
X144414000Y-99202000D01*
X142976500Y-106172000D02*
X142976500Y-105384500D01*
X142976500Y-105384500D02*
X142976500Y-104394000D01*
X159258000Y-99060000D02*
X159258000Y-98736012D01*
X158976000Y-99342000D02*
X159258000Y-99060000D01*
X158647500Y-99342000D02*
X158976000Y-99342000D01*
X149098000Y-99568000D02*
X149098000Y-100584000D01*
X147564000Y-100584000D02*
X147548000Y-100568000D01*
X149098000Y-100584000D02*
X147564000Y-100584000D01*
X165633500Y-98552000D02*
X165633500Y-97256480D01*
X165633500Y-97256480D02*
X165861980Y-97028000D01*
X165861980Y-97028000D02*
X166700000Y-97028000D01*
X159258020Y-97028000D02*
X159258026Y-97028006D01*
X158521500Y-97028000D02*
X159258020Y-97028000D01*
X158267500Y-96774000D02*
X158521500Y-97028000D01*
X143738500Y-105384500D02*
X143764000Y-105410000D01*
X142976500Y-105384500D02*
X143738500Y-105384500D01*
X149098000Y-99568000D02*
X149098000Y-98297994D01*
X149631500Y-96774000D02*
X149631500Y-97764494D01*
X149098000Y-98297994D02*
X149605994Y-97790000D01*
X149631500Y-97764494D02*
X149605994Y-97790000D01*
X153670000Y-105892500D02*
X153644500Y-105918000D01*
X153670000Y-104648016D02*
X153670000Y-105892500D01*
X153669984Y-104648000D02*
X153670000Y-104648016D01*
X162585500Y-103733500D02*
X162585500Y-103124000D01*
X162077500Y-104241500D02*
X162585500Y-103733500D01*
X162077500Y-104648000D02*
X162077500Y-104241500D01*
X168018990Y-105664000D02*
X167894000Y-105788990D01*
X168867000Y-105664000D02*
X168018990Y-105664000D01*
X169699199Y-107239001D02*
X168199001Y-107239001D01*
X167894000Y-106934000D02*
X167894000Y-105788990D01*
X182880000Y-105410000D02*
X171528200Y-105410000D01*
X171528200Y-105410000D02*
X169699199Y-107239001D01*
X168199001Y-107239001D02*
X167894000Y-106934000D01*
X153670000Y-104647984D02*
X153669984Y-104648000D01*
X153670000Y-102944500D02*
X153670000Y-104647984D01*
X153772500Y-102842000D02*
X153670000Y-102944500D01*
X154460000Y-103529500D02*
X154460000Y-103979668D01*
X164846000Y-100650000D02*
X164846000Y-102550000D01*
X168290000Y-97043000D02*
X168275000Y-97028000D01*
X168290000Y-97932000D02*
X168290000Y-97043000D01*
X168290000Y-98679000D02*
X168290000Y-97932000D01*
X168402000Y-98044000D02*
X169163988Y-98044000D01*
X168290000Y-97932000D02*
X168402000Y-98044000D01*
X154460000Y-104637973D02*
X154470027Y-104648000D01*
X154460000Y-103529500D02*
X154460000Y-104637973D01*
X159902498Y-98136002D02*
X161010500Y-97028000D01*
X158478498Y-98136002D02*
X159902498Y-98136002D01*
X157960000Y-98654500D02*
X158478498Y-98136002D01*
X161010500Y-97028000D02*
X161010500Y-96545500D01*
X161290000Y-96266000D02*
X161798000Y-96266000D01*
X161010500Y-96545500D02*
X161290000Y-96266000D01*
X164846000Y-96266000D02*
X164846000Y-100650000D01*
X147548500Y-96266000D02*
X148056500Y-96774000D01*
X147066000Y-96266000D02*
X147548500Y-96266000D01*
X148056500Y-97561500D02*
X148056500Y-96774000D01*
X147548000Y-98070000D02*
X148056500Y-97561500D01*
X147548000Y-98568000D02*
X147548000Y-98070000D01*
X155219500Y-105918000D02*
X155473500Y-105918000D01*
X154470027Y-105168527D02*
X155219500Y-105918000D01*
X154470027Y-104648000D02*
X154470027Y-105168527D01*
X155956000Y-96520000D02*
X155956000Y-96266000D01*
X156210000Y-96774000D02*
X155956000Y-96520000D01*
X156692500Y-96774000D02*
X156210000Y-96774000D01*
X155960000Y-97024000D02*
X156210000Y-96774000D01*
X155960000Y-98654500D02*
X155960000Y-97024000D01*
X168290000Y-103109000D02*
X168275000Y-103124000D01*
X168290000Y-101966000D02*
X168290000Y-103109000D01*
X168290000Y-100838000D02*
X168290000Y-101966000D01*
X143764000Y-98364000D02*
X143764000Y-100264000D01*
X168290000Y-100838000D02*
X169164000Y-100838000D01*
X167640000Y-103759000D02*
X168275000Y-103124000D01*
X167640000Y-105029000D02*
X167640000Y-103759000D01*
X167005000Y-105664000D02*
X167640000Y-105029000D01*
X166667000Y-105664000D02*
X167005000Y-105664000D01*
X169164000Y-100838000D02*
X172212000Y-97790000D01*
X172212000Y-97790000D02*
X182880000Y-97790000D01*
X167304000Y-101742000D02*
X168290000Y-101742000D01*
X166990000Y-101428000D02*
X167304000Y-101742000D01*
X168290000Y-101742000D02*
X168290000Y-101966000D01*
X166990000Y-100838000D02*
X166990000Y-101428000D01*
X143510000Y-101346000D02*
X142748000Y-101346000D01*
X143764000Y-101092000D02*
X143510000Y-101346000D01*
X143764000Y-100264000D02*
X143764000Y-101092000D01*
X152322000Y-102694000D02*
X151371000Y-102694000D01*
X153174000Y-101842000D02*
X152322000Y-102694000D01*
X153772500Y-101842000D02*
X153174000Y-101842000D01*
X152400000Y-104394000D02*
X151371000Y-104394000D01*
X152908000Y-103886000D02*
X152400000Y-104394000D01*
X152908000Y-102756332D02*
X152908000Y-103886000D01*
X153322332Y-102342000D02*
X152908000Y-102756332D01*
X153772500Y-102342000D02*
X153322332Y-102342000D01*
X159180300Y-102342000D02*
X158647500Y-102342000D01*
X159529930Y-102691630D02*
X159180300Y-102342000D01*
X159529930Y-105291965D02*
X159529930Y-102691630D01*
X159804001Y-105566036D02*
X159529930Y-105291965D01*
X159804001Y-106302001D02*
X159804001Y-105566036D01*
X159388001Y-106718001D02*
X159804001Y-106302001D01*
X152946001Y-106718001D02*
X159388001Y-106718001D01*
X152322000Y-106094000D02*
X152946001Y-106718001D01*
X151371000Y-106094000D02*
X152322000Y-106094000D01*
X146493000Y-106172000D02*
X146571000Y-106094000D01*
X144551500Y-106172000D02*
X146493000Y-106172000D01*
X144551500Y-104394000D02*
X146571000Y-104394000D01*
X146493000Y-102616000D02*
X146571000Y-102694000D01*
X144551500Y-102616000D02*
X146493000Y-102616000D01*
X168867000Y-103929000D02*
X168867000Y-104714000D01*
X172466000Y-100330000D02*
X168867000Y-103929000D01*
X182626000Y-100330000D02*
X172466000Y-100330000D01*
X175578889Y-102870000D02*
X182626000Y-102870000D01*
X172212000Y-102870000D02*
X175578889Y-102870000D01*
X170180000Y-104902000D02*
X172212000Y-102870000D01*
X170180000Y-106192500D02*
X170180000Y-104902000D01*
X169758500Y-106614000D02*
X170180000Y-106192500D01*
X168867000Y-106614000D02*
X169758500Y-106614000D01*
X160020000Y-104165500D02*
X160502500Y-104648000D01*
X160020000Y-102616000D02*
X160020000Y-104165500D01*
X159246000Y-101842000D02*
X160020000Y-102616000D01*
X158647500Y-101842000D02*
X159246000Y-101842000D01*
X161010500Y-103040800D02*
X161010500Y-103124000D01*
X158647500Y-101342000D02*
X159311700Y-101342000D01*
X159311700Y-101342000D02*
X161010500Y-103040800D01*
X160267625Y-101600000D02*
X161010500Y-101600000D01*
X159509625Y-100842000D02*
X160267625Y-101600000D01*
X158647500Y-100842000D02*
X159509625Y-100842000D01*
X159766000Y-100076000D02*
X161010500Y-100076000D01*
X159500000Y-100342000D02*
X159766000Y-100076000D01*
X158647500Y-100342000D02*
X159500000Y-100342000D01*
X165608000Y-105156000D02*
X165125500Y-105156000D01*
X166050000Y-104714000D02*
X165608000Y-105156000D01*
X166667000Y-104714000D02*
X166050000Y-104714000D01*
X156460000Y-104398000D02*
X156210000Y-104648000D01*
X156460000Y-103529500D02*
X156460000Y-104398000D01*
X162560000Y-105918000D02*
X162052000Y-105918000D01*
X163322000Y-105156000D02*
X162560000Y-105918000D01*
X163550500Y-105156000D02*
X163322000Y-105156000D01*
X166479000Y-106426000D02*
X166667000Y-106614000D01*
X165862000Y-106426000D02*
X166479000Y-106426000D01*
X165608000Y-106680000D02*
X165862000Y-106426000D01*
X165125500Y-106680000D02*
X165608000Y-106680000D01*
X156960000Y-103529500D02*
X156960000Y-104382000D01*
X156960000Y-104382000D02*
X157226000Y-104648000D01*
X163550500Y-106680000D02*
X161798004Y-106680000D01*
X161798004Y-106680000D02*
X161036000Y-105917996D01*
X158647500Y-99842000D02*
X159434300Y-99842000D01*
X159434300Y-99842000D02*
X160724300Y-98552000D01*
X160724300Y-98552000D02*
X161010500Y-98552000D01*
X153860499Y-98654500D02*
X154460000Y-98654500D01*
X152741999Y-97536000D02*
X153860499Y-98654500D01*
X152654000Y-97536000D02*
X152741999Y-97536000D01*
X157979999Y-104499667D02*
X157460000Y-103979668D01*
X157979999Y-105418001D02*
X157979999Y-104499667D01*
X157460000Y-103979668D02*
X157460000Y-103529500D01*
X157480000Y-105918000D02*
X157979999Y-105418001D01*
X159004000Y-104902000D02*
X159004000Y-105918000D01*
X157960000Y-103858000D02*
X159004000Y-104902000D01*
X157960000Y-103529500D02*
X157960000Y-103858000D01*
X155460000Y-97802000D02*
X155460000Y-98654500D01*
X154085998Y-96427998D02*
X155460000Y-97802000D01*
X151984002Y-96427998D02*
X154085998Y-96427998D01*
X150648000Y-97764000D02*
X151984002Y-96427998D01*
X150648000Y-98568000D02*
X150648000Y-97764000D01*
X153190934Y-100842000D02*
X151416934Y-99068000D01*
X151416934Y-99068000D02*
X150648000Y-99068000D01*
X153772500Y-100842000D02*
X153190934Y-100842000D01*
X151351236Y-99568000D02*
X153125236Y-101342000D01*
X150648000Y-99568000D02*
X151351236Y-99568000D01*
X153125236Y-101342000D02*
X153772500Y-101342000D01*
X152069994Y-99155360D02*
X152069994Y-98552000D01*
X153256634Y-100342000D02*
X152069994Y-99155360D01*
X153772500Y-100342000D02*
X153256634Y-100342000D01*
X151248004Y-100068000D02*
X152184000Y-101003996D01*
X150648000Y-100068000D02*
X151248004Y-100068000D01*
X152184000Y-101003996D02*
X152184000Y-101345791D01*
X153322334Y-99842000D02*
X152869997Y-99389663D01*
X152869997Y-99389663D02*
X152869997Y-98552000D01*
X153772500Y-99842000D02*
X153322334Y-99842000D01*
X151384000Y-100838000D02*
X151384000Y-101346000D01*
X151114000Y-100568000D02*
X151384000Y-100838000D01*
X150648000Y-100568000D02*
X151114000Y-100568000D01*
X154094264Y-97028000D02*
X153670000Y-97028000D01*
X154960000Y-97893736D02*
X154094264Y-97028000D01*
X154960000Y-98654500D02*
X154960000Y-97893736D01*
X146558000Y-98603000D02*
X146558000Y-97028000D01*
X147023000Y-99068000D02*
X146558000Y-98603000D01*
X147548000Y-99068000D02*
X147023000Y-99068000D01*
X156781739Y-97677427D02*
X157223365Y-97677427D01*
X156460000Y-97999166D02*
X156781739Y-97677427D01*
X156460000Y-98654500D02*
X156460000Y-97999166D01*
X164196000Y-98689500D02*
X164058500Y-98552000D01*
X164196000Y-100650000D02*
X164196000Y-98689500D01*
X164058500Y-98552000D02*
X162585500Y-98552000D01*
X162585500Y-98552000D02*
X162585500Y-97028000D01*
X164196000Y-100650000D02*
X164196000Y-101234012D01*
X164196000Y-101234012D02*
X163830000Y-101600012D01*
G36*
X165962500Y-96903000D02*
G01*
X166037500Y-96978000D01*
X166650000Y-96978000D01*
X166650000Y-96958000D01*
X166750000Y-96958000D01*
X166750000Y-96978000D01*
X166770000Y-96978000D01*
X166770000Y-97078000D01*
X166750000Y-97078000D01*
X166750000Y-97728000D01*
X166825000Y-97803000D01*
X167137500Y-97804452D01*
X167196310Y-97798660D01*
X167252861Y-97781505D01*
X167304978Y-97753648D01*
X167350659Y-97716159D01*
X167388148Y-97670478D01*
X167416005Y-97618361D01*
X167433160Y-97561810D01*
X167438952Y-97503000D01*
X167438774Y-97460196D01*
X167540000Y-97561422D01*
X167540000Y-98005011D01*
X167491558Y-98009782D01*
X167420938Y-98031205D01*
X167355855Y-98065992D01*
X167315000Y-98099521D01*
X167274145Y-98065992D01*
X167209062Y-98031205D01*
X167138442Y-98009782D01*
X167065000Y-98002549D01*
X166915000Y-98002549D01*
X166841558Y-98009782D01*
X166770938Y-98031205D01*
X166705855Y-98065992D01*
X166648809Y-98112809D01*
X166601992Y-98169855D01*
X166567205Y-98234938D01*
X166545782Y-98305558D01*
X166538549Y-98379000D01*
X166538549Y-98979000D01*
X166545782Y-99052442D01*
X166567205Y-99123062D01*
X166601992Y-99188145D01*
X166610036Y-99197947D01*
X166594340Y-99249690D01*
X166588548Y-99308500D01*
X166590000Y-99633500D01*
X166665000Y-99708500D01*
X167540000Y-99708500D01*
X167540000Y-99808500D01*
X166665000Y-99808500D01*
X166590000Y-99883500D01*
X166588548Y-100208500D01*
X166594340Y-100267310D01*
X166610036Y-100319053D01*
X166601992Y-100328855D01*
X166567205Y-100393938D01*
X166545782Y-100464558D01*
X166538549Y-100538000D01*
X166538549Y-101138000D01*
X166545782Y-101211442D01*
X166567205Y-101282062D01*
X166590001Y-101324711D01*
X166590001Y-101408344D01*
X166588065Y-101428000D01*
X166595788Y-101506413D01*
X166618661Y-101581814D01*
X166655803Y-101651302D01*
X166693265Y-101696950D01*
X166693268Y-101696953D01*
X166705790Y-101712211D01*
X166721047Y-101724732D01*
X167007267Y-102010953D01*
X167019789Y-102026211D01*
X167035047Y-102038733D01*
X167035049Y-102038735D01*
X167068347Y-102066062D01*
X167080697Y-102076197D01*
X167150186Y-102113340D01*
X167225586Y-102136212D01*
X167284353Y-102142000D01*
X167284355Y-102142000D01*
X167303999Y-102143935D01*
X167323643Y-102142000D01*
X167540000Y-102142000D01*
X167540000Y-102827637D01*
X167536049Y-102867750D01*
X167536049Y-103102529D01*
X167413539Y-103225039D01*
X167362500Y-103174000D01*
X166750000Y-103174000D01*
X166750000Y-103824000D01*
X166782289Y-103856289D01*
X166598578Y-104040000D01*
X162839422Y-104040000D01*
X162635502Y-103836080D01*
X162635502Y-103824002D01*
X162710500Y-103899000D01*
X163023000Y-103900452D01*
X163081810Y-103894660D01*
X163138361Y-103877505D01*
X163190478Y-103849648D01*
X163236159Y-103812159D01*
X163273648Y-103766478D01*
X163301505Y-103714361D01*
X163318660Y-103657810D01*
X163324452Y-103599000D01*
X165961048Y-103599000D01*
X165966840Y-103657810D01*
X165983995Y-103714361D01*
X166011852Y-103766478D01*
X166049341Y-103812159D01*
X166095022Y-103849648D01*
X166147139Y-103877505D01*
X166203690Y-103894660D01*
X166262500Y-103900452D01*
X166575000Y-103899000D01*
X166650000Y-103824000D01*
X166650000Y-103174000D01*
X166037500Y-103174000D01*
X165962500Y-103249000D01*
X165961048Y-103599000D01*
X163324452Y-103599000D01*
X163323000Y-103249000D01*
X163248000Y-103174000D01*
X162635500Y-103174000D01*
X162635500Y-103194000D01*
X162535500Y-103194000D01*
X162535500Y-103174000D01*
X162515500Y-103174000D01*
X162515500Y-103074000D01*
X162535500Y-103074000D01*
X162535500Y-102424000D01*
X162473500Y-102362000D01*
X162535500Y-102300000D01*
X162535500Y-101650000D01*
X162515500Y-101650000D01*
X162515500Y-101550000D01*
X162535500Y-101550000D01*
X162535500Y-100900000D01*
X162473500Y-100838000D01*
X162535500Y-100776000D01*
X162535500Y-100126000D01*
X162515500Y-100126000D01*
X162515500Y-100026000D01*
X162535500Y-100026000D01*
X162535500Y-100006000D01*
X162635500Y-100006000D01*
X162635500Y-100026000D01*
X163248000Y-100026000D01*
X163323000Y-99951000D01*
X163324452Y-99601000D01*
X163318660Y-99542190D01*
X163301505Y-99485639D01*
X163273648Y-99433522D01*
X163236159Y-99387841D01*
X163190478Y-99350352D01*
X163138361Y-99322495D01*
X163081810Y-99305340D01*
X163023000Y-99299548D01*
X162967210Y-99299807D01*
X163003322Y-99288853D01*
X163093258Y-99240781D01*
X163172088Y-99176088D01*
X163236781Y-99097258D01*
X163284853Y-99007322D01*
X163301635Y-98952000D01*
X163342365Y-98952000D01*
X163359147Y-99007322D01*
X163407219Y-99097258D01*
X163471912Y-99176088D01*
X163550742Y-99240781D01*
X163640678Y-99288853D01*
X163738264Y-99318455D01*
X163796001Y-99324142D01*
X163796000Y-100101043D01*
X163782842Y-100111842D01*
X163745353Y-100157523D01*
X163717496Y-100209640D01*
X163700341Y-100266190D01*
X163694549Y-100325000D01*
X163694549Y-100975000D01*
X163698432Y-101014428D01*
X163654986Y-101023070D01*
X163545793Y-101068299D01*
X163447522Y-101133962D01*
X163363950Y-101217534D01*
X163323819Y-101277594D01*
X163324452Y-101125000D01*
X163318660Y-101066190D01*
X163301505Y-101009639D01*
X163273648Y-100957522D01*
X163236159Y-100911841D01*
X163190478Y-100874352D01*
X163138361Y-100846495D01*
X163110357Y-100838000D01*
X163138361Y-100829505D01*
X163190478Y-100801648D01*
X163236159Y-100764159D01*
X163273648Y-100718478D01*
X163301505Y-100666361D01*
X163318660Y-100609810D01*
X163324452Y-100551000D01*
X163323000Y-100201000D01*
X163248000Y-100126000D01*
X162635500Y-100126000D01*
X162635500Y-100776000D01*
X162697500Y-100838000D01*
X162635500Y-100900000D01*
X162635500Y-101550000D01*
X162655500Y-101550000D01*
X162655500Y-101650000D01*
X162635500Y-101650000D01*
X162635500Y-102300000D01*
X162697500Y-102362000D01*
X162635500Y-102424000D01*
X162635500Y-103074000D01*
X163248000Y-103074000D01*
X163323000Y-102999000D01*
X163323514Y-102875000D01*
X163694548Y-102875000D01*
X163700340Y-102933810D01*
X163717495Y-102990361D01*
X163745352Y-103042478D01*
X163782841Y-103088159D01*
X163828522Y-103125648D01*
X163880639Y-103153505D01*
X163937190Y-103170660D01*
X163996000Y-103176452D01*
X164071000Y-103175000D01*
X164146000Y-103100000D01*
X164146000Y-102600000D01*
X163771000Y-102600000D01*
X163696000Y-102675000D01*
X163694548Y-102875000D01*
X163323514Y-102875000D01*
X163324452Y-102649000D01*
X163318660Y-102590190D01*
X163301505Y-102533639D01*
X163273648Y-102481522D01*
X163236159Y-102435841D01*
X163190478Y-102398352D01*
X163138361Y-102370495D01*
X163110357Y-102362000D01*
X163138361Y-102353505D01*
X163190478Y-102325648D01*
X163236159Y-102288159D01*
X163273648Y-102242478D01*
X163301505Y-102190361D01*
X163318660Y-102133810D01*
X163324452Y-102075000D01*
X163323819Y-101922430D01*
X163363950Y-101982490D01*
X163447522Y-102066062D01*
X163545793Y-102131725D01*
X163654986Y-102176954D01*
X163698429Y-102185595D01*
X163694548Y-102225000D01*
X163696000Y-102425000D01*
X163771000Y-102500000D01*
X164146000Y-102500000D01*
X164146000Y-102480000D01*
X164246000Y-102480000D01*
X164246000Y-102500000D01*
X164266000Y-102500000D01*
X164266000Y-102600000D01*
X164246000Y-102600000D01*
X164246000Y-103100000D01*
X164321000Y-103175000D01*
X164396000Y-103176452D01*
X164454810Y-103170660D01*
X164511361Y-103153505D01*
X164521001Y-103148352D01*
X164530640Y-103153504D01*
X164587190Y-103170659D01*
X164646000Y-103176451D01*
X165046000Y-103176451D01*
X165104810Y-103170659D01*
X165161360Y-103153504D01*
X165171000Y-103148351D01*
X165180640Y-103153504D01*
X165237190Y-103170659D01*
X165296000Y-103176451D01*
X165696000Y-103176451D01*
X165754810Y-103170659D01*
X165811360Y-103153504D01*
X165863477Y-103125647D01*
X165909158Y-103088158D01*
X165946647Y-103042477D01*
X165967313Y-103003813D01*
X166037500Y-103074000D01*
X166650000Y-103074000D01*
X166650000Y-102424000D01*
X166750000Y-102424000D01*
X166750000Y-103074000D01*
X167362500Y-103074000D01*
X167437500Y-102999000D01*
X167438952Y-102649000D01*
X167433160Y-102590190D01*
X167416005Y-102533639D01*
X167388148Y-102481522D01*
X167350659Y-102435841D01*
X167304978Y-102398352D01*
X167252861Y-102370495D01*
X167196310Y-102353340D01*
X167137500Y-102347548D01*
X166825000Y-102349000D01*
X166750000Y-102424000D01*
X166650000Y-102424000D01*
X166575000Y-102349000D01*
X166262500Y-102347548D01*
X166203690Y-102353340D01*
X166147139Y-102370495D01*
X166095022Y-102398352D01*
X166049341Y-102435841D01*
X166011852Y-102481522D01*
X165997451Y-102508464D01*
X165997451Y-102225000D01*
X165991659Y-102166190D01*
X165974504Y-102109640D01*
X165946647Y-102057523D01*
X165909158Y-102011842D01*
X165863477Y-101974353D01*
X165811360Y-101946496D01*
X165754810Y-101929341D01*
X165696000Y-101923549D01*
X165296000Y-101923549D01*
X165246000Y-101928473D01*
X165246000Y-101271528D01*
X165296000Y-101276452D01*
X165371000Y-101275000D01*
X165446000Y-101200000D01*
X165446000Y-100700000D01*
X165546000Y-100700000D01*
X165546000Y-101200000D01*
X165621000Y-101275000D01*
X165696000Y-101276452D01*
X165754810Y-101270660D01*
X165811361Y-101253505D01*
X165863478Y-101225648D01*
X165909159Y-101188159D01*
X165946648Y-101142478D01*
X165974505Y-101090361D01*
X165991660Y-101033810D01*
X165997452Y-100975000D01*
X165996000Y-100775000D01*
X165921000Y-100700000D01*
X165546000Y-100700000D01*
X165446000Y-100700000D01*
X165426000Y-100700000D01*
X165426000Y-100600000D01*
X165446000Y-100600000D01*
X165446000Y-100100000D01*
X165546000Y-100100000D01*
X165546000Y-100600000D01*
X165921000Y-100600000D01*
X165996000Y-100525000D01*
X165997452Y-100325000D01*
X165991660Y-100266190D01*
X165974505Y-100209639D01*
X165946648Y-100157522D01*
X165909159Y-100111841D01*
X165863478Y-100074352D01*
X165811361Y-100046495D01*
X165754810Y-100029340D01*
X165696000Y-100023548D01*
X165621000Y-100025000D01*
X165546000Y-100100000D01*
X165446000Y-100100000D01*
X165371000Y-100025000D01*
X165296000Y-100023548D01*
X165246000Y-100028472D01*
X165246000Y-99328220D01*
X165508500Y-99327000D01*
X165583500Y-99252000D01*
X165583500Y-98602000D01*
X165683500Y-98602000D01*
X165683500Y-99252000D01*
X165758500Y-99327000D01*
X166071000Y-99328452D01*
X166129810Y-99322660D01*
X166186361Y-99305505D01*
X166238478Y-99277648D01*
X166284159Y-99240159D01*
X166321648Y-99194478D01*
X166349505Y-99142361D01*
X166366660Y-99085810D01*
X166372452Y-99027000D01*
X166371000Y-98677000D01*
X166296000Y-98602000D01*
X165683500Y-98602000D01*
X165583500Y-98602000D01*
X165563500Y-98602000D01*
X165563500Y-98502000D01*
X165583500Y-98502000D01*
X165583500Y-97852000D01*
X165683500Y-97852000D01*
X165683500Y-98502000D01*
X166296000Y-98502000D01*
X166371000Y-98427000D01*
X166372452Y-98077000D01*
X166366660Y-98018190D01*
X166349505Y-97961639D01*
X166321648Y-97909522D01*
X166284159Y-97863841D01*
X166238478Y-97826352D01*
X166186361Y-97798495D01*
X166129810Y-97781340D01*
X166071000Y-97775548D01*
X165758500Y-97777000D01*
X165683500Y-97852000D01*
X165583500Y-97852000D01*
X165508500Y-97777000D01*
X165246000Y-97775780D01*
X165246000Y-97503000D01*
X165961048Y-97503000D01*
X165966840Y-97561810D01*
X165983995Y-97618361D01*
X166011852Y-97670478D01*
X166049341Y-97716159D01*
X166095022Y-97753648D01*
X166147139Y-97781505D01*
X166203690Y-97798660D01*
X166262500Y-97804452D01*
X166575000Y-97803000D01*
X166650000Y-97728000D01*
X166650000Y-97078000D01*
X166037500Y-97078000D01*
X165962500Y-97153000D01*
X165961048Y-97503000D01*
X165246000Y-97503000D01*
X165246000Y-96714528D01*
X165312050Y-96648478D01*
X165331079Y-96620000D01*
X165961326Y-96620000D01*
X165962500Y-96903000D01*
G37*
X165962500Y-96903000D02*
X166037500Y-96978000D01*
X166650000Y-96978000D01*
X166650000Y-96958000D01*
X166750000Y-96958000D01*
X166750000Y-96978000D01*
X166770000Y-96978000D01*
X166770000Y-97078000D01*
X166750000Y-97078000D01*
X166750000Y-97728000D01*
X166825000Y-97803000D01*
X167137500Y-97804452D01*
X167196310Y-97798660D01*
X167252861Y-97781505D01*
X167304978Y-97753648D01*
X167350659Y-97716159D01*
X167388148Y-97670478D01*
X167416005Y-97618361D01*
X167433160Y-97561810D01*
X167438952Y-97503000D01*
X167438774Y-97460196D01*
X167540000Y-97561422D01*
X167540000Y-98005011D01*
X167491558Y-98009782D01*
X167420938Y-98031205D01*
X167355855Y-98065992D01*
X167315000Y-98099521D01*
X167274145Y-98065992D01*
X167209062Y-98031205D01*
X167138442Y-98009782D01*
X167065000Y-98002549D01*
X166915000Y-98002549D01*
X166841558Y-98009782D01*
X166770938Y-98031205D01*
X166705855Y-98065992D01*
X166648809Y-98112809D01*
X166601992Y-98169855D01*
X166567205Y-98234938D01*
X166545782Y-98305558D01*
X166538549Y-98379000D01*
X166538549Y-98979000D01*
X166545782Y-99052442D01*
X166567205Y-99123062D01*
X166601992Y-99188145D01*
X166610036Y-99197947D01*
X166594340Y-99249690D01*
X166588548Y-99308500D01*
X166590000Y-99633500D01*
X166665000Y-99708500D01*
X167540000Y-99708500D01*
X167540000Y-99808500D01*
X166665000Y-99808500D01*
X166590000Y-99883500D01*
X166588548Y-100208500D01*
X166594340Y-100267310D01*
X166610036Y-100319053D01*
X166601992Y-100328855D01*
X166567205Y-100393938D01*
X166545782Y-100464558D01*
X166538549Y-100538000D01*
X166538549Y-101138000D01*
X166545782Y-101211442D01*
X166567205Y-101282062D01*
X166590001Y-101324711D01*
X166590001Y-101408344D01*
X166588065Y-101428000D01*
X166595788Y-101506413D01*
X166618661Y-101581814D01*
X166655803Y-101651302D01*
X166693265Y-101696950D01*
X166693268Y-101696953D01*
X166705790Y-101712211D01*
X166721047Y-101724732D01*
X167007267Y-102010953D01*
X167019789Y-102026211D01*
X167035047Y-102038733D01*
X167035049Y-102038735D01*
X167068347Y-102066062D01*
X167080697Y-102076197D01*
X167150186Y-102113340D01*
X167225586Y-102136212D01*
X167284353Y-102142000D01*
X167284355Y-102142000D01*
X167303999Y-102143935D01*
X167323643Y-102142000D01*
X167540000Y-102142000D01*
X167540000Y-102827637D01*
X167536049Y-102867750D01*
X167536049Y-103102529D01*
X167413539Y-103225039D01*
X167362500Y-103174000D01*
X166750000Y-103174000D01*
X166750000Y-103824000D01*
X166782289Y-103856289D01*
X166598578Y-104040000D01*
X162839422Y-104040000D01*
X162635502Y-103836080D01*
X162635502Y-103824002D01*
X162710500Y-103899000D01*
X163023000Y-103900452D01*
X163081810Y-103894660D01*
X163138361Y-103877505D01*
X163190478Y-103849648D01*
X163236159Y-103812159D01*
X163273648Y-103766478D01*
X163301505Y-103714361D01*
X163318660Y-103657810D01*
X163324452Y-103599000D01*
X165961048Y-103599000D01*
X165966840Y-103657810D01*
X165983995Y-103714361D01*
X166011852Y-103766478D01*
X166049341Y-103812159D01*
X166095022Y-103849648D01*
X166147139Y-103877505D01*
X166203690Y-103894660D01*
X166262500Y-103900452D01*
X166575000Y-103899000D01*
X166650000Y-103824000D01*
X166650000Y-103174000D01*
X166037500Y-103174000D01*
X165962500Y-103249000D01*
X165961048Y-103599000D01*
X163324452Y-103599000D01*
X163323000Y-103249000D01*
X163248000Y-103174000D01*
X162635500Y-103174000D01*
X162635500Y-103194000D01*
X162535500Y-103194000D01*
X162535500Y-103174000D01*
X162515500Y-103174000D01*
X162515500Y-103074000D01*
X162535500Y-103074000D01*
X162535500Y-102424000D01*
X162473500Y-102362000D01*
X162535500Y-102300000D01*
X162535500Y-101650000D01*
X162515500Y-101650000D01*
X162515500Y-101550000D01*
X162535500Y-101550000D01*
X162535500Y-100900000D01*
X162473500Y-100838000D01*
X162535500Y-100776000D01*
X162535500Y-100126000D01*
X162515500Y-100126000D01*
X162515500Y-100026000D01*
X162535500Y-100026000D01*
X162535500Y-100006000D01*
X162635500Y-100006000D01*
X162635500Y-100026000D01*
X163248000Y-100026000D01*
X163323000Y-99951000D01*
X163324452Y-99601000D01*
X163318660Y-99542190D01*
X163301505Y-99485639D01*
X163273648Y-99433522D01*
X163236159Y-99387841D01*
X163190478Y-99350352D01*
X163138361Y-99322495D01*
X163081810Y-99305340D01*
X163023000Y-99299548D01*
X162967210Y-99299807D01*
X163003322Y-99288853D01*
X163093258Y-99240781D01*
X163172088Y-99176088D01*
X163236781Y-99097258D01*
X163284853Y-99007322D01*
X163301635Y-98952000D01*
X163342365Y-98952000D01*
X163359147Y-99007322D01*
X163407219Y-99097258D01*
X163471912Y-99176088D01*
X163550742Y-99240781D01*
X163640678Y-99288853D01*
X163738264Y-99318455D01*
X163796001Y-99324142D01*
X163796000Y-100101043D01*
X163782842Y-100111842D01*
X163745353Y-100157523D01*
X163717496Y-100209640D01*
X163700341Y-100266190D01*
X163694549Y-100325000D01*
X163694549Y-100975000D01*
X163698432Y-101014428D01*
X163654986Y-101023070D01*
X163545793Y-101068299D01*
X163447522Y-101133962D01*
X163363950Y-101217534D01*
X163323819Y-101277594D01*
X163324452Y-101125000D01*
X163318660Y-101066190D01*
X163301505Y-101009639D01*
X163273648Y-100957522D01*
X163236159Y-100911841D01*
X163190478Y-100874352D01*
X163138361Y-100846495D01*
X163110357Y-100838000D01*
X163138361Y-100829505D01*
X163190478Y-100801648D01*
X163236159Y-100764159D01*
X163273648Y-100718478D01*
X163301505Y-100666361D01*
X163318660Y-100609810D01*
X163324452Y-100551000D01*
X163323000Y-100201000D01*
X163248000Y-100126000D01*
X162635500Y-100126000D01*
X162635500Y-100776000D01*
X162697500Y-100838000D01*
X162635500Y-100900000D01*
X162635500Y-101550000D01*
X162655500Y-101550000D01*
X162655500Y-101650000D01*
X162635500Y-101650000D01*
X162635500Y-102300000D01*
X162697500Y-102362000D01*
X162635500Y-102424000D01*
X162635500Y-103074000D01*
X163248000Y-103074000D01*
X163323000Y-102999000D01*
X163323514Y-102875000D01*
X163694548Y-102875000D01*
X163700340Y-102933810D01*
X163717495Y-102990361D01*
X163745352Y-103042478D01*
X163782841Y-103088159D01*
X163828522Y-103125648D01*
X163880639Y-103153505D01*
X163937190Y-103170660D01*
X163996000Y-103176452D01*
X164071000Y-103175000D01*
X164146000Y-103100000D01*
X164146000Y-102600000D01*
X163771000Y-102600000D01*
X163696000Y-102675000D01*
X163694548Y-102875000D01*
X163323514Y-102875000D01*
X163324452Y-102649000D01*
X163318660Y-102590190D01*
X163301505Y-102533639D01*
X163273648Y-102481522D01*
X163236159Y-102435841D01*
X163190478Y-102398352D01*
X163138361Y-102370495D01*
X163110357Y-102362000D01*
X163138361Y-102353505D01*
X163190478Y-102325648D01*
X163236159Y-102288159D01*
X163273648Y-102242478D01*
X163301505Y-102190361D01*
X163318660Y-102133810D01*
X163324452Y-102075000D01*
X163323819Y-101922430D01*
X163363950Y-101982490D01*
X163447522Y-102066062D01*
X163545793Y-102131725D01*
X163654986Y-102176954D01*
X163698429Y-102185595D01*
X163694548Y-102225000D01*
X163696000Y-102425000D01*
X163771000Y-102500000D01*
X164146000Y-102500000D01*
X164146000Y-102480000D01*
X164246000Y-102480000D01*
X164246000Y-102500000D01*
X164266000Y-102500000D01*
X164266000Y-102600000D01*
X164246000Y-102600000D01*
X164246000Y-103100000D01*
X164321000Y-103175000D01*
X164396000Y-103176452D01*
X164454810Y-103170660D01*
X164511361Y-103153505D01*
X164521001Y-103148352D01*
X164530640Y-103153504D01*
X164587190Y-103170659D01*
X164646000Y-103176451D01*
X165046000Y-103176451D01*
X165104810Y-103170659D01*
X165161360Y-103153504D01*
X165171000Y-103148351D01*
X165180640Y-103153504D01*
X165237190Y-103170659D01*
X165296000Y-103176451D01*
X165696000Y-103176451D01*
X165754810Y-103170659D01*
X165811360Y-103153504D01*
X165863477Y-103125647D01*
X165909158Y-103088158D01*
X165946647Y-103042477D01*
X165967313Y-103003813D01*
X166037500Y-103074000D01*
X166650000Y-103074000D01*
X166650000Y-102424000D01*
X166750000Y-102424000D01*
X166750000Y-103074000D01*
X167362500Y-103074000D01*
X167437500Y-102999000D01*
X167438952Y-102649000D01*
X167433160Y-102590190D01*
X167416005Y-102533639D01*
X167388148Y-102481522D01*
X167350659Y-102435841D01*
X167304978Y-102398352D01*
X167252861Y-102370495D01*
X167196310Y-102353340D01*
X167137500Y-102347548D01*
X166825000Y-102349000D01*
X166750000Y-102424000D01*
X166650000Y-102424000D01*
X166575000Y-102349000D01*
X166262500Y-102347548D01*
X166203690Y-102353340D01*
X166147139Y-102370495D01*
X166095022Y-102398352D01*
X166049341Y-102435841D01*
X166011852Y-102481522D01*
X165997451Y-102508464D01*
X165997451Y-102225000D01*
X165991659Y-102166190D01*
X165974504Y-102109640D01*
X165946647Y-102057523D01*
X165909158Y-102011842D01*
X165863477Y-101974353D01*
X165811360Y-101946496D01*
X165754810Y-101929341D01*
X165696000Y-101923549D01*
X165296000Y-101923549D01*
X165246000Y-101928473D01*
X165246000Y-101271528D01*
X165296000Y-101276452D01*
X165371000Y-101275000D01*
X165446000Y-101200000D01*
X165446000Y-100700000D01*
X165546000Y-100700000D01*
X165546000Y-101200000D01*
X165621000Y-101275000D01*
X165696000Y-101276452D01*
X165754810Y-101270660D01*
X165811361Y-101253505D01*
X165863478Y-101225648D01*
X165909159Y-101188159D01*
X165946648Y-101142478D01*
X165974505Y-101090361D01*
X165991660Y-101033810D01*
X165997452Y-100975000D01*
X165996000Y-100775000D01*
X165921000Y-100700000D01*
X165546000Y-100700000D01*
X165446000Y-100700000D01*
X165426000Y-100700000D01*
X165426000Y-100600000D01*
X165446000Y-100600000D01*
X165446000Y-100100000D01*
X165546000Y-100100000D01*
X165546000Y-100600000D01*
X165921000Y-100600000D01*
X165996000Y-100525000D01*
X165997452Y-100325000D01*
X165991660Y-100266190D01*
X165974505Y-100209639D01*
X165946648Y-100157522D01*
X165909159Y-100111841D01*
X165863478Y-100074352D01*
X165811361Y-100046495D01*
X165754810Y-100029340D01*
X165696000Y-100023548D01*
X165621000Y-100025000D01*
X165546000Y-100100000D01*
X165446000Y-100100000D01*
X165371000Y-100025000D01*
X165296000Y-100023548D01*
X165246000Y-100028472D01*
X165246000Y-99328220D01*
X165508500Y-99327000D01*
X165583500Y-99252000D01*
X165583500Y-98602000D01*
X165683500Y-98602000D01*
X165683500Y-99252000D01*
X165758500Y-99327000D01*
X166071000Y-99328452D01*
X166129810Y-99322660D01*
X166186361Y-99305505D01*
X166238478Y-99277648D01*
X166284159Y-99240159D01*
X166321648Y-99194478D01*
X166349505Y-99142361D01*
X166366660Y-99085810D01*
X166372452Y-99027000D01*
X166371000Y-98677000D01*
X166296000Y-98602000D01*
X165683500Y-98602000D01*
X165583500Y-98602000D01*
X165563500Y-98602000D01*
X165563500Y-98502000D01*
X165583500Y-98502000D01*
X165583500Y-97852000D01*
X165683500Y-97852000D01*
X165683500Y-98502000D01*
X166296000Y-98502000D01*
X166371000Y-98427000D01*
X166372452Y-98077000D01*
X166366660Y-98018190D01*
X166349505Y-97961639D01*
X166321648Y-97909522D01*
X166284159Y-97863841D01*
X166238478Y-97826352D01*
X166186361Y-97798495D01*
X166129810Y-97781340D01*
X166071000Y-97775548D01*
X165758500Y-97777000D01*
X165683500Y-97852000D01*
X165583500Y-97852000D01*
X165508500Y-97777000D01*
X165246000Y-97775780D01*
X165246000Y-97503000D01*
X165961048Y-97503000D01*
X165966840Y-97561810D01*
X165983995Y-97618361D01*
X166011852Y-97670478D01*
X166049341Y-97716159D01*
X166095022Y-97753648D01*
X166147139Y-97781505D01*
X166203690Y-97798660D01*
X166262500Y-97804452D01*
X166575000Y-97803000D01*
X166650000Y-97728000D01*
X166650000Y-97078000D01*
X166037500Y-97078000D01*
X165962500Y-97153000D01*
X165961048Y-97503000D01*
X165246000Y-97503000D01*
X165246000Y-96714528D01*
X165312050Y-96648478D01*
X165331079Y-96620000D01*
X165961326Y-96620000D01*
X165962500Y-96903000D01*
M02*
