G04 #@! TF.GenerationSoftware,KiCad,Pcbnew,5.1.6-c6e7f7d~86~ubuntu20.04.1*
G04 #@! TF.CreationDate,2020-07-01T18:46:00+05:00*
G04 #@! TF.ProjectId,Main,4d61696e-2e6b-4696-9361-645f70636258,rev?*
G04 #@! TF.SameCoordinates,Original*
G04 #@! TF.FileFunction,Legend,Top*
G04 #@! TF.FilePolarity,Positive*
%FSLAX46Y46*%
G04 Gerber Fmt 4.6, Leading zero omitted, Abs format (unit mm)*
G04 Created by KiCad (PCBNEW 5.1.6-c6e7f7d~86~ubuntu20.04.1) date 2020-07-01 18:46:00*
%MOMM*%
%LPD*%
G01*
G04 APERTURE LIST*
%ADD10C,0.050000*%
%ADD11C,0.152400*%
%ADD12C,0.120000*%
%ADD13C,0.150000*%
G04 APERTURE END LIST*
D10*
X138303000Y-111633000D02*
X173355000Y-111633000D01*
X137033000Y-92837000D02*
X137033000Y-110363000D01*
X185293000Y-107188000D02*
X175768000Y-107188000D01*
X186563000Y-105918000D02*
G75*
G02*
X185293000Y-107188000I-1270000J0D01*
G01*
X186563000Y-97155000D02*
X186563000Y-106045000D01*
X173355000Y-91567000D02*
X138303000Y-91567000D01*
X185293000Y-96012000D02*
G75*
G02*
X186563000Y-97282000I0J-1270000D01*
G01*
X174498000Y-110363000D02*
G75*
G02*
X173228000Y-111633000I-1270000J0D01*
G01*
X175768000Y-96012000D02*
G75*
G02*
X174498000Y-94742000I0J1270000D01*
G01*
X138303000Y-111633000D02*
G75*
G02*
X137033000Y-110363000I0J1270000D01*
G01*
X174498000Y-108458000D02*
X174498000Y-110363000D01*
X137033000Y-92837000D02*
G75*
G02*
X138303000Y-91567000I1270000J0D01*
G01*
X174498000Y-92837000D02*
X174498000Y-94742000D01*
X173228000Y-91567000D02*
G75*
G02*
X174498000Y-92837000I0J-1270000D01*
G01*
X175895000Y-96012000D02*
X185420000Y-96012000D01*
X174498000Y-108458000D02*
G75*
G02*
X175768000Y-107188000I1270000J0D01*
G01*
D11*
X153084469Y-96074895D02*
X153548926Y-96074895D01*
X153316698Y-96887695D02*
X153316698Y-96074895D01*
X153742450Y-96074895D02*
X154284317Y-96887695D01*
X154284317Y-96074895D02*
X153742450Y-96887695D01*
X158364040Y-104938285D02*
X158325336Y-104976990D01*
X158209221Y-105015695D01*
X158131812Y-105015695D01*
X158015698Y-104976990D01*
X157938288Y-104899580D01*
X157899583Y-104822171D01*
X157860879Y-104667352D01*
X157860879Y-104551238D01*
X157899583Y-104396419D01*
X157938288Y-104319009D01*
X158015698Y-104241600D01*
X158131812Y-104202895D01*
X158209221Y-104202895D01*
X158325336Y-104241600D01*
X158364040Y-104280304D01*
X159099431Y-105015695D02*
X158712383Y-105015695D01*
X158712383Y-104202895D01*
X159370364Y-105015695D02*
X159370364Y-104202895D01*
X159834821Y-105015695D02*
X159486479Y-104551238D01*
X159834821Y-104202895D02*
X159370364Y-104667352D01*
X156375583Y-105015695D02*
X156375583Y-104202895D01*
X156917450Y-104202895D02*
X157072269Y-104202895D01*
X157149679Y-104241600D01*
X157227088Y-104319009D01*
X157265793Y-104473828D01*
X157265793Y-104744761D01*
X157227088Y-104899580D01*
X157149679Y-104976990D01*
X157072269Y-105015695D01*
X156917450Y-105015695D01*
X156840040Y-104976990D01*
X156762631Y-104899580D01*
X156723926Y-104744761D01*
X156723926Y-104473828D01*
X156762631Y-104319009D01*
X156840040Y-104241600D01*
X156917450Y-104202895D01*
D10*
X169545000Y-95885000D02*
X142240000Y-95885000D01*
X169545000Y-107315000D02*
X169545000Y-95885000D01*
X142240000Y-95885000D02*
X142240000Y-107315000D01*
X142240000Y-107315000D02*
X169545000Y-107315000D01*
D12*
X167650279Y-96518000D02*
X167324721Y-96518000D01*
X167650279Y-97538000D02*
X167324721Y-97538000D01*
D13*
X149098000Y-97918000D02*
X150598000Y-97918000D01*
X147598000Y-101218000D02*
X150598000Y-101218000D01*
D12*
X161960779Y-99566000D02*
X161635221Y-99566000D01*
X161960779Y-100586000D02*
X161635221Y-100586000D01*
X161960779Y-101090000D02*
X161635221Y-101090000D01*
X161960779Y-102110000D02*
X161635221Y-102110000D01*
X161960779Y-102614000D02*
X161635221Y-102614000D01*
X161960779Y-103634000D02*
X161635221Y-103634000D01*
X161452779Y-104138000D02*
X161127221Y-104138000D01*
X161452779Y-105158000D02*
X161127221Y-105158000D01*
X166497000Y-99992500D02*
X166497000Y-98742500D01*
X168783000Y-100774500D02*
X168783000Y-98742500D01*
X158820000Y-98957000D02*
X158820000Y-98482000D01*
X153600000Y-103702000D02*
X154075000Y-103702000D01*
X153600000Y-103227000D02*
X153600000Y-103702000D01*
X153600000Y-98482000D02*
X154075000Y-98482000D01*
X153600000Y-98957000D02*
X153600000Y-98482000D01*
X158820000Y-103702000D02*
X158345000Y-103702000D01*
X158820000Y-103227000D02*
X158820000Y-103702000D01*
X166867000Y-107274000D02*
X169317000Y-107274000D01*
X168667000Y-104054000D02*
X166867000Y-104054000D01*
X159704000Y-105918000D02*
G75*
G03*
X159704000Y-105918000I-700000J0D01*
G01*
X158180000Y-105918000D02*
G75*
G03*
X158180000Y-105918000I-700000J0D01*
G01*
X153354000Y-97536000D02*
G75*
G03*
X153354000Y-97536000I-700000J0D01*
G01*
X143926779Y-102106000D02*
X143601221Y-102106000D01*
X143926779Y-103126000D02*
X143601221Y-103126000D01*
X164683221Y-99062000D02*
X165008779Y-99062000D01*
X164683221Y-98042000D02*
X165008779Y-98042000D01*
X161635221Y-97538000D02*
X161960779Y-97538000D01*
X161635221Y-96518000D02*
X161960779Y-96518000D01*
X143926779Y-103884000D02*
X143601221Y-103884000D01*
X143926779Y-104904000D02*
X143601221Y-104904000D01*
X161635221Y-99062000D02*
X161960779Y-99062000D01*
X161635221Y-98042000D02*
X161960779Y-98042000D01*
X143926779Y-105662000D02*
X143601221Y-105662000D01*
X143926779Y-106682000D02*
X143601221Y-106682000D01*
X164175221Y-107190000D02*
X164500779Y-107190000D01*
X164175221Y-106170000D02*
X164500779Y-106170000D01*
X164175221Y-105666000D02*
X164500779Y-105666000D01*
X164175221Y-104646000D02*
X164500779Y-104646000D01*
X174625000Y-95900000D02*
X174625000Y-107300000D01*
X174625000Y-95900000D02*
X175895000Y-95900000D01*
X174625000Y-107300000D02*
X175895000Y-107300000D01*
X166006000Y-102300000D02*
X166006000Y-100900000D01*
X163686000Y-100900000D02*
X163686000Y-102800000D01*
X151471000Y-107094000D02*
X146471000Y-107094000D01*
X145371000Y-102794000D02*
X145371000Y-101694000D01*
X145371000Y-101694000D02*
X151471000Y-101694000D01*
X144924000Y-100014000D02*
X144924000Y-98114000D01*
X142604000Y-98614000D02*
X142604000Y-100014000D01*
X167650279Y-102614000D02*
X167324721Y-102614000D01*
X167650279Y-103634000D02*
X167324721Y-103634000D01*
X148681221Y-97284000D02*
X149006779Y-97284000D01*
X148681221Y-96264000D02*
X149006779Y-96264000D01*
X154594779Y-105408000D02*
X154269221Y-105408000D01*
X154594779Y-106428000D02*
X154269221Y-106428000D01*
X157317221Y-97284000D02*
X157642779Y-97284000D01*
X157317221Y-96264000D02*
X157642779Y-96264000D01*
X145286000Y-99151221D02*
X145286000Y-99476779D01*
X146306000Y-99151221D02*
X146306000Y-99476779D01*
D11*
X164964533Y-96810285D02*
X164925828Y-96848990D01*
X164809714Y-96887695D01*
X164732304Y-96887695D01*
X164616190Y-96848990D01*
X164538780Y-96771580D01*
X164500076Y-96694171D01*
X164461371Y-96539352D01*
X164461371Y-96423238D01*
X164500076Y-96268419D01*
X164538780Y-96191009D01*
X164616190Y-96113600D01*
X164732304Y-96074895D01*
X164809714Y-96074895D01*
X164925828Y-96113600D01*
X164964533Y-96152304D01*
X165661219Y-96074895D02*
X165506400Y-96074895D01*
X165428990Y-96113600D01*
X165390285Y-96152304D01*
X165312876Y-96268419D01*
X165274171Y-96423238D01*
X165274171Y-96732876D01*
X165312876Y-96810285D01*
X165351580Y-96848990D01*
X165428990Y-96887695D01*
X165583809Y-96887695D01*
X165661219Y-96848990D01*
X165699923Y-96810285D01*
X165738628Y-96732876D01*
X165738628Y-96539352D01*
X165699923Y-96461942D01*
X165661219Y-96423238D01*
X165583809Y-96384533D01*
X165428990Y-96384533D01*
X165351580Y-96423238D01*
X165312876Y-96461942D01*
X165274171Y-96539352D01*
X151446895Y-100187276D02*
X152104876Y-100187276D01*
X152182285Y-100148571D01*
X152220990Y-100109866D01*
X152259695Y-100032457D01*
X152259695Y-99877638D01*
X152220990Y-99800228D01*
X152182285Y-99761523D01*
X152104876Y-99722819D01*
X151446895Y-99722819D01*
X152259695Y-98910019D02*
X152259695Y-99374476D01*
X152259695Y-99142247D02*
X151446895Y-99142247D01*
X151563009Y-99219657D01*
X151640419Y-99297066D01*
X151679123Y-99374476D01*
X166893723Y-97598895D02*
X166893723Y-98256876D01*
X166932428Y-98334285D01*
X166971133Y-98372990D01*
X167048542Y-98411695D01*
X167203361Y-98411695D01*
X167280771Y-98372990D01*
X167319476Y-98334285D01*
X167358180Y-98256876D01*
X167358180Y-97598895D01*
X168093571Y-97869828D02*
X168093571Y-98411695D01*
X167900047Y-97560190D02*
X167706523Y-98140761D01*
X168209685Y-98140761D01*
X152589895Y-104759276D02*
X153247876Y-104759276D01*
X153325285Y-104720571D01*
X153363990Y-104681866D01*
X153402695Y-104604457D01*
X153402695Y-104449638D01*
X153363990Y-104372228D01*
X153325285Y-104333523D01*
X153247876Y-104294819D01*
X152589895Y-104294819D01*
X152589895Y-103985180D02*
X152589895Y-103482019D01*
X152899533Y-103752952D01*
X152899533Y-103636838D01*
X152938238Y-103559428D01*
X152976942Y-103520723D01*
X153054352Y-103482019D01*
X153247876Y-103482019D01*
X153325285Y-103520723D01*
X153363990Y-103559428D01*
X153402695Y-103636838D01*
X153402695Y-103869066D01*
X153363990Y-103946476D01*
X153325285Y-103985180D01*
X167321895Y-106283276D02*
X167979876Y-106283276D01*
X168057285Y-106244571D01*
X168095990Y-106205866D01*
X168134695Y-106128457D01*
X168134695Y-105973638D01*
X168095990Y-105896228D01*
X168057285Y-105857523D01*
X167979876Y-105818819D01*
X167321895Y-105818819D01*
X167399304Y-105470476D02*
X167360600Y-105431771D01*
X167321895Y-105354361D01*
X167321895Y-105160838D01*
X167360600Y-105083428D01*
X167399304Y-105044723D01*
X167476714Y-105006019D01*
X167554123Y-105006019D01*
X167670238Y-105044723D01*
X168134695Y-105509180D01*
X168134695Y-105006019D01*
X148454533Y-102983695D02*
X148183600Y-102596647D01*
X147990076Y-102983695D02*
X147990076Y-102170895D01*
X148299714Y-102170895D01*
X148377123Y-102209600D01*
X148415828Y-102248304D01*
X148454533Y-102325714D01*
X148454533Y-102441828D01*
X148415828Y-102519238D01*
X148377123Y-102557942D01*
X148299714Y-102596647D01*
X147990076Y-102596647D01*
X148918990Y-102519238D02*
X148841580Y-102480533D01*
X148802876Y-102441828D01*
X148764171Y-102364419D01*
X148764171Y-102325714D01*
X148802876Y-102248304D01*
X148841580Y-102209600D01*
X148918990Y-102170895D01*
X149073809Y-102170895D01*
X149151219Y-102209600D01*
X149189923Y-102248304D01*
X149228628Y-102325714D01*
X149228628Y-102364419D01*
X149189923Y-102441828D01*
X149151219Y-102480533D01*
X149073809Y-102519238D01*
X148918990Y-102519238D01*
X148841580Y-102557942D01*
X148802876Y-102596647D01*
X148764171Y-102674057D01*
X148764171Y-102828876D01*
X148802876Y-102906285D01*
X148841580Y-102944990D01*
X148918990Y-102983695D01*
X149073809Y-102983695D01*
X149151219Y-102944990D01*
X149189923Y-102906285D01*
X149228628Y-102828876D01*
X149228628Y-102674057D01*
X149189923Y-102596647D01*
X149151219Y-102557942D01*
X149073809Y-102519238D01*
X164075533Y-98030695D02*
X163804600Y-97643647D01*
X163611076Y-98030695D02*
X163611076Y-97217895D01*
X163920714Y-97217895D01*
X163998123Y-97256600D01*
X164036828Y-97295304D01*
X164075533Y-97372714D01*
X164075533Y-97488828D01*
X164036828Y-97566238D01*
X163998123Y-97604942D01*
X163920714Y-97643647D01*
X163611076Y-97643647D01*
X164346466Y-97217895D02*
X164888333Y-97217895D01*
X164539990Y-98030695D01*
X159376533Y-97395695D02*
X159105600Y-97008647D01*
X158912076Y-97395695D02*
X158912076Y-96582895D01*
X159221714Y-96582895D01*
X159299123Y-96621600D01*
X159337828Y-96660304D01*
X159376533Y-96737714D01*
X159376533Y-96853828D01*
X159337828Y-96931238D01*
X159299123Y-96969942D01*
X159221714Y-97008647D01*
X158912076Y-97008647D01*
X160073219Y-96582895D02*
X159918400Y-96582895D01*
X159840990Y-96621600D01*
X159802285Y-96660304D01*
X159724876Y-96776419D01*
X159686171Y-96931238D01*
X159686171Y-97240876D01*
X159724876Y-97318285D01*
X159763580Y-97356990D01*
X159840990Y-97395695D01*
X159995809Y-97395695D01*
X160073219Y-97356990D01*
X160111923Y-97318285D01*
X160150628Y-97240876D01*
X160150628Y-97047352D01*
X160111923Y-96969942D01*
X160073219Y-96931238D01*
X159995809Y-96892533D01*
X159840990Y-96892533D01*
X159763580Y-96931238D01*
X159724876Y-96969942D01*
X159686171Y-97047352D01*
X148454533Y-104761695D02*
X148183600Y-104374647D01*
X147990076Y-104761695D02*
X147990076Y-103948895D01*
X148299714Y-103948895D01*
X148377123Y-103987600D01*
X148415828Y-104026304D01*
X148454533Y-104103714D01*
X148454533Y-104219828D01*
X148415828Y-104297238D01*
X148377123Y-104335942D01*
X148299714Y-104374647D01*
X147990076Y-104374647D01*
X149189923Y-103948895D02*
X148802876Y-103948895D01*
X148764171Y-104335942D01*
X148802876Y-104297238D01*
X148880285Y-104258533D01*
X149073809Y-104258533D01*
X149151219Y-104297238D01*
X149189923Y-104335942D01*
X149228628Y-104413352D01*
X149228628Y-104606876D01*
X149189923Y-104684285D01*
X149151219Y-104722990D01*
X149073809Y-104761695D01*
X148880285Y-104761695D01*
X148802876Y-104722990D01*
X148764171Y-104684285D01*
X159503533Y-98919695D02*
X159232600Y-98532647D01*
X159039076Y-98919695D02*
X159039076Y-98106895D01*
X159348714Y-98106895D01*
X159426123Y-98145600D01*
X159464828Y-98184304D01*
X159503533Y-98261714D01*
X159503533Y-98377828D01*
X159464828Y-98455238D01*
X159426123Y-98493942D01*
X159348714Y-98532647D01*
X159039076Y-98532647D01*
X160200219Y-98377828D02*
X160200219Y-98919695D01*
X160006695Y-98068190D02*
X159813171Y-98648761D01*
X160316333Y-98648761D01*
X148454533Y-106539695D02*
X148183600Y-106152647D01*
X147990076Y-106539695D02*
X147990076Y-105726895D01*
X148299714Y-105726895D01*
X148377123Y-105765600D01*
X148415828Y-105804304D01*
X148454533Y-105881714D01*
X148454533Y-105997828D01*
X148415828Y-106075238D01*
X148377123Y-106113942D01*
X148299714Y-106152647D01*
X147990076Y-106152647D01*
X148725466Y-105726895D02*
X149228628Y-105726895D01*
X148957695Y-106036533D01*
X149073809Y-106036533D01*
X149151219Y-106075238D01*
X149189923Y-106113942D01*
X149228628Y-106191352D01*
X149228628Y-106384876D01*
X149189923Y-106462285D01*
X149151219Y-106500990D01*
X149073809Y-106539695D01*
X148841580Y-106539695D01*
X148764171Y-106500990D01*
X148725466Y-106462285D01*
X161916533Y-107047695D02*
X161645600Y-106660647D01*
X161452076Y-107047695D02*
X161452076Y-106234895D01*
X161761714Y-106234895D01*
X161839123Y-106273600D01*
X161877828Y-106312304D01*
X161916533Y-106389714D01*
X161916533Y-106505828D01*
X161877828Y-106583238D01*
X161839123Y-106621942D01*
X161761714Y-106660647D01*
X161452076Y-106660647D01*
X162226171Y-106312304D02*
X162264876Y-106273600D01*
X162342285Y-106234895D01*
X162535809Y-106234895D01*
X162613219Y-106273600D01*
X162651923Y-106312304D01*
X162690628Y-106389714D01*
X162690628Y-106467123D01*
X162651923Y-106583238D01*
X162187466Y-107047695D01*
X162690628Y-107047695D01*
X164202533Y-104093695D02*
X163931600Y-103706647D01*
X163738076Y-104093695D02*
X163738076Y-103280895D01*
X164047714Y-103280895D01*
X164125123Y-103319600D01*
X164163828Y-103358304D01*
X164202533Y-103435714D01*
X164202533Y-103551828D01*
X164163828Y-103629238D01*
X164125123Y-103667942D01*
X164047714Y-103706647D01*
X163738076Y-103706647D01*
X164976628Y-104093695D02*
X164512171Y-104093695D01*
X164744400Y-104093695D02*
X164744400Y-103280895D01*
X164666990Y-103397009D01*
X164589580Y-103474419D01*
X164512171Y-103513123D01*
X164246076Y-100189695D02*
X164246076Y-99376895D01*
X164439600Y-99376895D01*
X164555714Y-99415600D01*
X164633123Y-99493009D01*
X164671828Y-99570419D01*
X164710533Y-99725238D01*
X164710533Y-99841352D01*
X164671828Y-99996171D01*
X164633123Y-100073580D01*
X164555714Y-100150990D01*
X164439600Y-100189695D01*
X164246076Y-100189695D01*
X164981466Y-99376895D02*
X165484628Y-99376895D01*
X165213695Y-99686533D01*
X165329809Y-99686533D01*
X165407219Y-99725238D01*
X165445923Y-99763942D01*
X165484628Y-99841352D01*
X165484628Y-100034876D01*
X165445923Y-100112285D01*
X165407219Y-100150990D01*
X165329809Y-100189695D01*
X165097580Y-100189695D01*
X165020171Y-100150990D01*
X164981466Y-100112285D01*
X145323076Y-101586695D02*
X145323076Y-100773895D01*
X145516600Y-100773895D01*
X145632714Y-100812600D01*
X145710123Y-100890009D01*
X145748828Y-100967419D01*
X145787533Y-101122238D01*
X145787533Y-101238352D01*
X145748828Y-101393171D01*
X145710123Y-101470580D01*
X145632714Y-101547990D01*
X145516600Y-101586695D01*
X145323076Y-101586695D01*
X146097171Y-100851304D02*
X146135876Y-100812600D01*
X146213285Y-100773895D01*
X146406809Y-100773895D01*
X146484219Y-100812600D01*
X146522923Y-100851304D01*
X146561628Y-100928714D01*
X146561628Y-101006123D01*
X146522923Y-101122238D01*
X146058466Y-101586695D01*
X146561628Y-101586695D01*
X143164076Y-97649695D02*
X143164076Y-96836895D01*
X143357600Y-96836895D01*
X143473714Y-96875600D01*
X143551123Y-96953009D01*
X143589828Y-97030419D01*
X143628533Y-97185238D01*
X143628533Y-97301352D01*
X143589828Y-97456171D01*
X143551123Y-97533580D01*
X143473714Y-97610990D01*
X143357600Y-97649695D01*
X143164076Y-97649695D01*
X144402628Y-97649695D02*
X143938171Y-97649695D01*
X144170400Y-97649695D02*
X144170400Y-96836895D01*
X144092990Y-96953009D01*
X144015580Y-97030419D01*
X143938171Y-97069123D01*
X167377533Y-102271285D02*
X167338828Y-102309990D01*
X167222714Y-102348695D01*
X167145304Y-102348695D01*
X167029190Y-102309990D01*
X166951780Y-102232580D01*
X166913076Y-102155171D01*
X166874371Y-102000352D01*
X166874371Y-101884238D01*
X166913076Y-101729419D01*
X166951780Y-101652009D01*
X167029190Y-101574600D01*
X167145304Y-101535895D01*
X167222714Y-101535895D01*
X167338828Y-101574600D01*
X167377533Y-101613304D01*
X168112923Y-101535895D02*
X167725876Y-101535895D01*
X167687171Y-101922942D01*
X167725876Y-101884238D01*
X167803285Y-101845533D01*
X167996809Y-101845533D01*
X168074219Y-101884238D01*
X168112923Y-101922942D01*
X168151628Y-102000352D01*
X168151628Y-102193876D01*
X168112923Y-102271285D01*
X168074219Y-102309990D01*
X167996809Y-102348695D01*
X167803285Y-102348695D01*
X167725876Y-102309990D01*
X167687171Y-102271285D01*
X150994533Y-97064285D02*
X150955828Y-97102990D01*
X150839714Y-97141695D01*
X150762304Y-97141695D01*
X150646190Y-97102990D01*
X150568780Y-97025580D01*
X150530076Y-96948171D01*
X150491371Y-96793352D01*
X150491371Y-96677238D01*
X150530076Y-96522419D01*
X150568780Y-96445009D01*
X150646190Y-96367600D01*
X150762304Y-96328895D01*
X150839714Y-96328895D01*
X150955828Y-96367600D01*
X150994533Y-96406304D01*
X151691219Y-96599828D02*
X151691219Y-97141695D01*
X151497695Y-96290190D02*
X151304171Y-96870761D01*
X151807333Y-96870761D01*
X154550533Y-105065285D02*
X154511828Y-105103990D01*
X154395714Y-105142695D01*
X154318304Y-105142695D01*
X154202190Y-105103990D01*
X154124780Y-105026580D01*
X154086076Y-104949171D01*
X154047371Y-104794352D01*
X154047371Y-104678238D01*
X154086076Y-104523419D01*
X154124780Y-104446009D01*
X154202190Y-104368600D01*
X154318304Y-104329895D01*
X154395714Y-104329895D01*
X154511828Y-104368600D01*
X154550533Y-104407304D01*
X154821466Y-104329895D02*
X155324628Y-104329895D01*
X155053695Y-104639533D01*
X155169809Y-104639533D01*
X155247219Y-104678238D01*
X155285923Y-104716942D01*
X155324628Y-104794352D01*
X155324628Y-104987876D01*
X155285923Y-105065285D01*
X155247219Y-105103990D01*
X155169809Y-105142695D01*
X154937580Y-105142695D01*
X154860171Y-105103990D01*
X154821466Y-105065285D01*
X157344533Y-98080285D02*
X157305828Y-98118990D01*
X157189714Y-98157695D01*
X157112304Y-98157695D01*
X156996190Y-98118990D01*
X156918780Y-98041580D01*
X156880076Y-97964171D01*
X156841371Y-97809352D01*
X156841371Y-97693238D01*
X156880076Y-97538419D01*
X156918780Y-97461009D01*
X156996190Y-97383600D01*
X157112304Y-97344895D01*
X157189714Y-97344895D01*
X157305828Y-97383600D01*
X157344533Y-97422304D01*
X157654171Y-97422304D02*
X157692876Y-97383600D01*
X157770285Y-97344895D01*
X157963809Y-97344895D01*
X158041219Y-97383600D01*
X158079923Y-97422304D01*
X158118628Y-97499714D01*
X158118628Y-97577123D01*
X158079923Y-97693238D01*
X157615466Y-98157695D01*
X158118628Y-98157695D01*
X146086285Y-97163466D02*
X146124990Y-97202171D01*
X146163695Y-97318285D01*
X146163695Y-97395695D01*
X146124990Y-97511809D01*
X146047580Y-97589219D01*
X145970171Y-97627923D01*
X145815352Y-97666628D01*
X145699238Y-97666628D01*
X145544419Y-97627923D01*
X145467009Y-97589219D01*
X145389600Y-97511809D01*
X145350895Y-97395695D01*
X145350895Y-97318285D01*
X145389600Y-97202171D01*
X145428304Y-97163466D01*
X146163695Y-96389371D02*
X146163695Y-96853828D01*
X146163695Y-96621600D02*
X145350895Y-96621600D01*
X145467009Y-96699009D01*
X145544419Y-96776419D01*
X145583123Y-96853828D01*
M02*
