M48
; DRILL file {KiCad 5.1.6-c6e7f7d~86~ubuntu20.04.1} date Wed Jul  1 18:46:58 2020
; FORMAT={-:-/ absolute / inch / decimal}
; #@! TF.CreationDate,2020-07-01T18:46:58+05:00
; #@! TF.GenerationSoftware,Kicad,Pcbnew,5.1.6-c6e7f7d~86~ubuntu20.04.1
; #@! TF.FileFunction,Plated,1,2,PTH
FMAT,2
INCH
T1C0.0118
%
G90
G05
T1
X5.415Y-3.96
X5.59Y-3.84
X5.59Y-3.95
X5.62Y-3.99
X5.63Y-3.91
X5.66Y-4.15
X5.69Y-3.91
X5.71Y-3.98
X5.77Y-3.82
X5.79Y-3.79
X5.89Y-3.85
X5.96Y-3.99
X5.987Y-3.88
X5.9915Y-3.99
X6.0185Y-3.88
X6.05Y-4.12
X6.05Y-3.82
X6.0815Y-4.12
X6.14Y-3.79
X6.15Y-3.98
X6.15Y-4.12
X6.1899Y-3.8456
X6.19Y-4.12
X6.27Y-3.8872
X6.27Y-3.82
X6.34Y-4.17
X6.37Y-3.79
X6.38Y-4.17
X6.45Y-4.0
X6.49Y-3.79
X6.53Y-3.82
X6.61Y-4.1649
X6.66Y-3.86
X6.66Y-3.93
X6.66Y-3.97
T0
M30
