G04 #@! TF.GenerationSoftware,KiCad,Pcbnew,5.1.6-c6e7f7d~86~ubuntu20.04.1*
G04 #@! TF.CreationDate,2020-07-01T18:46:00+05:00*
G04 #@! TF.ProjectId,Main,4d61696e-2e6b-4696-9361-645f70636258,rev?*
G04 #@! TF.SameCoordinates,Original*
G04 #@! TF.FileFunction,Legend,Bot*
G04 #@! TF.FilePolarity,Positive*
%FSLAX46Y46*%
G04 Gerber Fmt 4.6, Leading zero omitted, Abs format (unit mm)*
G04 Created by KiCad (PCBNEW 5.1.6-c6e7f7d~86~ubuntu20.04.1) date 2020-07-01 18:46:00*
%MOMM*%
%LPD*%
G01*
G04 APERTURE LIST*
%ADD10C,0.200000*%
%ADD11C,0.300000*%
%ADD12C,0.100000*%
%ADD13C,0.010000*%
%ADD14C,0.152400*%
%ADD15C,0.120000*%
G04 APERTURE END LIST*
D10*
X153921904Y-99877619D02*
X153921904Y-100877619D01*
X154493333Y-99877619D01*
X154493333Y-100877619D01*
X155302857Y-100401428D02*
X154969523Y-100401428D01*
X154969523Y-99877619D02*
X154969523Y-100877619D01*
X155445714Y-100877619D01*
X156398095Y-99972857D02*
X156350476Y-99925238D01*
X156207619Y-99877619D01*
X156112380Y-99877619D01*
X155969523Y-99925238D01*
X155874285Y-100020476D01*
X155826666Y-100115714D01*
X155779047Y-100306190D01*
X155779047Y-100449047D01*
X155826666Y-100639523D01*
X155874285Y-100734761D01*
X155969523Y-100830000D01*
X156112380Y-100877619D01*
X156207619Y-100877619D01*
X156350476Y-100830000D01*
X156398095Y-100782380D01*
X156826666Y-100258571D02*
X157588571Y-100258571D01*
X158017142Y-100163333D02*
X158493333Y-100163333D01*
X157921904Y-99877619D02*
X158255238Y-100877619D01*
X158588571Y-99877619D01*
X159588571Y-100544285D02*
X159826666Y-99877619D01*
X160064761Y-100544285D01*
X160398095Y-100782380D02*
X160445714Y-100830000D01*
X160540952Y-100877619D01*
X160779047Y-100877619D01*
X160874285Y-100830000D01*
X160921904Y-100782380D01*
X160969523Y-100687142D01*
X160969523Y-100591904D01*
X160921904Y-100449047D01*
X160350476Y-99877619D01*
X160969523Y-99877619D01*
D11*
X150173094Y-102155714D02*
X150065952Y-102060476D01*
X149768333Y-101965238D01*
X149577856Y-101965238D01*
X149304047Y-102060476D01*
X149137380Y-102250952D01*
X149065952Y-102441428D01*
X149018333Y-102822380D01*
X149054047Y-103108095D01*
X149196904Y-103489047D01*
X149315952Y-103679523D01*
X149530237Y-103870000D01*
X149827856Y-103965238D01*
X150018333Y-103965238D01*
X150292142Y-103870000D01*
X150375475Y-103774761D01*
X151863571Y-101965238D02*
X151994523Y-103012857D01*
X151923094Y-103203333D01*
X151744523Y-103298571D01*
X151363571Y-103298571D01*
X151161190Y-103203333D01*
X151875475Y-102060476D02*
X151673094Y-101965238D01*
X151196904Y-101965238D01*
X151018333Y-102060476D01*
X150946904Y-102250952D01*
X150970713Y-102441428D01*
X151089761Y-102631904D01*
X151292142Y-102727142D01*
X151768333Y-102727142D01*
X151970713Y-102822380D01*
X152982618Y-103298571D02*
X152815952Y-101965238D01*
X152958809Y-103108095D02*
X153065952Y-103203333D01*
X153268333Y-103298571D01*
X153554047Y-103298571D01*
X153732618Y-103203333D01*
X153804047Y-103012857D01*
X153673094Y-101965238D01*
X154911190Y-101965238D02*
X154732618Y-102060476D01*
X154649285Y-102155714D01*
X154577856Y-102346190D01*
X154649285Y-102917619D01*
X154768333Y-103108095D01*
X154875475Y-103203333D01*
X155077856Y-103298571D01*
X155363571Y-103298571D01*
X155542142Y-103203333D01*
X155625475Y-103108095D01*
X155696904Y-102917619D01*
X155625475Y-102346190D01*
X155506428Y-102155714D01*
X155399285Y-102060476D01*
X155196904Y-101965238D01*
X154911190Y-101965238D01*
X156434999Y-101965238D02*
X156684999Y-103965238D01*
X157577856Y-101965238D02*
X156863571Y-103108095D01*
X157827856Y-103965238D02*
X156542142Y-102822380D01*
X159208809Y-102060476D02*
X159006428Y-101965238D01*
X158625475Y-101965238D01*
X158446904Y-102060476D01*
X158375475Y-102250952D01*
X158470713Y-103012857D01*
X158589761Y-103203333D01*
X158792142Y-103298571D01*
X159173094Y-103298571D01*
X159351666Y-103203333D01*
X159423094Y-103012857D01*
X159399285Y-102822380D01*
X158423094Y-102631904D01*
X160125475Y-103298571D02*
X160434999Y-101965238D01*
X161077856Y-103298571D02*
X160434999Y-101965238D01*
X160184999Y-101489047D01*
X160077856Y-101393809D01*
X159875475Y-101298571D01*
D12*
X177800000Y-104394000D02*
X177800000Y-98894000D01*
X177800000Y-98894000D02*
X183300000Y-98894000D01*
X183300000Y-98894000D02*
X183300000Y-104394000D01*
X183300000Y-104394000D02*
X177800000Y-104394000D01*
X178300000Y-103894000D02*
X182800000Y-103894000D01*
X182800000Y-103894000D02*
X182800000Y-100394000D01*
X182800000Y-100394000D02*
X178300000Y-100394000D01*
X178300000Y-100394000D02*
X178300000Y-103894000D01*
D13*
G36*
X181300000Y-100394000D02*
G01*
X178300000Y-100394000D01*
X178300000Y-101394000D01*
X177800000Y-101394000D01*
X177800000Y-98894000D01*
X181300000Y-98894000D01*
X181300000Y-100394000D01*
G37*
X181300000Y-100394000D02*
X178300000Y-100394000D01*
X178300000Y-101394000D01*
X177800000Y-101394000D01*
X177800000Y-98894000D01*
X181300000Y-98894000D01*
X181300000Y-100394000D01*
G36*
X183300000Y-101394000D02*
G01*
X182800000Y-101394000D01*
X182800000Y-100394000D01*
X180800000Y-100394000D01*
X180800000Y-99894000D01*
X183300000Y-99894000D01*
X183300000Y-101394000D01*
G37*
X183300000Y-101394000D02*
X182800000Y-101394000D01*
X182800000Y-100394000D01*
X180800000Y-100394000D01*
X180800000Y-99894000D01*
X183300000Y-99894000D01*
X183300000Y-101394000D01*
G36*
X183300000Y-99394000D02*
G01*
X180800000Y-99394000D01*
X180800000Y-98894000D01*
X183300000Y-98894000D01*
X183300000Y-99394000D01*
G37*
X183300000Y-99394000D02*
X180800000Y-99394000D01*
X180800000Y-98894000D01*
X183300000Y-98894000D01*
X183300000Y-99394000D01*
G36*
X179300000Y-103394000D02*
G01*
X178800000Y-103394000D01*
X178800000Y-102894000D01*
X179300000Y-102894000D01*
X179300000Y-103394000D01*
G37*
X179300000Y-103394000D02*
X178800000Y-103394000D01*
X178800000Y-102894000D01*
X179300000Y-102894000D01*
X179300000Y-103394000D01*
G36*
X179800000Y-102894000D02*
G01*
X179300000Y-102894000D01*
X179300000Y-102394000D01*
X179800000Y-102394000D01*
X179800000Y-102894000D01*
G37*
X179800000Y-102894000D02*
X179300000Y-102894000D01*
X179300000Y-102394000D01*
X179800000Y-102394000D01*
X179800000Y-102894000D01*
G36*
X179300000Y-102394000D02*
G01*
X178800000Y-102394000D01*
X178800000Y-101894000D01*
X179300000Y-101894000D01*
X179300000Y-102394000D01*
G37*
X179300000Y-102394000D02*
X178800000Y-102394000D01*
X178800000Y-101894000D01*
X179300000Y-101894000D01*
X179300000Y-102394000D01*
G36*
X183300000Y-99894000D02*
G01*
X182800000Y-99894000D01*
X182800000Y-99394000D01*
X183300000Y-99394000D01*
X183300000Y-99894000D01*
G37*
X183300000Y-99894000D02*
X182800000Y-99894000D01*
X182800000Y-99394000D01*
X183300000Y-99394000D01*
X183300000Y-99894000D01*
G36*
X181300000Y-102394000D02*
G01*
X180300000Y-102394000D01*
X180300000Y-101894000D01*
X181300000Y-101894000D01*
X181300000Y-102394000D01*
G37*
X181300000Y-102394000D02*
X180300000Y-102394000D01*
X180300000Y-101894000D01*
X181300000Y-101894000D01*
X181300000Y-102394000D01*
D14*
X157602040Y-97422304D02*
X157331107Y-97809352D01*
X157137583Y-97422304D02*
X157137583Y-98235104D01*
X157447221Y-98235104D01*
X157524631Y-98196400D01*
X157563336Y-98157695D01*
X157602040Y-98080285D01*
X157602040Y-97964171D01*
X157563336Y-97886761D01*
X157524631Y-97848057D01*
X157447221Y-97809352D01*
X157137583Y-97809352D01*
X157911679Y-97461009D02*
X158027793Y-97422304D01*
X158221317Y-97422304D01*
X158298726Y-97461009D01*
X158337431Y-97499714D01*
X158376136Y-97577123D01*
X158376136Y-97654533D01*
X158337431Y-97731942D01*
X158298726Y-97770647D01*
X158221317Y-97809352D01*
X158066498Y-97848057D01*
X157989088Y-97886761D01*
X157950383Y-97925466D01*
X157911679Y-98002876D01*
X157911679Y-98080285D01*
X157950383Y-98157695D01*
X157989088Y-98196400D01*
X158066498Y-98235104D01*
X158260021Y-98235104D01*
X158376136Y-98196400D01*
X158608364Y-98235104D02*
X159072821Y-98235104D01*
X158840593Y-97422304D02*
X158840593Y-98235104D01*
D13*
G36*
X143321044Y-103231487D02*
G01*
X143414608Y-103165769D01*
X143500008Y-103020379D01*
X143522655Y-102844638D01*
X143483010Y-102678407D01*
X143407852Y-102579942D01*
X143247761Y-102504749D01*
X143063937Y-102495485D01*
X142899332Y-102551329D01*
X142849600Y-102590600D01*
X142768094Y-102736862D01*
X142760622Y-102826242D01*
X142898643Y-102826242D01*
X142959367Y-102704377D01*
X142961360Y-102702360D01*
X143060398Y-102651465D01*
X143129000Y-102641400D01*
X143245577Y-102668911D01*
X143296640Y-102702360D01*
X143358979Y-102823770D01*
X143342779Y-102952769D01*
X143262312Y-103055620D01*
X143131852Y-103098584D01*
X143128999Y-103098600D01*
X142997733Y-103057092D01*
X142916189Y-102955060D01*
X142898643Y-102826242D01*
X142760622Y-102826242D01*
X142752870Y-102918952D01*
X142804410Y-103095282D01*
X142843054Y-103153933D01*
X142977622Y-103247339D01*
X143149970Y-103273460D01*
X143321044Y-103231487D01*
G37*
X143321044Y-103231487D02*
X143414608Y-103165769D01*
X143500008Y-103020379D01*
X143522655Y-102844638D01*
X143483010Y-102678407D01*
X143407852Y-102579942D01*
X143247761Y-102504749D01*
X143063937Y-102495485D01*
X142899332Y-102551329D01*
X142849600Y-102590600D01*
X142768094Y-102736862D01*
X142760622Y-102826242D01*
X142898643Y-102826242D01*
X142959367Y-102704377D01*
X142961360Y-102702360D01*
X143060398Y-102651465D01*
X143129000Y-102641400D01*
X143245577Y-102668911D01*
X143296640Y-102702360D01*
X143358979Y-102823770D01*
X143342779Y-102952769D01*
X143262312Y-103055620D01*
X143131852Y-103098584D01*
X143128999Y-103098600D01*
X142997733Y-103057092D01*
X142916189Y-102955060D01*
X142898643Y-102826242D01*
X142760622Y-102826242D01*
X142752870Y-102918952D01*
X142804410Y-103095282D01*
X142843054Y-103153933D01*
X142977622Y-103247339D01*
X143149970Y-103273460D01*
X143321044Y-103231487D01*
G36*
X143905912Y-104071355D02*
G01*
X144217271Y-103943230D01*
X144473138Y-103730697D01*
X144635602Y-103501622D01*
X144747908Y-103301800D01*
X145201537Y-103301801D01*
X145443038Y-103296989D01*
X145613905Y-103279068D01*
X145744798Y-103242811D01*
X145852736Y-103190760D01*
X146050305Y-103079720D01*
X146200495Y-103190760D01*
X146307800Y-103265702D01*
X146387490Y-103293080D01*
X146476921Y-103272970D01*
X146613449Y-103205444D01*
X146639533Y-103191637D01*
X146848066Y-103081191D01*
X147002975Y-103191496D01*
X147114879Y-103263302D01*
X147192684Y-103299273D01*
X147200842Y-103300285D01*
X147259496Y-103268499D01*
X147367569Y-103187660D01*
X147472400Y-103100315D01*
X147701000Y-102901861D01*
X147474523Y-102670031D01*
X147310206Y-102521301D01*
X147178152Y-102449316D01*
X147106223Y-102438200D01*
X146964400Y-102438200D01*
X146964400Y-99669002D01*
X147109015Y-99604989D01*
X147256849Y-99489273D01*
X147350676Y-99316167D01*
X147370800Y-99188508D01*
X147339471Y-99089701D01*
X147261899Y-98965195D01*
X147239284Y-98936898D01*
X147082856Y-98816540D01*
X146904994Y-98777173D01*
X146729674Y-98810359D01*
X146580878Y-98907659D01*
X146482585Y-99060634D01*
X146461010Y-99185682D01*
X146626764Y-99185682D01*
X146668739Y-99059280D01*
X146768031Y-98970681D01*
X146902526Y-98937213D01*
X147050106Y-98976207D01*
X147088040Y-99000462D01*
X147158125Y-99101283D01*
X147180300Y-99212400D01*
X147140380Y-99359780D01*
X147039916Y-99452312D01*
X146907855Y-99483257D01*
X146773140Y-99445877D01*
X146664716Y-99333432D01*
X146664224Y-99332554D01*
X146626764Y-99185682D01*
X146461010Y-99185682D01*
X146456400Y-99212400D01*
X146486708Y-99345445D01*
X146561913Y-99484169D01*
X146658430Y-99594896D01*
X146752675Y-99643947D01*
X146758774Y-99644200D01*
X146776959Y-99692431D01*
X146791314Y-99837797D01*
X146801878Y-100081313D01*
X146808689Y-100423990D01*
X146811786Y-100866842D01*
X146812000Y-101041200D01*
X146812000Y-102438200D01*
X145643600Y-102438200D01*
X145643600Y-101044624D01*
X145643830Y-100632408D01*
X145645083Y-100310327D01*
X145648197Y-100066913D01*
X145654013Y-99890700D01*
X145663370Y-99770223D01*
X145677107Y-99694014D01*
X145696065Y-99650609D01*
X145721083Y-99628541D01*
X145748092Y-99617883D01*
X145851149Y-99540477D01*
X145936592Y-99402399D01*
X145984841Y-99244556D01*
X145982618Y-99127850D01*
X145894704Y-98946120D01*
X145754201Y-98829601D01*
X145584676Y-98778642D01*
X145409693Y-98793592D01*
X145252815Y-98874798D01*
X145137609Y-99022610D01*
X145104639Y-99114869D01*
X145104530Y-99201097D01*
X145237200Y-99201097D01*
X145278566Y-99103149D01*
X145376766Y-99005207D01*
X145492950Y-98941445D01*
X145542000Y-98933000D01*
X145652588Y-98967478D01*
X145745200Y-99034600D01*
X145831522Y-99152172D01*
X145830542Y-99266233D01*
X145767719Y-99378897D01*
X145653582Y-99468017D01*
X145512834Y-99483479D01*
X145376123Y-99435554D01*
X145274096Y-99334512D01*
X145237200Y-99201097D01*
X145104530Y-99201097D01*
X145104446Y-99267019D01*
X145158923Y-99428953D01*
X145249765Y-99560861D01*
X145335907Y-99617883D01*
X145366810Y-99630771D01*
X145390931Y-99655134D01*
X145409108Y-99702437D01*
X145422182Y-99784146D01*
X145430993Y-99911729D01*
X145436380Y-100096650D01*
X145439184Y-100350376D01*
X145440243Y-100684373D01*
X145440400Y-101044624D01*
X145440400Y-102438200D01*
X145092393Y-102438201D01*
X144744386Y-102438201D01*
X144589788Y-102189503D01*
X144374130Y-101926211D01*
X144108591Y-101751212D01*
X143791354Y-101663508D01*
X143613048Y-101652079D01*
X143415643Y-101657394D01*
X143239747Y-101672491D01*
X143141700Y-101689868D01*
X143002000Y-101728936D01*
X143002000Y-101032093D01*
X143637000Y-100720960D01*
X144272000Y-100409826D01*
X144272000Y-100030437D01*
X144274933Y-99833706D01*
X144287639Y-99715383D01*
X144315971Y-99652351D01*
X144365784Y-99621491D01*
X144376492Y-99617883D01*
X144483200Y-99538358D01*
X144568119Y-99397105D01*
X144612943Y-99233935D01*
X144607760Y-99114869D01*
X144519025Y-98940417D01*
X144371674Y-98824108D01*
X144192901Y-98774533D01*
X144009901Y-98800285D01*
X143875793Y-98883606D01*
X143762235Y-99047584D01*
X143734116Y-99203506D01*
X143903700Y-99203506D01*
X143943768Y-99060879D01*
X144044502Y-98971933D01*
X144176690Y-98942965D01*
X144311124Y-98980272D01*
X144418594Y-99090150D01*
X144419775Y-99092247D01*
X144465972Y-99198404D01*
X144451244Y-99284965D01*
X144407506Y-99358947D01*
X144287956Y-99469752D01*
X144150521Y-99498058D01*
X144022598Y-99452318D01*
X143931585Y-99340986D01*
X143903700Y-99203506D01*
X143734116Y-99203506D01*
X143728905Y-99232396D01*
X143772082Y-99410332D01*
X143888040Y-99553685D01*
X143972587Y-99603928D01*
X144053041Y-99646350D01*
X144097084Y-99702065D01*
X144115629Y-99799592D01*
X144119586Y-99967449D01*
X144119600Y-99988154D01*
X144119600Y-100307306D01*
X142849600Y-100907558D01*
X142849600Y-101788272D01*
X142628353Y-102034352D01*
X142421555Y-102329498D01*
X142313232Y-102647153D01*
X142305234Y-102870000D01*
X142470912Y-102870000D01*
X142518675Y-102546506D01*
X142648203Y-102267086D01*
X142845407Y-102042159D01*
X143096195Y-101882145D01*
X143386480Y-101797462D01*
X143702169Y-101798528D01*
X143869547Y-101835785D01*
X144140541Y-101965916D01*
X144360532Y-102167141D01*
X144520856Y-102419612D01*
X144612852Y-102703483D01*
X144627857Y-102998904D01*
X144590827Y-103149400D01*
X144780000Y-103149400D01*
X144780000Y-102590600D01*
X147128787Y-102590600D01*
X147464363Y-102885240D01*
X147350807Y-102991920D01*
X147255225Y-103071890D01*
X147179276Y-103089377D01*
X147084075Y-103044332D01*
X147007444Y-102991478D01*
X146857005Y-102884356D01*
X146633712Y-103002813D01*
X146410418Y-103121270D01*
X146257666Y-103008335D01*
X146134453Y-102926781D01*
X146038958Y-102904236D01*
X145933351Y-102941881D01*
X145806912Y-103022400D01*
X145697496Y-103087489D01*
X145585376Y-103125901D01*
X145438682Y-103144306D01*
X145225546Y-103149371D01*
X145200007Y-103149400D01*
X144780000Y-103149400D01*
X144590827Y-103149400D01*
X144557208Y-103286027D01*
X144528992Y-103346734D01*
X144345932Y-103612445D01*
X144118513Y-103800417D01*
X143861478Y-103914066D01*
X143589570Y-103956808D01*
X143317533Y-103932057D01*
X143060110Y-103843229D01*
X142832045Y-103693739D01*
X142648080Y-103487001D01*
X142522961Y-103226432D01*
X142471429Y-102915445D01*
X142470912Y-102870000D01*
X142305234Y-102870000D01*
X142301144Y-102983931D01*
X142381339Y-103334752D01*
X142542619Y-103631980D01*
X142774522Y-103866091D01*
X143066591Y-104027565D01*
X143408364Y-104106878D01*
X143541896Y-104113485D01*
X143905912Y-104071355D01*
G37*
X143905912Y-104071355D02*
X144217271Y-103943230D01*
X144473138Y-103730697D01*
X144635602Y-103501622D01*
X144747908Y-103301800D01*
X145201537Y-103301801D01*
X145443038Y-103296989D01*
X145613905Y-103279068D01*
X145744798Y-103242811D01*
X145852736Y-103190760D01*
X146050305Y-103079720D01*
X146200495Y-103190760D01*
X146307800Y-103265702D01*
X146387490Y-103293080D01*
X146476921Y-103272970D01*
X146613449Y-103205444D01*
X146639533Y-103191637D01*
X146848066Y-103081191D01*
X147002975Y-103191496D01*
X147114879Y-103263302D01*
X147192684Y-103299273D01*
X147200842Y-103300285D01*
X147259496Y-103268499D01*
X147367569Y-103187660D01*
X147472400Y-103100315D01*
X147701000Y-102901861D01*
X147474523Y-102670031D01*
X147310206Y-102521301D01*
X147178152Y-102449316D01*
X147106223Y-102438200D01*
X146964400Y-102438200D01*
X146964400Y-99669002D01*
X147109015Y-99604989D01*
X147256849Y-99489273D01*
X147350676Y-99316167D01*
X147370800Y-99188508D01*
X147339471Y-99089701D01*
X147261899Y-98965195D01*
X147239284Y-98936898D01*
X147082856Y-98816540D01*
X146904994Y-98777173D01*
X146729674Y-98810359D01*
X146580878Y-98907659D01*
X146482585Y-99060634D01*
X146461010Y-99185682D01*
X146626764Y-99185682D01*
X146668739Y-99059280D01*
X146768031Y-98970681D01*
X146902526Y-98937213D01*
X147050106Y-98976207D01*
X147088040Y-99000462D01*
X147158125Y-99101283D01*
X147180300Y-99212400D01*
X147140380Y-99359780D01*
X147039916Y-99452312D01*
X146907855Y-99483257D01*
X146773140Y-99445877D01*
X146664716Y-99333432D01*
X146664224Y-99332554D01*
X146626764Y-99185682D01*
X146461010Y-99185682D01*
X146456400Y-99212400D01*
X146486708Y-99345445D01*
X146561913Y-99484169D01*
X146658430Y-99594896D01*
X146752675Y-99643947D01*
X146758774Y-99644200D01*
X146776959Y-99692431D01*
X146791314Y-99837797D01*
X146801878Y-100081313D01*
X146808689Y-100423990D01*
X146811786Y-100866842D01*
X146812000Y-101041200D01*
X146812000Y-102438200D01*
X145643600Y-102438200D01*
X145643600Y-101044624D01*
X145643830Y-100632408D01*
X145645083Y-100310327D01*
X145648197Y-100066913D01*
X145654013Y-99890700D01*
X145663370Y-99770223D01*
X145677107Y-99694014D01*
X145696065Y-99650609D01*
X145721083Y-99628541D01*
X145748092Y-99617883D01*
X145851149Y-99540477D01*
X145936592Y-99402399D01*
X145984841Y-99244556D01*
X145982618Y-99127850D01*
X145894704Y-98946120D01*
X145754201Y-98829601D01*
X145584676Y-98778642D01*
X145409693Y-98793592D01*
X145252815Y-98874798D01*
X145137609Y-99022610D01*
X145104639Y-99114869D01*
X145104530Y-99201097D01*
X145237200Y-99201097D01*
X145278566Y-99103149D01*
X145376766Y-99005207D01*
X145492950Y-98941445D01*
X145542000Y-98933000D01*
X145652588Y-98967478D01*
X145745200Y-99034600D01*
X145831522Y-99152172D01*
X145830542Y-99266233D01*
X145767719Y-99378897D01*
X145653582Y-99468017D01*
X145512834Y-99483479D01*
X145376123Y-99435554D01*
X145274096Y-99334512D01*
X145237200Y-99201097D01*
X145104530Y-99201097D01*
X145104446Y-99267019D01*
X145158923Y-99428953D01*
X145249765Y-99560861D01*
X145335907Y-99617883D01*
X145366810Y-99630771D01*
X145390931Y-99655134D01*
X145409108Y-99702437D01*
X145422182Y-99784146D01*
X145430993Y-99911729D01*
X145436380Y-100096650D01*
X145439184Y-100350376D01*
X145440243Y-100684373D01*
X145440400Y-101044624D01*
X145440400Y-102438200D01*
X145092393Y-102438201D01*
X144744386Y-102438201D01*
X144589788Y-102189503D01*
X144374130Y-101926211D01*
X144108591Y-101751212D01*
X143791354Y-101663508D01*
X143613048Y-101652079D01*
X143415643Y-101657394D01*
X143239747Y-101672491D01*
X143141700Y-101689868D01*
X143002000Y-101728936D01*
X143002000Y-101032093D01*
X143637000Y-100720960D01*
X144272000Y-100409826D01*
X144272000Y-100030437D01*
X144274933Y-99833706D01*
X144287639Y-99715383D01*
X144315971Y-99652351D01*
X144365784Y-99621491D01*
X144376492Y-99617883D01*
X144483200Y-99538358D01*
X144568119Y-99397105D01*
X144612943Y-99233935D01*
X144607760Y-99114869D01*
X144519025Y-98940417D01*
X144371674Y-98824108D01*
X144192901Y-98774533D01*
X144009901Y-98800285D01*
X143875793Y-98883606D01*
X143762235Y-99047584D01*
X143734116Y-99203506D01*
X143903700Y-99203506D01*
X143943768Y-99060879D01*
X144044502Y-98971933D01*
X144176690Y-98942965D01*
X144311124Y-98980272D01*
X144418594Y-99090150D01*
X144419775Y-99092247D01*
X144465972Y-99198404D01*
X144451244Y-99284965D01*
X144407506Y-99358947D01*
X144287956Y-99469752D01*
X144150521Y-99498058D01*
X144022598Y-99452318D01*
X143931585Y-99340986D01*
X143903700Y-99203506D01*
X143734116Y-99203506D01*
X143728905Y-99232396D01*
X143772082Y-99410332D01*
X143888040Y-99553685D01*
X143972587Y-99603928D01*
X144053041Y-99646350D01*
X144097084Y-99702065D01*
X144115629Y-99799592D01*
X144119586Y-99967449D01*
X144119600Y-99988154D01*
X144119600Y-100307306D01*
X142849600Y-100907558D01*
X142849600Y-101788272D01*
X142628353Y-102034352D01*
X142421555Y-102329498D01*
X142313232Y-102647153D01*
X142305234Y-102870000D01*
X142470912Y-102870000D01*
X142518675Y-102546506D01*
X142648203Y-102267086D01*
X142845407Y-102042159D01*
X143096195Y-101882145D01*
X143386480Y-101797462D01*
X143702169Y-101798528D01*
X143869547Y-101835785D01*
X144140541Y-101965916D01*
X144360532Y-102167141D01*
X144520856Y-102419612D01*
X144612852Y-102703483D01*
X144627857Y-102998904D01*
X144590827Y-103149400D01*
X144780000Y-103149400D01*
X144780000Y-102590600D01*
X147128787Y-102590600D01*
X147464363Y-102885240D01*
X147350807Y-102991920D01*
X147255225Y-103071890D01*
X147179276Y-103089377D01*
X147084075Y-103044332D01*
X147007444Y-102991478D01*
X146857005Y-102884356D01*
X146633712Y-103002813D01*
X146410418Y-103121270D01*
X146257666Y-103008335D01*
X146134453Y-102926781D01*
X146038958Y-102904236D01*
X145933351Y-102941881D01*
X145806912Y-103022400D01*
X145697496Y-103087489D01*
X145585376Y-103125901D01*
X145438682Y-103144306D01*
X145225546Y-103149371D01*
X145200007Y-103149400D01*
X144780000Y-103149400D01*
X144590827Y-103149400D01*
X144557208Y-103286027D01*
X144528992Y-103346734D01*
X144345932Y-103612445D01*
X144118513Y-103800417D01*
X143861478Y-103914066D01*
X143589570Y-103956808D01*
X143317533Y-103932057D01*
X143060110Y-103843229D01*
X142832045Y-103693739D01*
X142648080Y-103487001D01*
X142522961Y-103226432D01*
X142471429Y-102915445D01*
X142470912Y-102870000D01*
X142305234Y-102870000D01*
X142301144Y-102983931D01*
X142381339Y-103334752D01*
X142542619Y-103631980D01*
X142774522Y-103866091D01*
X143066591Y-104027565D01*
X143408364Y-104106878D01*
X143541896Y-104113485D01*
X143905912Y-104071355D01*
D15*
X166080000Y-101600000D02*
G75*
G03*
X166080000Y-101600000I-2250000J0D01*
G01*
X156656000Y-97790000D02*
G75*
G03*
X156656000Y-97790000I-700000J0D01*
G01*
M02*
