M48
INCH,LZ
;FILE_FORMAT=2:4
;TYPE=PLATED
;Layer: PTH_Through
;EasyEDA v6.5.1, 2022-03-25 19:20:23
;2013efc8e0304d3594b03259707e7b04,2a3559ba94084103b258dd4c46581d95,10
;Gerber Generator version 0.2
;Holesize 1 = 0.0120 inch
T01C0.0120
%
G05
G90
T01
X-005600Y000850
X-005850Y001050
X-006100Y001250
X-005350Y000600
X-007650Y001601
X-009450Y000000
X-004360Y002220
X-004420Y-002360
X-004600Y002480
X-004660Y-002600
X-010236Y002651
X-009950Y002001
X-009950Y002001
X-008750Y-000250
X-006050Y-000700
X-007750Y000751
X-005700Y000201
X-005650Y000501
X-008200Y-000699
X-007850Y-001200
X-007500Y-001199
X-006600Y000851
X-010650Y001550
X-010450Y-001750
X-010800Y-001600
X-009600Y001600
X-006660Y001600
X-011300Y001800
X-011150Y-001600
X-011000Y001650
M30
