G04 Layer: TopLayer*
G04 EasyEDA v6.5.1, 2022-03-25 19:20:23*
G04 2013efc8e0304d3594b03259707e7b04,2a3559ba94084103b258dd4c46581d95,10*
G04 Gerber Generator version 0.2*
G04 Scale: 100 percent, Rotated: No, Reflected: No *
G04 Dimensions in inches *
G04 leading zeros omitted , absolute positions ,3 integer and 6 decimal *
%FSLAX36Y36*%
%MOIN*%

%ADD10C,0.0100*%
%ADD11C,0.0098*%
%ADD12C,0.0060*%
%ADD13C,0.0080*%
%ADD14C,0.0150*%
%ADD15C,0.0240*%
%ADD17R,0.1358X0.1358*%
%ADD18R,0.0118X0.0236*%
%ADD19R,0.0236X0.0118*%
%ADD20R,0.0315X0.0197*%
%ADD21R,0.0630X0.0394*%
%ADD23R,0.0906X0.0591*%
%ADD24R,0.0256X0.0236*%
%ADD25R,0.0197X0.0315*%
%ADD26R,0.0236X0.0165*%
%ADD27R,0.0236X0.0157*%

%LPD*%
D10*
X-975000Y719D02*
G01*
X-945716Y719D01*
X-945000Y3D01*
D12*
X-744530Y120133D02*
G01*
X-744530Y140470D01*
X-740000Y145000D01*
X-730000Y145000D01*
X-724840Y139839D01*
X-724840Y120133D01*
D11*
X-565000Y-71700D02*
G01*
X-588299Y-95000D01*
X-620000Y-95000D01*
X-632133Y-82866D01*
X-646000Y-82866D01*
X-611999Y-48866D02*
G01*
X-575565Y-48866D01*
X-565000Y-38300D01*
X-605000Y-70000D02*
G01*
X-605000Y-55866D01*
D12*
X-611999Y89133D02*
G01*
X-600865Y89133D01*
X-585000Y105000D01*
X-745000Y-82866D02*
G01*
X-745000Y-114866D01*
X-750000Y-119866D01*
X-763999Y-82866D02*
G01*
X-763999Y-103865D01*
X-775000Y-114866D01*
X-779870Y-114866D01*
X-785000Y-119996D01*
X-817997Y-48865D02*
G01*
X-820000Y-50867D01*
X-820000Y-69866D01*
D10*
X-646000Y-82866D02*
G01*
X-646000Y-48866D01*
X-715000Y20133D01*
X-611999Y50133D02*
G01*
X-565000Y50133D01*
X-611999Y30133D02*
G01*
X-580000Y30133D01*
X-570000Y20133D01*
X-875308Y14994D02*
G01*
X-875308Y-24688D01*
X-875000Y-24996D01*
X-839870Y10133D01*
X-817997Y10133D01*
X-783999Y123134D02*
G01*
X-783999Y89133D01*
X-715000Y20133D01*
X-900000Y105133D02*
G01*
X-890000Y115133D01*
X-890000Y143383D01*
D12*
X-765000Y160133D02*
G01*
X-763999Y159133D01*
X-763999Y123134D01*
D13*
X-1012600Y95003D02*
G01*
X-1000000Y95003D01*
X-990820Y104184D01*
X-990820Y111413D01*
X-967543Y134689D01*
X-965000Y134689D01*
D14*
X-1012600Y69409D02*
G01*
X-990910Y69409D01*
X-965000Y95319D01*
D10*
X-975000Y56699D02*
G01*
X-978199Y56699D01*
X-990910Y69409D01*
X-990600Y-14880D02*
G01*
X-975000Y719D01*
X-975000Y23299D01*
X-1087399Y120589D02*
G01*
X-1087399Y132599D01*
X-1065000Y155000D01*
X-1087402Y95000D02*
G01*
X-1100000Y95000D01*
X-1110000Y105000D01*
X-1115000Y110000D01*
X-1115000Y125000D01*
X-1115000Y150003D01*
X-1100000Y165003D01*
D12*
X-1030000Y-69966D02*
G01*
X-1040000Y-69966D01*
X-1069399Y-39365D01*
X-1069399Y-14866D01*
X-1030000Y-125116D02*
G01*
X-1030000Y-144996D01*
X-1021819Y-153176D01*
X-1010299Y-125116D02*
G01*
X-1010299Y-139696D01*
X-1002070Y-147926D01*
X-747960Y-147926D01*
X-725000Y-124966D01*
X-725000Y-124966D02*
G01*
X-725000Y-82866D01*
X-1049701Y-125120D02*
G01*
X-1049701Y-170294D01*
X-1045000Y-174996D01*
X-1069399Y-125120D02*
G01*
X-1069399Y-149400D01*
X-1080000Y-160000D01*
D10*
X-960000Y160003D02*
G01*
X-943476Y160003D01*
X-943472Y160000D01*
D12*
X-666000Y123134D02*
G01*
X-666000Y160000D01*
D10*
X-1215000Y-21700D02*
G01*
X-1215000Y-60000D01*
X-1161220Y-113780D01*
X-1115000Y-113780D01*
X-1115000Y-113780D02*
G01*
X-1115000Y-160000D01*
X-1115000Y-86220D02*
G01*
X-1098779Y-70000D01*
X-1030000Y-70000D01*
X-817997Y89132D02*
G01*
X-836000Y89132D01*
X-845000Y80133D01*
X-845000Y45303D01*
X-875309Y14993D01*
X-965000Y135133D02*
G01*
X-925000Y175133D01*
X-875133Y175133D01*
X-863999Y163999D01*
X-863999Y143383D01*
X-916000Y143383D02*
G01*
X-916000Y166133D01*
X-925000Y175133D01*
X-914679Y14993D02*
G01*
X-914679Y34679D01*
X-936733Y56732D01*
X-975000Y56732D01*
D12*
X-818000Y-9866D02*
G01*
X-829799Y-9866D01*
X-945100Y-125066D01*
X-990600Y-125066D01*
D14*
X-965000Y95333D02*
G01*
X-890000Y95333D01*
X-890000Y105033D01*
D10*
X-783999Y89133D02*
G01*
X-783999Y99133D01*
X-799899Y115033D01*
X-865100Y115033D01*
X-865100Y105033D01*
X-890000Y105033D01*
D12*
X-1021800Y-153166D02*
G01*
X-1015000Y-159966D01*
X-740000Y-159966D01*
X-705000Y-124966D01*
X-705000Y-82866D01*
D10*
X-565000Y-38296D02*
G01*
X-535000Y-8296D01*
X-535000Y60003D01*
D12*
X-611999Y69133D02*
G01*
X-590900Y69133D01*
X-575000Y85033D01*
X-560000Y85033D01*
D11*
X-1030000Y-14866D02*
G01*
X-1030299Y25033D01*
D10*
X-1087399Y69409D02*
G01*
X-1069684Y51694D01*
X-1069684Y25000D01*
D11*
X-995000Y200133D02*
G01*
X-1015000Y180133D01*
X-1015000Y120634D01*
X-1012600Y120634D01*
D10*
X-1035000Y197633D02*
G01*
X-1035000Y145033D01*
X-1060000Y120033D01*
X-1060000Y69433D01*
X-1087399Y69433D01*
X-1566001Y224000D02*
G01*
X-1080001Y225133D01*
X-1080001Y220133D01*
X-1586001Y244000D02*
G01*
X-1070001Y245133D01*
X-1515001Y-249866D02*
G01*
X-1571001Y-249000D01*
X-515001Y-249866D02*
G01*
X-1515001Y-249866D01*
X-1576001Y-269000D02*
G01*
X-505001Y-269866D01*
X-1616001Y79998D02*
G01*
X-1616001Y-70001D01*
X-1576001Y79998D02*
G01*
X-1576001Y214998D01*
X-1576001Y-70001D02*
G01*
X-1576001Y-220001D01*
X-1596001Y79998D02*
G01*
X-1596001Y234998D01*
X-1616001Y79998D02*
G01*
X-1616001Y244998D01*
X-1596001Y-215001D02*
G01*
X-1596001Y-70001D01*
X-1616001Y-70001D02*
G01*
X-1616001Y-230001D01*
X-1596001Y79998D02*
G01*
X-1596001Y-70001D01*
X-1576001Y79998D02*
G01*
X-1576001Y-70001D01*
X-495001Y265133D02*
G01*
X-1023599Y265133D01*
X-1023599Y267734D01*
X-539233Y225133D02*
G01*
X-535001Y225133D01*
X-1080001Y220133D02*
G01*
X-1080001Y217633D01*
X-1067501Y205133D02*
G01*
X-1042501Y205133D01*
X-1596001Y-224000D02*
G01*
X-1596001Y-214000D01*
X-1035001Y245133D02*
G01*
X-515132Y245133D01*
X-1035001Y197633D02*
G01*
X-1035001Y145033D01*
D11*
X-995001Y200133D02*
G01*
X-1015001Y180133D01*
D10*
X-1596001Y264000D02*
G01*
X-1055001Y265133D01*
X-466000Y-259966D02*
G01*
X-466000Y-210966D01*
X-415000Y-159966D01*
X-220000Y-159966D01*
X-190000Y-129966D01*
X-190000Y145033D01*
X-210000Y165033D01*
X-425000Y165033D01*
X-460000Y200033D01*
X-460000Y248033D01*
X-485000Y255133D02*
G01*
X-485000Y200033D01*
X-430000Y145033D01*
X-235000Y145033D01*
X-210000Y120033D01*
X-210000Y-124966D01*
X-225000Y-139966D01*
X-420000Y-139966D01*
X-485000Y-204966D01*
X-485000Y-244966D01*
X-505000Y-235566D02*
G01*
X-505000Y-199966D01*
X-425000Y-119966D01*
X-240000Y-119966D01*
X-230000Y-109966D01*
X-230000Y110033D01*
X-245000Y125033D01*
X-435000Y125033D01*
X-505000Y195033D01*
X-505000Y235033D01*
X-436000Y222033D02*
G01*
X-436000Y201033D01*
X-420000Y185033D01*
X-205000Y185033D01*
X-170000Y150033D01*
X-170000Y-134966D01*
X-215000Y-179966D01*
X-410000Y-179966D01*
X-441999Y-211966D01*
X-441999Y-235966D01*
D11*
X-1049700Y-14866D02*
G01*
X-1049700Y-266D01*
X-1069700Y19733D01*
X-1069700Y25033D01*
X-1015000Y120634D02*
G01*
X-1024399Y120634D01*
X-1040000Y105033D01*
X-1040000Y34733D01*
X-1030299Y25033D01*
D10*
X-1215000Y11703D02*
G01*
X-1201703Y11703D01*
X-1185000Y-5000D01*
X-1185000Y-60000D01*
X-1158774Y-86226D01*
X-1115000Y-86226D01*
X-1179996Y53299D02*
G01*
X-1179996Y24995D01*
X-1165000Y10000D01*
X-1165000Y-30000D01*
X-1160000Y-35000D01*
X-1135000Y-35000D01*
X-1179996Y86699D02*
G01*
X-1179996Y130007D01*
X-1130000Y180003D01*
D12*
X-1135000Y35869D02*
G01*
X-1095870Y35869D01*
X-1090000Y30000D01*
X-1090000Y5753D01*
X-1069399Y-14846D01*
D10*
X-916000Y66633D02*
G01*
X-916000Y61033D01*
X-875299Y20333D01*
X-875299Y15033D01*
X-1030000Y-69966D02*
G01*
X-980000Y-69966D01*
X-914700Y-4666D01*
X-914700Y15033D01*
X-1050000Y225133D02*
G01*
X-525000Y225133D01*
X-525000Y190033D01*
X-440000Y105033D01*
X-260000Y105033D01*
X-250000Y95033D01*
X-250000Y-89966D01*
X-260000Y-99966D01*
X-435000Y-99966D01*
X-525000Y-189966D01*
X-525000Y-224966D01*
X-529899Y-229866D01*
X-1566000Y-229866D01*
D11*
X-990600Y-116228D02*
G01*
X-990600Y-133944D01*
X-1010299Y-116228D02*
G01*
X-1010299Y-133944D01*
X-1030000Y-116228D02*
G01*
X-1030000Y-133944D01*
X-1049700Y-116228D02*
G01*
X-1049700Y-133944D01*
X-1069399Y-116228D02*
G01*
X-1069399Y-133944D01*
X-1069399Y-23704D02*
G01*
X-1069399Y-5988D01*
X-1049700Y-23704D02*
G01*
X-1049700Y-5988D01*
X-1030000Y-23704D02*
G01*
X-1030000Y-5988D01*
X-1010299Y-23704D02*
G01*
X-1010299Y-5988D01*
X-990600Y-23704D02*
G01*
X-990600Y-5988D01*
G36*
X-1148779Y51616D02*
G01*
X-1148779Y20120D01*
X-1121220Y20120D01*
X-1121220Y51616D01*
G37*
G36*
X-1148779Y-19248D02*
G01*
X-1148779Y-50745D01*
X-1121220Y-50745D01*
X-1121220Y-19248D01*
G37*
D17*
G01*
X-715000Y20133D03*
D18*
G01*
X-783900Y120133D03*
G01*
X-764210Y120133D03*
G01*
X-744530Y120133D03*
G01*
X-724840Y120133D03*
G01*
X-705159Y120133D03*
G01*
X-685469Y120133D03*
G01*
X-665789Y120133D03*
G01*
X-646099Y120133D03*
D19*
G01*
X-615000Y89033D03*
G01*
X-615000Y69343D03*
G01*
X-615000Y49663D03*
G01*
X-615000Y29973D03*
G01*
X-615000Y10293D03*
G01*
X-615000Y-9396D03*
G01*
X-615000Y-29076D03*
G01*
X-615000Y-48766D03*
D18*
G01*
X-646109Y-79866D03*
G01*
X-665789Y-79866D03*
G01*
X-685479Y-79866D03*
G01*
X-705159Y-79866D03*
G01*
X-724849Y-79866D03*
G01*
X-744530Y-79866D03*
G01*
X-764219Y-79866D03*
G01*
X-783900Y-79866D03*
G36*
X-826809Y-42854D02*
G01*
X-803190Y-42854D01*
X-803190Y-54664D01*
X-826809Y-54664D01*
G37*
G36*
X-826809Y-23169D02*
G01*
X-803190Y-23169D01*
X-803190Y-34979D01*
X-826809Y-34979D01*
G37*
G36*
X-826809Y-3484D02*
G01*
X-803190Y-3484D01*
X-803190Y-15294D01*
X-826809Y-15294D01*
G37*
G36*
X-826809Y16200D02*
G01*
X-803190Y16200D01*
X-803190Y4390D01*
X-826809Y4390D01*
G37*
G36*
X-826809Y35886D02*
G01*
X-803190Y35886D01*
X-803190Y24076D01*
X-826809Y24076D01*
G37*
G36*
X-826809Y55571D02*
G01*
X-803190Y55571D01*
X-803190Y43761D01*
X-826809Y43761D01*
G37*
G36*
X-826809Y75256D02*
G01*
X-803190Y75256D01*
X-803190Y63446D01*
X-826809Y63446D01*
G37*
G36*
X-826809Y94941D02*
G01*
X-803190Y94941D01*
X-803190Y83131D01*
X-826809Y83131D01*
G37*
D20*
G01*
X-975010Y20353D03*
G01*
X-975010Y59723D03*
D21*
G01*
X-890000Y105003D03*
G36*
X-869906Y75471D02*
G01*
X-858094Y75471D01*
X-858094Y57755D01*
X-869906Y57755D01*
G37*
G36*
X-895906Y75471D02*
G01*
X-884094Y75471D01*
X-884094Y57755D01*
X-895906Y57755D01*
G37*
G36*
X-921905Y75471D02*
G01*
X-910095Y75471D01*
X-910095Y57755D01*
X-921905Y57755D01*
G37*
G36*
X-921905Y152243D02*
G01*
X-910095Y152243D01*
X-910095Y134526D01*
X-921905Y134526D01*
G37*
G36*
X-895906Y152243D02*
G01*
X-884094Y152243D01*
X-884094Y134526D01*
X-895906Y134526D01*
G37*
G36*
X-869906Y152243D02*
G01*
X-858094Y152243D01*
X-858094Y134526D01*
X-869906Y134526D01*
G37*
D23*
G01*
X-1030000Y-69966D03*
D24*
G01*
X-1180000Y53303D03*
G01*
X-1180000Y86703D03*
G01*
X-1215000Y-21696D03*
G01*
X-1215000Y11703D03*
G01*
X-565000Y-38296D03*
G01*
X-565000Y-71696D03*
D20*
G01*
X-965000Y95313D03*
G01*
X-965000Y134683D03*
G36*
X-924524Y30744D02*
G01*
X-904839Y30744D01*
X-904839Y-751D01*
X-924524Y-751D01*
G37*
G36*
X-885154Y30744D02*
G01*
X-865469Y30744D01*
X-865469Y-751D01*
X-885154Y-751D01*
G37*
D25*
G01*
X-1030320Y25003D03*
G01*
X-1069690Y25003D03*
D26*
G01*
X-1087399Y69413D03*
G01*
X-1087399Y95003D03*
G01*
X-1087399Y120593D03*
G01*
X-1012600Y120593D03*
G01*
X-1012600Y95003D03*
G01*
X-1012600Y69413D03*
D27*
G01*
X-1115000Y-86226D03*
G01*
X-1115000Y-113776D03*
D10*
G75*
G01*
X-494999Y265133D02*
G02*
X-484999Y255133I0J-10000D01*
G75*
G01*
X-515133Y245133D02*
G02*
X-504999Y234999I0J-10134D01*
G75*
G01*
X-1049999Y260133D02*
G03*
X-1034999Y245133I15000J0D01*
G75*
G01*
X-1054999Y265133D02*
G02*
X-1049999Y260133I0J-5000D01*
G75*
G01*
X-1059999Y235133D02*
G03*
X-1049999Y225133I10000J0D01*
G75*
G01*
X-1069999Y245133D02*
G02*
X-1059999Y235133I0J-10000D01*
G75*
G01*
X-1575999Y-219001D02*
G03*
X-1565999Y-229001I10000J0D01*
G75*
G01*
X-1575999Y213999D02*
G02*
X-1565999Y223999I10000J0D01*
G75*
G01*
X-1570999Y-249001D02*
G02*
X-1595999Y-224001I0J25000D01*
G75*
G01*
X-1079999Y217633D02*
G03*
X-1067499Y205133I12500J0D01*
G75*
G01*
X-1042499Y205133D02*
G02*
X-1034999Y197633I0J-7500D01*
G75*
G01*
X-504999Y-235562D02*
G02*
X-519304Y-249867I-14305J0D01*
G75*
G01*
X-1595999Y233999D02*
G02*
X-1585999Y243999I10000J0D01*
G75*
G01*
X-1615999Y-229001D02*
G03*
X-1575999Y-269001I40000J0D01*
G75*
G01*
X-1615999Y243999D02*
G02*
X-1595999Y263999I20000J0D01*
G75*
G01*
X-509999Y-270001D02*
G03*
X-484999Y-245001I0J25000D01*
D11*
G75*
G01*
X-605000Y-55866D02*
G03*
X-612000Y-48866I-7000J0D01*
D10*
G75*
G01*
X-644700Y-81566D02*
G03*
X-646000Y-82866I0J-1300D01*
D15*
G01*
X-560000Y85003D03*
G01*
X-585000Y105003D03*
G01*
X-610000Y125003D03*
G01*
X-535000Y60003D03*
G01*
X-765000Y160133D03*
G01*
X-945000Y3D03*
G01*
X-436000Y222033D03*
G01*
X-441999Y-235966D03*
G01*
X-460000Y248033D03*
G01*
X-466000Y-259966D03*
G01*
X-1023599Y265133D03*
G01*
X-995000Y200133D03*
G01*
X-995000Y200133D03*
G01*
X-875000Y-24996D03*
G01*
X-605000Y-69996D03*
G01*
X-775000Y75133D03*
G01*
X-570000Y20133D03*
G01*
X-565000Y50133D03*
G01*
X-820000Y-69866D03*
G01*
X-785000Y-119996D03*
G01*
X-750000Y-119866D03*
G01*
X-660000Y85133D03*
G01*
X-1065000Y155003D03*
G01*
X-1045000Y-174996D03*
G01*
X-1080000Y-159996D03*
G01*
X-960000Y160003D03*
G01*
X-666000Y160003D03*
G01*
X-1130000Y180003D03*
G01*
X-1115000Y-159996D03*
G01*
X-1100000Y165003D03*
M02*
