G04 Layer: TopLayer*
G04 EasyEDA v6.3.53, 2020-06-10T18:14:14+08:00*
G04 70510a8a35ed4085a1cd130cdd61ad63,2a3559ba94084103b258dd4c46581d95,10*
G04 Gerber Generator version 0.2*
G04 Scale: 100 percent, Rotated: No, Reflected: No *
G04 Dimensions in inches *
G04 leading zeros omitted , absolute positions ,2 integer and 4 decimal *
%FSLAX24Y24*%
%MOIN*%
G90*
G70D02*

%ADD10C,0.010000*%
%ADD11C,0.009843*%
%ADD12C,0.006000*%
%ADD13C,0.015000*%
%ADD14C,0.008000*%
%ADD15C,0.024000*%
%ADD16R,0.031496X0.019685*%
%ADD17R,0.062992X0.039370*%
%ADD18R,0.011811X0.017717*%
%ADD19R,0.090551X0.059055*%
%ADD20R,0.135830X0.135830*%
%ADD21R,0.011810X0.023620*%
%ADD22R,0.023620X0.011810*%
%ADD23R,0.023620X0.025590*%
%ADD24R,0.025590X0.023620*%
%ADD25R,0.019685X0.031496*%
%ADD26R,0.023622X0.016535*%
%ADD27R,0.023622X0.015748*%
%ADD28R,0.039000X0.043000*%
%ADD29C,0.200000*%

%LPD*%
G54D12*
G01X10236Y5557D02*
G01X10447Y5557D01*
G01X10606Y5716D01*
G01X10756Y5716D01*
G54D10*
G01X10706Y4483D02*
G01X11006Y4783D01*
G01X11006Y5466D01*
G54D12*
G01X6138Y3334D02*
G01X6206Y3266D01*
G01X8956Y3266D01*
G01X9306Y3616D01*
G01X9306Y4037D01*
G54D10*
G01X8516Y5757D02*
G01X8516Y5857D01*
G01X8357Y6016D01*
G01X7705Y6016D01*
G01X7705Y5916D01*
G01X7456Y5916D01*
G54D13*
G01X6706Y5819D02*
G01X7456Y5819D01*
G01X7456Y5916D01*
G54D12*
G01X7806Y4166D02*
G01X7806Y4316D01*
G01X8065Y4575D01*
G01X8206Y4575D01*
G01X6253Y4718D02*
G01X6253Y5163D01*
G01X6356Y5266D01*
G01X6956Y5266D01*
G01X7070Y5152D01*
G01X7070Y4830D01*
G01X6856Y4616D01*
G54D10*
G01X7196Y5532D02*
G01X7196Y5476D01*
G01X7356Y5316D01*
G01X7556Y5316D01*
G01X7753Y5119D01*
G01X7753Y5016D01*
G54D12*
G01X8176Y4767D02*
G01X8058Y4767D01*
G01X6905Y3615D01*
G01X6450Y3615D01*
G54D10*
G01X6056Y4166D02*
G01X6757Y4166D01*
G01X7359Y4769D01*
G01X7359Y5016D01*
G01X7359Y5016D02*
G01X7359Y5063D01*
G01X6989Y5433D01*
G01X6606Y5433D01*
G01X7196Y6300D02*
G01X7196Y6527D01*
G01X7106Y6617D01*
G01X6706Y6217D02*
G01X7106Y6617D01*
G01X7605Y6617D01*
G01X7716Y6506D01*
G01X7716Y6300D01*
G01X8176Y5757D02*
G01X7996Y5757D01*
G01X7906Y5667D01*
G01X7906Y5169D01*
G01X7753Y5016D01*
G01X5206Y4004D02*
G01X5368Y4166D01*
G01X6056Y4166D01*
G01X5206Y3728D02*
G01X5206Y3266D01*
G01X4206Y4649D02*
G01X4206Y4266D01*
G01X4744Y3728D01*
G01X5206Y3728D01*
G54D12*
G01X9696Y6097D02*
G01X9696Y6466D01*
G54D10*
G01X6756Y6466D02*
G01X6921Y6466D01*
G01X6922Y6466D01*
G01X4806Y4531D02*
G01X4991Y4531D01*
G01X5356Y4166D01*
G01X6056Y4166D01*
G01X4206Y4983D02*
G01X4354Y4983D01*
G01X4806Y4531D01*
G01X4923Y5816D02*
G01X4923Y5318D01*
G01X4806Y5201D01*
G54D12*
G01X5662Y3615D02*
G01X5662Y3372D01*
G01X5556Y3266D01*
G01X5859Y3615D02*
G01X5859Y3163D01*
G01X5906Y3116D01*
G01X9106Y3616D02*
G01X9106Y4037D01*
G01X6253Y3615D02*
G01X6253Y3469D01*
G01X6336Y3387D01*
G01X8877Y3387D01*
G01X9106Y3616D01*
G01X6056Y3615D02*
G01X6056Y3416D01*
G01X6138Y3334D01*
G01X6056Y4166D02*
G01X5956Y4166D01*
G01X5662Y4472D01*
G01X5662Y4717D01*
G54D10*
G01X5482Y5816D02*
G01X5356Y5816D01*
G01X5256Y5916D01*
G01X5206Y5966D01*
G01X5206Y6116D01*
G01X5206Y6316D01*
G01X5306Y6416D01*
G01X5482Y6072D02*
G01X5482Y6192D01*
G01X5706Y6416D01*
G01X6450Y4717D02*
G01X6606Y4873D01*
G01X6606Y5099D01*
G01X6606Y5433D02*
G01X6574Y5433D01*
G01X6447Y5560D01*
G54D13*
G01X6230Y5560D02*
G01X6447Y5560D01*
G01X6706Y5819D01*
G54D14*
G01X6230Y5816D02*
G01X6356Y5816D01*
G01X6448Y5908D01*
G01X6448Y5980D01*
G01X6681Y6213D01*
G01X6706Y6213D01*
G54D11*
G01X6056Y4717D02*
G01X6053Y5116D01*
G01X5859Y4717D02*
G01X5859Y4916D01*
G01X5659Y5116D01*
G01X6206Y6072D02*
G01X6112Y6072D01*
G01X5956Y5916D01*
G01X5956Y5466D01*
G01X6053Y5369D01*
G01X6053Y5116D01*
G54D10*
G01X5482Y5560D02*
G01X5659Y5383D01*
G01X5659Y5116D01*
G01X6006Y6842D02*
G01X6006Y6316D01*
G01X5756Y6066D01*
G01X5756Y5616D01*
G01X5700Y5560D01*
G01X5482Y5560D01*
G54D11*
G01X6406Y6867D02*
G01X6206Y6667D01*
G01X6206Y6072D01*
G01X6230Y6072D01*
G54D10*
G01X10906Y2567D02*
G01X1156Y2567D01*
G54D12*
G01X8706Y6467D02*
G01X8716Y6457D01*
G01X8716Y6097D01*
G54D10*
G01X7356Y5917D02*
G01X7456Y6017D01*
G01X7456Y6300D01*
G01X8516Y6097D02*
G01X8516Y5757D01*
G01X9206Y5067D01*
G01X7753Y5016D02*
G01X7753Y4763D01*
G01X7656Y4666D01*
G01X7958Y4967D01*
G01X8176Y4967D01*
G01X10236Y5167D02*
G01X10556Y5167D01*
G01X10656Y5067D01*
G01X10236Y5367D02*
G01X10706Y5367D01*
G01X9896Y4037D02*
G01X9896Y4377D01*
G01X9206Y5067D01*
G01X10906Y2567D02*
G01X11106Y2567D01*
G01X11106Y2967D01*
G01X12056Y3667D02*
G01X12006Y3667D01*
G01X11306Y2967D02*
G01X11306Y2510D01*
G01X11306Y2167D02*
G01X11356Y2167D01*
G01X11506Y2317D02*
G01X11506Y2817D01*
G01X11281Y1967D02*
G01X11506Y1967D01*
G01X11706Y2167D02*
G01X11706Y2767D01*
G01X11356Y1767D02*
G01X11456Y1767D01*
G01X11906Y2217D02*
G01X11906Y2767D01*
G01X12056Y3667D02*
G01X13156Y3667D01*
G01X13306Y3817D02*
G01X13306Y5917D01*
G01X13106Y5817D02*
G01X13106Y3917D01*
G01X13106Y3867D01*
G01X13106Y3867D02*
G01X12256Y3867D01*
G01X12006Y3867D01*
G01X13706Y6367D02*
G01X13706Y3517D01*
G01X13506Y6117D02*
G01X13506Y3617D01*
G01X13531Y3067D02*
G01X13656Y3067D01*
G01X13456Y3267D02*
G01X13464Y3267D01*
G01X12156Y3467D02*
G01X12456Y3467D01*
G01X13356Y3467D01*
G01X12206Y3067D02*
G01X12281Y3067D01*
G01X12281Y3067D02*
G01X13531Y3067D01*
G01X12081Y6667D02*
G01X12006Y6667D01*
G01X13656Y6667D02*
G01X13531Y6667D01*
G01X13531Y6667D02*
G01X12081Y6667D01*
G01X11106Y7116D02*
G01X11106Y6666D01*
G01X11106Y6566D01*
G01X11856Y5867D02*
G01X13056Y5867D01*
G01X5856Y7117D02*
G01X6206Y7117D01*
G01X11106Y7116D01*
G01X10964Y7117D02*
G01X11006Y7117D01*
G01X11506Y7417D02*
G01X11506Y7342D01*
G01X11956Y6067D02*
G01X11906Y6067D01*
G01X12006Y6267D02*
G01X11931Y6267D01*
G01X11306Y7216D02*
G01X11306Y6616D01*
G01X11506Y7342D02*
G01X11506Y6692D01*
G01X13456Y3267D02*
G01X12206Y3267D01*
G01X5556Y7067D02*
G01X5556Y7042D01*
G01X5681Y6917D02*
G01X5931Y6917D01*
G01X1206Y2367D02*
G01X1106Y2367D01*
G01X856Y2617D02*
G01X856Y2717D01*
G01X13456Y6467D02*
G01X13576Y6467D01*
G01X13256Y6267D02*
G01X13356Y6267D01*
G01X13106Y6067D02*
G01X13156Y6067D01*
G01X13906Y3317D02*
G01X13906Y4681D01*
G01X13906Y6417D01*
G01X1056Y5667D02*
G01X1056Y7017D01*
G01X1156Y7117D02*
G01X5556Y7117D01*
G01X5556Y7067D01*
G01X1056Y4167D02*
G01X1056Y2667D01*
G01X856Y5667D02*
G01X856Y7217D01*
G01X956Y7317D02*
G01X5656Y7317D01*
G01X656Y5667D02*
G01X656Y7317D01*
G01X856Y7517D02*
G01X5806Y7517D01*
G01X11956Y6067D02*
G01X13106Y6067D01*
G01X11206Y2367D02*
G01X1206Y2367D01*
G01X856Y2717D02*
G01X856Y4167D01*
G01X656Y4167D02*
G01X656Y2567D01*
G01X1056Y2167D02*
G01X11306Y2167D01*
G01X11281Y1967D02*
G01X931Y1967D01*
G01X6006Y7917D02*
G01X6106Y7917D01*
G01X6156Y7867D02*
G01X6156Y7842D01*
G01X11706Y7367D02*
G01X11706Y7442D01*
G01X6281Y7717D02*
G01X6631Y7717D01*
G01X11431Y7717D01*
G01X456Y5667D02*
G01X456Y7367D01*
G01X806Y7717D02*
G01X5906Y7717D01*
G01X6106Y7517D02*
G01X6256Y7517D01*
G01X11406Y7517D01*
G01X12006Y6267D02*
G01X13256Y6267D01*
G01X256Y5667D02*
G01X256Y7317D01*
G01X856Y7917D02*
G01X6006Y7917D01*
G01X11706Y7367D02*
G01X11706Y6767D01*
G01X12006Y6467D02*
G01X13456Y6467D01*
G01X456Y2417D02*
G01X456Y4167D01*
G01X11356Y7917D02*
G01X6406Y7917D01*
G01X256Y2617D02*
G01X256Y2367D01*
G01X856Y1767D02*
G01X11356Y1767D01*
G01X11906Y6767D02*
G01X11906Y7367D01*
G01X256Y5667D02*
G01X256Y2617D01*
G54D12*
G01X8176Y4377D02*
G01X8156Y4357D01*
G01X8156Y4167D01*
G01X8716Y4037D02*
G01X8716Y3827D01*
G01X8606Y3717D01*
G01X8558Y3717D01*
G01X8506Y3666D01*
G01X8906Y4037D02*
G01X8906Y3717D01*
G01X8856Y3667D01*
G54D10*
G01X456Y5667D02*
G01X456Y4167D01*
G01X656Y5667D02*
G01X656Y4167D01*
G01X856Y5667D02*
G01X856Y4167D01*
G01X1056Y5667D02*
G01X1056Y4167D01*
G54D12*
G01X10236Y5757D02*
G01X10348Y5757D01*
G01X10506Y5916D01*
G54D10*
G01X11856Y5867D02*
G01X11805Y5867D01*
G01X11906Y6067D02*
G01X11855Y6067D01*
G01X6006Y7317D02*
G01X11205Y7317D01*
G54D11*
G01X10306Y4166D02*
G01X10306Y4307D01*
G01X10236Y4377D02*
G01X10601Y4377D01*
G01X10706Y4483D01*
G01X10706Y4149D02*
G01X10473Y3916D01*
G01X10156Y3916D01*
G01X10035Y4037D01*
G01X9896Y4037D01*
G54D10*
G01X6606Y4873D02*
G01X6813Y4873D01*
G01X6856Y4916D01*
G54D12*
G01X8911Y6067D02*
G01X8911Y6271D01*
G01X8956Y6316D01*
G01X9056Y6316D01*
G01X9108Y6264D01*
G01X9108Y6067D01*
G01X5056Y6666D02*
G01X4956Y6666D01*
G01X4589Y6299D01*
G01X4589Y5816D01*
G54D11*
G01X6450Y3704D02*
G01X6450Y3527D01*
G01X6253Y3704D02*
G01X6253Y3527D01*
G01X6056Y3704D02*
G01X6056Y3527D01*
G01X5859Y3704D02*
G01X5859Y3527D01*
G01X5662Y3704D02*
G01X5662Y3527D01*
G01X5662Y4629D02*
G01X5662Y4806D01*
G01X5859Y4629D02*
G01X5859Y4806D01*
G01X6056Y4629D02*
G01X6056Y4806D01*
G01X6253Y4629D02*
G01X6253Y4806D01*
G01X6450Y4629D02*
G01X6450Y4806D01*
G54D16*
G01X6606Y5070D03*
G01X6606Y5463D03*
G54D17*
G01X7456Y5916D03*
G54D18*
G01X7716Y5532D03*
G01X7456Y5532D03*
G01X7196Y5532D03*
G01X7196Y6300D03*
G01X7456Y6300D03*
G01X7716Y6300D03*
G54D19*
G01X6056Y4166D03*
G54D20*
G01X9206Y5067D03*
G54D21*
G01X8517Y6067D03*
G01X8714Y6067D03*
G01X8911Y6067D03*
G01X9108Y6067D03*
G01X9305Y6067D03*
G01X9502Y6067D03*
G01X9698Y6067D03*
G01X9895Y6067D03*
G54D22*
G01X10206Y5756D03*
G01X10206Y5559D03*
G01X10206Y5363D03*
G01X10206Y5166D03*
G01X10206Y4969D03*
G01X10206Y4772D03*
G01X10206Y4575D03*
G01X10206Y4378D03*
G54D21*
G01X9895Y4067D03*
G01X9698Y4067D03*
G01X9501Y4067D03*
G01X9305Y4067D03*
G01X9108Y4067D03*
G01X8911Y4067D03*
G01X8714Y4067D03*
G01X8517Y4067D03*
G54D22*
G01X8206Y4378D03*
G01X8206Y4575D03*
G01X8206Y4772D03*
G01X8206Y4969D03*
G01X8206Y5166D03*
G01X8206Y5363D03*
G01X8206Y5560D03*
G01X8206Y5756D03*
G54D23*
G01X4923Y5816D03*
G01X4589Y5816D03*
G54D24*
G01X4206Y4649D03*
G01X4206Y4983D03*
G01X10706Y4483D03*
G01X10706Y4149D03*
G54D16*
G01X6706Y5819D03*
G01X6706Y6213D03*
G54D25*
G01X7359Y5016D03*
G01X7753Y5016D03*
G01X6053Y5116D03*
G01X5659Y5116D03*
G54D26*
G01X5482Y5560D03*
G01X5482Y5816D03*
G01X5482Y6072D03*
G01X6230Y6072D03*
G01X6230Y5816D03*
G01X6230Y5560D03*
G54D27*
G01X5206Y4004D03*
G01X5206Y3728D03*
G54D28*
G01X4806Y5201D03*
G01X4806Y4531D03*
G54D10*
G75*
G01X9910Y4051D02*
G03X9897Y4038I0J-13D01*
G01*
G75*
G01X11107Y2968D02*
G02X12007Y3868I900J0D01*
G01*
G75*
G01X12007Y3668D02*
G03X11307Y2968I0J-700D01*
G01*
G75*
G01X11307Y2511D02*
G02X11164Y2368I-143J0D01*
G01*
G75*
G01X11357Y2168D02*
G03X11507Y2318I0J150D01*
G01*
G75*
G01X11507Y2818D02*
G02X12157Y3468I650J0D01*
G01*
G75*
G01X11507Y1968D02*
G03X11707Y2168I0J200D01*
G01*
G75*
G01X11707Y2768D02*
G02X12207Y3268I500J0D01*
G01*
G75*
G01X11457Y1768D02*
G03X11907Y2218I0J450D01*
G01*
G75*
G01X11907Y2768D02*
G02X12207Y3068I300J0D01*
G01*
G75*
G01X13157Y3668D02*
G03X13307Y3818I0J150D01*
G01*
G75*
G01X13657Y3068D02*
G03X13907Y3318I0J250D01*
G01*
G75*
G01X13464Y3268D02*
G03X13707Y3510I0J242D01*
G01*
G75*
G01X13357Y3468D02*
G03X13507Y3618I0J150D01*
G01*
G75*
G01X12007Y6668D02*
G02X11907Y6768I0J100D01*
G01*
G75*
G01X13907Y6418D02*
G03X13657Y6668I-250J0D01*
G01*
G75*
G01X13057Y5868D02*
G02X13107Y5818I0J-50D01*
G01*
G75*
G01X11407Y7518D02*
G02X11507Y7418I0J-100D01*
G01*
G75*
G01X11432Y7718D02*
G02X11707Y7443I0J-275D01*
G01*
G75*
G01X11932Y6268D02*
G02X11507Y6693I0J425D01*
G01*
G75*
G01X5932Y6918D02*
G02X6007Y6843I0J-75D01*
G01*
G75*
G01X5557Y7043D02*
G03X5682Y6918I125J0D01*
G01*
G75*
G01X1107Y2368D02*
G02X857Y2618I0J250D01*
G01*
G75*
G01X13576Y6468D02*
G02X13707Y6337I0J-131D01*
G01*
G75*
G01X13357Y6268D02*
G02X13507Y6118I0J-150D01*
G01*
G75*
G01X13157Y6068D02*
G02X13307Y5918I0J-150D01*
G01*
G75*
G01X1057Y7018D02*
G02X1157Y7118I100J0D01*
G01*
G75*
G01X1057Y2668D02*
G03X1157Y2568I100J0D01*
G01*
G75*
G01X857Y7218D02*
G02X957Y7318I100J0D01*
G01*
G75*
G01X5657Y7318D02*
G02X5757Y7218I0J-100D01*
G01*
G75*
G01X5757Y7218D02*
G03X5857Y7118I100J0D01*
G01*
G75*
G01X657Y7318D02*
G02X857Y7518I200J0D01*
G01*
G75*
G01X5807Y7518D02*
G02X5857Y7468I0J-50D01*
G01*
G75*
G01X5857Y7468D02*
G03X6007Y7318I150J0D01*
G01*
G75*
G01X657Y2568D02*
G03X1057Y2168I400J0D01*
G01*
G75*
G01X457Y2418D02*
G03X907Y1968I450J0D01*
G01*
G75*
G01X6107Y7918D02*
G02X6157Y7868I0J-50D01*
G01*
G75*
G01X6157Y7843D02*
G03X6282Y7718I125J0D01*
G01*
G75*
G01X457Y7368D02*
G02X807Y7718I350J0D01*
G01*
G75*
G01X5907Y7718D02*
G02X6007Y7618I0J-100D01*
G01*
G75*
G01X6007Y7618D02*
G03X6107Y7518I100J0D01*
G01*
G75*
G01X257Y7318D02*
G02X857Y7918I600J0D01*
G01*
G75*
G01X11707Y6768D02*
G03X12007Y6468I300J0D01*
G01*
G75*
G01X257Y2368D02*
G03X857Y1768I600J0D01*
G01*
G75*
G01X11907Y7368D02*
G03X11357Y7918I-550J0D01*
G01*
G75*
G01X11805Y5868D02*
G02X11107Y6566I0J698D01*
G01*
G75*
G01X11855Y6068D02*
G02X11307Y6616I0J548D01*
G01*
G75*
G01X11205Y7318D02*
G02X11307Y7216I0J-102D01*
G01*
G54D11*
G75*
G01X10307Y4308D02*
G03X10237Y4378I-70J0D01*
G01*
G54D29*
G01X2406Y4867D03*
G54D15*
G01X10756Y5716D03*
G01X10506Y5916D03*
G01X10256Y6116D03*
G01X7806Y4166D03*
G01X11006Y5466D03*
G01X8706Y6467D03*
G01X7656Y4666D03*
G01X10306Y4166D03*
G01X8606Y5617D03*
G01X10656Y5067D03*
G01X10706Y5367D03*
G01X6406Y6867D03*
G01X6406Y7917D03*
G01X8156Y4167D03*
G01X8506Y3666D03*
G01X8856Y3667D03*
G01X9756Y5717D03*
G01X5706Y6416D03*
G01X5906Y3116D03*
G01X5556Y3266D03*
G01X6756Y6466D03*
G01X9696Y6466D03*
G01X5056Y6666D03*
G01X5206Y3266D03*
G01X6856Y4616D03*
G01X6856Y4916D03*
G01X5306Y6416D03*
M00*
M02*
