G04 Layer: TopSolderMaskLayer*
G04 EasyEDA v6.5.1, 2022-03-25 19:20:23*
G04 2013efc8e0304d3594b03259707e7b04,2a3559ba94084103b258dd4c46581d95,10*
G04 Gerber Generator version 0.2*
G04 Scale: 100 percent, Rotated: No, Reflected: No *
G04 Dimensions in inches *
G04 leading zeros omitted , absolute positions ,3 integer and 6 decimal *
%FSLAX36Y36*%
%MOIN*%

%ADD38C,0.0178*%
%ADD51C,0.0320*%
%ADD52C,0.0280*%

%LPD*%
G36*
X-1135000Y30000D02*
G01*
X-1135000Y-30000D01*
X-1075000Y-30000D01*
X-1095000Y5000D01*
X-1095000Y30000D01*
G37*
D38*
X-990600Y-116228D02*
G01*
X-990600Y-133944D01*
X-1010299Y-116228D02*
G01*
X-1010299Y-133944D01*
X-1030000Y-116228D02*
G01*
X-1030000Y-133944D01*
X-1049700Y-116228D02*
G01*
X-1049700Y-133944D01*
X-1069399Y-116228D02*
G01*
X-1069399Y-133944D01*
X-1069399Y-23704D02*
G01*
X-1069399Y-5988D01*
X-1049700Y-23704D02*
G01*
X-1049700Y-5988D01*
X-1030000Y-23704D02*
G01*
X-1030000Y-5988D01*
X-1010299Y-23704D02*
G01*
X-1010299Y-5988D01*
X-990600Y-23704D02*
G01*
X-990600Y-5988D01*
G36*
X-1152799Y16133D02*
G01*
X-1152799Y55634D01*
X-1117200Y55634D01*
X-1117200Y16133D01*
G37*
G36*
X-1152799Y-54765D02*
G01*
X-1152799Y-15266D01*
X-1117200Y-15266D01*
X-1117200Y-54765D01*
G37*
G36*
X-786899Y-51766D02*
G01*
X-786899Y92033D01*
X-643100Y92033D01*
X-643100Y-51766D01*
G37*
G36*
X-793800Y104333D02*
G01*
X-793800Y135933D01*
X-773999Y135933D01*
X-773999Y104333D01*
G37*
G36*
X-774099Y104333D02*
G01*
X-774099Y135933D01*
X-754300Y135933D01*
X-754300Y104333D01*
G37*
G36*
X-754399Y104333D02*
G01*
X-754399Y135933D01*
X-734600Y135933D01*
X-734600Y104333D01*
G37*
G36*
X-734799Y104333D02*
G01*
X-734799Y135933D01*
X-714899Y135933D01*
X-714899Y104333D01*
G37*
G36*
X-715100Y104333D02*
G01*
X-715100Y135933D01*
X-695200Y135933D01*
X-695200Y104333D01*
G37*
G36*
X-695399Y104333D02*
G01*
X-695399Y135933D01*
X-675600Y135933D01*
X-675600Y104333D01*
G37*
G36*
X-675699Y104333D02*
G01*
X-675699Y135933D01*
X-655900Y135933D01*
X-655900Y104333D01*
G37*
G36*
X-656000Y104333D02*
G01*
X-656000Y135933D01*
X-636199Y135933D01*
X-636199Y104333D01*
G37*
G36*
X-630799Y79133D02*
G01*
X-630799Y98933D01*
X-599200Y98933D01*
X-599200Y79133D01*
G37*
G36*
X-630799Y59433D02*
G01*
X-630799Y79233D01*
X-599200Y79233D01*
X-599200Y59433D01*
G37*
G36*
X-630799Y39733D02*
G01*
X-630799Y59533D01*
X-599200Y59533D01*
X-599200Y39733D01*
G37*
G36*
X-630799Y20033D02*
G01*
X-630799Y39933D01*
X-599200Y39933D01*
X-599200Y20033D01*
G37*
G36*
X-630799Y333D02*
G01*
X-630799Y20234D01*
X-599200Y20234D01*
X-599200Y333D01*
G37*
G36*
X-630799Y-19266D02*
G01*
X-630799Y533D01*
X-599200Y533D01*
X-599200Y-19266D01*
G37*
G36*
X-630799Y-38966D02*
G01*
X-630799Y-19166D01*
X-599200Y-19166D01*
X-599200Y-38966D01*
G37*
G36*
X-630799Y-58666D02*
G01*
X-630799Y-38866D01*
X-599200Y-38866D01*
X-599200Y-58666D01*
G37*
G36*
X-656000Y-95666D02*
G01*
X-656000Y-64066D01*
X-636199Y-64066D01*
X-636199Y-95666D01*
G37*
G36*
X-675699Y-95666D02*
G01*
X-675699Y-64066D01*
X-655900Y-64066D01*
X-655900Y-95666D01*
G37*
G36*
X-695399Y-95666D02*
G01*
X-695399Y-64066D01*
X-675600Y-64066D01*
X-675600Y-95666D01*
G37*
G36*
X-715100Y-95666D02*
G01*
X-715100Y-64066D01*
X-695299Y-64066D01*
X-695299Y-95666D01*
G37*
G36*
X-734799Y-95666D02*
G01*
X-734799Y-64066D01*
X-714899Y-64066D01*
X-714899Y-95666D01*
G37*
G36*
X-754399Y-95666D02*
G01*
X-754399Y-64066D01*
X-734600Y-64066D01*
X-734600Y-95666D01*
G37*
G36*
X-774099Y-95666D02*
G01*
X-774099Y-64066D01*
X-754300Y-64066D01*
X-754300Y-95666D01*
G37*
G36*
X-793800Y-95666D02*
G01*
X-793800Y-64066D01*
X-773999Y-64066D01*
X-773999Y-95666D01*
G37*
G36*
X-830799Y-58666D02*
G01*
X-830799Y-38866D01*
X-799200Y-38866D01*
X-799200Y-58666D01*
G37*
G36*
X-830799Y-38966D02*
G01*
X-830799Y-19166D01*
X-799200Y-19166D01*
X-799200Y-38966D01*
G37*
G36*
X-830799Y-19266D02*
G01*
X-830799Y533D01*
X-799200Y533D01*
X-799200Y-19266D01*
G37*
G36*
X-830799Y434D02*
G01*
X-830799Y20234D01*
X-799200Y20234D01*
X-799200Y434D01*
G37*
G36*
X-830799Y20033D02*
G01*
X-830799Y39933D01*
X-799200Y39933D01*
X-799200Y20033D01*
G37*
G36*
X-830799Y39733D02*
G01*
X-830799Y59533D01*
X-799200Y59533D01*
X-799200Y39733D01*
G37*
G36*
X-830799Y59433D02*
G01*
X-830799Y79233D01*
X-799200Y79233D01*
X-799200Y59433D01*
G37*
G36*
X-830799Y79133D02*
G01*
X-830799Y98933D01*
X-799200Y98933D01*
X-799200Y79133D01*
G37*
G36*
X-994799Y6533D02*
G01*
X-994799Y34233D01*
X-955299Y34233D01*
X-955299Y6533D01*
G37*
G36*
X-994799Y45833D02*
G01*
X-994799Y73533D01*
X-955299Y73533D01*
X-955299Y45833D01*
G37*
G36*
X-925500Y81333D02*
G01*
X-925500Y128733D01*
X-854499Y128733D01*
X-854499Y81333D01*
G37*
G36*
X-873900Y53733D02*
G01*
X-873900Y79433D01*
X-854099Y79433D01*
X-854099Y53733D01*
G37*
G36*
X-899899Y53733D02*
G01*
X-899899Y79433D01*
X-880100Y79433D01*
X-880100Y53733D01*
G37*
G36*
X-925900Y53733D02*
G01*
X-925900Y79433D01*
X-906099Y79433D01*
X-906099Y53733D01*
G37*
G36*
X-925900Y130533D02*
G01*
X-925900Y156233D01*
X-906099Y156233D01*
X-906099Y130533D01*
G37*
G36*
X-899899Y130533D02*
G01*
X-899899Y156233D01*
X-880100Y156233D01*
X-880100Y130533D01*
G37*
G36*
X-873900Y130533D02*
G01*
X-873900Y156233D01*
X-854099Y156233D01*
X-854099Y130533D01*
G37*
G36*
X-1079300Y-103466D02*
G01*
X-1079300Y-36466D01*
X-980699Y-36466D01*
X-980699Y-103466D01*
G37*
G36*
X-1196800Y37533D02*
G01*
X-1196800Y69133D01*
X-1163199Y69133D01*
X-1163199Y37533D01*
G37*
G36*
X-1196800Y70933D02*
G01*
X-1196800Y102533D01*
X-1163199Y102533D01*
X-1163199Y70933D01*
G37*
G36*
X-1231800Y-37466D02*
G01*
X-1231800Y-5866D01*
X-1198199Y-5866D01*
X-1198199Y-37466D01*
G37*
G36*
X-1231800Y-4066D02*
G01*
X-1231800Y27533D01*
X-1198199Y27533D01*
X-1198199Y-4066D01*
G37*
G36*
X-581800Y-54066D02*
G01*
X-581800Y-22466D01*
X-548199Y-22466D01*
X-548199Y-54066D01*
G37*
G36*
X-581800Y-87466D02*
G01*
X-581800Y-55866D01*
X-548199Y-55866D01*
X-548199Y-87466D01*
G37*
G36*
X-984700Y81433D02*
G01*
X-984700Y109133D01*
X-945200Y109133D01*
X-945200Y81433D01*
G37*
G36*
X-984700Y120833D02*
G01*
X-984700Y148533D01*
X-945200Y148533D01*
X-945200Y120833D01*
G37*
G36*
X-928500Y-4765D02*
G01*
X-928500Y34733D01*
X-900799Y34733D01*
X-900799Y-4765D01*
G37*
G36*
X-889200Y-4765D02*
G01*
X-889200Y34733D01*
X-861499Y34733D01*
X-861499Y-4765D01*
G37*
G36*
X-1044200Y5234D02*
G01*
X-1044200Y44733D01*
X-1016499Y44733D01*
X-1016499Y5234D01*
G37*
G36*
X-1083500Y5234D02*
G01*
X-1083500Y44733D01*
X-1055799Y44733D01*
X-1055799Y5234D01*
G37*
G36*
X-1103199Y57133D02*
G01*
X-1103199Y81633D01*
X-1071599Y81633D01*
X-1071599Y57133D01*
G37*
G36*
X-1103199Y82734D02*
G01*
X-1103199Y107233D01*
X-1071599Y107233D01*
X-1071599Y82734D01*
G37*
G36*
X-1103199Y108333D02*
G01*
X-1103199Y132833D01*
X-1071599Y132833D01*
X-1071599Y108333D01*
G37*
G36*
X-1028400Y108333D02*
G01*
X-1028400Y132833D01*
X-996800Y132833D01*
X-996800Y108333D01*
G37*
G36*
X-1028400Y82734D02*
G01*
X-1028400Y107233D01*
X-996800Y107233D01*
X-996800Y82734D01*
G37*
G36*
X-1028400Y57133D02*
G01*
X-1028400Y81633D01*
X-996800Y81633D01*
X-996800Y57133D01*
G37*
G36*
X-1130799Y-98066D02*
G01*
X-1130799Y-74365D01*
X-1099200Y-74365D01*
X-1099200Y-98066D01*
G37*
G36*
X-1130799Y-125666D02*
G01*
X-1130799Y-101865D01*
X-1099200Y-101865D01*
X-1099200Y-125666D01*
G37*
D51*
G01*
X-560000Y85003D03*
G01*
X-585000Y105003D03*
G01*
X-610000Y125003D03*
G01*
X-535000Y60003D03*
G01*
X-765000Y160133D03*
D52*
G01*
X-945000Y3D03*
M02*
