;Layer: Drill PTH
;EasyEDA v6.3.53, 2020-06-10T18:14:14+08:00
;70510a8a35ed4085a1cd130cdd61ad63,2a3559ba94084103b258dd4c46581d95,10
;Gerber Generator version 0.2
M48
INCH,LZ,00.0000
;Holesize 1 = 0.012 INCH
T01C0.012
%
G05
G90
T01
X+010756Y+005716
X+010506Y+005916
X+010256Y+006116
X+007806Y+004166
X+011006Y+005466
X+008706Y+006467
X+007656Y+004666
X+010306Y+004166
X+008606Y+005617
X+010656Y+005067
X+010706Y+005367
X+006406Y+006867
X+006406Y+007917
X+008156Y+004167
X+008506Y+003666
X+008856Y+003667
X+009756Y+005717
X+005706Y+006416
X+005906Y+003116
X+005556Y+003266
X+006756Y+006466
X+009696Y+006466
X+005056Y+006666
X+005206Y+003266
X+006856Y+004616
X+006856Y+004916
X+005306Y+006416
M30
