G04 Layer: BottomSilkscreenLayer*
G04 EasyEDA v6.5.1, 2022-03-25 19:20:23*
G04 2013efc8e0304d3594b03259707e7b04,2a3559ba94084103b258dd4c46581d95,10*
G04 Gerber Generator version 0.2*
G04 Scale: 100 percent, Rotated: No, Reflected: No *
G04 Dimensions in inches *
G04 leading zeros omitted , absolute positions ,3 integer and 6 decimal *
%FSLAX36Y36*%
%MOIN*%

%ADD10C,0.0100*%
%ADD37C,0.0050*%

%LPD*%
D37*
X-985455Y-176411D02*
G01*
X-984090Y-173684D01*
X-981364Y-170957D01*
X-978635Y-169592D01*
X-973181Y-169592D01*
X-970455Y-170957D01*
X-967727Y-173684D01*
X-966364Y-176411D01*
X-965000Y-180502D01*
X-965000Y-187321D01*
X-966364Y-191411D01*
X-967727Y-194139D01*
X-970455Y-196866D01*
X-973181Y-198230D01*
X-978635Y-198230D01*
X-981364Y-196866D01*
X-984090Y-194139D01*
X-985455Y-191411D01*
X-1010817Y-179139D02*
G01*
X-1010817Y-198230D01*
X-1010817Y-183230D02*
G01*
X-1008091Y-180502D01*
X-1005363Y-179139D01*
X-1001273Y-179139D01*
X-998545Y-180502D01*
X-995817Y-183230D01*
X-994454Y-187321D01*
X-994454Y-190048D01*
X-995817Y-194139D01*
X-998545Y-196866D01*
X-1001273Y-198230D01*
X-1005363Y-198230D01*
X-1008091Y-196866D01*
X-1010817Y-194139D01*
X-1019817Y-179139D02*
G01*
X-1019817Y-198230D01*
X-1019817Y-184592D02*
G01*
X-1023909Y-180502D01*
X-1026635Y-179139D01*
X-1030726Y-179139D01*
X-1033455Y-180502D01*
X-1034817Y-184592D01*
X-1034817Y-198230D01*
X-1050636Y-179139D02*
G01*
X-1047908Y-180502D01*
X-1045182Y-183230D01*
X-1043818Y-187321D01*
X-1043818Y-190048D01*
X-1045182Y-194139D01*
X-1047908Y-196866D01*
X-1050636Y-198230D01*
X-1054727Y-198230D01*
X-1057455Y-196866D01*
X-1060182Y-194139D01*
X-1061544Y-190048D01*
X-1061544Y-187321D01*
X-1060182Y-183230D01*
X-1057455Y-180502D01*
X-1054727Y-179139D01*
X-1050636Y-179139D01*
X-1070545Y-169592D02*
G01*
X-1070545Y-198230D01*
X-1089636Y-169592D02*
G01*
X-1070545Y-188684D01*
X-1077363Y-181866D02*
G01*
X-1089636Y-198230D01*
X-1098635Y-187321D02*
G01*
X-1115000Y-187321D01*
X-1115000Y-184592D01*
X-1113635Y-181866D01*
X-1112272Y-180502D01*
X-1109544Y-179139D01*
X-1105455Y-179139D01*
X-1102727Y-180502D01*
X-1100000Y-183230D01*
X-1098635Y-187321D01*
X-1098635Y-190048D01*
X-1100000Y-194139D01*
X-1102727Y-196866D01*
X-1105455Y-198230D01*
X-1109544Y-198230D01*
X-1112272Y-196866D01*
X-1115000Y-194139D01*
X-1125363Y-179139D02*
G01*
X-1133545Y-198230D01*
X-1141727Y-179139D02*
G01*
X-1133545Y-198230D01*
X-1130817Y-203684D01*
X-1128091Y-206411D01*
X-1125363Y-207775D01*
X-1123999Y-207775D01*
X-1150726Y-185957D02*
G01*
X-1175272Y-185957D01*
X-1184273Y-169592D02*
G01*
X-1184273Y-198230D01*
X-1184273Y-169592D02*
G01*
X-1203364Y-198230D01*
X-1203364Y-169592D02*
G01*
X-1203364Y-198230D01*
X-1212363Y-169592D02*
G01*
X-1212363Y-198230D01*
X-1212363Y-169592D02*
G01*
X-1230091Y-169592D01*
X-1212363Y-183230D02*
G01*
X-1223272Y-183230D01*
X-1259544Y-176411D02*
G01*
X-1258181Y-173684D01*
X-1255455Y-170957D01*
X-1252727Y-169592D01*
X-1247272Y-169592D01*
X-1244544Y-170957D01*
X-1241818Y-173684D01*
X-1240455Y-176411D01*
X-1239090Y-180502D01*
X-1239090Y-187321D01*
X-1240455Y-191411D01*
X-1241818Y-194139D01*
X-1244544Y-196866D01*
X-1247272Y-198230D01*
X-1252727Y-198230D01*
X-1255455Y-196866D01*
X-1258181Y-194139D01*
X-1259544Y-191411D01*
X-1268545Y-185957D02*
G01*
X-1293091Y-185957D01*
X-1313000Y-169592D02*
G01*
X-1302091Y-198230D01*
X-1313000Y-169592D02*
G01*
X-1323909Y-198230D01*
X-1306181Y-188684D02*
G01*
X-1319817Y-188684D01*
X-1355272Y-176411D02*
G01*
X-1355272Y-175048D01*
X-1356635Y-172321D01*
X-1358000Y-170957D01*
X-1360726Y-169592D01*
X-1366181Y-169592D01*
X-1368909Y-170957D01*
X-1370272Y-172321D01*
X-1371635Y-175048D01*
X-1371635Y-177775D01*
X-1370272Y-180502D01*
X-1367545Y-184592D01*
X-1353909Y-198230D01*
X-1373000Y-198230D01*
X-1390182Y-169592D02*
G01*
X-1386090Y-170957D01*
X-1383364Y-175048D01*
X-1381999Y-181866D01*
X-1381999Y-185957D01*
X-1383364Y-192775D01*
X-1386090Y-196866D01*
X-1390182Y-198230D01*
X-1392908Y-198230D01*
X-1396999Y-196866D01*
X-1399727Y-192775D01*
X-1401090Y-185957D01*
X-1401090Y-181866D01*
X-1399727Y-175048D01*
X-1396999Y-170957D01*
X-1392908Y-169592D01*
X-1390182Y-169592D01*
X-1411454Y-176411D02*
G01*
X-1411454Y-175048D01*
X-1412817Y-172321D01*
X-1414182Y-170957D01*
X-1416908Y-169592D01*
X-1422363Y-169592D01*
X-1425091Y-170957D01*
X-1426454Y-172321D01*
X-1427817Y-175048D01*
X-1427817Y-177775D01*
X-1426454Y-180502D01*
X-1423726Y-184592D01*
X-1410091Y-198230D01*
X-1429182Y-198230D01*
X-1455909Y-179139D02*
G01*
X-1454544Y-183230D01*
X-1451818Y-185957D01*
X-1447727Y-187321D01*
X-1446364Y-187321D01*
X-1442272Y-185957D01*
X-1439544Y-183230D01*
X-1438181Y-179139D01*
X-1438181Y-177775D01*
X-1439544Y-173684D01*
X-1442272Y-170957D01*
X-1446364Y-169592D01*
X-1447727Y-169592D01*
X-1451818Y-170957D01*
X-1454544Y-173684D01*
X-1455909Y-179139D01*
X-1455909Y-185957D01*
X-1454544Y-192775D01*
X-1451818Y-196866D01*
X-1447727Y-198230D01*
X-1445000Y-198230D01*
X-1440909Y-196866D01*
X-1439544Y-194139D01*
D10*
X-750000Y150033D02*
G01*
X-660000Y60033D01*
X-550000Y60033D01*
X-550000Y60000D01*
G36*
X-922500Y-152366D02*
G01*
X-537500Y-152366D01*
X-537500Y-217366D01*
X-922500Y-217366D01*
G37*
M02*
