G04 Layer: TopSilkscreenLayer*
G04 EasyEDA v6.5.1, 2022-03-25 19:20:23*
G04 2013efc8e0304d3594b03259707e7b04,2a3559ba94084103b258dd4c46581d95,10*
G04 Gerber Generator version 0.2*
G04 Scale: 100 percent, Rotated: No, Reflected: No *
G04 Dimensions in inches *
G04 leading zeros omitted , absolute positions ,3 integer and 6 decimal *
%FSLAX36Y36*%
%MOIN*%

%ADD10C,0.0100*%
%ADD12C,0.0060*%
%ADD31C,0.0059*%
%ADD32C,0.0079*%
%ADD33C,0.0059*%
%ADD34C,0.0079*%
%ADD35C,0.0040*%
%ADD36C,0.0039*%
%ADD37C,0.0050*%

%LPD*%
D37*
X-255273Y-136230D02*
G01*
X-233455Y-136230D01*
X-229364Y-137593D01*
X-228001Y-138957D01*
X-226637Y-141684D01*
X-226637Y-144411D01*
X-228001Y-147139D01*
X-229364Y-148502D01*
X-233455Y-149866D01*
X-236183Y-149866D01*
X-255273Y-127229D02*
G01*
X-226637Y-127229D01*
X-226637Y-127229D02*
G01*
X-226637Y-110866D01*
X-248455Y-81411D02*
G01*
X-251183Y-82775D01*
X-253909Y-85502D01*
X-255273Y-88230D01*
X-255273Y-93684D01*
X-253909Y-96411D01*
X-251183Y-99139D01*
X-248455Y-100502D01*
X-244364Y-101865D01*
X-237546Y-101865D01*
X-233455Y-100502D01*
X-230727Y-99139D01*
X-228001Y-96411D01*
X-226637Y-93684D01*
X-226637Y-88230D01*
X-228001Y-85502D01*
X-230727Y-82775D01*
X-233455Y-81411D01*
X-255273Y-58775D02*
G01*
X-233455Y-58775D01*
X-229364Y-60139D01*
X-228001Y-61502D01*
X-226637Y-64230D01*
X-226637Y-66957D01*
X-228001Y-69684D01*
X-229364Y-71048D01*
X-233455Y-72411D01*
X-236183Y-72411D01*
X-255273Y-49774D02*
G01*
X-226637Y-49774D01*
X-226637Y-49774D02*
G01*
X-226637Y-33411D01*
X-248455Y-3957D02*
G01*
X-251183Y-5321D01*
X-253909Y-8048D01*
X-255273Y-10775D01*
X-255273Y-16230D01*
X-253909Y-18957D01*
X-251183Y-21684D01*
X-248455Y-23048D01*
X-244364Y-24411D01*
X-237546Y-24411D01*
X-233455Y-23048D01*
X-230727Y-21684D01*
X-228001Y-18957D01*
X-226637Y-16230D01*
X-226637Y-10775D01*
X-228001Y-8048D01*
X-230727Y-5321D01*
X-233455Y-3957D01*
X-255273Y18678D02*
G01*
X-233455Y18678D01*
X-229364Y17315D01*
X-228001Y15951D01*
X-226637Y13224D01*
X-226637Y10497D01*
X-228001Y7770D01*
X-229364Y6406D01*
X-233455Y5042D01*
X-236183Y5042D01*
X-255273Y27678D02*
G01*
X-226637Y27678D01*
X-226637Y27678D02*
G01*
X-226637Y44042D01*
X-248455Y73497D02*
G01*
X-251183Y72133D01*
X-253909Y69406D01*
X-255273Y66678D01*
X-255273Y61224D01*
X-253909Y58497D01*
X-251183Y55769D01*
X-248455Y54406D01*
X-244364Y53042D01*
X-237546Y53042D01*
X-233455Y54406D01*
X-230727Y55769D01*
X-228001Y58497D01*
X-226637Y61224D01*
X-226637Y66678D01*
X-228001Y69406D01*
X-230727Y72133D01*
X-233455Y73497D01*
X-255273Y96133D02*
G01*
X-233455Y96133D01*
X-229364Y94769D01*
X-228001Y93406D01*
X-226637Y90679D01*
X-226637Y87952D01*
X-228001Y85225D01*
X-229364Y83860D01*
X-233455Y82497D01*
X-236183Y82497D01*
X-255273Y105133D02*
G01*
X-226637Y105133D01*
X-226637Y105133D02*
G01*
X-226637Y121497D01*
X-248455Y150951D02*
G01*
X-251183Y149588D01*
X-253909Y146860D01*
X-255273Y144133D01*
X-255273Y138678D01*
X-253909Y135951D01*
X-251183Y133224D01*
X-248455Y131860D01*
X-244364Y130497D01*
X-237546Y130497D01*
X-233455Y131860D01*
X-230727Y133224D01*
X-228001Y135951D01*
X-226637Y138678D01*
X-226637Y144133D01*
X-228001Y146860D01*
X-230727Y149588D01*
X-233455Y150951D01*
X-1149174Y62835D02*
G01*
X-1120573Y62835D01*
X-1120573Y62835D02*
G01*
X-1120573Y79235D01*
X-1149174Y88235D02*
G01*
X-1120573Y88235D01*
X-1149174Y88235D02*
G01*
X-1149174Y105935D01*
X-1135573Y88235D02*
G01*
X-1135573Y99135D01*
X-1120573Y88235D02*
G01*
X-1120573Y105935D01*
X-1149174Y114935D02*
G01*
X-1120573Y114935D01*
X-1149174Y114935D02*
G01*
X-1149174Y124435D01*
X-1147874Y128535D01*
X-1145074Y131335D01*
X-1142373Y132635D01*
X-1138274Y134035D01*
X-1131473Y134035D01*
X-1127373Y132635D01*
X-1124674Y131335D01*
X-1121974Y128535D01*
X-1120573Y124435D01*
X-1120573Y114935D01*
X-1143774Y143035D02*
G01*
X-1145074Y145735D01*
X-1149174Y149836D01*
X-1120573Y149836D01*
X-745000Y180234D02*
G01*
X-745000Y159833D01*
X-743599Y155733D01*
X-740900Y153033D01*
X-736800Y151633D01*
X-734099Y151633D01*
X-730000Y153033D01*
X-727299Y155733D01*
X-725900Y159833D01*
X-725900Y180234D01*
X-714200Y180234D02*
G01*
X-699200Y180234D01*
X-707399Y169333D01*
X-703299Y169333D01*
X-700500Y168033D01*
X-699200Y166633D01*
X-697799Y162533D01*
X-697799Y159833D01*
X-699200Y155733D01*
X-701899Y153033D01*
X-706000Y151633D01*
X-710100Y151633D01*
X-714200Y153033D01*
X-715500Y154333D01*
X-716899Y157133D01*
X-952370Y-51664D02*
G01*
X-955169Y-53064D01*
X-957870Y-55764D01*
X-959170Y-58564D01*
X-959170Y-63964D01*
X-957870Y-66664D01*
X-955169Y-69464D01*
X-952370Y-70764D01*
X-948270Y-72164D01*
X-941469Y-72164D01*
X-937370Y-70764D01*
X-934669Y-69464D01*
X-931970Y-66664D01*
X-930569Y-63964D01*
X-930569Y-58564D01*
X-931970Y-55764D01*
X-934669Y-53064D01*
X-937370Y-51664D01*
X-959170Y-29064D02*
G01*
X-940169Y-42663D01*
X-940169Y-22264D01*
X-959170Y-29064D02*
G01*
X-930569Y-29064D01*
X-920000Y190234D02*
G01*
X-920000Y169833D01*
X-918599Y165733D01*
X-915900Y163033D01*
X-911800Y161633D01*
X-909099Y161633D01*
X-905000Y163033D01*
X-902299Y165733D01*
X-900900Y169833D01*
X-900900Y190234D01*
X-891899Y184833D02*
G01*
X-889200Y186133D01*
X-885100Y190234D01*
X-885100Y161633D01*
X-1055000Y-159770D02*
G01*
X-1055000Y-180170D01*
X-1053599Y-184270D01*
X-1050900Y-186970D01*
X-1046800Y-188369D01*
X-1044099Y-188369D01*
X-1040000Y-186970D01*
X-1037299Y-184270D01*
X-1035900Y-180170D01*
X-1035900Y-159770D01*
X-1025500Y-166570D02*
G01*
X-1025500Y-165170D01*
X-1024200Y-162470D01*
X-1022799Y-161069D01*
X-1020100Y-159770D01*
X-1014600Y-159770D01*
X-1011899Y-161069D01*
X-1010500Y-162470D01*
X-1009200Y-165170D01*
X-1009200Y-167870D01*
X-1010500Y-170670D01*
X-1013299Y-174770D01*
X-1026899Y-188369D01*
X-1007799Y-188369D01*
X-1193370Y117797D02*
G01*
X-1164771Y117797D01*
X-1193370Y117797D02*
G01*
X-1193370Y130097D01*
X-1192070Y134197D01*
X-1190671Y135497D01*
X-1187970Y136897D01*
X-1185271Y136897D01*
X-1182470Y135497D01*
X-1181171Y134197D01*
X-1179771Y130097D01*
X-1179771Y117797D01*
X-1179771Y127297D02*
G01*
X-1164771Y136897D01*
X-1193370Y162297D02*
G01*
X-1193370Y148597D01*
X-1181171Y147297D01*
X-1182470Y148597D01*
X-1183870Y152698D01*
X-1183870Y156797D01*
X-1182470Y160897D01*
X-1179771Y163597D01*
X-1175671Y164997D01*
X-1172970Y164997D01*
X-1168870Y163597D01*
X-1166171Y160897D01*
X-1164771Y156797D01*
X-1164771Y152698D01*
X-1166171Y148597D01*
X-1167470Y147297D01*
X-1170271Y145897D01*
X-1230232Y-95001D02*
G01*
X-1201633Y-95001D01*
X-1230232Y-95001D02*
G01*
X-1230232Y-82701D01*
X-1228932Y-78601D01*
X-1227533Y-77301D01*
X-1224832Y-75901D01*
X-1222133Y-75901D01*
X-1219332Y-77301D01*
X-1218032Y-78601D01*
X-1216633Y-82701D01*
X-1216633Y-95001D01*
X-1216633Y-85501D02*
G01*
X-1201633Y-75901D01*
X-1230232Y-64201D02*
G01*
X-1230232Y-49201D01*
X-1219332Y-57400D01*
X-1219332Y-53301D01*
X-1218032Y-50501D01*
X-1216633Y-49201D01*
X-1212533Y-47801D01*
X-1209832Y-47801D01*
X-1205733Y-49201D01*
X-1203032Y-51901D01*
X-1201633Y-56001D01*
X-1201633Y-60100D01*
X-1203032Y-64201D01*
X-1204332Y-65501D01*
X-1207133Y-66901D01*
X-523429Y-59496D02*
G01*
X-526229Y-60896D01*
X-528930Y-63596D01*
X-530230Y-66395D01*
X-530230Y-71796D01*
X-528930Y-74496D01*
X-526229Y-77296D01*
X-523429Y-78596D01*
X-519329Y-79996D01*
X-512529Y-79996D01*
X-508429Y-78596D01*
X-505730Y-77296D01*
X-503029Y-74496D01*
X-501629Y-71796D01*
X-501629Y-66395D01*
X-503029Y-63596D01*
X-505730Y-60896D01*
X-508429Y-59496D01*
X-530230Y-34196D02*
G01*
X-530230Y-47796D01*
X-518029Y-49196D01*
X-519329Y-47796D01*
X-520730Y-43695D01*
X-520730Y-39596D01*
X-519329Y-35496D01*
X-516629Y-32796D01*
X-512529Y-31496D01*
X-509830Y-31496D01*
X-505730Y-32796D01*
X-503029Y-35496D01*
X-501629Y-39596D01*
X-501629Y-43695D01*
X-503029Y-47796D01*
X-504329Y-49196D01*
X-507129Y-50496D01*
X-973433Y190499D02*
G01*
X-976134Y189099D01*
X-978933Y186399D01*
X-980234Y183599D01*
X-980234Y178199D01*
X-978933Y175499D01*
X-976134Y172699D01*
X-973433Y171399D01*
X-969333Y170000D01*
X-962533Y170000D01*
X-958433Y171399D01*
X-955734Y172699D01*
X-953033Y175499D01*
X-951634Y178199D01*
X-951634Y183599D01*
X-953033Y186399D01*
X-955734Y189099D01*
X-958433Y190499D01*
X-974834Y199499D02*
G01*
X-976134Y202199D01*
X-980234Y206299D01*
X-951634Y206299D01*
X-904499Y-36570D02*
G01*
X-905900Y-33870D01*
X-908599Y-31069D01*
X-911400Y-29770D01*
X-916800Y-29770D01*
X-919499Y-31069D01*
X-922299Y-33870D01*
X-923599Y-36570D01*
X-925000Y-40670D01*
X-925000Y-47470D01*
X-923599Y-51570D01*
X-922299Y-54270D01*
X-919499Y-56970D01*
X-916800Y-58369D01*
X-911400Y-58369D01*
X-908599Y-56970D01*
X-905900Y-54270D01*
X-904499Y-51570D01*
X-894200Y-36570D02*
G01*
X-894200Y-35170D01*
X-892799Y-32470D01*
X-891499Y-31069D01*
X-888699Y-29770D01*
X-883299Y-29770D01*
X-880500Y-31069D01*
X-879200Y-32470D01*
X-877799Y-35170D01*
X-877799Y-37870D01*
X-879200Y-40670D01*
X-881899Y-44770D01*
X-895500Y-58369D01*
X-876499Y-58369D01*
X-1069499Y173418D02*
G01*
X-1070900Y176218D01*
X-1073599Y178918D01*
X-1076400Y180318D01*
X-1081800Y180318D01*
X-1084499Y178918D01*
X-1087299Y176218D01*
X-1088599Y173418D01*
X-1090000Y169319D01*
X-1090000Y162518D01*
X-1088599Y158418D01*
X-1087299Y155718D01*
X-1084499Y153018D01*
X-1081800Y151618D01*
X-1076400Y151618D01*
X-1073599Y153018D01*
X-1070900Y155718D01*
X-1069499Y158418D01*
X-1057799Y180318D02*
G01*
X-1042799Y180318D01*
X-1051000Y169319D01*
X-1046899Y169319D01*
X-1044200Y168018D01*
X-1042799Y166618D01*
X-1041499Y162518D01*
X-1041499Y159818D01*
X-1042799Y155718D01*
X-1045500Y153018D01*
X-1049600Y151618D01*
X-1053699Y151618D01*
X-1057799Y153018D01*
X-1059200Y154319D01*
X-1060500Y157118D01*
X-1065234Y190000D02*
G01*
X-1036634Y190000D01*
X-1065234Y190000D02*
G01*
X-1065234Y199499D01*
X-1063933Y203599D01*
X-1061134Y206399D01*
X-1058433Y207699D01*
X-1054333Y209099D01*
X-1047533Y209099D01*
X-1043433Y207699D01*
X-1040734Y206399D01*
X-1038033Y203599D01*
X-1036634Y199499D01*
X-1036634Y190000D01*
X-1059834Y218099D02*
G01*
X-1061134Y220799D01*
X-1065234Y224899D01*
X-1036634Y224899D01*
X-1130234Y-185000D02*
G01*
X-1101634Y-185000D01*
X-1130234Y-185000D02*
G01*
X-1130234Y-175500D01*
X-1128933Y-171400D01*
X-1126134Y-168600D01*
X-1123433Y-167300D01*
X-1119333Y-165900D01*
X-1112533Y-165900D01*
X-1108433Y-167300D01*
X-1105734Y-168600D01*
X-1103033Y-171400D01*
X-1101634Y-175500D01*
X-1101634Y-185000D01*
X-1123433Y-155500D02*
G01*
X-1124834Y-155500D01*
X-1127533Y-154200D01*
X-1128933Y-152800D01*
X-1130234Y-150100D01*
X-1130234Y-144600D01*
X-1128933Y-141900D01*
X-1127533Y-140500D01*
X-1124834Y-139200D01*
X-1122133Y-139200D01*
X-1119333Y-140500D01*
X-1115234Y-143300D01*
X-1101634Y-156900D01*
X-1101634Y-137800D01*
D10*
X-1103503Y-23187D02*
G01*
X-1112119Y-23187D01*
X-1147200Y11021D02*
G01*
X-1147200Y-10150D01*
X-1123188Y-10150D02*
G01*
X-1123188Y11021D01*
X-1103503Y24058D02*
G01*
X-1112119Y24058D01*
X-1147597Y10672D02*
G01*
X-1123999Y10672D01*
X-615000Y120133D02*
G01*
X-615000Y105144D01*
X-615000Y-64876D02*
G01*
X-615000Y-79866D01*
X-629989Y-79866D01*
X-800000Y-79866D02*
G01*
X-815000Y-79866D01*
X-815000Y-64876D01*
X-815000Y105133D02*
G01*
X-815000Y120133D01*
X-815000Y120133D02*
G01*
X-800010Y120133D01*
X-629989Y120133D02*
G01*
X-615000Y120133D01*
D31*
X-951390Y47118D02*
G01*
X-951390Y71529D01*
X-951390Y32943D02*
G01*
X-951390Y8537D01*
X-998635Y32943D02*
G01*
X-998635Y8537D01*
X-990762Y2628D02*
G01*
X-959266Y2628D01*
X-998635Y47118D02*
G01*
X-998635Y71529D01*
X-990762Y77433D02*
G01*
X-959266Y77433D01*
X-992727Y2628D02*
G01*
X-990762Y2628D01*
X-957299Y2628D02*
G01*
X-959266Y2628D01*
X-992731Y77433D02*
G01*
X-990762Y77433D01*
X-957294Y77433D02*
G01*
X-959266Y77433D01*
D32*
X-931340Y146299D02*
G01*
X-931340Y63659D01*
X-848659Y146299D02*
G01*
X-848659Y63659D01*
D33*
X-980000Y-10966D02*
G01*
X-971000Y-10966D01*
X-971000Y-128966D01*
X-980000Y-128966D01*
X-1078999Y-128966D02*
G01*
X-1088999Y-128966D01*
X-1088999Y-10966D01*
X-1078000Y-10966D01*
D12*
X-1163000Y77300D02*
G01*
X-1163000Y102300D01*
X-1196999Y102300D01*
X-1196999Y81299D01*
X-1196999Y77300D01*
X-1196999Y62300D02*
G01*
X-1196999Y38299D01*
X-1163000Y38299D01*
X-1163000Y59299D01*
X-1163000Y62300D01*
X-1198000Y2300D02*
G01*
X-1198000Y27300D01*
X-1231999Y27300D01*
X-1231999Y6299D01*
X-1231999Y2300D01*
X-1231999Y-12699D02*
G01*
X-1231999Y-36700D01*
X-1198000Y-36700D01*
X-1198000Y-15700D01*
X-1198000Y-12699D01*
X-581999Y-62300D02*
G01*
X-581999Y-87300D01*
X-548000Y-87300D01*
X-548000Y-66300D01*
X-548000Y-62300D01*
X-548000Y-47300D02*
G01*
X-548000Y-23300D01*
X-581999Y-23300D01*
X-581999Y-44300D01*
X-581999Y-47300D01*
D31*
X-941374Y122084D02*
G01*
X-941374Y146495D01*
X-941374Y107909D02*
G01*
X-941374Y83503D01*
X-988621Y107909D02*
G01*
X-988621Y83503D01*
X-980747Y77594D02*
G01*
X-949251Y77594D01*
X-988621Y122084D02*
G01*
X-988621Y146495D01*
X-980747Y152399D02*
G01*
X-949251Y152399D01*
X-982712Y77594D02*
G01*
X-980747Y77594D01*
X-947283Y77594D02*
G01*
X-949251Y77594D01*
X-982717Y152399D02*
G01*
X-980747Y152399D01*
X-947278Y152399D02*
G01*
X-949251Y152399D01*
X-887915Y-8625D02*
G01*
X-863504Y-8625D01*
X-902089Y-8625D02*
G01*
X-926495Y-8625D01*
X-902089Y38620D02*
G01*
X-926495Y38620D01*
X-932404Y30746D02*
G01*
X-932404Y-748D01*
X-887915Y38620D02*
G01*
X-863504Y38620D01*
X-857600Y30746D02*
G01*
X-857600Y-748D01*
X-932404Y32711D02*
G01*
X-932404Y30746D01*
X-932404Y-2716D02*
G01*
X-932404Y-748D01*
X-857600Y32716D02*
G01*
X-857600Y30746D01*
X-857600Y-2721D02*
G01*
X-857600Y-748D01*
X-1057084Y48624D02*
G01*
X-1081495Y48624D01*
X-1042910Y48624D02*
G01*
X-1018504Y48624D01*
X-1042910Y1378D02*
G01*
X-1018504Y1378D01*
X-1012595Y9252D02*
G01*
X-1012595Y40747D01*
X-1057084Y1378D02*
G01*
X-1081495Y1378D01*
X-1087399Y9252D02*
G01*
X-1087399Y40747D01*
X-1012595Y7287D02*
G01*
X-1012595Y9252D01*
X-1012595Y42716D02*
G01*
X-1012595Y40747D01*
X-1087399Y7282D02*
G01*
X-1087399Y9252D01*
X-1087399Y42720D02*
G01*
X-1087399Y40747D01*
D34*
X-1077559Y51693D02*
G01*
X-1022440Y51693D01*
X-1077559Y138306D02*
G01*
X-1022440Y138306D01*
D35*
X-1095315Y-96063D02*
G01*
X-1095315Y-72441D01*
X-1102030Y-72441D01*
X-1127969Y-72441D02*
G01*
X-1134684Y-72441D01*
X-1134684Y-96063D01*
X-1095315Y-103937D02*
G01*
X-1095315Y-127559D01*
X-1102025Y-127559D01*
X-1127974Y-127559D02*
G01*
X-1134684Y-127559D01*
X-1134684Y-103937D01*
D31*
G75*
G01*
X-998636Y8538D02*
G03*
X-992727Y2629I5909J0D01*
G75*
G01*
X-951390Y8538D02*
G02*
X-957299Y2629I-5909J0D01*
G75*
G01*
X-998636Y71530D02*
G02*
X-992732Y77434I5904J0D01*
G75*
G01*
X-951390Y71530D02*
G03*
X-957294Y77434I-5904J0D01*
D36*
G75*
G01*
X-974950Y-3887D02*
G03*
X-975050Y-3887I-50J4921D01*
D31*
G75*
G01*
X-988621Y83504D02*
G03*
X-982712Y77595I5909J0D01*
G75*
G01*
X-941375Y83504D02*
G02*
X-947284Y77595I-5909J0D01*
G75*
G01*
X-988621Y146496D02*
G02*
X-982717Y152400I5904J0D01*
G75*
G01*
X-941375Y146496D02*
G03*
X-947279Y152400I-5904J0D01*
G75*
G01*
X-926496Y38621D02*
G03*
X-932405Y32712I0J-5909D01*
G75*
G01*
X-926496Y-8625D02*
G02*
X-932405Y-2716I0J5909D01*
G75*
G01*
X-863504Y38621D02*
G02*
X-857600Y32717I0J-5904D01*
G75*
G01*
X-863504Y-8625D02*
G03*
X-857600Y-2721I0J5904D01*
G75*
G01*
X-1018504Y1379D02*
G03*
X-1012595Y7288I0J5909D01*
G75*
G01*
X-1018504Y48625D02*
G02*
X-1012595Y42716I0J-5909D01*
G75*
G01*
X-1081496Y1379D02*
G02*
X-1087400Y7283I0J5904D01*
G75*
G01*
X-1081496Y48625D02*
G03*
X-1087400Y42721I0J-5904D01*
D34*
G75*
G01*
X-1007050Y51921D02*
G03*
X-1006950Y51921I50J-4921D01*
D10*
G75*
G01
X-815000Y125134D02*
G03X-815000Y125134I-5000J0D01*
G75*
G01
X-846500Y156004D02*
G03X-846500Y156004I-2500J0D01*
M02*
