G04 Layer: TopPasteMaskLayer*
G04 EasyEDA v6.5.1, 2022-03-25 19:20:23*
G04 2013efc8e0304d3594b03259707e7b04,2a3559ba94084103b258dd4c46581d95,10*
G04 Gerber Generator version 0.2*
G04 Scale: 100 percent, Rotated: No, Reflected: No *
G04 Dimensions in inches *
G04 leading zeros omitted , absolute positions ,3 integer and 6 decimal *
%FSLAX36Y36*%
%MOIN*%

%ADD11C,0.0098*%
%ADD17R,0.1358X0.1358*%
%ADD18R,0.0118X0.0236*%
%ADD19R,0.0236X0.0118*%
%ADD20R,0.0315X0.0197*%
%ADD21R,0.0630X0.0394*%
%ADD23R,0.0906X0.0591*%
%ADD24R,0.0256X0.0236*%
%ADD25R,0.0197X0.0315*%
%ADD26R,0.0236X0.0165*%
%ADD27R,0.0236X0.0157*%

%LPD*%
D11*
X-990600Y-116228D02*
G01*
X-990600Y-133944D01*
X-1010299Y-116228D02*
G01*
X-1010299Y-133944D01*
X-1030000Y-116228D02*
G01*
X-1030000Y-133944D01*
X-1049700Y-116228D02*
G01*
X-1049700Y-133944D01*
X-1069399Y-116228D02*
G01*
X-1069399Y-133944D01*
X-1069399Y-23704D02*
G01*
X-1069399Y-5988D01*
X-1049700Y-23704D02*
G01*
X-1049700Y-5988D01*
X-1030000Y-23704D02*
G01*
X-1030000Y-5988D01*
X-1010299Y-23704D02*
G01*
X-1010299Y-5988D01*
X-990600Y-23704D02*
G01*
X-990600Y-5988D01*
G36*
X-1148779Y51616D02*
G01*
X-1148779Y20120D01*
X-1121220Y20120D01*
X-1121220Y51616D01*
G37*
G36*
X-1148779Y-19248D02*
G01*
X-1148779Y-50745D01*
X-1121220Y-50745D01*
X-1121220Y-19248D01*
G37*
D17*
G01*
X-715000Y20133D03*
D18*
G01*
X-783900Y120133D03*
G01*
X-764210Y120133D03*
G01*
X-744530Y120133D03*
G01*
X-724840Y120133D03*
G01*
X-705159Y120133D03*
G01*
X-685469Y120133D03*
G01*
X-665789Y120133D03*
G01*
X-646099Y120133D03*
D19*
G01*
X-615000Y89033D03*
G01*
X-615000Y69343D03*
G01*
X-615000Y49663D03*
G01*
X-615000Y29973D03*
G01*
X-615000Y10293D03*
G01*
X-615000Y-9396D03*
G01*
X-615000Y-29076D03*
G01*
X-615000Y-48766D03*
D18*
G01*
X-646109Y-79866D03*
G01*
X-665789Y-79866D03*
G01*
X-685479Y-79866D03*
G01*
X-705159Y-79866D03*
G01*
X-724849Y-79866D03*
G01*
X-744530Y-79866D03*
G01*
X-764219Y-79866D03*
G01*
X-783900Y-79866D03*
G36*
X-826809Y-42854D02*
G01*
X-803190Y-42854D01*
X-803190Y-54663D01*
X-826809Y-54663D01*
G37*
G36*
X-826809Y-23169D02*
G01*
X-803190Y-23169D01*
X-803190Y-34979D01*
X-826809Y-34979D01*
G37*
G36*
X-826809Y-3484D02*
G01*
X-803190Y-3484D01*
X-803190Y-15294D01*
X-826809Y-15294D01*
G37*
G36*
X-826809Y16200D02*
G01*
X-803190Y16200D01*
X-803190Y4390D01*
X-826809Y4390D01*
G37*
G36*
X-826809Y35886D02*
G01*
X-803190Y35886D01*
X-803190Y24076D01*
X-826809Y24076D01*
G37*
G36*
X-826809Y55571D02*
G01*
X-803190Y55571D01*
X-803190Y43761D01*
X-826809Y43761D01*
G37*
G36*
X-826809Y75256D02*
G01*
X-803190Y75256D01*
X-803190Y63446D01*
X-826809Y63446D01*
G37*
G36*
X-826809Y94941D02*
G01*
X-803190Y94941D01*
X-803190Y83131D01*
X-826809Y83131D01*
G37*
D20*
G01*
X-975010Y20353D03*
G01*
X-975010Y59723D03*
D21*
G01*
X-890000Y105003D03*
G36*
X-869906Y75471D02*
G01*
X-858094Y75471D01*
X-858094Y57755D01*
X-869906Y57755D01*
G37*
G36*
X-895906Y75471D02*
G01*
X-884094Y75471D01*
X-884094Y57755D01*
X-895906Y57755D01*
G37*
G36*
X-921905Y75471D02*
G01*
X-910095Y75471D01*
X-910095Y57755D01*
X-921905Y57755D01*
G37*
G36*
X-921905Y152243D02*
G01*
X-910095Y152243D01*
X-910095Y134526D01*
X-921905Y134526D01*
G37*
G36*
X-895906Y152243D02*
G01*
X-884094Y152243D01*
X-884094Y134526D01*
X-895906Y134526D01*
G37*
G36*
X-869906Y152243D02*
G01*
X-858094Y152243D01*
X-858094Y134526D01*
X-869906Y134526D01*
G37*
D23*
G01*
X-1030000Y-69966D03*
D24*
G01*
X-1180000Y53303D03*
G01*
X-1180000Y86703D03*
G01*
X-1215000Y-21696D03*
G01*
X-1215000Y11703D03*
G01*
X-565000Y-38296D03*
G01*
X-565000Y-71696D03*
D20*
G01*
X-965000Y95313D03*
G01*
X-965000Y134683D03*
G36*
X-924524Y30744D02*
G01*
X-904839Y30744D01*
X-904839Y-751D01*
X-924524Y-751D01*
G37*
G36*
X-885154Y30744D02*
G01*
X-865469Y30744D01*
X-865469Y-751D01*
X-885154Y-751D01*
G37*
D25*
G01*
X-1030320Y25003D03*
G01*
X-1069690Y25003D03*
D26*
G01*
X-1087399Y69413D03*
G01*
X-1087399Y95003D03*
G01*
X-1087399Y120593D03*
G01*
X-1012600Y120593D03*
G01*
X-1012600Y95003D03*
G01*
X-1012600Y69413D03*
D27*
G01*
X-1115000Y-86226D03*
G01*
X-1115000Y-113776D03*
M02*
