G04 Layer: BottomSolderMaskLayer*
G04 EasyEDA v6.3.53, 2020-06-10T18:14:14+08:00*
G04 70510a8a35ed4085a1cd130cdd61ad63,2a3559ba94084103b258dd4c46581d95,10*
G04 Gerber Generator version 0.2*
G04 Scale: 100 percent, Rotated: No, Reflected: No *
G04 Dimensions in inches *
G04 leading zeros omitted , absolute positions ,2 integer and 4 decimal *
%FSLAX24Y24*%
%MOIN*%
G90*
G70D02*

%ADD31C,0.110000*%
%ADD42C,0.208000*%
%ADD43C,0.032000*%

%LPD*%
G54D42*
G01X2406Y4867D03*
G54D43*
G01X10756Y5716D03*
G01X10506Y5916D03*
G01X10256Y6116D03*
G01X7806Y4166D03*
G01X11006Y5466D03*
G01X8706Y6467D03*
G36*
G01X8433Y4407D02*
G01X8433Y4987D01*
G01X9013Y4987D01*
G01X9013Y4407D01*
G01X8433Y4407D01*
G37*
G54D31*
G75*
G01X6157Y4868D02*
G03X6157Y4868I-850J0D01*
G01*

%LPD*%
G36*
G01X16226Y6627D02*
G01X12986Y6627D01*
G01X12986Y5847D01*
G01X16226Y5847D01*
G01X16226Y6627D01*
G37*

%LPD*%
G36*
G01X16226Y3867D02*
G01X12986Y3867D01*
G01X12986Y3087D01*
G01X16226Y3087D01*
G01X16226Y3867D01*
G37*

%LPD*%
G36*
G01X16026Y5707D02*
G01X12986Y5707D01*
G01X12986Y4927D01*
G01X16026Y4927D01*
G01X16026Y5707D01*
G37*

%LPD*%
G36*
G01X16026Y4797D02*
G01X12986Y4797D01*
G01X12986Y4017D01*
G01X16026Y4017D01*
G01X16026Y4797D01*
G37*

%LPD*%
G36*
G01X5606Y5165D02*
G01X5006Y5165D01*
G01X5006Y4565D01*
G01X5606Y4565D01*
G01X5606Y5165D01*
G37*
M00*
M02*
