G04 Layer: BottomSilkLayer*
G04 EasyEDA v6.3.53, 2020-06-10T18:14:14+08:00*
G04 70510a8a35ed4085a1cd130cdd61ad63,2a3559ba94084103b258dd4c46581d95,10*
G04 Gerber Generator version 0.2*
G04 Scale: 100 percent, Rotated: No, Reflected: No *
G04 Dimensions in inches *
G04 leading zeros omitted , absolute positions ,2 integer and 4 decimal *
%FSLAX24Y24*%
%MOIN*%
G90*
G70D02*

%ADD10C,0.010000*%
%ADD40C,0.005000*%

%LPD*%
G54D10*
G01X8856Y6366D02*
G01X9756Y5466D01*
G01X10856Y5466D01*
G01X10856Y5466D01*
G54D40*
G01X6502Y3102D02*
G01X6515Y3129D01*
G01X6543Y3156D01*
G01X6570Y3170D01*
G01X6624Y3170D01*
G01X6652Y3156D01*
G01X6679Y3129D01*
G01X6693Y3102D01*
G01X6706Y3061D01*
G01X6706Y2993D01*
G01X6693Y2952D01*
G01X6679Y2925D01*
G01X6652Y2897D01*
G01X6624Y2884D01*
G01X6570Y2884D01*
G01X6543Y2897D01*
G01X6515Y2925D01*
G01X6502Y2952D01*
G01X6248Y3075D02*
G01X6248Y2884D01*
G01X6248Y3034D02*
G01X6275Y3061D01*
G01X6303Y3075D01*
G01X6343Y3075D01*
G01X6371Y3061D01*
G01X6398Y3034D01*
G01X6412Y2993D01*
G01X6412Y2966D01*
G01X6398Y2925D01*
G01X6371Y2897D01*
G01X6343Y2884D01*
G01X6303Y2884D01*
G01X6275Y2897D01*
G01X6248Y2925D01*
G01X6158Y3075D02*
G01X6158Y2884D01*
G01X6158Y3020D02*
G01X6117Y3061D01*
G01X6090Y3075D01*
G01X6049Y3075D01*
G01X6022Y3061D01*
G01X6008Y3020D01*
G01X6008Y2884D01*
G01X5850Y3075D02*
G01X5877Y3061D01*
G01X5904Y3034D01*
G01X5918Y2993D01*
G01X5918Y2966D01*
G01X5904Y2925D01*
G01X5877Y2897D01*
G01X5850Y2884D01*
G01X5809Y2884D01*
G01X5782Y2897D01*
G01X5754Y2925D01*
G01X5741Y2966D01*
G01X5741Y2993D01*
G01X5754Y3034D01*
G01X5782Y3061D01*
G01X5809Y3075D01*
G01X5850Y3075D01*
G01X5651Y3170D02*
G01X5651Y2884D01*
G01X5514Y3075D02*
G01X5651Y2938D01*
G01X5596Y2993D02*
G01X5501Y2884D01*
G01X5411Y2993D02*
G01X5247Y2993D01*
G01X5247Y3020D01*
G01X5261Y3047D01*
G01X5274Y3061D01*
G01X5302Y3075D01*
G01X5343Y3075D01*
G01X5370Y3061D01*
G01X5397Y3034D01*
G01X5411Y2993D01*
G01X5411Y2966D01*
G01X5397Y2925D01*
G01X5370Y2897D01*
G01X5343Y2884D01*
G01X5302Y2884D01*
G01X5274Y2897D01*
G01X5247Y2925D01*
G01X5143Y3075D02*
G01X5062Y2884D01*
G01X4980Y3075D02*
G01X5062Y2884D01*
G01X5089Y2829D01*
G01X5116Y2802D01*
G01X5143Y2788D01*
G01X5157Y2788D01*
G01X4890Y3006D02*
G01X4644Y3006D01*
G01X4554Y3170D02*
G01X4554Y2884D01*
G01X4554Y3170D02*
G01X4363Y2884D01*
G01X4363Y3170D02*
G01X4363Y2884D01*
G01X4273Y3170D02*
G01X4273Y2884D01*
G01X4273Y3170D02*
G01X4096Y3170D01*
G01X4273Y3034D02*
G01X4164Y3034D01*
G01X3802Y3102D02*
G01X3815Y3129D01*
G01X3843Y3156D01*
G01X3870Y3170D01*
G01X3924Y3170D01*
G01X3952Y3156D01*
G01X3979Y3129D01*
G01X3993Y3102D01*
G01X4006Y3061D01*
G01X4006Y2993D01*
G01X3993Y2952D01*
G01X3979Y2925D01*
G01X3952Y2897D01*
G01X3924Y2884D01*
G01X3870Y2884D01*
G01X3843Y2897D01*
G01X3815Y2925D01*
G01X3802Y2952D01*
G01X3488Y3102D02*
G01X3488Y3116D01*
G01X3474Y3143D01*
G01X3461Y3156D01*
G01X3434Y3170D01*
G01X3379Y3170D01*
G01X3352Y3156D01*
G01X3338Y3143D01*
G01X3324Y3116D01*
G01X3324Y3088D01*
G01X3338Y3061D01*
G01X3365Y3020D01*
G01X3502Y2884D01*
G01X3311Y2884D01*
G01X3139Y3170D02*
G01X3180Y3156D01*
G01X3207Y3116D01*
G01X3221Y3047D01*
G01X3221Y3006D01*
G01X3207Y2938D01*
G01X3180Y2897D01*
G01X3139Y2884D01*
G01X3112Y2884D01*
G01X3071Y2897D01*
G01X3043Y2938D01*
G01X3030Y3006D01*
G01X3030Y3047D01*
G01X3043Y3116D01*
G01X3071Y3156D01*
G01X3112Y3170D01*
G01X3139Y3170D01*
G01X2926Y3102D02*
G01X2926Y3116D01*
G01X2913Y3143D01*
G01X2899Y3156D01*
G01X2872Y3170D01*
G01X2817Y3170D01*
G01X2790Y3156D01*
G01X2776Y3143D01*
G01X2763Y3116D01*
G01X2763Y3088D01*
G01X2776Y3061D01*
G01X2803Y3020D01*
G01X2940Y2884D01*
G01X2749Y2884D01*
G01X2645Y3102D02*
G01X2645Y3116D01*
G01X2632Y3143D01*
G01X2618Y3156D01*
G01X2591Y3170D01*
G01X2536Y3170D01*
G01X2509Y3156D01*
G01X2495Y3143D01*
G01X2482Y3116D01*
G01X2482Y3088D01*
G01X2495Y3061D01*
G01X2523Y3020D01*
G01X2659Y2884D01*
G01X2468Y2884D01*
G36*
G01X7131Y3342D02*
G01X10981Y3342D01*
G01X10981Y2692D01*
G01X7131Y2692D01*
G01X7131Y3342D01*
G37*
M00*
M02*
