G04 Layer: TopSolderMaskLayer*
G04 EasyEDA v6.3.53, 2020-06-11T09:01:32+08:00*
G04 0ec445aeefb94f869c071092b8584159,2a3559ba94084103b258dd4c46581d95,10*
G04 Gerber Generator version 0.2*
G04 Scale: 100 percent, Rotated: No, Reflected: No *
G04 Dimensions in inches *
G04 leading zeros omitted , absolute positions ,2 integer and 4 decimal *
%FSLAX24Y24*%
%MOIN*%
G90*
G70D02*

%ADD28C,0.088000*%

%LPD*%
G54D28*
G01X788Y9300D02*
G01X788Y8100D01*
G01X788Y3200D02*
G01X788Y2000D01*
G36*
G01X2869Y8080D02*
G01X2869Y9519D01*
G01X4307Y9519D01*
G01X4307Y8080D01*
G01X2869Y8080D01*
G37*
G36*
G01X2800Y9642D02*
G01X2800Y9957D01*
G01X2998Y9957D01*
G01X2998Y9642D01*
G01X2800Y9642D01*
G37*
G36*
G01X2997Y9642D02*
G01X2997Y9957D01*
G01X3195Y9957D01*
G01X3195Y9642D01*
G01X2997Y9642D01*
G37*
G36*
G01X3194Y9642D02*
G01X3194Y9957D01*
G01X3392Y9957D01*
G01X3392Y9642D01*
G01X3194Y9642D01*
G37*
G36*
G01X3390Y9642D02*
G01X3390Y9957D01*
G01X3589Y9957D01*
G01X3589Y9642D01*
G01X3390Y9642D01*
G37*
G36*
G01X3587Y9642D02*
G01X3587Y9957D01*
G01X3786Y9957D01*
G01X3786Y9642D01*
G01X3587Y9642D01*
G37*
G36*
G01X3784Y9642D02*
G01X3784Y9957D01*
G01X3982Y9957D01*
G01X3982Y9642D01*
G01X3784Y9642D01*
G37*
G36*
G01X3981Y9642D02*
G01X3981Y9957D01*
G01X4179Y9957D01*
G01X4179Y9642D01*
G01X3981Y9642D01*
G37*
G36*
G01X4178Y9642D02*
G01X4178Y9957D01*
G01X4376Y9957D01*
G01X4376Y9642D01*
G01X4178Y9642D01*
G37*
G36*
G01X4430Y9390D02*
G01X4430Y9588D01*
G01X4746Y9588D01*
G01X4746Y9390D01*
G01X4430Y9390D01*
G37*
G36*
G01X4430Y9192D02*
G01X4430Y9390D01*
G01X4746Y9390D01*
G01X4746Y9192D01*
G01X4430Y9192D01*
G37*
G36*
G01X4430Y8996D02*
G01X4430Y9194D01*
G01X4746Y9194D01*
G01X4746Y8996D01*
G01X4430Y8996D01*
G37*
G36*
G01X4430Y8798D02*
G01X4430Y8998D01*
G01X4746Y8998D01*
G01X4746Y8798D01*
G01X4430Y8798D01*
G37*
G36*
G01X4430Y8601D02*
G01X4430Y8801D01*
G01X4746Y8801D01*
G01X4746Y8601D01*
G01X4430Y8601D01*
G37*
G36*
G01X4430Y8405D02*
G01X4430Y8603D01*
G01X4746Y8603D01*
G01X4746Y8405D01*
G01X4430Y8405D01*
G37*
G36*
G01X4430Y8209D02*
G01X4430Y8407D01*
G01X4746Y8407D01*
G01X4746Y8209D01*
G01X4430Y8209D01*
G37*
G36*
G01X4430Y8011D02*
G01X4430Y8209D01*
G01X4746Y8209D01*
G01X4746Y8011D01*
G01X4430Y8011D01*
G37*
G36*
G01X4178Y7642D02*
G01X4178Y7957D01*
G01X4376Y7957D01*
G01X4376Y7642D01*
G01X4178Y7642D01*
G37*
G36*
G01X3981Y7642D02*
G01X3981Y7957D01*
G01X4179Y7957D01*
G01X4179Y7642D01*
G01X3981Y7642D01*
G37*
G36*
G01X3784Y7642D02*
G01X3784Y7957D01*
G01X3982Y7957D01*
G01X3982Y7642D01*
G01X3784Y7642D01*
G37*
G36*
G01X3587Y7642D02*
G01X3587Y7957D01*
G01X3785Y7957D01*
G01X3785Y7642D01*
G01X3587Y7642D01*
G37*
G36*
G01X3390Y7642D02*
G01X3390Y7957D01*
G01X3589Y7957D01*
G01X3589Y7642D01*
G01X3390Y7642D01*
G37*
G36*
G01X3194Y7642D02*
G01X3194Y7957D01*
G01X3392Y7957D01*
G01X3392Y7642D01*
G01X3194Y7642D01*
G37*
G36*
G01X2997Y7642D02*
G01X2997Y7957D01*
G01X3195Y7957D01*
G01X3195Y7642D01*
G01X2997Y7642D01*
G37*
G36*
G01X2800Y7642D02*
G01X2800Y7957D01*
G01X2998Y7957D01*
G01X2998Y7642D01*
G01X2800Y7642D01*
G37*
G36*
G01X2430Y8011D02*
G01X2430Y8209D01*
G01X2746Y8209D01*
G01X2746Y8011D01*
G01X2430Y8011D01*
G37*
G36*
G01X2430Y8209D02*
G01X2430Y8407D01*
G01X2746Y8407D01*
G01X2746Y8209D01*
G01X2430Y8209D01*
G37*
G36*
G01X2430Y8405D02*
G01X2430Y8603D01*
G01X2746Y8603D01*
G01X2746Y8405D01*
G01X2430Y8405D01*
G37*
G36*
G01X2430Y8603D02*
G01X2430Y8801D01*
G01X2746Y8801D01*
G01X2746Y8603D01*
G01X2430Y8603D01*
G37*
G36*
G01X2430Y8798D02*
G01X2430Y8998D01*
G01X2746Y8998D01*
G01X2746Y8798D01*
G01X2430Y8798D01*
G37*
G36*
G01X2430Y8996D02*
G01X2430Y9194D01*
G01X2746Y9194D01*
G01X2746Y8996D01*
G01X2430Y8996D01*
G37*
G36*
G01X2430Y9192D02*
G01X2430Y9390D01*
G01X2746Y9390D01*
G01X2746Y9192D01*
G01X2430Y9192D01*
G37*
G36*
G01X2430Y9390D02*
G01X2430Y9588D01*
G01X2746Y9588D01*
G01X2746Y9390D01*
G01X2430Y9390D01*
G37*
G36*
G01X3101Y6694D02*
G01X3101Y7405D01*
G01X3575Y7405D01*
G01X3575Y6694D01*
G01X3101Y6694D01*
G37*
G36*
G01X3593Y7211D02*
G01X3593Y7409D01*
G01X3850Y7409D01*
G01X3850Y7211D01*
G01X3593Y7211D01*
G37*
G36*
G01X3593Y6951D02*
G01X3593Y7148D01*
G01X3850Y7148D01*
G01X3850Y6951D01*
G01X3593Y6951D01*
G37*
G36*
G01X3593Y6690D02*
G01X3593Y6888D01*
G01X3850Y6888D01*
G01X3850Y6690D01*
G01X3593Y6690D01*
G37*
G36*
G01X2826Y6690D02*
G01X2826Y6888D01*
G01X3083Y6888D01*
G01X3083Y6690D01*
G01X2826Y6690D01*
G37*
G36*
G01X2826Y6951D02*
G01X2826Y7148D01*
G01X3083Y7148D01*
G01X3083Y6951D01*
G01X2826Y6951D01*
G37*
G36*
G01X2826Y7211D02*
G01X2826Y7409D01*
G01X3083Y7409D01*
G01X3083Y7211D01*
G01X2826Y7211D01*
G37*
G36*
G01X3920Y6825D02*
G01X3920Y7140D01*
G01X4256Y7140D01*
G01X4256Y6825D01*
G01X3920Y6825D01*
G37*
G36*
G01X3920Y7159D02*
G01X3920Y7475D01*
G01X4256Y7475D01*
G01X4256Y7159D01*
G01X3920Y7159D01*
G37*
G36*
G01X2320Y6825D02*
G01X2320Y7140D01*
G01X2656Y7140D01*
G01X2656Y6825D01*
G01X2320Y6825D01*
G37*
G36*
G01X2320Y7159D02*
G01X2320Y7475D01*
G01X2656Y7475D01*
G01X2656Y7159D01*
G01X2320Y7159D01*
G37*
G36*
G01X3113Y10132D02*
G01X3113Y10467D01*
G01X3429Y10467D01*
G01X3429Y10132D01*
G01X3113Y10132D01*
G37*
G36*
G01X3447Y10132D02*
G01X3447Y10467D01*
G01X3763Y10467D01*
G01X3763Y10132D01*
G01X3447Y10132D01*
G37*
G36*
G01X2363Y10132D02*
G01X2363Y10467D01*
G01X2679Y10467D01*
G01X2679Y10132D01*
G01X2363Y10132D01*
G37*
G36*
G01X2697Y10132D02*
G01X2697Y10467D01*
G01X3013Y10467D01*
G01X3013Y10132D01*
G01X2697Y10132D01*
G37*
G36*
G01X4370Y6825D02*
G01X4370Y7140D01*
G01X4706Y7140D01*
G01X4706Y6825D01*
G01X4370Y6825D01*
G37*
G36*
G01X4370Y7159D02*
G01X4370Y7475D01*
G01X4706Y7475D01*
G01X4706Y7159D01*
G01X4370Y7159D01*
G37*
G36*
G01X4397Y10132D02*
G01X4397Y10467D01*
G01X4713Y10467D01*
G01X4713Y10132D01*
G01X4397Y10132D01*
G37*
G36*
G01X4063Y10132D02*
G01X4063Y10467D01*
G01X4379Y10467D01*
G01X4379Y10132D01*
G01X4063Y10132D01*
G37*
G36*
G01X1653Y8780D02*
G01X1653Y9290D01*
G01X2123Y9290D01*
G01X2123Y8780D01*
G01X1653Y8780D01*
G37*
G36*
G01X1653Y8109D02*
G01X1653Y8619D01*
G01X2123Y8619D01*
G01X2123Y8109D01*
G01X1653Y8109D01*
G37*
G36*
G01X1653Y2680D02*
G01X1653Y3190D01*
G01X2123Y3190D01*
G01X2123Y2680D01*
G01X1653Y2680D01*
G37*
G36*
G01X1653Y2009D02*
G01X1653Y2519D01*
G01X2123Y2519D01*
G01X2123Y2009D01*
G01X1653Y2009D01*
G37*
G36*
G01X4397Y4032D02*
G01X4397Y4367D01*
G01X4713Y4367D01*
G01X4713Y4032D01*
G01X4397Y4032D01*
G37*
G36*
G01X4063Y4032D02*
G01X4063Y4367D01*
G01X4379Y4367D01*
G01X4379Y4032D01*
G01X4063Y4032D01*
G37*
G36*
G01X4370Y725D02*
G01X4370Y1040D01*
G01X4706Y1040D01*
G01X4706Y725D01*
G01X4370Y725D01*
G37*
G36*
G01X4370Y1059D02*
G01X4370Y1375D01*
G01X4706Y1375D01*
G01X4706Y1059D01*
G01X4370Y1059D01*
G37*
G36*
G01X2363Y4032D02*
G01X2363Y4367D01*
G01X2679Y4367D01*
G01X2679Y4032D01*
G01X2363Y4032D01*
G37*
G36*
G01X2697Y4032D02*
G01X2697Y4367D01*
G01X3013Y4367D01*
G01X3013Y4032D01*
G01X2697Y4032D01*
G37*
G36*
G01X3113Y4032D02*
G01X3113Y4367D01*
G01X3429Y4367D01*
G01X3429Y4032D01*
G01X3113Y4032D01*
G37*
G36*
G01X3447Y4032D02*
G01X3447Y4367D01*
G01X3763Y4367D01*
G01X3763Y4032D01*
G01X3447Y4032D01*
G37*
G36*
G01X2320Y725D02*
G01X2320Y1040D01*
G01X2656Y1040D01*
G01X2656Y725D01*
G01X2320Y725D01*
G37*
G36*
G01X2320Y1059D02*
G01X2320Y1375D01*
G01X2656Y1375D01*
G01X2656Y1059D01*
G01X2320Y1059D01*
G37*
G36*
G01X3920Y725D02*
G01X3920Y1040D01*
G01X4256Y1040D01*
G01X4256Y725D01*
G01X3920Y725D01*
G37*
G36*
G01X3920Y1059D02*
G01X3920Y1375D01*
G01X4256Y1375D01*
G01X4256Y1059D01*
G01X3920Y1059D01*
G37*
G36*
G01X3101Y594D02*
G01X3101Y1305D01*
G01X3575Y1305D01*
G01X3575Y594D01*
G01X3101Y594D01*
G37*
G36*
G01X3593Y1111D02*
G01X3593Y1309D01*
G01X3850Y1309D01*
G01X3850Y1111D01*
G01X3593Y1111D01*
G37*
G36*
G01X3593Y851D02*
G01X3593Y1048D01*
G01X3850Y1048D01*
G01X3850Y851D01*
G01X3593Y851D01*
G37*
G36*
G01X3593Y590D02*
G01X3593Y788D01*
G01X3850Y788D01*
G01X3850Y590D01*
G01X3593Y590D01*
G37*
G36*
G01X2826Y590D02*
G01X2826Y788D01*
G01X3083Y788D01*
G01X3083Y590D01*
G01X2826Y590D01*
G37*
G36*
G01X2826Y851D02*
G01X2826Y1048D01*
G01X3083Y1048D01*
G01X3083Y851D01*
G01X2826Y851D01*
G37*
G36*
G01X2826Y1111D02*
G01X2826Y1309D01*
G01X3083Y1309D01*
G01X3083Y1111D01*
G01X2826Y1111D01*
G37*
G36*
G01X2869Y1980D02*
G01X2869Y3419D01*
G01X4307Y3419D01*
G01X4307Y1980D01*
G01X2869Y1980D01*
G37*
G36*
G01X2800Y3542D02*
G01X2800Y3857D01*
G01X2998Y3857D01*
G01X2998Y3542D01*
G01X2800Y3542D01*
G37*
G36*
G01X2997Y3542D02*
G01X2997Y3857D01*
G01X3195Y3857D01*
G01X3195Y3542D01*
G01X2997Y3542D01*
G37*
G36*
G01X3194Y3542D02*
G01X3194Y3857D01*
G01X3392Y3857D01*
G01X3392Y3542D01*
G01X3194Y3542D01*
G37*
G36*
G01X3390Y3542D02*
G01X3390Y3857D01*
G01X3589Y3857D01*
G01X3589Y3542D01*
G01X3390Y3542D01*
G37*
G36*
G01X3587Y3542D02*
G01X3587Y3857D01*
G01X3786Y3857D01*
G01X3786Y3542D01*
G01X3587Y3542D01*
G37*
G36*
G01X3784Y3542D02*
G01X3784Y3857D01*
G01X3982Y3857D01*
G01X3982Y3542D01*
G01X3784Y3542D01*
G37*
G36*
G01X3981Y3542D02*
G01X3981Y3857D01*
G01X4179Y3857D01*
G01X4179Y3542D01*
G01X3981Y3542D01*
G37*
G36*
G01X4178Y3542D02*
G01X4178Y3857D01*
G01X4376Y3857D01*
G01X4376Y3542D01*
G01X4178Y3542D01*
G37*
G36*
G01X4430Y3290D02*
G01X4430Y3488D01*
G01X4746Y3488D01*
G01X4746Y3290D01*
G01X4430Y3290D01*
G37*
G36*
G01X4430Y3092D02*
G01X4430Y3290D01*
G01X4746Y3290D01*
G01X4746Y3092D01*
G01X4430Y3092D01*
G37*
G36*
G01X4430Y2896D02*
G01X4430Y3094D01*
G01X4746Y3094D01*
G01X4746Y2896D01*
G01X4430Y2896D01*
G37*
G36*
G01X4430Y2698D02*
G01X4430Y2898D01*
G01X4746Y2898D01*
G01X4746Y2698D01*
G01X4430Y2698D01*
G37*
G36*
G01X4430Y2501D02*
G01X4430Y2701D01*
G01X4746Y2701D01*
G01X4746Y2501D01*
G01X4430Y2501D01*
G37*
G36*
G01X4430Y2305D02*
G01X4430Y2503D01*
G01X4746Y2503D01*
G01X4746Y2305D01*
G01X4430Y2305D01*
G37*
G36*
G01X4430Y2109D02*
G01X4430Y2307D01*
G01X4746Y2307D01*
G01X4746Y2109D01*
G01X4430Y2109D01*
G37*
G36*
G01X4430Y1911D02*
G01X4430Y2109D01*
G01X4746Y2109D01*
G01X4746Y1911D01*
G01X4430Y1911D01*
G37*
G36*
G01X4178Y1542D02*
G01X4178Y1857D01*
G01X4376Y1857D01*
G01X4376Y1542D01*
G01X4178Y1542D01*
G37*
G36*
G01X3981Y1542D02*
G01X3981Y1857D01*
G01X4179Y1857D01*
G01X4179Y1542D01*
G01X3981Y1542D01*
G37*
G36*
G01X3784Y1542D02*
G01X3784Y1857D01*
G01X3982Y1857D01*
G01X3982Y1542D01*
G01X3784Y1542D01*
G37*
G36*
G01X3587Y1542D02*
G01X3587Y1857D01*
G01X3785Y1857D01*
G01X3785Y1542D01*
G01X3587Y1542D01*
G37*
G36*
G01X3390Y1542D02*
G01X3390Y1857D01*
G01X3589Y1857D01*
G01X3589Y1542D01*
G01X3390Y1542D01*
G37*
G36*
G01X3194Y1542D02*
G01X3194Y1857D01*
G01X3392Y1857D01*
G01X3392Y1542D01*
G01X3194Y1542D01*
G37*
G36*
G01X2997Y1542D02*
G01X2997Y1857D01*
G01X3195Y1857D01*
G01X3195Y1542D01*
G01X2997Y1542D01*
G37*
G36*
G01X2800Y1542D02*
G01X2800Y1857D01*
G01X2998Y1857D01*
G01X2998Y1542D01*
G01X2800Y1542D01*
G37*
G36*
G01X2430Y1911D02*
G01X2430Y2109D01*
G01X2746Y2109D01*
G01X2746Y1911D01*
G01X2430Y1911D01*
G37*
G36*
G01X2430Y2109D02*
G01X2430Y2307D01*
G01X2746Y2307D01*
G01X2746Y2109D01*
G01X2430Y2109D01*
G37*
G36*
G01X2430Y2305D02*
G01X2430Y2503D01*
G01X2746Y2503D01*
G01X2746Y2305D01*
G01X2430Y2305D01*
G37*
G36*
G01X2430Y2503D02*
G01X2430Y2701D01*
G01X2746Y2701D01*
G01X2746Y2503D01*
G01X2430Y2503D01*
G37*
G36*
G01X2430Y2698D02*
G01X2430Y2898D01*
G01X2746Y2898D01*
G01X2746Y2698D01*
G01X2430Y2698D01*
G37*
G36*
G01X2430Y2896D02*
G01X2430Y3094D01*
G01X2746Y3094D01*
G01X2746Y2896D01*
G01X2430Y2896D01*
G37*
G36*
G01X2430Y3092D02*
G01X2430Y3290D01*
G01X2746Y3290D01*
G01X2746Y3092D01*
G01X2430Y3092D01*
G37*
G36*
G01X2430Y3290D02*
G01X2430Y3488D01*
G01X2746Y3488D01*
G01X2746Y3290D01*
G01X2430Y3290D01*
G37*

%LPD*%
G36*
G01X1388Y6450D02*
G01X1388Y10950D01*
G01X688Y10400D01*
G01X288Y9800D01*
G01X138Y9350D01*
G01X-11Y8700D01*
G01X88Y8100D01*
G01X338Y7450D01*
G01X738Y6900D01*
G01X1388Y6450D01*
G37*

%LPD*%
G36*
G01X1388Y350D02*
G01X1388Y4850D01*
G01X688Y4300D01*
G01X288Y3700D01*
G01X138Y3250D01*
G01X-11Y2600D01*
G01X88Y2000D01*
G01X338Y1350D01*
G01X738Y800D01*
G01X1388Y350D01*
G37*
M00*
M02*
