G04 Layer: BottomSilkLayer*
G04 EasyEDA v6.3.53, 2020-06-11T09:01:32+08:00*
G04 0ec445aeefb94f869c071092b8584159,2a3559ba94084103b258dd4c46581d95,10*
G04 Gerber Generator version 0.2*
G04 Scale: 100 percent, Rotated: No, Reflected: No *
G04 Dimensions in inches *
G04 leading zeros omitted , absolute positions ,2 integer and 4 decimal *
%FSLAX24Y24*%
%MOIN*%
G90*
G70D02*

%ADD27C,0.005000*%

%LPD*%
G54D27*
G01X5133Y6734D02*
G01X5147Y6761D01*
G01X5174Y6789D01*
G01X5202Y6802D01*
G01X5256Y6802D01*
G01X5283Y6789D01*
G01X5311Y6761D01*
G01X5324Y6734D01*
G01X5338Y6693D01*
G01X5338Y6625D01*
G01X5324Y6584D01*
G01X5311Y6557D01*
G01X5283Y6530D01*
G01X5256Y6516D01*
G01X5202Y6516D01*
G01X5174Y6530D01*
G01X5147Y6557D01*
G01X5133Y6584D01*
G01X4880Y6707D02*
G01X4880Y6516D01*
G01X4880Y6666D02*
G01X4907Y6693D01*
G01X4934Y6707D01*
G01X4975Y6707D01*
G01X5002Y6693D01*
G01X5030Y6666D01*
G01X5043Y6625D01*
G01X5043Y6598D01*
G01X5030Y6557D01*
G01X5002Y6530D01*
G01X4975Y6516D01*
G01X4934Y6516D01*
G01X4907Y6530D01*
G01X4880Y6557D01*
G01X4790Y6707D02*
G01X4790Y6516D01*
G01X4790Y6652D02*
G01X4749Y6693D01*
G01X4722Y6707D01*
G01X4681Y6707D01*
G01X4653Y6693D01*
G01X4640Y6652D01*
G01X4640Y6516D01*
G01X4482Y6707D02*
G01X4509Y6693D01*
G01X4536Y6666D01*
G01X4550Y6625D01*
G01X4550Y6598D01*
G01X4536Y6557D01*
G01X4509Y6530D01*
G01X4482Y6516D01*
G01X4441Y6516D01*
G01X4413Y6530D01*
G01X4386Y6557D01*
G01X4372Y6598D01*
G01X4372Y6625D01*
G01X4386Y6666D01*
G01X4413Y6693D01*
G01X4441Y6707D01*
G01X4482Y6707D01*
G01X4282Y6802D02*
G01X4282Y6516D01*
G01X4146Y6707D02*
G01X4282Y6570D01*
G01X4228Y6625D02*
G01X4132Y6516D01*
G01X4042Y6625D02*
G01X3879Y6625D01*
G01X3879Y6652D01*
G01X3892Y6680D01*
G01X3906Y6693D01*
G01X3933Y6707D01*
G01X3974Y6707D01*
G01X4002Y6693D01*
G01X4029Y6666D01*
G01X4042Y6625D01*
G01X4042Y6598D01*
G01X4029Y6557D01*
G01X4002Y6530D01*
G01X3974Y6516D01*
G01X3933Y6516D01*
G01X3906Y6530D01*
G01X3879Y6557D01*
G01X3775Y6707D02*
G01X3693Y6516D01*
G01X3612Y6707D02*
G01X3693Y6516D01*
G01X3721Y6461D01*
G01X3748Y6434D01*
G01X3775Y6420D01*
G01X3789Y6420D01*
G01X3312Y6802D02*
G01X3312Y6516D01*
G01X3312Y6802D02*
G01X3121Y6516D01*
G01X3121Y6802D02*
G01X3121Y6516D01*
G01X2867Y6707D02*
G01X2867Y6516D01*
G01X2867Y6666D02*
G01X2894Y6693D01*
G01X2922Y6707D01*
G01X2962Y6707D01*
G01X2990Y6693D01*
G01X3017Y6666D01*
G01X3031Y6625D01*
G01X3031Y6598D01*
G01X3017Y6557D01*
G01X2990Y6530D01*
G01X2962Y6516D01*
G01X2922Y6516D01*
G01X2894Y6530D01*
G01X2867Y6557D01*
G01X2777Y6707D02*
G01X2777Y6516D01*
G01X2777Y6652D02*
G01X2736Y6693D01*
G01X2709Y6707D01*
G01X2668Y6707D01*
G01X2641Y6693D01*
G01X2627Y6652D01*
G01X2627Y6516D01*
G01X2469Y6707D02*
G01X2496Y6693D01*
G01X2523Y6666D01*
G01X2537Y6625D01*
G01X2537Y6598D01*
G01X2523Y6557D01*
G01X2496Y6530D01*
G01X2469Y6516D01*
G01X2428Y6516D01*
G01X2401Y6530D01*
G01X2373Y6557D01*
G01X2360Y6598D01*
G01X2360Y6625D01*
G01X2373Y6666D01*
G01X2401Y6693D01*
G01X2428Y6707D01*
G01X2469Y6707D01*
G01X2270Y6639D02*
G01X2024Y6639D01*
G01X1825Y6802D02*
G01X1934Y6516D01*
G01X1825Y6802D02*
G01X1716Y6516D01*
G01X1893Y6611D02*
G01X1757Y6611D01*
G01X5338Y10807D02*
G01X5338Y10616D01*
G01X5338Y10725D02*
G01X5324Y10766D01*
G01X5297Y10793D01*
G01X5270Y10807D01*
G01X5229Y10807D01*
G01X5125Y10834D02*
G01X5125Y10848D01*
G01X5112Y10875D01*
G01X5098Y10889D01*
G01X5071Y10902D01*
G01X5016Y10902D01*
G01X4989Y10889D01*
G01X4975Y10875D01*
G01X4962Y10848D01*
G01X4962Y10820D01*
G01X4975Y10793D01*
G01X5002Y10752D01*
G01X5139Y10616D01*
G01X4948Y10616D01*
G01X4776Y10902D02*
G01X4817Y10889D01*
G01X4844Y10848D01*
G01X4858Y10780D01*
G01X4858Y10739D01*
G01X4844Y10670D01*
G01X4817Y10630D01*
G01X4776Y10616D01*
G01X4749Y10616D01*
G01X4708Y10630D01*
G01X4681Y10670D01*
G01X4667Y10739D01*
G01X4667Y10780D01*
G01X4681Y10848D01*
G01X4708Y10889D01*
G01X4749Y10902D01*
G01X4776Y10902D01*
G01X4563Y10834D02*
G01X4563Y10848D01*
G01X4550Y10875D01*
G01X4536Y10889D01*
G01X4509Y10902D01*
G01X4454Y10902D01*
G01X4427Y10889D01*
G01X4413Y10875D01*
G01X4400Y10848D01*
G01X4400Y10820D01*
G01X4413Y10793D01*
G01X4441Y10752D01*
G01X4577Y10616D01*
G01X4386Y10616D01*
G01X4296Y10848D02*
G01X4269Y10861D01*
G01X4228Y10902D01*
G01X4228Y10616D01*
G01X5338Y4707D02*
G01X5338Y4516D01*
G01X5338Y4625D02*
G01X5324Y4666D01*
G01X5297Y4693D01*
G01X5270Y4707D01*
G01X5229Y4707D01*
G01X5125Y4734D02*
G01X5125Y4748D01*
G01X5112Y4775D01*
G01X5098Y4789D01*
G01X5071Y4802D01*
G01X5016Y4802D01*
G01X4989Y4789D01*
G01X4975Y4775D01*
G01X4962Y4748D01*
G01X4962Y4720D01*
G01X4975Y4693D01*
G01X5002Y4652D01*
G01X5139Y4516D01*
G01X4948Y4516D01*
G01X4776Y4802D02*
G01X4817Y4789D01*
G01X4844Y4748D01*
G01X4858Y4680D01*
G01X4858Y4639D01*
G01X4844Y4570D01*
G01X4817Y4530D01*
G01X4776Y4516D01*
G01X4749Y4516D01*
G01X4708Y4530D01*
G01X4681Y4570D01*
G01X4667Y4639D01*
G01X4667Y4680D01*
G01X4681Y4748D01*
G01X4708Y4789D01*
G01X4749Y4802D01*
G01X4776Y4802D01*
G01X4563Y4734D02*
G01X4563Y4748D01*
G01X4550Y4775D01*
G01X4536Y4789D01*
G01X4509Y4802D01*
G01X4454Y4802D01*
G01X4427Y4789D01*
G01X4413Y4775D01*
G01X4400Y4748D01*
G01X4400Y4720D01*
G01X4413Y4693D01*
G01X4441Y4652D01*
G01X4577Y4516D01*
G01X4386Y4516D01*
G01X4296Y4748D02*
G01X4269Y4761D01*
G01X4228Y4802D01*
G01X4228Y4516D01*
G01X5133Y634D02*
G01X5147Y661D01*
G01X5174Y689D01*
G01X5202Y702D01*
G01X5256Y702D01*
G01X5283Y689D01*
G01X5311Y661D01*
G01X5324Y634D01*
G01X5338Y593D01*
G01X5338Y525D01*
G01X5324Y484D01*
G01X5311Y457D01*
G01X5283Y430D01*
G01X5256Y416D01*
G01X5202Y416D01*
G01X5174Y430D01*
G01X5147Y457D01*
G01X5133Y484D01*
G01X4880Y607D02*
G01X4880Y416D01*
G01X4880Y566D02*
G01X4907Y593D01*
G01X4934Y607D01*
G01X4975Y607D01*
G01X5002Y593D01*
G01X5030Y566D01*
G01X5043Y525D01*
G01X5043Y498D01*
G01X5030Y457D01*
G01X5002Y430D01*
G01X4975Y416D01*
G01X4934Y416D01*
G01X4907Y430D01*
G01X4880Y457D01*
G01X4790Y607D02*
G01X4790Y416D01*
G01X4790Y552D02*
G01X4749Y593D01*
G01X4722Y607D01*
G01X4681Y607D01*
G01X4653Y593D01*
G01X4640Y552D01*
G01X4640Y416D01*
G01X4482Y607D02*
G01X4509Y593D01*
G01X4536Y566D01*
G01X4550Y525D01*
G01X4550Y498D01*
G01X4536Y457D01*
G01X4509Y430D01*
G01X4482Y416D01*
G01X4441Y416D01*
G01X4413Y430D01*
G01X4386Y457D01*
G01X4372Y498D01*
G01X4372Y525D01*
G01X4386Y566D01*
G01X4413Y593D01*
G01X4441Y607D01*
G01X4482Y607D01*
G01X4282Y702D02*
G01X4282Y416D01*
G01X4146Y607D02*
G01X4282Y470D01*
G01X4228Y525D02*
G01X4132Y416D01*
G01X4042Y525D02*
G01X3879Y525D01*
G01X3879Y552D01*
G01X3892Y580D01*
G01X3906Y593D01*
G01X3933Y607D01*
G01X3974Y607D01*
G01X4002Y593D01*
G01X4029Y566D01*
G01X4042Y525D01*
G01X4042Y498D01*
G01X4029Y457D01*
G01X4002Y430D01*
G01X3974Y416D01*
G01X3933Y416D01*
G01X3906Y430D01*
G01X3879Y457D01*
G01X3775Y607D02*
G01X3693Y416D01*
G01X3612Y607D02*
G01X3693Y416D01*
G01X3721Y361D01*
G01X3748Y334D01*
G01X3775Y320D01*
G01X3789Y320D01*
G01X3312Y702D02*
G01X3312Y416D01*
G01X3312Y702D02*
G01X3121Y416D01*
G01X3121Y702D02*
G01X3121Y416D01*
G01X2867Y607D02*
G01X2867Y416D01*
G01X2867Y566D02*
G01X2894Y593D01*
G01X2922Y607D01*
G01X2962Y607D01*
G01X2990Y593D01*
G01X3017Y566D01*
G01X3031Y525D01*
G01X3031Y498D01*
G01X3017Y457D01*
G01X2990Y430D01*
G01X2962Y416D01*
G01X2922Y416D01*
G01X2894Y430D01*
G01X2867Y457D01*
G01X2777Y607D02*
G01X2777Y416D01*
G01X2777Y552D02*
G01X2736Y593D01*
G01X2709Y607D01*
G01X2668Y607D01*
G01X2641Y593D01*
G01X2627Y552D01*
G01X2627Y416D01*
G01X2469Y607D02*
G01X2496Y593D01*
G01X2523Y566D01*
G01X2537Y525D01*
G01X2537Y498D01*
G01X2523Y457D01*
G01X2496Y430D01*
G01X2469Y416D01*
G01X2428Y416D01*
G01X2401Y430D01*
G01X2373Y457D01*
G01X2360Y498D01*
G01X2360Y525D01*
G01X2373Y566D01*
G01X2401Y593D01*
G01X2428Y607D01*
G01X2469Y607D01*
G01X2270Y539D02*
G01X2024Y539D01*
G01X1825Y702D02*
G01X1934Y416D01*
G01X1825Y702D02*
G01X1716Y416D01*
G01X1893Y511D02*
G01X1757Y511D01*
M00*
M02*
