;Layer: Drill PTH
;EasyEDA v6.3.53, 2020-06-11T09:01:32+08:00
;0ec445aeefb94f869c071092b8584159,2a3559ba94084103b258dd4c46581d95,10
;Gerber Generator version 0.2
M48
INCH,LZ,00.0000
;Holesize 1 = 0.012 INCH
T01C0.012
;Holesize 2 = 0.060 INCH
T02C0.060
%
G05
G90
T01
X+003605Y+010650
X+001888Y+009650
X+002188Y+006550
X+004588Y+009800
X+001888Y+010350
X+004338Y+010700
X+002855Y+010650
X+002688Y+006800
X+005038Y+008450
X+005038Y+008900
X+005038Y+002800
X+005038Y+002350
X+002688Y+000700
X+002855Y+004550
X+004338Y+004600
X+001888Y+004250
X+004588Y+003700
X+002188Y+000450
X+001888Y+003550
X+003605Y+004550
T02
X+000788Y+008100G85X+000788Y+009300
X+000788Y+002000G85X+000788Y+003200
M30
