G04 Layer: TopLayer*
G04 EasyEDA v6.3.53, 2020-06-11T09:01:32+08:00*
G04 0ec445aeefb94f869c071092b8584159,2a3559ba94084103b258dd4c46581d95,10*
G04 Gerber Generator version 0.2*
G04 Scale: 100 percent, Rotated: No, Reflected: No *
G04 Dimensions in inches *
G04 leading zeros omitted , absolute positions ,2 integer and 4 decimal *
%FSLAX24Y24*%
%MOIN*%
G90*
G70D02*

%ADD10C,0.010000*%
%ADD11C,0.006000*%
%ADD12C,0.020000*%
%ADD13C,0.015000*%
%ADD14C,0.024000*%
%ADD15C,0.024400*%
%ADD16R,0.135830X0.135830*%
%ADD17R,0.011810X0.023620*%
%ADD18R,0.023620X0.011810*%
%ADD19R,0.039370X0.062992*%
%ADD20R,0.017717X0.011811*%
%ADD21R,0.025590X0.023620*%
%ADD22R,0.023620X0.025590*%
%ADD23R,0.039000X0.043000*%
%ADD24C,0.080000*%

%LPD*%
G54D11*
G01X3686Y3700D02*
G01X3686Y3898D01*
G01X3738Y3950D01*
G01X3838Y3950D01*
G01X3883Y3904D01*
G01X3883Y3700D01*
G54D12*
G01X2188Y450D02*
G01X2238Y400D01*
G01X3938Y400D01*
G01X4088Y550D01*
G01X4088Y883D01*
G01X4088Y883D02*
G01X4538Y883D01*
G54D13*
G01X2488Y1216D02*
G01X2488Y1600D01*
G01X2688Y1800D01*
G01X3338Y949D02*
G01X3338Y1199D01*
G01X3138Y1400D01*
G01X2671Y1400D01*
G01X2488Y1216D01*
G54D11*
G01X2948Y1209D02*
G01X2898Y1209D01*
G01X2571Y883D01*
G01X2488Y883D01*
G54D10*
G01X2948Y949D02*
G01X2998Y949D01*
G01X3338Y949D01*
G54D12*
G01X2949Y690D02*
G01X2681Y690D01*
G01X2488Y883D01*
G01X3727Y690D02*
G01X4038Y690D01*
G01X4088Y640D01*
G54D11*
G01X4618Y2800D02*
G01X4738Y2800D01*
G01X4888Y2650D01*
G01X4888Y2500D01*
G01X5038Y2350D01*
G01X4618Y3000D02*
G01X4838Y3000D01*
G01X5038Y2800D01*
G54D10*
G01X2688Y1800D02*
G01X3588Y2700D01*
G01X3588Y2700D02*
G01X4438Y1850D01*
G01X4278Y1669D02*
G01X4538Y1410D01*
G01X4538Y1216D01*
G54D12*
G01X4088Y1216D02*
G01X4538Y1216D01*
G01X4538Y1216D02*
G01X4538Y1250D01*
G01X4738Y1450D01*
G01X4738Y1550D01*
G01X4488Y1800D01*
G54D13*
G01X2688Y700D02*
G01X2505Y883D01*
G01X2488Y883D01*
G54D10*
G01X4618Y2010D02*
G01X4828Y2010D01*
G01X4888Y1950D01*
G54D12*
G01X4888Y1950D02*
G01X4988Y1850D01*
G01X4988Y1000D01*
G01X4871Y883D01*
G01X4538Y883D01*
G54D10*
G01X2898Y3730D02*
G01X2855Y3773D01*
G01X2855Y4200D01*
G01X4078Y3730D02*
G01X4078Y4057D01*
G01X4221Y4200D01*
G01X3098Y3730D02*
G01X3098Y4026D01*
G01X3271Y4200D01*
G54D12*
G01X2855Y4200D02*
G01X2855Y4550D01*
G54D10*
G01X2558Y3389D02*
G01X2558Y3600D01*
G54D12*
G01X2558Y3600D02*
G01X2558Y4200D01*
G01X2521Y4200D01*
G54D11*
G01X4338Y4600D02*
G01X4555Y4383D01*
G01X4555Y4200D01*
G54D10*
G01X2898Y3730D02*
G01X2898Y3389D01*
G01X3588Y2700D01*
G01X3588Y2700D02*
G01X4538Y3650D01*
G01X2558Y2600D02*
G01X2338Y2600D01*
G01X2238Y2700D01*
G01X2238Y3916D01*
G01X2521Y4200D01*
G54D12*
G01X2558Y4200D02*
G01X2538Y4200D01*
G01X1888Y3550D01*
G54D10*
G01X1888Y4250D02*
G01X1888Y4100D01*
G01X1638Y3850D01*
G01X1638Y3450D01*
G01X1888Y3200D01*
G01X1888Y2935D01*
G01X1888Y2264D02*
G01X1888Y2200D01*
G01X2488Y1600D01*
G01X3605Y4200D02*
G01X3605Y4550D01*
G01X1388Y4300D02*
G01X788Y3700D01*
G01X788Y2600D01*
G01X3271Y4200D02*
G01X3271Y4616D01*
G01X3088Y4800D01*
G01X1888Y4800D01*
G01X1638Y4550D01*
G01X1388Y4300D01*
G54D11*
G01X3686Y9800D02*
G01X3686Y9998D01*
G01X3738Y10050D01*
G01X3838Y10050D01*
G01X3883Y10004D01*
G01X3883Y9800D01*
G54D12*
G01X2188Y6550D02*
G01X2238Y6500D01*
G01X3938Y6500D01*
G01X4088Y6650D01*
G01X4088Y6982D01*
G01X4088Y6982D02*
G01X4538Y6982D01*
G54D13*
G01X2488Y7317D02*
G01X2488Y7700D01*
G01X2688Y7900D01*
G01X3338Y7049D02*
G01X3338Y7299D01*
G01X3138Y7500D01*
G01X2671Y7500D01*
G01X2488Y7316D01*
G54D11*
G01X2948Y7309D02*
G01X2898Y7309D01*
G01X2571Y6983D01*
G01X2488Y6983D01*
G54D10*
G01X2948Y7049D02*
G01X2998Y7049D01*
G01X3338Y7049D01*
G54D12*
G01X2949Y6790D02*
G01X2681Y6790D01*
G01X2488Y6983D01*
G01X3727Y6790D02*
G01X4038Y6790D01*
G01X4088Y6740D01*
G54D11*
G01X4618Y8900D02*
G01X4738Y8900D01*
G01X4888Y8750D01*
G01X4888Y8600D01*
G01X5038Y8450D01*
G01X4618Y9100D02*
G01X4838Y9100D01*
G01X5038Y8900D01*
G54D10*
G01X2688Y7900D02*
G01X3588Y8800D01*
G01X3588Y8800D02*
G01X4438Y7950D01*
G01X4278Y7769D02*
G01X4538Y7509D01*
G01X4538Y7317D01*
G54D12*
G01X4088Y7317D02*
G01X4538Y7317D01*
G01X4538Y7317D02*
G01X4538Y7350D01*
G01X4738Y7550D01*
G01X4738Y7650D01*
G01X4488Y7900D01*
G54D13*
G01X2688Y6800D02*
G01X2505Y6983D01*
G01X2488Y6983D01*
G54D10*
G01X4618Y8109D02*
G01X4828Y8109D01*
G01X4888Y8050D01*
G54D12*
G01X4888Y8050D02*
G01X4988Y7950D01*
G01X4988Y7100D01*
G01X4871Y6982D01*
G01X4538Y6982D01*
G54D10*
G01X2898Y9830D02*
G01X2855Y9873D01*
G01X2855Y10300D01*
G01X4078Y9830D02*
G01X4078Y10157D01*
G01X4221Y10300D01*
G01X3098Y9830D02*
G01X3098Y10126D01*
G01X3271Y10300D01*
G54D12*
G01X2855Y10300D02*
G01X2855Y10650D01*
G54D10*
G01X2558Y9490D02*
G01X2558Y9700D01*
G54D12*
G01X2558Y9700D02*
G01X2558Y10300D01*
G01X2521Y10300D01*
G54D11*
G01X4338Y10700D02*
G01X4555Y10482D01*
G01X4555Y10300D01*
G54D10*
G01X2898Y9830D02*
G01X2898Y9490D01*
G01X3588Y8800D01*
G01X3588Y8800D02*
G01X4538Y9750D01*
G01X2558Y8700D02*
G01X2338Y8700D01*
G01X2238Y8800D01*
G01X2238Y10017D01*
G01X2521Y10300D01*
G54D12*
G01X2558Y10300D02*
G01X2538Y10300D01*
G01X1888Y9650D01*
G54D10*
G01X1888Y10350D02*
G01X1888Y10200D01*
G01X1638Y9950D01*
G01X1638Y9550D01*
G01X1888Y9300D01*
G01X1888Y9034D01*
G01X1888Y8365D02*
G01X1888Y8300D01*
G01X2488Y7700D01*
G01X3605Y10300D02*
G01X3605Y10650D01*
G01X1388Y10400D02*
G01X788Y9800D01*
G01X788Y8700D01*
G01X3271Y10300D02*
G01X3271Y10716D01*
G01X3088Y10900D01*
G01X1888Y10900D01*
G01X1638Y10650D01*
G01X1388Y10400D01*
G54D16*
G01X3588Y8800D03*
G54D17*
G01X2899Y9800D03*
G01X3096Y9800D03*
G01X3293Y9800D03*
G01X3489Y9800D03*
G01X3686Y9800D03*
G01X3883Y9800D03*
G01X4080Y9800D03*
G01X4277Y9800D03*
G54D18*
G01X4588Y9488D03*
G01X4588Y9292D03*
G01X4588Y9095D03*
G01X4588Y8898D03*
G01X4588Y8701D03*
G01X4588Y8504D03*
G01X4588Y8307D03*
G01X4588Y8111D03*
G54D17*
G01X4277Y7800D03*
G01X4080Y7800D03*
G01X3883Y7800D03*
G01X3686Y7800D03*
G01X3489Y7800D03*
G01X3293Y7800D03*
G01X3096Y7800D03*
G01X2899Y7800D03*
G54D18*
G01X2588Y8111D03*
G01X2588Y8307D03*
G01X2588Y8504D03*
G01X2588Y8701D03*
G01X2588Y8898D03*
G01X2588Y9095D03*
G01X2588Y9292D03*
G01X2588Y9488D03*
G54D19*
G01X3338Y7050D03*
G54D20*
G01X3722Y7309D03*
G01X3722Y7050D03*
G01X3722Y6790D03*
G01X2954Y6790D03*
G01X2954Y7050D03*
G01X2954Y7309D03*
G54D21*
G01X4088Y6982D03*
G01X4088Y7317D03*
G01X2488Y6982D03*
G01X2488Y7317D03*
G54D22*
G01X3271Y10300D03*
G01X3605Y10300D03*
G01X2521Y10300D03*
G01X2855Y10300D03*
G54D21*
G01X4538Y6982D03*
G01X4538Y7317D03*
G54D22*
G01X4555Y10300D03*
G01X4221Y10300D03*
G54D23*
G01X1888Y9034D03*
G01X1888Y8365D03*
G01X1888Y2934D03*
G01X1888Y2265D03*
G54D22*
G01X4555Y4200D03*
G01X4221Y4200D03*
G54D21*
G01X4538Y882D03*
G01X4538Y1217D03*
G54D22*
G01X2521Y4200D03*
G01X2855Y4200D03*
G01X3271Y4200D03*
G01X3605Y4200D03*
G54D21*
G01X2488Y882D03*
G01X2488Y1217D03*
G01X4088Y882D03*
G01X4088Y1217D03*
G54D19*
G01X3338Y950D03*
G54D20*
G01X3722Y1209D03*
G01X3722Y950D03*
G01X3722Y690D03*
G01X2954Y690D03*
G01X2954Y950D03*
G01X2954Y1209D03*
G54D16*
G01X3588Y2700D03*
G54D17*
G01X2899Y3700D03*
G01X3096Y3700D03*
G01X3293Y3700D03*
G01X3489Y3700D03*
G01X3686Y3700D03*
G01X3883Y3700D03*
G01X4080Y3700D03*
G01X4277Y3700D03*
G54D18*
G01X4588Y3388D03*
G01X4588Y3192D03*
G01X4588Y2995D03*
G01X4588Y2798D03*
G01X4588Y2601D03*
G01X4588Y2404D03*
G01X4588Y2207D03*
G01X4588Y2011D03*
G54D17*
G01X4277Y1700D03*
G01X4080Y1700D03*
G01X3883Y1700D03*
G01X3686Y1700D03*
G01X3489Y1700D03*
G01X3293Y1700D03*
G01X3096Y1700D03*
G01X2899Y1700D03*
G54D18*
G01X2588Y2011D03*
G01X2588Y2207D03*
G01X2588Y2404D03*
G01X2588Y2601D03*
G01X2588Y2798D03*
G01X2588Y2995D03*
G01X2588Y3192D03*
G01X2588Y3388D03*

%LPD*%
G36*
G01X1388Y6450D02*
G01X1388Y10950D01*
G01X688Y10400D01*
G01X288Y9800D01*
G01X138Y9350D01*
G01X-11Y8700D01*
G01X88Y8100D01*
G01X338Y7450D01*
G01X738Y6900D01*
G01X1388Y6450D01*
G37*

%LPD*%
G36*
G01X1388Y350D02*
G01X1388Y4850D01*
G01X688Y4300D01*
G01X288Y3700D01*
G01X138Y3250D01*
G01X-11Y2600D01*
G01X88Y2000D01*
G01X338Y1350D01*
G01X738Y800D01*
G01X1388Y350D01*
G37*
G54D14*
G01X3605Y10650D03*
G01X1888Y9650D03*
G01X2188Y6550D03*
G01X4588Y9800D03*
G01X1888Y10350D03*
G01X4338Y10700D03*
G01X2855Y10650D03*
G54D15*
G01X2688Y6800D03*
G01X5038Y8450D03*
G01X5038Y8900D03*
G01X5038Y2800D03*
G01X5038Y2350D03*
G01X2688Y700D03*
G54D14*
G01X2855Y4550D03*
G01X4338Y4600D03*
G01X1888Y4250D03*
G01X4588Y3700D03*
G01X2188Y450D03*
G01X1888Y3550D03*
G01X3605Y4550D03*
G54D24*
G01X788Y9300D02*
G01X788Y8100D01*
G01X788Y3200D02*
G01X788Y2000D01*
M00*
M02*
