G04 Layer: TopSilkscreenLayer*
G04 EasyEDA v6.5.1, 2022-03-25 19:20:23*
G04 7f390d730af4428a99680024a372d8f3,2a3559ba94084103b258dd4c46581d95,10*
G04 Gerber Generator version 0.2*
G04 Scale: 100 percent, Rotated: No, Reflected: No *
G04 Dimensions in inches *
G04 leading zeros omitted , absolute positions ,3 integer and 6 decimal *
%FSLAX36Y36*%
%MOIN*%

%ADD10C,0.0100*%
%ADD12C,0.0060*%
%ADD25C,0.0079*%
%ADD26C,0.0080*%

%LPD*%
D10*
X5390000Y-2225000D02*
G01*
X5390000Y-2239989D01*
X5390000Y-2410010D02*
G01*
X5390000Y-2425000D01*
X5375010Y-2425000D01*
X5205000Y-2425000D02*
G01*
X5190000Y-2425000D01*
X5190000Y-2410010D01*
X5190000Y-2240000D02*
G01*
X5190000Y-2225000D01*
X5190000Y-2225000D02*
G01*
X5204989Y-2225000D01*
X5375010Y-2225000D02*
G01*
X5390000Y-2225000D01*
D25*
X5223699Y-2541340D02*
G01*
X5306340Y-2541340D01*
X5223699Y-2458660D02*
G01*
X5306340Y-2458660D01*
D12*
X5282299Y-2191999D02*
G01*
X5307299Y-2191999D01*
X5307299Y-2158000D01*
X5286300Y-2158000D01*
X5282299Y-2158000D01*
X5267299Y-2158000D02*
G01*
X5243299Y-2158000D01*
X5243299Y-2191999D01*
X5264300Y-2191999D01*
X5267299Y-2191999D01*
X5207299Y-2191999D02*
G01*
X5232299Y-2191999D01*
X5232299Y-2158000D01*
X5211300Y-2158000D01*
X5207299Y-2158000D01*
X5192299Y-2158000D02*
G01*
X5168299Y-2158000D01*
X5168299Y-2191999D01*
X5189300Y-2191999D01*
X5192299Y-2191999D01*
X5401999Y-2482700D02*
G01*
X5401999Y-2457700D01*
X5368000Y-2457700D01*
X5368000Y-2478699D01*
X5368000Y-2482700D01*
X5368000Y-2497700D02*
G01*
X5368000Y-2521700D01*
X5401999Y-2521700D01*
X5401999Y-2500700D01*
X5401999Y-2497700D01*
X5362700Y-2158000D02*
G01*
X5337700Y-2158000D01*
X5337700Y-2191999D01*
X5358699Y-2191999D01*
X5362700Y-2191999D01*
X5377700Y-2191999D02*
G01*
X5401700Y-2191999D01*
X5401700Y-2158000D01*
X5380699Y-2158000D01*
X5377700Y-2158000D01*
D10*
X5086000Y-2265500D02*
G01*
X5086000Y-2323499D01*
X5153999Y-2265500D02*
G01*
X5153999Y-2323499D01*
X5153999Y-2265500D02*
G01*
X5086000Y-2265500D01*
X5086000Y-2346500D02*
G01*
X5086000Y-2392500D01*
X5153999Y-2347500D02*
G01*
X5153999Y-2392500D01*
X5153999Y-2392500D02*
G01*
X5140000Y-2406500D01*
X5100000Y-2406500D01*
X5086000Y-2392500D01*
D26*
X5136000Y-2331999D02*
G01*
X5105000Y-2331999D01*
X5120312Y-2331999D02*
G01*
X5120312Y-2338904D01*
D12*
X5356999Y-2482700D02*
G01*
X5356999Y-2457700D01*
X5323000Y-2457700D01*
X5323000Y-2478699D01*
X5323000Y-2482700D01*
X5323000Y-2497700D02*
G01*
X5323000Y-2521700D01*
X5356999Y-2521700D01*
X5356999Y-2500700D01*
X5356999Y-2497700D01*
X5196999Y-2482700D02*
G01*
X5196999Y-2457700D01*
X5163000Y-2457700D01*
X5163000Y-2478699D01*
X5163000Y-2482700D01*
X5163000Y-2497700D02*
G01*
X5163000Y-2521700D01*
X5196999Y-2521700D01*
X5196999Y-2500700D01*
X5196999Y-2497700D01*
D10*
G75*
G01
X5190000Y-2220000D02*
G03X5190000Y-2220000I-5000J0D01*
G75*
G01
X5216500Y-2459000D02*
G03X5216500Y-2459000I-2500J0D01*
M02*
