G04 Layer: BottomLayer*
G04 EasyEDA v6.3.53, 2020-06-11T09:01:32+08:00*
G04 0ec445aeefb94f869c071092b8584159,2a3559ba94084103b258dd4c46581d95,10*
G04 Gerber Generator version 0.2*
G04 Scale: 100 percent, Rotated: No, Reflected: No *
G04 Dimensions in inches *
G04 leading zeros omitted , absolute positions ,2 integer and 4 decimal *
%FSLAX24Y24*%
%MOIN*%
G90*
G70D02*

%ADD11C,0.006000*%
%ADD12C,0.020000*%
%ADD14C,0.024000*%
%ADD15C,0.024400*%
%ADD24C,0.080000*%

%LPD*%
G36*
G01X5339Y10457D02*
G01X2223Y10457D01*
G01X2211Y10455D01*
G01X2205Y10452D01*
G01X2200Y10449D01*
G01X2195Y10445D01*
G01X2162Y10412D01*
G01X2158Y10407D01*
G01X2155Y10402D01*
G01X2152Y10396D01*
G01X2150Y10384D01*
G01X2150Y9709D01*
G01X2151Y9703D01*
G01X2152Y9698D01*
G01X2154Y9692D01*
G01X2157Y9688D01*
G01X2160Y9683D01*
G01X2164Y9679D01*
G01X2174Y9673D01*
G01X2179Y9671D01*
G01X2185Y9669D01*
G01X5345Y9669D01*
G01X5355Y9673D01*
G01X5361Y9676D01*
G01X5365Y9679D01*
G01X5369Y9683D01*
G01X5373Y9688D01*
G01X5375Y9692D01*
G01X5377Y9698D01*
G01X5378Y9703D01*
G01X5379Y9709D01*
G01X5379Y10417D01*
G01X5378Y10422D01*
G01X5377Y10428D01*
G01X5373Y10438D01*
G01X5369Y10443D01*
G01X5365Y10447D01*
G01X5361Y10450D01*
G01X5355Y10453D01*
G01X5350Y10455D01*
G01X5345Y10456D01*
G01X5339Y10457D01*
G37*

%LPD*%
G36*
G01X5148Y9531D02*
G01X2185Y9531D01*
G01X2179Y9530D01*
G01X2174Y9528D01*
G01X2169Y9525D01*
G01X2164Y9521D01*
G01X2160Y9517D01*
G01X2157Y9513D01*
G01X2154Y9508D01*
G01X2152Y9503D01*
G01X2150Y9491D01*
G01X2150Y8796D01*
G01X2151Y8790D01*
G01X2152Y8785D01*
G01X2154Y8779D01*
G01X2157Y8774D01*
G01X2160Y8770D01*
G01X2164Y8766D01*
G01X2169Y8762D01*
G01X2179Y8758D01*
G01X2185Y8757D01*
G01X2190Y8756D01*
G01X5142Y8756D01*
G01X5148Y8757D01*
G01X5153Y8758D01*
G01X5159Y8760D01*
G01X5164Y8762D01*
G01X5176Y8774D01*
G01X5178Y8779D01*
G01X5180Y8785D01*
G01X5182Y8790D01*
G01X5182Y9497D01*
G01X5180Y9503D01*
G01X5176Y9513D01*
G01X5164Y9525D01*
G01X5159Y9528D01*
G01X5153Y9530D01*
G01X5148Y9531D01*
G37*

%LPD*%
G36*
G01X5148Y8637D02*
G01X2196Y8637D01*
G01X2191Y8636D01*
G01X2185Y8635D01*
G01X2180Y8633D01*
G01X2170Y8627D01*
G01X2166Y8623D01*
G01X2163Y8619D01*
G01X2160Y8613D01*
G01X2158Y8608D01*
G01X2157Y8603D01*
G01X2156Y8597D01*
G01X2156Y7890D01*
G01X2158Y7878D01*
G01X2160Y7873D01*
G01X2166Y7863D01*
G01X2170Y7859D01*
G01X2180Y7853D01*
G01X2185Y7851D01*
G01X2191Y7850D01*
G01X5153Y7850D01*
G01X5159Y7851D01*
G01X5164Y7853D01*
G01X5174Y7859D01*
G01X5178Y7863D01*
G01X5184Y7873D01*
G01X5186Y7878D01*
G01X5188Y7890D01*
G01X5188Y8597D01*
G01X5187Y8603D01*
G01X5186Y8608D01*
G01X5184Y8613D01*
G01X5181Y8619D01*
G01X5178Y8623D01*
G01X5174Y8627D01*
G01X5164Y8633D01*
G01X5159Y8635D01*
G01X5153Y8636D01*
G01X5148Y8637D01*
G37*

%LPD*%
G36*
G01X5346Y7700D02*
G01X2197Y7700D01*
G01X2192Y7699D01*
G01X2186Y7698D01*
G01X2181Y7696D01*
G01X2171Y7690D01*
G01X2167Y7686D01*
G01X2161Y7676D01*
G01X2159Y7671D01*
G01X2157Y7659D01*
G01X2157Y6952D01*
G01X2158Y6946D01*
G01X2159Y6941D01*
G01X2161Y6936D01*
G01X2164Y6930D01*
G01X2167Y6926D01*
G01X2171Y6922D01*
G01X2181Y6916D01*
G01X2186Y6914D01*
G01X2192Y6913D01*
G01X2197Y6912D01*
G01X5346Y6912D01*
G01X5352Y6913D01*
G01X5357Y6914D01*
G01X5362Y6916D01*
G01X5368Y6919D01*
G01X5372Y6922D01*
G01X5380Y6930D01*
G01X5382Y6936D01*
G01X5384Y6941D01*
G01X5385Y6946D01*
G01X5386Y6952D01*
G01X5386Y7659D01*
G01X5384Y7671D01*
G01X5380Y7681D01*
G01X5376Y7686D01*
G01X5372Y7690D01*
G01X5368Y7693D01*
G01X5362Y7696D01*
G01X5357Y7698D01*
G01X5352Y7699D01*
G01X5346Y7700D01*
G37*

%LPD*%
G36*
G01X5339Y4357D02*
G01X2223Y4357D01*
G01X2211Y4355D01*
G01X2205Y4352D01*
G01X2200Y4349D01*
G01X2195Y4345D01*
G01X2162Y4312D01*
G01X2158Y4307D01*
G01X2155Y4302D01*
G01X2152Y4296D01*
G01X2150Y4284D01*
G01X2150Y3609D01*
G01X2151Y3603D01*
G01X2152Y3598D01*
G01X2154Y3592D01*
G01X2157Y3588D01*
G01X2160Y3583D01*
G01X2164Y3579D01*
G01X2174Y3573D01*
G01X2179Y3571D01*
G01X2185Y3569D01*
G01X5345Y3569D01*
G01X5355Y3573D01*
G01X5361Y3576D01*
G01X5365Y3579D01*
G01X5369Y3583D01*
G01X5373Y3588D01*
G01X5375Y3592D01*
G01X5377Y3598D01*
G01X5378Y3603D01*
G01X5379Y3609D01*
G01X5379Y4317D01*
G01X5378Y4322D01*
G01X5377Y4328D01*
G01X5373Y4338D01*
G01X5369Y4343D01*
G01X5365Y4347D01*
G01X5361Y4350D01*
G01X5355Y4353D01*
G01X5350Y4355D01*
G01X5345Y4356D01*
G01X5339Y4357D01*
G37*

%LPD*%
G36*
G01X5148Y3431D02*
G01X2185Y3431D01*
G01X2179Y3430D01*
G01X2174Y3428D01*
G01X2169Y3425D01*
G01X2164Y3421D01*
G01X2160Y3417D01*
G01X2157Y3413D01*
G01X2154Y3408D01*
G01X2152Y3403D01*
G01X2150Y3391D01*
G01X2150Y2684D01*
G01X2151Y2678D01*
G01X2152Y2673D01*
G01X2154Y2667D01*
G01X2157Y2662D01*
G01X2160Y2658D01*
G01X2164Y2654D01*
G01X2169Y2650D01*
G01X2179Y2646D01*
G01X2185Y2644D01*
G01X5148Y2644D01*
G01X5153Y2646D01*
G01X5159Y2648D01*
G01X5164Y2650D01*
G01X5176Y2662D01*
G01X5178Y2667D01*
G01X5180Y2673D01*
G01X5182Y2678D01*
G01X5182Y3397D01*
G01X5180Y3403D01*
G01X5176Y3413D01*
G01X5164Y3425D01*
G01X5159Y3428D01*
G01X5153Y3430D01*
G01X5148Y3431D01*
G37*

%LPD*%
G36*
G01X5148Y2525D02*
G01X2196Y2525D01*
G01X2191Y2524D01*
G01X2185Y2523D01*
G01X2175Y2519D01*
G01X2170Y2515D01*
G01X2166Y2511D01*
G01X2163Y2507D01*
G01X2160Y2501D01*
G01X2158Y2496D01*
G01X2157Y2490D01*
G01X2156Y2485D01*
G01X2156Y1790D01*
G01X2158Y1778D01*
G01X2160Y1773D01*
G01X2166Y1763D01*
G01X2170Y1759D01*
G01X2180Y1753D01*
G01X2185Y1751D01*
G01X2191Y1750D01*
G01X5153Y1750D01*
G01X5159Y1751D01*
G01X5164Y1753D01*
G01X5174Y1759D01*
G01X5178Y1763D01*
G01X5184Y1773D01*
G01X5186Y1778D01*
G01X5188Y1790D01*
G01X5188Y2485D01*
G01X5187Y2490D01*
G01X5186Y2496D01*
G01X5184Y2501D01*
G01X5181Y2507D01*
G01X5178Y2511D01*
G01X5174Y2515D01*
G01X5169Y2519D01*
G01X5159Y2523D01*
G01X5153Y2524D01*
G01X5148Y2525D01*
G37*

%LPD*%
G36*
G01X5346Y1600D02*
G01X2197Y1600D01*
G01X2192Y1599D01*
G01X2186Y1598D01*
G01X2181Y1596D01*
G01X2171Y1590D01*
G01X2167Y1586D01*
G01X2161Y1576D01*
G01X2159Y1571D01*
G01X2157Y1559D01*
G01X2157Y852D01*
G01X2158Y846D01*
G01X2159Y841D01*
G01X2161Y836D01*
G01X2164Y830D01*
G01X2167Y826D01*
G01X2171Y822D01*
G01X2181Y816D01*
G01X2186Y814D01*
G01X2192Y813D01*
G01X2197Y812D01*
G01X5346Y812D01*
G01X5352Y813D01*
G01X5357Y814D01*
G01X5362Y816D01*
G01X5368Y819D01*
G01X5372Y822D01*
G01X5380Y830D01*
G01X5382Y836D01*
G01X5384Y841D01*
G01X5385Y846D01*
G01X5386Y852D01*
G01X5386Y1559D01*
G01X5384Y1571D01*
G01X5380Y1581D01*
G01X5376Y1586D01*
G01X5372Y1590D01*
G01X5368Y1593D01*
G01X5362Y1596D01*
G01X5357Y1598D01*
G01X5352Y1599D01*
G01X5346Y1600D01*
G37*

%LPD*%
G54D11*
G01X1888Y4250D02*
G01X2388Y4746D01*
G01X4191Y4746D01*
G01X4191Y4746D02*
G01X4338Y4600D01*
G54D12*
G01X1888Y3550D02*
G01X1888Y750D01*
G01X2188Y450D01*
G01X2688Y700D02*
G01X2688Y1100D01*
G01X2855Y4550D02*
G01X2855Y4000D01*
G01X3605Y4550D02*
G01X3605Y4000D01*
G54D11*
G01X1888Y10350D02*
G01X2388Y10846D01*
G01X4191Y10846D01*
G01X4191Y10846D02*
G01X4338Y10700D01*
G54D12*
G01X1888Y9650D02*
G01X1888Y6850D01*
G01X2188Y6550D01*
G01X2688Y6800D02*
G01X2688Y7200D01*
G01X2855Y10650D02*
G01X2855Y10100D01*
G01X3605Y10650D02*
G01X3605Y10100D01*
G36*
G01X1588Y7350D02*
G01X1988Y7350D01*
G01X1988Y6950D01*
G01X1588Y6950D01*
G01X1588Y7350D01*
G37*
G36*
G01X1588Y1250D02*
G01X1988Y1250D01*
G01X1988Y850D01*
G01X1588Y850D01*
G01X1588Y1250D01*
G37*

%LPD*%
G36*
G01X1388Y6450D02*
G01X1388Y10950D01*
G01X688Y10400D01*
G01X288Y9800D01*
G01X138Y9350D01*
G01X-11Y8700D01*
G01X88Y8100D01*
G01X338Y7450D01*
G01X738Y6900D01*
G01X1388Y6450D01*
G37*

%LPD*%
G36*
G01X1388Y350D02*
G01X1388Y4850D01*
G01X688Y4300D01*
G01X288Y3700D01*
G01X138Y3250D01*
G01X-11Y2600D01*
G01X88Y2000D01*
G01X338Y1350D01*
G01X738Y800D01*
G01X1388Y350D01*
G37*
G54D14*
G01X3605Y10650D03*
G01X1888Y9650D03*
G01X2188Y6550D03*
G01X4588Y9800D03*
G01X1888Y10350D03*
G01X4338Y10700D03*
G01X2855Y10650D03*
G54D15*
G01X2688Y6800D03*
G01X5038Y8450D03*
G01X5038Y8900D03*
G01X5038Y2800D03*
G01X5038Y2350D03*
G01X2688Y700D03*
G54D14*
G01X2855Y4550D03*
G01X4338Y4600D03*
G01X1888Y4250D03*
G01X4588Y3700D03*
G01X2188Y450D03*
G01X1888Y3550D03*
G01X3605Y4550D03*
G54D24*
G01X788Y9300D02*
G01X788Y8100D01*
G01X788Y3200D02*
G01X788Y2000D01*
M00*
M02*
