G04 Layer: TopLayer*
G04 EasyEDA v6.5.1, 2022-03-25 19:20:23*
G04 7f390d730af4428a99680024a372d8f3,2a3559ba94084103b258dd4c46581d95,10*
G04 Gerber Generator version 0.2*
G04 Scale: 100 percent, Rotated: No, Reflected: No *
G04 Dimensions in inches *
G04 leading zeros omitted , absolute positions ,3 integer and 6 decimal *
%FSLAX36Y36*%
%MOIN*%

%ADD10C,0.0100*%
%ADD11C,0.0200*%
%ADD12C,0.0060*%
%ADD13C,0.0150*%
%ADD14C,0.0240*%
%ADD15C,0.0244*%
%ADD16R,0.1358X0.1358*%
%ADD17R,0.0118X0.0236*%
%ADD18R,0.0236X0.0118*%
%ADD20R,0.0177X0.0118*%
%ADD21R,0.0236X0.0256*%
%ADD22R,0.0256X0.0236*%
%ADD23R,0.0390X0.0430*%
%ADD24C,0.0800*%

%LPD*%
G36*
X5070000Y-2110000D02*
G01*
X5000000Y-2165000D01*
X4960000Y-2225000D01*
X4945000Y-2270000D01*
X4930000Y-2335000D01*
X4940000Y-2395000D01*
X4965000Y-2460000D01*
X5005000Y-2515000D01*
X5070000Y-2560000D01*
G37*
D10*
X5258301Y-2175000D02*
G01*
X5258301Y-2133301D01*
X5240000Y-2115000D01*
X5120000Y-2115000D01*
X5095000Y-2140000D01*
X5070000Y-2165000D01*
X5070000Y-2165000D02*
G01*
X5010000Y-2225000D01*
X5010000Y-2335000D01*
X5291700Y-2175000D02*
G01*
X5291700Y-2140000D01*
X5120000Y-2368499D02*
G01*
X5120000Y-2375000D01*
X5180000Y-2435000D01*
X5120000Y-2170000D02*
G01*
X5120000Y-2185000D01*
X5095000Y-2210000D01*
X5095000Y-2250000D01*
X5120000Y-2275000D01*
X5120000Y-2301500D01*
D11*
X5186999Y-2175000D02*
G01*
X5185000Y-2175000D01*
X5120000Y-2240000D01*
D10*
X5186999Y-2335000D02*
G01*
X5165000Y-2335000D01*
X5155000Y-2325000D01*
X5155000Y-2203299D01*
X5183299Y-2175000D01*
X5290000Y-2325000D02*
G01*
X5385000Y-2230000D01*
X5221000Y-2221999D02*
G01*
X5221000Y-2255999D01*
X5290000Y-2325000D01*
D12*
X5365000Y-2135000D02*
G01*
X5386700Y-2156700D01*
X5386700Y-2175000D01*
D11*
X5186999Y-2235000D02*
G01*
X5186999Y-2175000D01*
X5183299Y-2175000D01*
D10*
X5186999Y-2255999D02*
G01*
X5186999Y-2235000D01*
D11*
X5216700Y-2175000D02*
G01*
X5216700Y-2140000D01*
D10*
X5241000Y-2221999D02*
G01*
X5241000Y-2192300D01*
X5258299Y-2175000D01*
X5338999Y-2221999D02*
G01*
X5338999Y-2189299D01*
X5353299Y-2175000D01*
X5221000Y-2221999D02*
G01*
X5216700Y-2217700D01*
X5216700Y-2175000D01*
D11*
X5420000Y-2400000D02*
G01*
X5430000Y-2410000D01*
X5430000Y-2495000D01*
X5418299Y-2506700D01*
X5385000Y-2506700D01*
D10*
X5393000Y-2394000D02*
G01*
X5413999Y-2394000D01*
X5420000Y-2400000D01*
D13*
X5200000Y-2525000D02*
G01*
X5181698Y-2506698D01*
X5180000Y-2506698D01*
D11*
X5385000Y-2473299D02*
G01*
X5385000Y-2470000D01*
X5405000Y-2450000D01*
X5405000Y-2440000D01*
X5380000Y-2415000D01*
X5340000Y-2473299D02*
G01*
X5385000Y-2473299D01*
D10*
X5358999Y-2428000D02*
G01*
X5385000Y-2454000D01*
X5385000Y-2473299D01*
X5290000Y-2325000D02*
G01*
X5375000Y-2410000D01*
X5200000Y-2415000D02*
G01*
X5290000Y-2325000D01*
D12*
X5393000Y-2295000D02*
G01*
X5415000Y-2295000D01*
X5435000Y-2315000D01*
X5393000Y-2315000D02*
G01*
X5405000Y-2315000D01*
X5420000Y-2330000D01*
X5420000Y-2345000D01*
X5435000Y-2360000D01*
D11*
X5303959Y-2525979D02*
G01*
X5335006Y-2525979D01*
X5340000Y-2530974D01*
X5226139Y-2525979D02*
G01*
X5199281Y-2525979D01*
X5180000Y-2506698D01*
D10*
X5226040Y-2500005D02*
G01*
X5231035Y-2500010D01*
X5265050Y-2500010D01*
D12*
X5226040Y-2474029D02*
G01*
X5220969Y-2474029D01*
X5188301Y-2506698D01*
X5180000Y-2506698D01*
D13*
X5265050Y-2500010D02*
G01*
X5265050Y-2475050D01*
X5245000Y-2455000D01*
X5198301Y-2455000D01*
X5180000Y-2473301D01*
X5180000Y-2473299D02*
G01*
X5180000Y-2435000D01*
X5200000Y-2415000D01*
D11*
X5340000Y-2506700D02*
G01*
X5385000Y-2506700D01*
X5150000Y-2550000D02*
G01*
X5155000Y-2555000D01*
X5325000Y-2555000D01*
X5340000Y-2540000D01*
X5340000Y-2506700D01*
D12*
X5299840Y-2225000D02*
G01*
X5299840Y-2205160D01*
X5305000Y-2200000D01*
X5315000Y-2200000D01*
X5319530Y-2204529D01*
X5319530Y-2225000D01*
D16*
G01*
X5290000Y-2325000D03*
D17*
G01*
X5221099Y-2225000D03*
G01*
X5240789Y-2225000D03*
G01*
X5260469Y-2225000D03*
G01*
X5280159Y-2225000D03*
G01*
X5299840Y-2225000D03*
G01*
X5319530Y-2225000D03*
G01*
X5339210Y-2225000D03*
G01*
X5358900Y-2225000D03*
D18*
G01*
X5390000Y-2256100D03*
G01*
X5390000Y-2275790D03*
G01*
X5390000Y-2295470D03*
G01*
X5390000Y-2315160D03*
G01*
X5390000Y-2334839D03*
G01*
X5390000Y-2354529D03*
G01*
X5390000Y-2374209D03*
G01*
X5390000Y-2393899D03*
D17*
G01*
X5358890Y-2425000D03*
G01*
X5339210Y-2425000D03*
G01*
X5319520Y-2425000D03*
G01*
X5299840Y-2425000D03*
G01*
X5280150Y-2425000D03*
G01*
X5260469Y-2425000D03*
G01*
X5240780Y-2425000D03*
G01*
X5221099Y-2425000D03*
G36*
X5178190Y-2387988D02*
G01*
X5201809Y-2387988D01*
X5201809Y-2399798D01*
X5178190Y-2399798D01*
G37*
G36*
X5178190Y-2368303D02*
G01*
X5201809Y-2368303D01*
X5201809Y-2380113D01*
X5178190Y-2380113D01*
G37*
G36*
X5178190Y-2348618D02*
G01*
X5201809Y-2348618D01*
X5201809Y-2360428D01*
X5178190Y-2360428D01*
G37*
G36*
X5178190Y-2328933D02*
G01*
X5201809Y-2328933D01*
X5201809Y-2340743D01*
X5178190Y-2340743D01*
G37*
G36*
X5178190Y-2309247D02*
G01*
X5201809Y-2309247D01*
X5201809Y-2321057D01*
X5178190Y-2321057D01*
G37*
G36*
X5178190Y-2289562D02*
G01*
X5201809Y-2289562D01*
X5201809Y-2301372D01*
X5178190Y-2301372D01*
G37*
G36*
X5178190Y-2269877D02*
G01*
X5201809Y-2269877D01*
X5201809Y-2281687D01*
X5178190Y-2281687D01*
G37*
G36*
X5178190Y-2250192D02*
G01*
X5201809Y-2250192D01*
X5201809Y-2262002D01*
X5178190Y-2262002D01*
G37*
G36*
X5245315Y-2468503D02*
G01*
X5284684Y-2468503D01*
X5284684Y-2531496D01*
X5245315Y-2531496D01*
G37*
D20*
G01*
X5303389Y-2474000D03*
G01*
X5303389Y-2500000D03*
G01*
X5303389Y-2525999D03*
G01*
X5226610Y-2525999D03*
G01*
X5226610Y-2500000D03*
G01*
X5226610Y-2474000D03*
D21*
G01*
X5258299Y-2175000D03*
G01*
X5291700Y-2175000D03*
G01*
X5183299Y-2175000D03*
G01*
X5216700Y-2175000D03*
D22*
G01*
X5385000Y-2506700D03*
G01*
X5385000Y-2473299D03*
G36*
X5374889Y-2162210D02*
G01*
X5398509Y-2162210D01*
X5398509Y-2187790D01*
X5374889Y-2187790D01*
G37*
G36*
X5341490Y-2162210D02*
G01*
X5365110Y-2162210D01*
X5365110Y-2187790D01*
X5341490Y-2187790D01*
G37*
D23*
G01*
X5120000Y-2301500D03*
G01*
X5120000Y-2368499D03*
D22*
G01*
X5340000Y-2506700D03*
G01*
X5340000Y-2473299D03*
G01*
X5180000Y-2506700D03*
G01*
X5180000Y-2473299D03*
D14*
G01*
X5291700Y-2140000D03*
G01*
X5120000Y-2240000D03*
G01*
X5150000Y-2550000D03*
G01*
X5390000Y-2225000D03*
G01*
X5120000Y-2170000D03*
G01*
X5365000Y-2135000D03*
G01*
X5216700Y-2140000D03*
D15*
G01*
X5200000Y-2525000D03*
G01*
X5435000Y-2360000D03*
G01*
X5435000Y-2315000D03*
D24*
X5010000Y-2275000D02*
G01*
X5010000Y-2395000D01*
M02*
