G04 Layer: BottomSilkscreenLayer*
G04 EasyEDA v6.5.1, 2022-03-25 19:20:23*
G04 7f390d730af4428a99680024a372d8f3,2a3559ba94084103b258dd4c46581d95,10*
G04 Gerber Generator version 0.2*
G04 Scale: 100 percent, Rotated: No, Reflected: No *
G04 Dimensions in inches *
G04 leading zeros omitted , absolute positions ,3 integer and 6 decimal *
%FSLAX36Y36*%
%MOIN*%

%ADD27C,0.0050*%

%LPD*%
D27*
X5444544Y-2531545D02*
G01*
X5445909Y-2528818D01*
X5448635Y-2526091D01*
X5451364Y-2524726D01*
X5456818Y-2524726D01*
X5459544Y-2526091D01*
X5462272Y-2528818D01*
X5463635Y-2531545D01*
X5465000Y-2535635D01*
X5465000Y-2542455D01*
X5463635Y-2546545D01*
X5462272Y-2549272D01*
X5459544Y-2551999D01*
X5456818Y-2553364D01*
X5451364Y-2553364D01*
X5448635Y-2551999D01*
X5445909Y-2549272D01*
X5444544Y-2546545D01*
X5419182Y-2534272D02*
G01*
X5419182Y-2553364D01*
X5419182Y-2538364D02*
G01*
X5421908Y-2535635D01*
X5424636Y-2534272D01*
X5428726Y-2534272D01*
X5431454Y-2535635D01*
X5434182Y-2538364D01*
X5435545Y-2542455D01*
X5435545Y-2545182D01*
X5434182Y-2549272D01*
X5431454Y-2551999D01*
X5428726Y-2553364D01*
X5424636Y-2553364D01*
X5421908Y-2551999D01*
X5419182Y-2549272D01*
X5410182Y-2534272D02*
G01*
X5410182Y-2553364D01*
X5410182Y-2539726D02*
G01*
X5406090Y-2535635D01*
X5403364Y-2534272D01*
X5399273Y-2534272D01*
X5396544Y-2535635D01*
X5395182Y-2539726D01*
X5395182Y-2553364D01*
X5379363Y-2534272D02*
G01*
X5382091Y-2535635D01*
X5384817Y-2538364D01*
X5386181Y-2542455D01*
X5386181Y-2545182D01*
X5384817Y-2549272D01*
X5382091Y-2551999D01*
X5379363Y-2553364D01*
X5375272Y-2553364D01*
X5372545Y-2551999D01*
X5369817Y-2549272D01*
X5368455Y-2545182D01*
X5368455Y-2542455D01*
X5369817Y-2538364D01*
X5372545Y-2535635D01*
X5375272Y-2534272D01*
X5379363Y-2534272D01*
X5359454Y-2524726D02*
G01*
X5359454Y-2553364D01*
X5345817Y-2534272D02*
G01*
X5359454Y-2547908D01*
X5353999Y-2542455D02*
G01*
X5344454Y-2553364D01*
X5335455Y-2542455D02*
G01*
X5319090Y-2542455D01*
X5319090Y-2539726D01*
X5320455Y-2536999D01*
X5321818Y-2535635D01*
X5324544Y-2534272D01*
X5328635Y-2534272D01*
X5331364Y-2535635D01*
X5334090Y-2538364D01*
X5335455Y-2542455D01*
X5335455Y-2545182D01*
X5334090Y-2549272D01*
X5331364Y-2551999D01*
X5328635Y-2553364D01*
X5324544Y-2553364D01*
X5321818Y-2551999D01*
X5319090Y-2549272D01*
X5308726Y-2534272D02*
G01*
X5300545Y-2553364D01*
X5292363Y-2534272D02*
G01*
X5300545Y-2553364D01*
X5303272Y-2558818D01*
X5306000Y-2561545D01*
X5308726Y-2562908D01*
X5310091Y-2562908D01*
X5262363Y-2524726D02*
G01*
X5262363Y-2553364D01*
X5262363Y-2524726D02*
G01*
X5243272Y-2553364D01*
X5243272Y-2524726D02*
G01*
X5243272Y-2553364D01*
X5217909Y-2534272D02*
G01*
X5217909Y-2553364D01*
X5217909Y-2538364D02*
G01*
X5220636Y-2535635D01*
X5223364Y-2534272D01*
X5227455Y-2534272D01*
X5230182Y-2535635D01*
X5232909Y-2538364D01*
X5234273Y-2542455D01*
X5234273Y-2545182D01*
X5232909Y-2549272D01*
X5230182Y-2551999D01*
X5227455Y-2553364D01*
X5223364Y-2553364D01*
X5220636Y-2551999D01*
X5217909Y-2549272D01*
X5208909Y-2534272D02*
G01*
X5208909Y-2553364D01*
X5208909Y-2539726D02*
G01*
X5204817Y-2535635D01*
X5202091Y-2534272D01*
X5198000Y-2534272D01*
X5195272Y-2535635D01*
X5193909Y-2539726D01*
X5193909Y-2553364D01*
X5178091Y-2534272D02*
G01*
X5180817Y-2535635D01*
X5183545Y-2538364D01*
X5184908Y-2542455D01*
X5184908Y-2545182D01*
X5183545Y-2549272D01*
X5180817Y-2551999D01*
X5178091Y-2553364D01*
X5173999Y-2553364D01*
X5171273Y-2551999D01*
X5168545Y-2549272D01*
X5167182Y-2545182D01*
X5167182Y-2542455D01*
X5168545Y-2538364D01*
X5171273Y-2535635D01*
X5173999Y-2534272D01*
X5178091Y-2534272D01*
X5158181Y-2541091D02*
G01*
X5133635Y-2541091D01*
X5113726Y-2524726D02*
G01*
X5124636Y-2553364D01*
X5113726Y-2524726D02*
G01*
X5102817Y-2553364D01*
X5120545Y-2543818D02*
G01*
X5106908Y-2543818D01*
X5465000Y-2124272D02*
G01*
X5465000Y-2143364D01*
X5465000Y-2132455D02*
G01*
X5463635Y-2128364D01*
X5460909Y-2125635D01*
X5458181Y-2124272D01*
X5454090Y-2124272D01*
X5443726Y-2121545D02*
G01*
X5443726Y-2120182D01*
X5442363Y-2117455D01*
X5441000Y-2116091D01*
X5438272Y-2114726D01*
X5432817Y-2114726D01*
X5430091Y-2116091D01*
X5428726Y-2117455D01*
X5427363Y-2120182D01*
X5427363Y-2122908D01*
X5428726Y-2125635D01*
X5431454Y-2129726D01*
X5445091Y-2143364D01*
X5426000Y-2143364D01*
X5408818Y-2114726D02*
G01*
X5412909Y-2116091D01*
X5415636Y-2120182D01*
X5416999Y-2126999D01*
X5416999Y-2131091D01*
X5415636Y-2137908D01*
X5412909Y-2141999D01*
X5408818Y-2143364D01*
X5406090Y-2143364D01*
X5401999Y-2141999D01*
X5399273Y-2137908D01*
X5397909Y-2131091D01*
X5397909Y-2126999D01*
X5399273Y-2120182D01*
X5401999Y-2116091D01*
X5406090Y-2114726D01*
X5408818Y-2114726D01*
X5387545Y-2121545D02*
G01*
X5387545Y-2120182D01*
X5386181Y-2117455D01*
X5384817Y-2116091D01*
X5382091Y-2114726D01*
X5376635Y-2114726D01*
X5373909Y-2116091D01*
X5372545Y-2117455D01*
X5371181Y-2120182D01*
X5371181Y-2122908D01*
X5372545Y-2125635D01*
X5375272Y-2129726D01*
X5388909Y-2143364D01*
X5369817Y-2143364D01*
X5360817Y-2120182D02*
G01*
X5358091Y-2118818D01*
X5353999Y-2114726D01*
X5353999Y-2143364D01*
M02*
